G04 EasyPC Gerber Version 21.0.3 Build 4286 *
G04 #@! TF.Part,Single*
G04 #@! TF.FileFunction,Copper,L5,Inr *
G04 #@! TF.FilePolarity,Positive *
%FSLAX35Y35*%
%MOIN*%
%ADD10C,0.00001*%
%ADD18C,0.00600*%
%ADD70C,0.01200*%
G04 #@! TA.AperFunction,ViaPad*
%ADD12C,0.01700*%
%ADD14C,0.02000*%
%ADD13C,0.02600*%
%ADD15C,0.03400*%
G04 #@! TA.AperFunction,WasherPad*
%ADD11C,0.05500*%
X0Y0D02*
D02*
D10*
X63284Y41250D02*
G75*
G03X58284Y46250I-5000D01*
G01*
G75*
G02X56284Y48250J2000*
G01*
Y65750*
X38784*
G75*
G02X36784Y67750J2000*
G01*
G75*
G03X26784I-5000*
G01*
G75*
G02X24784Y65750I-2000*
G01*
X7784*
Y48250*
G75*
G02X5784Y46250I-2000*
G01*
X5284*
G75*
G03X250Y41216J-5034*
G01*
Y41216*
Y41215*
G75*
G03X5284Y36181I5034*
G01*
X5353*
G75*
G02X7784Y33750J-2431*
G01*
Y250*
X56284*
Y34250*
G75*
G02X58284Y36250I2000*
G01*
G75*
G03X63284Y41250J5000*
G01*
X42234Y53050D02*
G75*
G02X44734I1250D01*
G01*
G75*
G02X42234I-1250*
G01*
X45984Y60750D02*
G75*
G02X49384I1700D01*
G01*
G75*
G02X45984I-1700*
G01*
X46084Y52750D02*
G75*
G02X49484I1700D01*
G01*
G75*
G02X46084I-1700*
G01*
X49784Y40750D02*
G75*
G02X53984I2100D01*
G01*
G75*
G02X49784I-2100*
G01*
X53101Y14335D02*
G75*
G02X55234Y13450I883J-885D01*
G01*
G75*
G02X52767Y13165I-1250*
G01*
G75*
G02X50634Y14050I-883J885*
G01*
G75*
G02X51963Y15298I1250*
G01*
G75*
G02X51834Y15850I1121J552*
G01*
G75*
G02X54334I1250*
G01*
G75*
G02X53006Y14602I-1250*
G01*
G75*
G02X53101Y14335I-1120J-552*
G01*
X52884Y37450D02*
G75*
G02X56284I1700D01*
G01*
G75*
G02X52884I-1700*
G01*
X54284Y19500D02*
G75*
G02X55534Y18250J-1250D01*
G01*
G75*
G02X53034I-1250*
G01*
G75*
G02X54284Y19500I1250*
G01*
X53034Y23189D02*
G75*
G02X55534I1250D01*
G01*
G75*
G02X54559Y21969I-1250*
G01*
G75*
G02X55534Y20750I-275J-1219*
G01*
G75*
G02X54284Y19500I-1250*
G01*
G75*
G02X53034Y20750J1250*
G01*
G75*
G02X54009Y21969I1250*
G01*
G75*
G02X53034Y23189I275J1219*
G01*
X51584Y58750D02*
G75*
G02X54984I1700D01*
G01*
G75*
G02X51584I-1700*
G01*
X52134Y55550D02*
G75*
G02X54634I1250D01*
G01*
G75*
G02X52134I-1250*
G01*
X55634Y41250D02*
G75*
G02X61934I3150D01*
G01*
G75*
G02X55634I-3150*
G01*
X38184Y63550D02*
G75*
G02X41584I1700D01*
G01*
G75*
G02X40516Y61972I-1700*
G01*
G75*
G02X41284Y60550I-932J-1422*
G01*
G75*
G02X37884I-1700*
G01*
G75*
G02X38952Y62128I1700*
G01*
G75*
G02X38184Y63550I932J1422*
G01*
X38334Y53050D02*
G75*
G02X40834I1250D01*
G01*
G75*
G02X38334I-1250*
G01*
X38758Y45050D02*
G75*
G03X39384Y44424I827J201D01*
G01*
Y44016*
G75*
G02X38350Y45050I200J1234*
G01*
X38758*
X38350Y45450D02*
G75*
G02X39384Y46484I1234J-200D01*
G01*
Y46076*
G75*
G03X38758Y45450I201J-827*
G01*
X38350*
X40410Y45050D02*
X40818D01*
G75*
G02X39784Y44016I-1234J200*
G01*
Y44424*
G75*
G03X40410Y45050I-201J827*
G01*
X39784Y46484D02*
G75*
G02X40818Y45450I-200J-1234D01*
G01*
X40410*
G75*
G03X39784Y46076I-827J-201*
G01*
Y46484*
X28634Y68250D02*
G75*
G02X34934I3150D01*
G01*
G75*
G02X28634I-3150*
G01*
X30234Y56950D02*
G75*
G02X32734I1250D01*
G01*
G75*
G02X30234I-1250*
G01*
X33084Y47139D02*
G75*
G02X36484I1700D01*
G01*
G75*
G02X33084I-1700*
G01*
X35619Y34198D02*
G75*
G02X36934Y32950I65J-1248D01*
G01*
G75*
G02X34434I-1250*
G01*
G75*
G02X35149Y34080I1250*
G01*
G75*
G02X33834Y35328I-65J1248*
G01*
G75*
G02X36334I1250*
G01*
G75*
G02X35619Y34198I-1250*
G01*
X36684Y42250D02*
G75*
G02X40084I1700D01*
G01*
G75*
G02X36684I-1700*
G01*
X38734Y33250D02*
G75*
G02X41234I1250D01*
G01*
G75*
G02X38734I-1250*
G01*
X44834Y25250D02*
G75*
G02X46834Y24250I750J-1000D01*
G01*
G75*
G02X45934Y23050I-1250*
G01*
G75*
G02X46834Y21850I-350J-1200*
G01*
G75*
G02X44334I-1250*
G01*
G75*
G02X45234Y23050I1250*
G01*
G75*
G02X44400Y23850I350J1200*
G01*
X42884*
G75*
G03X40284Y21250J-2600*
G01*
Y21250*
G75*
G02X38084Y19050I-2200*
G01*
X36724*
G75*
G02X36459Y19102I-1J699*
G01*
G75*
G02X37034Y18050I-675J-1052*
G01*
G75*
G02X35948Y16811I-1250*
G01*
G75*
G02X36734Y15650I-464J-1161*
G01*
G75*
G02X34234I-1250*
G01*
G75*
G02X35320Y16889I1250*
G01*
G75*
G02X34534Y18050I464J1161*
G01*
G75*
G02X34561Y18308I1250J1*
G01*
G75*
G02X31924Y17907I-1477J842*
G01*
G75*
G02X31934Y17750I-1239J-157*
G01*
G75*
G02X29434I-1250*
G01*
G75*
G02X29687Y18504I1250*
G01*
G75*
G02X28337Y19675I-103J1246*
G01*
G75*
G02X26034Y20350I-1052J675*
G01*
G75*
G02X28532Y20425I1250*
G01*
G75*
G02X30834Y19750I1052J-675*
G01*
G75*
G02X30581Y18996I-1250*
G01*
G75*
G02X31431Y18752I103J-1246*
G01*
G75*
G02X31384Y19150I1653J398*
G01*
G75*
G02X34784I1700*
G01*
G75*
G02X34729Y18720I-1700J-1*
G01*
G75*
G02X36317Y19181I1055J-670*
G01*
G75*
G02X36230Y19255I407J567*
G01*
X33894Y21590*
X30120*
G75*
G02X27834Y22290I-1035J700*
G01*
G75*
G02X30120Y22990I1250*
G01*
X34184*
G75*
G02X34679Y22785I0J-698*
G01*
X37014Y20450*
X38084*
G75*
G03X38884Y21250J800*
G01*
Y21250*
G75*
G02X42884Y25250I4000*
G01*
X44834*
X42034Y15650D02*
G75*
G02X44534I1250D01*
G01*
G75*
G02X42034I-1250*
G01*
X40434Y14350D02*
G75*
G02X41334Y13150I-350J-1200D01*
G01*
G75*
G02X38834I-1250*
G01*
G75*
G02X40434Y14350I1250*
G01*
X39534Y15550D02*
G75*
G02X42034I1250D01*
G01*
G75*
G02X40434Y14350I-1250*
G01*
G75*
G02X39534Y15550I350J1200*
G01*
X41334Y13150D02*
G75*
G02X43834I1250D01*
G01*
G75*
G02X41334I-1250*
G01*
X31434Y11950D02*
G75*
G02X33934I1250D01*
G01*
G75*
G02X31434I-1250*
G01*
X10831Y9633D02*
G75*
G02X11784Y10384I1153J-483D01*
G01*
Y9976*
G75*
G03X11158Y9350I201J-827*
G01*
X10818*
G75*
G02X8334Y9550I-1234J200*
G01*
G75*
G02X10831Y9633I1250*
G01*
X11158Y8950D02*
G75*
G03X11784Y8324I827J201D01*
G01*
Y7916*
G75*
G02X10750Y8950I200J1234*
G01*
X11158*
X8534Y15050D02*
G75*
G02X11034I1250D01*
G01*
G75*
G02X8534I-1250*
G01*
X8684Y22150D02*
G75*
G02X12884I2100D01*
G01*
G75*
G02X8684I-2100*
G01*
X12810Y8950D02*
X13218D01*
G75*
G02X12184Y7916I-1234J200*
G01*
Y8324*
G75*
G03X12810Y8950I-201J827*
G01*
X12184Y10384D02*
G75*
G02X13218Y9350I-200J-1234D01*
G01*
X12810*
G75*
G03X12184Y9976I-827J-201*
G01*
Y10384*
X51639Y6157D02*
G75*
G02X54134Y6050I1245J-107D01*
G01*
G75*
G02X51930Y5243I-1250*
G01*
G75*
G02X49934Y4350I-1245J107*
G01*
X20184*
G75*
G02X19477Y4643I-1J998*
G01*
X13707Y10413*
G75*
G02X12634Y11650I177J1237*
G01*
G75*
G02X15122Y11827I1250*
G01*
X20598Y6350*
X49934*
G75*
G02X51639Y6157I750J-1000*
G01*
X10434Y51150D02*
G75*
G02X12934I1250D01*
G01*
G75*
G02X10434I-1250*
G01*
X10884Y44050D02*
G75*
G02X13684I1400D01*
G01*
G75*
G02X10884I-1400*
G01*
X13034Y27550D02*
G75*
G02X15534I1250D01*
G01*
G75*
G02X13034I-1250*
G01*
X14834Y13250D02*
G75*
G02X17334I1250D01*
G01*
G75*
G02X14834I-1250*
G01*
X17134Y11950D02*
G75*
G02X19634I1250D01*
G01*
G75*
G02X17134I-1250*
G01*
X13134Y51350D02*
G75*
G02X15634I1250D01*
G01*
G75*
G02X13134I-1250*
G01*
X14934Y29950D02*
G75*
G02X17434I1250D01*
G01*
G75*
G02X14934I-1250*
G01*
X15834Y24550D02*
G75*
G02X18334I1250D01*
G01*
G75*
G02X15834I-1250*
G01*
X17034Y15850D02*
G75*
G02X19534I1250D01*
G01*
G75*
G02X17034I-1250*
G01*
X17134Y20150D02*
G75*
G02X19634I1250D01*
G01*
G75*
G02X17134I-1250*
G01*
X14684Y62250D02*
G75*
G02X18884I2100D01*
G01*
G75*
G02X14684I-2100*
G01*
X17734Y57050D02*
G75*
G02X20234I1250D01*
G01*
G75*
G02X17734I-1250*
G01*
X18834Y24550D02*
G75*
G02X21334I1250D01*
G01*
G75*
G02X18834I-1250*
G01*
X19734Y12550D02*
G75*
G02X22234I1250D01*
G01*
G75*
G02X19734I-1250*
G01*
X35829Y26318D02*
G75*
G02X36634Y25150I-444J-1169D01*
G01*
G75*
G02X34134I-1250*
G01*
G75*
G02X34429Y25956I1250*
G01*
G75*
G03X33284Y26550I-1145J-807*
G01*
X31584*
G75*
G02X20784Y37350J10800*
G01*
Y56815*
G75*
G02X20234Y57850I700J1035*
G01*
G75*
G02X22734I1250*
G01*
G75*
G02X22184Y56815I-1250*
G01*
Y37350*
G75*
G03X31584Y27950I9400*
G01*
X33284*
G75*
G02X35829Y26318J-2800*
G01*
X35334Y22750D02*
G75*
G02X37834I1250D01*
G01*
G75*
G02X35334I-1250*
G01*
X24162Y24250D02*
G75*
G02X27562I1700D01*
G01*
G75*
G02X24162I-1700*
G01*
X25334Y11950D02*
G75*
G02X27834I1250D01*
G01*
G75*
G02X25334I-1250*
G01*
X25585Y58198D02*
G75*
G02X28984Y58150I1699J-48D01*
G01*
G75*
G02X25631Y57756I-1700*
G01*
G75*
G02X23134Y57850I-1246J94*
G01*
G75*
G02X25585Y58198I1250*
G01*
X26334Y49450D02*
G75*
G02X28834I1250D01*
G01*
G75*
G02X26334I-1250*
G01*
X27384Y44050D02*
G75*
G02X30784I1700D01*
G01*
G75*
G02X27384I-1700*
G01*
X30534Y29350D02*
G75*
G02X33034I1250D01*
G01*
G75*
G02X30534I-1250*
G01*
X27534Y47139D02*
G75*
G02X30034I1250D01*
G01*
G75*
G02X27534I-1250*
G01*
X1634Y41250D02*
G75*
G02X7934I3150D01*
G01*
G75*
G02X1634I-3150*
G01*
X56284Y8433D02*
G36*
X18515D01*
X20598Y6350*
X49934*
G75*
G02X51639Y6157I750J-1000*
G01*
G75*
G02X54134Y6050I1245J-107*
G01*
G75*
G02X51930Y5243I-1250*
G01*
G75*
G02X49934Y4350I-1245J107*
G01*
X20184*
G75*
G02X19477Y4643I-1J998*
G01*
X15687Y8433*
X13008*
G75*
G02X12184Y7916I-1024J717*
G01*
Y8324*
G75*
G03X12440Y8433I-201J827*
G01*
X11528*
G75*
G03X11784Y8324I457J718*
G01*
Y7916*
G75*
G02X10960Y8433I200J1234*
G01*
X10146*
G75*
G02X9023I-561J1117*
G01*
X7784*
Y250*
X56284*
Y8433*
G37*
Y9550D02*
G36*
X17398D01*
X18515Y8433*
X56284*
Y9550*
G37*
X8334D02*
G36*
X7784D01*
Y8433*
X9023*
G75*
G02X8334Y9550I561J1117*
G01*
G37*
X15687Y8433D02*
G36*
X14570Y9550D01*
X13169*
G75*
G02X13218Y9350I-1184J-400*
G01*
X12810*
G75*
G03X12734Y9550I-827J-201*
G01*
X11235*
G75*
G03X11158Y9350I751J-401*
G01*
X10818*
G75*
G02X10146Y8433I-1234J200*
G01*
X10960*
G75*
G02X10750Y8950I1024J717*
G01*
X11158*
G75*
G03X11528Y8433I827J201*
G01*
X12440*
G75*
G03X12810Y8950I-457J718*
G01*
X13218*
G75*
G02X13008Y8433I-1234J200*
G01*
X15687*
G37*
X56284Y13150D02*
G36*
X55198D01*
G75*
G02X52771I-1213J300*
G01*
X52752*
G75*
G02X51017I-868J900*
G01*
X43834*
G75*
G02X41334I-1250*
G01*
G75*
G02X38834I-1250*
G01*
X33034*
G75*
G02X33934Y11950I-350J-1200*
G01*
G75*
G02X31434I-1250*
G01*
G75*
G02X32334Y13150I1250*
G01*
X26934*
G75*
G02X27834Y11950I-350J-1200*
G01*
G75*
G02X25334I-1250*
G01*
G75*
G02X26234Y13150I1250*
G01*
X22081*
G75*
G02X22234Y12550I-1096J-600*
G01*
G75*
G02X19734I-1250*
G01*
G75*
G02X19888Y13150I1250J0*
G01*
X18734*
G75*
G02X19634Y11950I-350J-1200*
G01*
G75*
G02X17134I-1250*
G01*
G75*
G02X18034Y13150I1250*
G01*
X17330*
G75*
G02X14838I-1246J100*
G01*
X7784*
Y9550*
X8334*
G75*
G02X10831Y9633I1250*
G01*
G75*
G02X11784Y10384I1152J-482*
G01*
Y9976*
G75*
G03X11235Y9550I201J-827*
G01*
X12734*
G75*
G03X12184Y9976I-751J-401*
G01*
Y10384*
G75*
G02X13169Y9550I-200J-1234*
G01*
X14570*
X13707Y10413*
G75*
G02X12634Y11650I177J1237*
G01*
G75*
G02X15122Y11827I1250*
G01*
X17398Y9550*
X56284*
Y13150*
G37*
X50788Y14650D02*
G36*
X44034D01*
G75*
G02X42534I-750J1000*
G01*
X41652*
G75*
G02X40434Y14350I-867J900*
G01*
G75*
G02X39917Y14650I350J1200*
G01*
X36234*
G75*
G02X34734I-750J1000*
G01*
X18634*
G75*
G02X17934I-350J1200*
G01*
X10969*
G75*
G02X8600I-1184J400*
G01*
X7784*
Y13150*
X14838*
G75*
G02X14834Y13250I1246J99*
G01*
G75*
G02X17334I1250*
G01*
G75*
G02X17330Y13150I-1250J-1*
G01*
X18034*
G75*
G02X18734I350J-1200*
G01*
X19888*
G75*
G02X22081I1096J-600*
G01*
X26234*
G75*
G02X26934I350J-1200*
G01*
X32334*
G75*
G02X33034I350J-1200*
G01*
X38834*
G75*
G02X40434Y14350I1250*
G01*
G75*
G02X41334Y13150I-350J-1200*
G01*
G75*
G02X43834I1250*
G01*
X51017*
G75*
G02X50634Y14050I868J900*
G01*
G75*
G02X50788Y14650I1250J0*
G01*
G37*
X53633D02*
G36*
X53435D01*
G75*
G02X53006Y14602I-350J1200*
G01*
G75*
G02X53101Y14335I-1121J-552*
G01*
G75*
G02X53633Y14650I883J-885*
G01*
G37*
X52771Y13150D02*
G36*
G75*
G02X52767Y13165I1214J295D01*
G01*
G75*
G02X52752Y13150I-883J891*
G01*
X52771*
G37*
X56284Y14650D02*
G36*
X54335D01*
G75*
G02X55234Y13450I-351J-1200*
G01*
G75*
G02X55198Y13150I-1250J0*
G01*
X56284*
Y14650*
G37*
Y18250D02*
G36*
X55534D01*
G75*
G02X53034I-1250*
G01*
X37018*
G75*
G02X37034Y18050I-1233J-200*
G01*
Y18050*
Y18050*
G75*
G02X35948Y16811I-1250*
G01*
G75*
G02X36734Y15650I-463J-1161*
G01*
G75*
G02X36234Y14650I-1250*
G01*
X39917*
G75*
G02X39534Y15550I867J900*
G01*
G75*
G02X42034I1250*
G01*
G75*
G02X41652Y14650I-1250*
G01*
X42534*
G75*
G02X42034Y15650I750J1000*
G01*
G75*
G02X44534I1250*
G01*
G75*
G02X44034Y14650I-1250*
G01*
X50788*
G75*
G02X51963Y15298I1096J-600*
G01*
G75*
G02X51834Y15850I1124J553*
G01*
G75*
G02X54334I1250*
G01*
G75*
G02X53435Y14650I-1250*
G01*
X53633*
G75*
G02X54335I351J-1200*
G01*
X56284*
Y18250*
G37*
X34550D02*
G36*
X34526D01*
G75*
G02X31924Y17907I-1442J900*
G01*
G75*
G02X31934Y17753I-1198J-154*
G01*
G75*
G02Y17750I-1203J-2*
G01*
G75*
G02X29434I-1250*
G01*
Y17750*
G75*
G02X29539Y18250I1249*
G01*
X7784*
Y14650*
X8600*
G75*
G02X8534Y15050I1184J400*
G01*
G75*
G02X11034I1250*
G01*
G75*
G02X10969Y14650I-1250*
G01*
X17934*
G75*
G02X17034Y15850I350J1200*
G01*
G75*
G02X19534I1250*
G01*
G75*
G02X18634Y14650I-1250*
G01*
X34734*
G75*
G02X34234Y15650I750J1000*
G01*
Y15650*
G75*
G02X35320Y16889I1250*
G01*
G75*
G02X34534Y18050I463J1161*
G01*
Y18050*
G75*
G02X34550Y18250I1255J-1*
G01*
G37*
X56284Y20150D02*
G36*
X55381D01*
G75*
G02X54284Y19500I-1096J600*
G01*
G75*
G02X53188Y20150J1250*
G01*
X39990*
G75*
G02X38084Y19050I-1905J1100*
G01*
X36724*
G75*
G02X36459Y19102I-1J699*
G01*
G75*
G02X37018Y18250I-674J-1052*
G01*
X53034*
G75*
G02X54284Y19500I1250*
G01*
G75*
G02X55534Y18250J-1250*
G01*
X56284*
Y20150*
G37*
X31709D02*
G36*
X30769D01*
G75*
G02X30834Y19750I-1184J-400*
G01*
Y19750*
G75*
G02X30581Y18996I-1249*
G01*
G75*
G02X31431Y18752I104J-1245*
G01*
G75*
G02X31384Y19149I1647J397*
G01*
G75*
G02Y19150I2051J0*
G01*
G75*
G02X31709Y20150I1700*
G01*
G37*
X29539Y18250D02*
G36*
G75*
G02X29687Y18504I1145J-499D01*
G01*
G75*
G02X28337Y19675I-103J1246*
G01*
G75*
G02X26050Y20150I-1052J675*
G01*
X19634*
G75*
G02X17134I-1250*
G01*
X11424*
G75*
G02X10144I-640J2000*
G01*
X7784*
Y18250*
X29539*
G37*
X34550D02*
G36*
G75*
G02X34561Y18308I1238J-196D01*
G01*
G75*
G02X34526Y18250I-1477J839*
G01*
X34550*
G37*
X35335Y20150D02*
G36*
X34459D01*
G75*
G02X34784Y19150I-1375J-1000*
G01*
Y19150*
G75*
G02X34729Y18720I-1701*
G01*
G75*
G02X36317Y19181I1055J-670*
G01*
G75*
G02X36230Y19255I406J565*
G01*
X35335Y20150*
G37*
X8692Y21969D02*
G36*
X7784D01*
Y20150*
X10144*
G75*
G02X8692Y21969I640J2000*
G01*
G37*
X35335Y20150D02*
G36*
X33894Y21590D01*
X30120*
G75*
G02X27876Y21969I-1035J700*
G01*
X12876*
G75*
G02X11424Y20150I-2092J181*
G01*
X17134*
G75*
G02X19634I1250*
G01*
X26050*
G75*
G02X26034Y20350I1234J200*
G01*
G75*
G02X28532Y20425I1250*
G01*
G75*
G02X30769Y20150I1052J-675*
G01*
X31709*
G75*
G02X34459I1375J-1000*
G01*
X35335*
G37*
X38949Y21969D02*
G36*
X37561D01*
G75*
G02X35608I-976J781*
G01*
X35495*
X37014Y20450*
X38084*
G75*
G03X38884Y21250J800*
G01*
Y21250*
Y21250*
G75*
G02X38949Y21969I4000J1*
G01*
G37*
X53188Y20150D02*
G36*
G75*
G02X53034Y20750I1096J600D01*
G01*
G75*
G02X54009Y21969I1250J0*
G01*
X46829*
G75*
G02X46834Y21850I-1244J-117*
G01*
G75*
G02X44334I-1250*
G01*
G75*
G02X44340Y21969I1250J2*
G01*
X40386*
G75*
G03X40284Y21250I2499J-720*
G01*
Y21250*
Y21250*
G75*
G02X39990Y20150I-2200J0*
G01*
X53188*
G37*
X56284Y21969D02*
G36*
X54559D01*
G75*
G02X55534Y20750I-275J-1219*
G01*
Y20750*
G75*
G02X55381Y20150I-1250J0*
G01*
X56284*
Y21969*
G37*
X40624Y24550D02*
G36*
X36481D01*
G75*
G02X34288I-1096J600*
G01*
X27535*
G75*
G02X27562Y24250I-1673J-300*
G01*
G75*
G02X24162I-1700*
G01*
G75*
G02X24189Y24550I1700J0*
G01*
X21334*
G75*
G02X18834I-1250*
G01*
X18334*
G75*
G02X15834I-1250*
G01*
X7784*
Y21969*
X8692*
G75*
G02X8684Y22150I2093J182*
G01*
G75*
G02X12884I2100*
G01*
G75*
G02X12876Y21969I-2100J1*
G01*
X27876*
G75*
G02X27834Y22290I1207J320*
G01*
Y22290*
Y22291*
G75*
G02X30120Y22990I1250*
G01*
X34184*
G75*
G02X34679Y22785I0J-698*
G01*
X35495Y21969*
X35608*
G75*
G02X35334Y22750I976J780*
G01*
G75*
G02X37834I1250*
G01*
G75*
G02X37561Y21969I-1250J0*
G01*
X38949*
G75*
G02X40624Y24550I3935J-719*
G01*
G37*
X44340Y21969D02*
G36*
G75*
G02X45234Y23050I1244J-119D01*
G01*
G75*
G02X44400Y23850I350J1200*
G01*
X42884*
G75*
G03X40386Y21969I0J-2600*
G01*
X44340*
G37*
X56284Y24550D02*
G36*
X46798D01*
G75*
G02X46834Y24250I-1214J-300*
G01*
G75*
G02X45934Y23050I-1250*
G01*
G75*
G02X46829Y21969I-350J-1200*
G01*
X54009*
G75*
G02X53034Y23188I275J1219*
G01*
Y23189*
G75*
G02X55534I1250*
G01*
G75*
G02X54559Y21969I-1250J0*
G01*
X56284*
Y24550*
G37*
Y27550D02*
G36*
X34726D01*
G75*
G02X35829Y26318I-1442J-2400*
G01*
G75*
G02X36634Y25150I-444J-1168*
G01*
G75*
G02X36481Y24550I-1250J0*
G01*
X40624*
G75*
G02X42884Y25250I2260J-3300*
G01*
X44834*
G75*
G02X46798Y24550I750J-1000*
G01*
X56284*
Y27550*
G37*
X34288Y24550D02*
G36*
G75*
G02X34134Y25150I1096J600D01*
G01*
G75*
G02X34429Y25956I1250*
G01*
G75*
G03X33284Y26550I-1144J-806*
G01*
X31584*
G75*
G02X27046Y27550I1J10800*
G01*
X15534*
G75*
G02X13034I-1250*
G01*
X7784*
Y24550*
X15834*
G75*
G02X18334I1250*
G01*
X18834*
G75*
G02X21334I1250*
G01*
X24189*
G75*
G02X27535I1673J-300*
G01*
X34288*
G37*
X56284Y29950D02*
G36*
X32881D01*
G75*
G02X33034Y29350I-1096J-600*
G01*
G75*
G02X30534I-1250*
G01*
G75*
G02X30688Y29950I1250J0*
G01*
X25787*
G75*
G03X31584Y27950I5796J7400*
G01*
X33284*
G75*
G02X34726Y27550I0J-2799*
G01*
X56284*
Y29950*
G37*
X27046Y27550D02*
G36*
G75*
G02X23718Y29950I4539J9801D01*
G01*
X17434*
G75*
G02X14934I-1250*
G01*
X7784*
Y27550*
X13034*
G75*
G02X15534I1250*
G01*
X27046*
G37*
X23718Y29950D02*
G36*
G75*
G02X21273Y34139I7867J7400D01*
G01*
X7753*
G75*
G02X7784Y33750I-2400J-390*
G01*
Y29950*
X14934*
G75*
G02X17434I1250*
G01*
X23718*
G37*
X56284Y34139D02*
G36*
X40863D01*
G75*
G02X41234Y33250I-879J-889*
G01*
G75*
G02X38734I-1250*
G01*
G75*
G02X39106Y34139I1250*
G01*
X36070*
G75*
G02X36934Y32950I-386J-1189*
G01*
G75*
G02X34434I-1250*
G01*
Y32950*
G75*
G02X35149Y34080I1249*
G01*
G75*
G02X34698Y34139I-65J1248*
G01*
X22750*
G75*
G03X25787Y29950I8835J3211*
G01*
X30688*
G75*
G02X32881I1096J-600*
G01*
X56284*
Y34139*
G37*
X21273D02*
G36*
G75*
G02X20784Y37350I10313J3212D01*
G01*
Y37450*
X1943*
G75*
G03X5284Y36181I3341J3765*
G01*
X5353*
G75*
G02X7753Y34139I0J-2431*
G01*
X21273*
G37*
X61534Y37450D02*
G36*
X56284D01*
G75*
G02X52884I-1700*
G01*
X22184*
Y37350*
G75*
G03X22750Y34139I9400*
G01*
X34698*
G75*
G02X33834Y35328I386J1189*
G01*
G75*
G02X36334I1250*
G01*
Y35328*
G75*
G02X35619Y34198I-1249*
G01*
G75*
G02X36070Y34139I65J-1248*
G01*
X39106*
G75*
G02X40863I879J-889*
G01*
X56284*
Y34250*
G75*
G02X58284Y36250I2000*
G01*
G75*
G03X61534Y37450I0J5000*
G01*
G37*
X20784Y40750D02*
G36*
X7894D01*
G75*
G02X1674I-3110J500*
G01*
X272*
G75*
G03X1943Y37450I5012J465*
G01*
X20784*
Y40750*
G37*
X63259D02*
G36*
X61894D01*
G75*
G02X55674I-3110J500*
G01*
X53984*
G75*
G02X49784I-2100*
G01*
X39184*
G75*
G02X37584I-800J1500*
G01*
X22184*
Y37450*
X52884*
G75*
G02X56284I1700*
G01*
X61534*
G75*
G03X63259Y40750I-3250J3799*
G01*
G37*
X20784Y44533D02*
G36*
X13598D01*
G75*
G02X13684Y44050I-1314J-483*
G01*
G75*
G02X10884I-1400*
G01*
G75*
G02X10970Y44533I1400J0*
G01*
X1498*
G75*
G03X250Y41216I3787J-3318*
G01*
Y41216*
Y41215*
Y41214*
G75*
G03X272Y40750I5034J2*
G01*
X1674*
G75*
G02X1634Y41250I3110J499*
G01*
G75*
G02X7934I3150*
G01*
G75*
G02X7894Y40750I-3150J-1*
G01*
X20784*
Y44533*
G37*
X62056D02*
G36*
X40608D01*
G75*
G02X39784Y44016I-1024J717*
G01*
Y44424*
G75*
G03X40040Y44533I-201J827*
G01*
X39128*
G75*
G03X39384Y44424I457J718*
G01*
Y44016*
G75*
G02X38560Y44533I200J1234*
G01*
X30714*
G75*
G02X30784Y44050I-1630J-483*
G01*
G75*
G02X27384I-1700*
G01*
G75*
G02X27454Y44533I1700*
G01*
X22184*
Y40750*
X37584*
G75*
G02X36684Y42250I800J1500*
G01*
G75*
G02X40084I1700*
G01*
G75*
G02X39184Y40750I-1700*
G01*
X49784*
G75*
G02X53984I2100*
G01*
X55674*
G75*
G02X55634Y41250I3110J499*
G01*
G75*
G02X61934I3150*
G01*
G75*
G02X61894Y40750I-3150J-1*
G01*
X63259*
G75*
G03X63284Y41249I-4973J501*
G01*
Y41250*
Y41251*
G75*
G03X62056Y44533I-5000J0*
G01*
G37*
X20784Y45967D02*
G36*
X3620D01*
G75*
G03X1498Y44533I1665J-4752*
G01*
X10970*
G75*
G02X13598I1314J-483*
G01*
X20784*
Y45967*
G37*
X59943D02*
G36*
X40608D01*
G75*
G02X40818Y45450I-1024J-717*
G01*
X40410*
G75*
G03X40040Y45967I-827J-201*
G01*
X39128*
G75*
G03X38758Y45450I457J-718*
G01*
X38350*
G75*
G02X38560Y45967I1234J-200*
G01*
X36016*
G75*
G02X33553I-1231J1172*
G01*
X29219*
G75*
G02X28350I-435J1172*
G01*
X22184*
Y44533*
X27454*
G75*
G02X30714I1630J-483*
G01*
X38560*
G75*
G02X38350Y45050I1024J717*
G01*
X38758*
G75*
G03X39128Y44533I827J201*
G01*
X40040*
G75*
G03X40410Y45050I-457J718*
G01*
X40818*
G75*
G02X40608Y44533I-1234J200*
G01*
X62056*
G75*
G03X59943Y45967I-3771J-3283*
G01*
G37*
X20784Y49450D02*
G36*
X7784D01*
Y48250*
G75*
G02X5784Y46250I-2000*
G01*
X5284*
G75*
G03X3620Y45967I0J-5035*
G01*
X20784*
Y49450*
G37*
X56284D02*
G36*
X28834D01*
G75*
G02X26334I-1250*
G01*
X22184*
Y45967*
X28350*
G75*
G02X27534Y47139I435J1172*
G01*
G75*
G02X30034I1250*
G01*
G75*
G02X29219Y45967I-1250*
G01*
X33553*
G75*
G02X33084Y47139I1231J1172*
G01*
G75*
G02X36484I1700*
G01*
G75*
G02X36016Y45967I-1700*
G01*
X38560*
G75*
G02X39384Y46484I1024J-717*
G01*
Y46076*
G75*
G03X39128Y45967I201J-827*
G01*
X40040*
G75*
G03X39784Y46076I-457J-718*
G01*
Y46484*
G75*
G02X40608Y45967I-200J-1234*
G01*
X59943*
G75*
G03X58284Y46250I-1658J-4717*
G01*
G75*
G02X56284Y48250J2000*
G01*
Y49450*
G37*
Y51150D02*
G36*
X48359D01*
G75*
G02X47210I-574J1600*
G01*
X22184*
Y49450*
X26334*
G75*
G02X28834I1250*
G01*
X56284*
Y51150*
G37*
X20784D02*
G36*
X15618D01*
G75*
G02X13150I-1234J200*
G01*
X12934*
G75*
G02X10434I-1250*
G01*
X7784*
Y49450*
X20784*
Y51150*
G37*
Y53050D02*
G36*
X7784D01*
Y51150*
X10434*
G75*
G02X12934I1250*
G01*
X13150*
G75*
G02X13134Y51350I1234J200*
G01*
G75*
G02X15634I1250*
G01*
G75*
G02X15618Y51150I-1250J0*
G01*
X20784*
Y53050*
G37*
X46111D02*
G36*
X44734D01*
G75*
G02X42234I-1250*
G01*
X40834*
G75*
G02X38334I-1250*
G01*
X22184*
Y51150*
X47210*
G75*
G02X46084Y52750I574J1600*
G01*
G75*
G02X46111Y53050I1700J0*
G01*
G37*
X56284D02*
G36*
X49457D01*
G75*
G02X49484Y52750I-1673J-300*
G01*
G75*
G02X48359Y51150I-1700*
G01*
X56284*
Y53050*
G37*
Y55550D02*
G36*
X54634D01*
G75*
G02X52134I-1250*
G01*
X22184*
Y53050*
X38334*
G75*
G02X40834I1250*
G01*
X42234*
G75*
G02X44734I1250*
G01*
X46111*
G75*
G02X49457I1673J-300*
G01*
X56284*
Y55550*
G37*
X20784D02*
G36*
X7784D01*
Y53050*
X20784*
Y55550*
G37*
X56284Y56950D02*
G36*
X32734D01*
G75*
G02X30234I-1250*
G01*
X28488*
G75*
G02X26080I-1204J1200*
G01*
X25252*
G75*
G02X23517I-868J900*
G01*
X22352*
G75*
G02X22184Y56815I-867J900*
G01*
Y55550*
X52134*
G75*
G02X54634I1250*
G01*
X56284*
Y56950*
G37*
X20617D02*
G36*
X20230D01*
G75*
G02X17738I-1246J100*
G01*
X7784*
Y55550*
X20784*
Y56815*
G75*
G02X20617Y56950I700J1036*
G01*
G37*
X56284Y58750D02*
G36*
X54984D01*
G75*
G02X51584I-1700*
G01*
X28875*
G75*
G02X28984Y58150I-1591J-600*
G01*
G75*
G02X28488Y56950I-1700J0*
G01*
X30234*
G75*
G02X32734I1250*
G01*
X56284*
Y58750*
G37*
X20617D02*
G36*
X7784D01*
Y56950*
X17738*
G75*
G02X17734Y57050I1246J99*
G01*
G75*
G02X20234I1250*
G01*
G75*
G02X20230Y56950I-1250J-1*
G01*
X20617*
G75*
G02X20234Y57850I867J900*
G01*
G75*
G02X20617Y58750I1250*
G01*
G37*
X23517D02*
G36*
X22352D01*
G75*
G02X22734Y57850I-867J-900*
G01*
G75*
G02X22352Y56950I-1250*
G01*
X23517*
G75*
G02X23134Y57850I868J900*
G01*
G75*
G02X23517Y58750I1250*
G01*
G37*
X26080Y56950D02*
G36*
G75*
G02X25631Y57756I1204J1200D01*
G01*
G75*
G02X25252Y56950I-1246J94*
G01*
X26080*
G37*
X25694Y58750D02*
G36*
X25252D01*
G75*
G02X25585Y58198I-868J-900*
G01*
G75*
G02X25694Y58750I1699J-47*
G01*
G37*
X56284Y60750D02*
G36*
X49384D01*
G75*
G02X45984I-1700*
G01*
X41272*
G75*
G02X41284Y60550I-1688J-200*
G01*
G75*
G02X37884I-1700*
G01*
G75*
G02X37896Y60750I1701*
G01*
X18254*
G75*
G02X15315I-1470J1500*
G01*
X7784*
Y58750*
X20617*
G75*
G02X22352I867J-900*
G01*
X23517*
G75*
G02X25252I868J-900*
G01*
X25694*
G75*
G02X28875I1591J-600*
G01*
X51584*
G75*
G02X54984I1700*
G01*
X56284*
Y60750*
G37*
X36759Y68250D02*
G36*
X34934D01*
G75*
G02X28634I-3150*
G01*
X26809*
G75*
G03X26784Y67750I4975J-501*
G01*
G75*
G02X24784Y65750I-2000*
G01*
X7784*
Y60750*
X15315*
G75*
G02X14684Y62250I1470J1500*
G01*
G75*
G02X18884I2100*
G01*
G75*
G02X18254Y60750I-2100*
G01*
X37896*
G75*
G02X38952Y62128I1689J-200*
G01*
G75*
G02X38184Y63550I932J1422*
G01*
G75*
G02X41584I1700*
G01*
G75*
G02X40516Y61972I-1701J0*
G01*
G75*
G02X41272Y60750I-932J-1422*
G01*
X45984*
G75*
G02X49384I1700*
G01*
X56284*
Y65750*
X38784*
G75*
G02X36784Y67750J2000*
G01*
G75*
G03X36759Y68250I-5000J-1*
G01*
G37*
X31784Y72750D02*
G36*
G75*
G03X26809Y68250J-5000D01*
G01*
X28634*
G75*
G02X34934I3150*
G01*
X36759*
G75*
G03X31784Y72750I-4975J-500*
G01*
G37*
D02*
D11*
X4784Y41250D03*
X31784Y68250D03*
X58784Y41250D03*
D02*
D12*
X9584Y9550D03*
X9784Y15050D03*
X11684Y51150D03*
X11984Y9150D03*
X13884Y11650D03*
X14284Y27550D03*
X14384Y51350D03*
X16084Y13250D03*
X16184Y29950D03*
X17084Y24550D03*
X18284Y15850D03*
X18384Y11950D03*
Y20150D03*
X18984Y57050D03*
X20084Y24550D03*
X20984Y12550D03*
X21484Y57850D03*
X24384D03*
X26584Y11950D03*
X27284Y20350D03*
X27584Y49450D03*
X28784Y47139D03*
X29084Y22290D03*
X29584Y19750D03*
X30684Y17750D03*
X31484Y56950D03*
X31784Y29350D03*
X32684Y11950D03*
X35084Y35328D03*
X35384Y25150D03*
X35484Y15650D03*
X35684Y32950D03*
X35784Y18050D03*
X36584Y22750D03*
X39584Y45250D03*
Y53050D03*
X39984Y33250D03*
X40084Y13150D03*
X40784Y15550D03*
X42584Y13150D03*
X43284Y15650D03*
X43484Y53050D03*
X45584Y21850D03*
Y24250D03*
X50684Y5350D03*
X51884Y14050D03*
X52884Y6050D03*
X53084Y15850D03*
X53384Y55550D03*
X53984Y13450D03*
X54284Y18250D03*
Y20750D03*
Y23189D03*
D02*
D13*
X25862Y24250D03*
X27284Y58150D03*
X29084Y44050D03*
X33084Y19150D03*
X34784Y47139D03*
X38384Y42250D03*
X39584Y60550D03*
X39884Y63550D03*
X47684Y60750D03*
X47784Y52750D03*
X53284Y58750D03*
X54584Y37450D03*
D02*
D14*
X12284Y44050D03*
D02*
D15*
X10784Y22150D03*
X16784Y62250D03*
X51884Y40750D03*
D02*
D18*
X21484Y57850D02*
Y37350D01*
G75*
G03X31584Y27250I10100*
G01*
X33284*
G75*
G02X35384Y25150J-2100*
G01*
X29084Y22290D02*
Y22450D01*
Y22290D02*
X34184D01*
X36724Y19750*
X38084*
G75*
G03X39584Y21250J1500*
G01*
G75*
G02X42884Y24550I3300*
G01*
X45284*
G75*
G02X45584Y24250J-300*
G01*
X45284Y24550D02*
X45584Y24250D01*
D02*
D70*
X50684Y5350D02*
X20184D01*
X13884Y11650*
X0Y0D02*
M02*
