G04 EasyPC Gerber Version 21.0.3 Build 4286 *
G04 #@! TF.Part,Single*
G04 #@! TF.FileFunction,Soldermask,Top *
G04 #@! TF.FilePolarity,Negative *
%FSLAX35Y35*%
%MOIN*%
G04 #@! TA.AperFunction,SMDPad*
%ADD154R,0.01387X0.01781*%
%ADD124R,0.01800X0.01800*%
%ADD152R,0.01978X0.04734*%
%ADD158R,0.02962X0.04931*%
%ADD90R,0.03000X0.04100*%
%ADD161R,0.03100X0.07600*%
%ADD157R,0.03100X0.09600*%
%ADD160R,0.05100X0.07600*%
%ADD153R,0.07687X0.07687*%
G04 #@! TA.AperFunction,WasherPad*
%ADD150C,0.06100*%
G04 #@! TA.AperFunction,SMDPad*
%ADD155R,0.01781X0.01387*%
%ADD151R,0.04734X0.01978*%
%ADD159R,0.06584X0.02096*%
%ADD89R,0.03000X0.02600*%
%ADD127R,0.04734X0.02765*%
%ADD123R,0.04100X0.03000*%
%ADD156R,0.08474X0.05128*%
X0Y0D02*
D02*
D89*
X10184Y25850D03*
Y29850D03*
Y41750D03*
Y45750D03*
D02*
D90*
X41984Y40750D03*
X47984D03*
D02*
D123*
X15284Y15850D03*
Y21850D03*
D02*
D124*
X11884Y12300D03*
Y14700D03*
X41984Y61450D03*
Y63850D03*
X54284Y51000D03*
Y53400D03*
D02*
D127*
X12166Y54010D03*
Y57750D03*
Y61490D03*
X21866Y14810D03*
Y18550D03*
Y22290D03*
X22402Y54010D03*
Y61490D03*
X32102Y14810D03*
Y22290D03*
X42866Y2810D03*
Y6550D03*
Y10290D03*
X53102Y2810D03*
Y10290D03*
D02*
D150*
X4784Y41250D03*
X31784Y68250D03*
X58784Y41250D03*
D02*
D151*
X14804Y32411D03*
Y34970D03*
Y37530D03*
Y40089D03*
X29765Y32411D03*
Y34970D03*
Y37530D03*
Y40089D03*
D02*
D152*
X18446Y28770D03*
Y43730D03*
X21005Y28770D03*
Y43730D03*
X23564Y28770D03*
Y43730D03*
X26123Y28770D03*
Y43730D03*
D02*
D153*
X22284Y36250D03*
D02*
D154*
X9195Y16962D03*
Y19262D03*
X9895Y48862D03*
X10573Y16962D03*
Y19262D03*
X11273Y48862D03*
X33795Y37738D03*
X35173D03*
X52695Y61138D03*
X54073D03*
D02*
D155*
X9772Y12261D03*
Y13639D03*
X10472Y36161D03*
Y37539D03*
X15272Y48161D03*
Y49539D03*
X17972Y48161D03*
Y49539D03*
X20996Y48161D03*
Y49539D03*
X23672Y48161D03*
Y49539D03*
X27272Y52561D03*
Y53939D03*
X34496Y28361D03*
Y29739D03*
X36572Y43661D03*
Y45039D03*
X44096Y62561D03*
Y63939D03*
X46196Y62561D03*
Y63939D03*
X54296Y46661D03*
Y48039D03*
X54572Y28961D03*
Y30339D03*
D02*
D156*
X32984Y51822D03*
Y60878D03*
D02*
D157*
X24418Y5738D03*
X28918D03*
X33418D03*
X37918D03*
D02*
D158*
X42341Y45935D03*
Y56959D03*
X46081Y45935D03*
X49821D03*
Y56959D03*
D02*
D159*
X40974Y18149D03*
Y20669D03*
Y23189D03*
Y25708D03*
Y28228D03*
Y30748D03*
X49990Y18149D03*
Y20669D03*
Y23189D03*
Y25708D03*
Y28228D03*
Y30748D03*
D02*
D160*
X10884Y4750D03*
D02*
D161*
X15884D03*
X19884D03*
X0Y0D02*
M02*
