G04 EasyPC Gerber Version 21.0.3 Build 4286 *
G04 #@! TF.Part,Single*
G04 #@! TF.FileFunction,Other,NM-CAM9V022I2C - Top Documentation *
G04 #@! TF.FilePolarity,Positive *
%FSLAX35Y35*%
%MOIN*%
%ADD129C,0.00197*%
%ADD130C,0.00200*%
%ADD106C,0.00300*%
%ADD132C,0.00315*%
%ADD131C,0.00400*%
%ADD24C,0.00500*%
X0Y0D02*
D02*
D24*
X9272Y13850D02*
X10272D01*
Y12050*
X9272*
Y13850*
X9972Y37750D02*
X10972D01*
Y35950*
X9972*
Y37750*
X10784Y17462D02*
Y16462D01*
X8984*
Y17462*
X10784*
Y19762D02*
Y18762D01*
X8984*
Y19762*
X10784*
X11484Y49362D02*
Y48362D01*
X9684*
Y49362*
X11484*
X12484Y12500D02*
X11184D01*
Y14500*
X12484*
Y12500*
X14772Y49750D02*
X15772D01*
Y47950*
X14772*
Y49750*
X17472D02*
X18472D01*
Y47950*
X17472*
Y49750*
X21496Y47950D02*
X20496D01*
Y49750*
X21496*
Y47950*
X23172Y49750D02*
X24172D01*
Y47950*
X23172*
Y49750*
X26772Y54150D02*
X27772D01*
Y52350*
X26772*
Y54150*
X33584Y37238D02*
Y38238D01*
X35384*
Y37238*
X33584*
X34996Y28150D02*
X33996D01*
Y29950*
X34996*
Y28150*
X36072Y45250D02*
X37072D01*
Y43450*
X36072*
Y45250*
X38966Y15944D02*
X51565D01*
Y33267*
X38966*
Y15944*
X42484Y61650D02*
X41484D01*
Y63650*
X42484*
Y61650*
X44596Y62350D02*
X43596D01*
Y64150*
X44596*
Y62350*
X46696D02*
X45696D01*
Y64150*
X46696*
Y62350*
X51987Y43573D02*
X40176D01*
Y59124*
X51987*
Y43573*
X52484Y60638D02*
Y61638D01*
X54284*
Y60638*
X52484*
X54072Y30550D02*
X55072D01*
Y28750*
X54072*
Y30550*
X54796Y46450D02*
X53796D01*
Y48250*
X54796*
Y46450*
X54884Y51200D02*
X53584D01*
Y53200*
X54884*
Y51200*
D02*
D106*
X11934Y9550D02*
Y11550D01*
X12934Y10550D02*
X10934D01*
X12584Y6263D02*
Y4575D01*
X12772Y4200*
X13147Y4013*
X13897*
X14272Y4200*
X14459Y4575*
Y6263*
X17084Y4013D02*
X15584D01*
X16897Y5325*
X17084Y5700*
X16897Y6075*
X16522Y6263*
X15959*
X15584Y6075*
X13547Y56713D02*
X14297D01*
X13922D02*
Y58963D01*
X13547D02*
X14297D01*
X17859Y57087D02*
X17672Y56900D01*
X17297Y56713*
X16734*
X16359Y56900*
X16172Y57087*
X15984Y57463*
Y58213*
X16172Y58587*
X16359Y58775*
X16734Y58963*
X17297*
X17672Y58775*
X17859Y58587*
X18984Y57275D02*
X19172Y57650D01*
X19547Y57837*
X19922*
X20297Y57650*
X20484Y57275*
X20297Y56900*
X19922Y56713*
X19547*
X19172Y56900*
X18984Y57275*
Y57837*
X19172Y58400*
X19547Y58775*
X19922Y58963*
X18347Y36813D02*
X19097D01*
X18722D02*
Y39063D01*
X18347D02*
X19097D01*
X22659Y37187D02*
X22472Y37000D01*
X22097Y36813*
X21534*
X21159Y37000*
X20972Y37187*
X20784Y37563*
Y38313*
X20972Y38687*
X21159Y38875*
X21534Y39063*
X22097*
X22472Y38875*
X22659Y38687*
X23784Y37000D02*
X24159Y36813D01*
X24722*
X25097Y37000*
X25284Y37375*
Y37563*
X25097Y37937*
X24722Y38125*
X23784*
Y39063*
X25284*
X23047Y19113D02*
X23797D01*
X23422D02*
Y21363D01*
X23047D02*
X23797D01*
X27359Y19487D02*
X27172Y19300D01*
X26797Y19113*
X26234*
X25859Y19300*
X25672Y19487*
X25484Y19863*
Y20613*
X25672Y20987*
X25859Y21175*
X26234Y21363*
X26797*
X27172Y21175*
X27359Y20987*
X29422Y19113D02*
Y21363D01*
X28484Y19863*
X29984*
X29284Y9863D02*
Y8175D01*
X29472Y7800*
X29847Y7613*
X30597*
X30972Y7800*
X31159Y8175*
Y9863*
X32472Y7800D02*
X32847Y7613D01*
X33222*
X33597Y7800*
X33784Y8175*
X33597Y8550*
X33222Y8737*
X32847*
X33222D02*
X33597Y8925D01*
X33784Y9300*
X33597Y9675*
X33222Y9863*
X32847*
X32472Y9675*
X31572Y54550D02*
X33822D01*
Y56425*
X32697Y58113D02*
Y58487D01*
X32509Y58863*
X32134Y59050*
X31759Y58863*
X31572Y58487*
Y58113*
X31759Y57737*
X32134Y57550*
X32509Y57737*
X32697Y58113*
X32884Y57737*
X33259Y57550*
X33634Y57737*
X33822Y58113*
Y58487*
X33634Y58863*
X33259Y59050*
X32884Y58863*
X32697Y58487*
X44047Y7113D02*
X44797D01*
X44422D02*
Y9363D01*
X44047D02*
X44797D01*
X48359Y7487D02*
X48172Y7300D01*
X47797Y7113*
X47234*
X46859Y7300*
X46672Y7487*
X46484Y7863*
Y8613*
X46672Y8987*
X46859Y9175*
X47234Y9363*
X47797*
X48172Y9175*
X48359Y8987*
X49672Y7300D02*
X50047Y7113D01*
X50422*
X50797Y7300*
X50984Y7675*
X50797Y8050*
X50422Y8237*
X50047*
X50422D02*
X50797Y8425D01*
X50984Y8800*
X50797Y9175*
X50422Y9363*
X50047*
X49672Y9175*
X47084Y20481D02*
X47271Y20293D01*
X47459Y19919*
Y19356*
X47271Y18981*
X47084Y18793*
X46709Y18606*
X45959*
X45584Y18793*
X45396Y18981*
X45209Y19356*
Y19919*
X45396Y20293*
X45584Y20481*
X46709Y21606D02*
X45959D01*
X45584Y21793*
X45396Y21981*
X45209Y22356*
Y22731*
X45396Y23106*
X45584Y23293*
X45959Y23481*
X46709*
X47084Y23293*
X47271Y23106*
X47459Y22731*
Y22356*
X47271Y21981*
X47084Y21793*
X46709Y21606*
X47459Y24606D02*
X45209D01*
X47459Y26481*
X45209*
X47459Y27606D02*
X45209D01*
X47459Y29481*
X45209*
X54334Y48250D02*
Y50250D01*
X55334Y49250D02*
X53334D01*
D02*
D129*
X9115Y64443D02*
X25454D01*
Y51057*
X9115*
Y64443*
X11851Y46683D02*
X32717D01*
Y25817*
X11851*
Y46683*
X18815Y25243D02*
X35154D01*
Y11857*
X18815*
Y25243*
X28063Y48574D02*
Y64126D01*
X37906*
Y48574*
X28063*
X39815Y13243D02*
X56154D01*
Y-143*
X39815*
Y13243*
D02*
D130*
X7447Y44925D02*
X7334Y45037D01*
X7222Y45263*
Y45600*
X7334Y45825*
X7447Y45937*
X7672Y46050*
X8122*
X8347Y45937*
X8459Y45825*
X8572Y45600*
Y45263*
X8459Y45037*
X8347Y44925*
X7222Y44025D02*
Y43575D01*
Y43800D02*
X8572D01*
X8347Y44025*
X7334Y42337D02*
X7222Y42113D01*
Y41887*
X7334Y41663*
X7559Y41550*
X8234*
X8459Y41663*
X8572Y41887*
Y42113*
X8459Y42337*
X8234Y42450*
X7559*
X7334Y42337*
X8459Y41663*
X8922Y36575D02*
X9034Y36463D01*
X9147Y36237*
Y35900*
X9034Y35675*
X8922Y35563*
X8697Y35450*
X8247*
X8022Y35563*
X7909Y35675*
X7797Y35900*
Y36237*
X7909Y36463*
X8022Y36575*
X8809Y37250D02*
X8584Y37363D01*
X8472Y37587*
Y37813*
X8584Y38037*
X8809Y38150*
X9034Y38037*
X9147Y37813*
Y37587*
X9034Y37363*
X8809Y37250*
X8472*
X8134Y37363*
X7909Y37587*
X7797Y37813*
X10547Y8650D02*
X9197D01*
Y9437*
X9309Y9663*
X9534Y9775*
X9759Y9663*
X9872Y9437*
Y8650*
Y9437D02*
X10547Y9775D01*
Y11350D02*
Y10450D01*
X9759Y11237*
X9534Y11350*
X9309Y11237*
X9197Y11013*
Y10675*
X9309Y10450*
X9609Y20713D02*
X9497Y20600D01*
X9272Y20487*
X8934*
X8709Y20600*
X8597Y20713*
X8484Y20937*
Y21387*
X8597Y21613*
X8709Y21725*
X8934Y21837*
X9272*
X9497Y21725*
X9609Y21613*
X11184Y20487D02*
X10284D01*
X11072Y21275*
X11184Y21500*
X11072Y21725*
X10847Y21837*
X10509*
X10284Y21725*
X12197Y20600D02*
X12422Y20487D01*
X12647*
X12872Y20600*
X12984Y20825*
X12872Y21050*
X12647Y21163*
X12422*
X12647D02*
X12872Y21275D01*
X12984Y21500*
X12872Y21725*
X12647Y21837*
X12422*
X12197Y21725*
X10622Y31375D02*
X10734Y31263D01*
X10847Y31037*
Y30700*
X10734Y30475*
X10622Y30363*
X10397Y30250*
X9947*
X9722Y30363*
X9609Y30475*
X9497Y30700*
Y31037*
X9609Y31263*
X9722Y31375*
X10847Y32950D02*
Y32050D01*
X10059Y32837*
X9834Y32950*
X9609Y32837*
X9497Y32613*
Y32275*
X9609Y32050*
X10847Y34750D02*
Y33850D01*
X10059Y34637*
X9834Y34750*
X9609Y34637*
X9497Y34413*
Y34075*
X9609Y33850*
X8484Y49687D02*
Y51037D01*
X9272*
X9497Y50925*
X9609Y50700*
X9497Y50475*
X9272Y50363*
X8484*
X9272D02*
X9609Y49687D01*
X10509D02*
X10959D01*
X10734D02*
Y51037D01*
X10509Y50813*
X12309Y49687D02*
X12759D01*
X12534D02*
Y51037D01*
X12309Y50813*
X9709Y14913D02*
X9597Y14800D01*
X9372Y14687*
X9034*
X8809Y14800*
X8697Y14913*
X8584Y15137*
Y15587*
X8697Y15813*
X8809Y15925*
X9034Y16037*
X9372*
X9597Y15925*
X9709Y15813*
X11284Y14687D02*
X10384D01*
X11172Y15475*
X11284Y15700*
X11172Y15925*
X10947Y16037*
X10609*
X10384Y15925*
X12747Y14687D02*
Y16037D01*
X12184Y15137*
X13084*
X14372Y15250D02*
X13022D01*
Y14125*
Y13450D02*
X14372D01*
Y12325*
X13697Y12550D02*
Y13450D01*
X13022D02*
Y12325D01*
Y11650D02*
X14372D01*
Y10975*
X14259Y10750*
X14147Y10637*
X13922Y10525*
X13472*
X13247Y10637*
X13134Y10750*
X13022Y10975*
Y11650*
Y8950D02*
Y9850D01*
X13809Y9063*
X14034Y8950*
X14259Y9063*
X14372Y9287*
Y9625*
X14259Y9850*
X14347Y46750D02*
X12997D01*
Y47537*
X13109Y47763*
X13334Y47875*
X13559Y47763*
X13672Y47537*
Y46750*
Y47537D02*
X14347Y47875D01*
Y48775D02*
Y49225D01*
Y49000D02*
X12997D01*
X13222Y48775*
X14347Y51250D02*
Y50350D01*
X13559Y51137*
X13334Y51250*
X13109Y51137*
X12997Y50913*
Y50575*
X13109Y50350*
X17122Y47875D02*
X17234Y47763D01*
X17347Y47537*
Y47200*
X17234Y46975*
X17122Y46863*
X16897Y46750*
X16447*
X16222Y46863*
X16109Y46975*
X15997Y47200*
Y47537*
X16109Y47763*
X16222Y47875*
X17347Y48775D02*
Y49225D01*
Y49000D02*
X15997D01*
X16222Y48775*
X17347Y50575D02*
Y51025D01*
Y50800D02*
X15997D01*
X16222Y50575*
X18947Y49225D02*
X18834Y49337D01*
X18722Y49563*
Y49900*
X18834Y50125*
X18947Y50237*
X19172Y50350*
X19622*
X19847Y50237*
X19959Y50125*
X20072Y49900*
Y49563*
X19959Y49337*
X19847Y49225*
X18722Y48213D02*
X18834Y47987D01*
X19059Y47763*
X19397Y47650*
X19734*
X19959Y47763*
X20072Y47987*
Y48213*
X19959Y48437*
X19734Y48550*
X19509Y48437*
X19397Y48213*
Y47987*
X19509Y47763*
X19734Y47650*
X18547Y13700D02*
X17197D01*
Y14825*
X17872Y14600D02*
Y13700D01*
X18547Y15500D02*
X17197D01*
Y16625*
X17872Y16400D02*
Y15500D01*
X18547D02*
Y16625D01*
Y17300D02*
X17197D01*
Y18087*
X17309Y18313*
X17534Y18425*
X17759Y18313*
X17872Y18087*
Y17300*
Y18087D02*
X18547Y18425D01*
Y19100D02*
X17197D01*
Y19887*
X17309Y20113*
X17534Y20225*
X17759Y20113*
X17872Y19887*
Y19100*
Y19887D02*
X18547Y20225D01*
X18434Y21013D02*
X18547Y21237D01*
Y21463*
X18434Y21687*
X18209Y21800*
X17534*
X17309Y21687*
X17197Y21463*
Y21237*
X17309Y21013*
X17534Y20900*
X18209*
X18434Y21013*
X17309Y21687*
X18547Y23600D02*
Y22700D01*
X17759Y23487*
X17534Y23600*
X17309Y23487*
X17197Y23263*
Y22925*
X17309Y22700*
X26122Y48775D02*
X26234Y48663D01*
X26347Y48437*
Y48100*
X26234Y47875*
X26122Y47763*
X25897Y47650*
X25447*
X25222Y47763*
X25109Y47875*
X24997Y48100*
Y48437*
X25109Y48663*
X25222Y48775*
X25672Y49787D02*
Y50013D01*
X25559Y50237*
X25334Y50350*
X25109Y50237*
X24997Y50013*
Y49787*
X25109Y49563*
X25334Y49450*
X25559Y49563*
X25672Y49787*
X25784Y49563*
X26009Y49450*
X26234Y49563*
X26347Y49787*
Y50013*
X26234Y50237*
X26009Y50350*
X25784Y50237*
X25672Y50013*
X27522Y55975D02*
X27634Y55863D01*
X27747Y55637*
Y55300*
X27634Y55075*
X27522Y54963*
X27297Y54850*
X26847*
X26622Y54963*
X26509Y55075*
X26397Y55300*
Y55637*
X26509Y55863*
X26622Y55975*
X27747Y56875D02*
Y57325D01*
Y57100D02*
X26397D01*
X26622Y56875*
X27747Y59350D02*
Y58450D01*
X26959Y59237*
X26734Y59350*
X26509Y59237*
X26397Y59013*
Y58675*
X26509Y58450*
X34559Y36287D02*
X34672Y36400D01*
X34897Y36513*
X35234*
X35459Y36400*
X35572Y36287*
X35684Y36063*
Y35613*
X35572Y35387*
X35459Y35275*
X35234Y35163*
X34897*
X34672Y35275*
X34559Y35387*
X33884Y36513D02*
X32984Y35163D01*
X33884*
X34333Y30250D02*
X35683D01*
Y29463*
X35571Y29237*
X35346Y29125*
X35121Y29237*
X35009Y29463*
Y30250*
Y29463D02*
X34333Y29125D01*
Y28113D02*
X34446Y27887D01*
X34671Y27663*
X35009Y27550*
X35346*
X35571Y27663*
X35683Y27887*
Y28113*
X35571Y28337*
X35346Y28450*
X35121Y28337*
X35009Y28113*
Y27887*
X35121Y27663*
X35346Y27550*
X35447Y42950D02*
X34097D01*
Y43737*
X34209Y43963*
X34434Y44075*
X34659Y43963*
X34772Y43737*
Y42950*
Y43737D02*
X35447Y44075D01*
X35334Y44863D02*
X35447Y45087D01*
Y45313*
X35334Y45537*
X35109Y45650*
X34434*
X34209Y45537*
X34097Y45313*
Y45087*
X34209Y44863*
X34434Y44750*
X35109*
X35334Y44863*
X34209Y45537*
X39647Y63825D02*
X39534Y63937D01*
X39422Y64163*
Y64500*
X39534Y64725*
X39647Y64837*
X39872Y64950*
X40322*
X40547Y64837*
X40659Y64725*
X40772Y64500*
Y64163*
X40659Y63937*
X40547Y63825*
X39422Y62925D02*
Y62475D01*
Y62700D02*
X40772D01*
X40547Y62925*
X39422Y61013D02*
X39534Y60787D01*
X39759Y60563*
X40097Y60450*
X40434*
X40659Y60563*
X40772Y60787*
Y61013*
X40659Y61237*
X40434Y61350*
X40209Y61237*
X40097Y61013*
Y60787*
X40209Y60563*
X40434Y60450*
X46159Y41287D02*
X46272Y41400D01*
X46497Y41513*
X46834*
X47059Y41400*
X47172Y41287*
X47284Y41063*
Y40613*
X47172Y40387*
X47059Y40275*
X46834Y40163*
X46497*
X46272Y40275*
X46159Y40387*
X45259Y41513D02*
X44809D01*
X45034D02*
Y40163D01*
X45259Y40387*
X43684Y41513D02*
X42784Y40163D01*
X43684*
X43209Y60313D02*
X43097Y60200D01*
X42872Y60087*
X42534*
X42309Y60200*
X42197Y60313*
X42084Y60537*
Y60987*
X42197Y61213*
X42309Y61325*
X42534Y61437*
X42872*
X43097Y61325*
X43209Y61213*
X44784Y60087D02*
X43884D01*
X44672Y60875*
X44784Y61100*
X44672Y61325*
X44447Y61437*
X44109*
X43884Y61325*
X45797Y60200D02*
X46022Y60087D01*
X46247*
X46472Y60200*
X46584Y60425*
Y61100*
X46472Y61325*
X46247Y61437*
X46022*
X45797Y61325*
X45684Y61100*
Y60425*
X45797Y60200*
X46472Y61325*
X47747Y63925D02*
X47634Y64037D01*
X47522Y64263*
Y64600*
X47634Y64825*
X47747Y64937*
X47972Y65050*
X48422*
X48647Y64937*
X48759Y64825*
X48872Y64600*
Y64263*
X48759Y64037*
X48647Y63925*
X47522Y62350D02*
Y63250D01*
X48309Y62463*
X48534Y62350*
X48759Y62463*
X48872Y62687*
Y63025*
X48759Y63250*
X47522Y61225D02*
Y60775D01*
Y61000D02*
X48872D01*
X48647Y61225*
X54359Y63387D02*
X54472Y63500D01*
X54697Y63613*
X55034*
X55259Y63500*
X55372Y63387*
X55484Y63163*
Y62713*
X55372Y62487*
X55259Y62375*
X55034Y62263*
X54697*
X54472Y62375*
X54359Y62487*
X53459Y63613D02*
X53009D01*
X53234D02*
Y62263D01*
X53459Y62487*
X51547Y62937D02*
X51322D01*
X51097Y62825*
X50984Y62600*
X51097Y62375*
X51322Y62263*
X51547*
X51772Y62375*
X51884Y62600*
X51772Y62825*
X51547Y62937*
X51772Y63050*
X51884Y63275*
X51772Y63500*
X51547Y63613*
X51322*
X51097Y63500*
X50984Y63275*
X51097Y63050*
X51322Y62937*
X53622Y45750D02*
X54972D01*
Y44963*
X54859Y44737*
X54634Y44625*
X54409Y44737*
X54297Y44963*
Y45750*
Y44963D02*
X53622Y44625D01*
Y43725D02*
Y43275D01*
Y43500D02*
X54972D01*
X54747Y43725*
X54972Y59750D02*
X53622D01*
Y58625*
Y57950D02*
X54972D01*
Y56825*
X54297Y57050D02*
Y57950D01*
X53622D02*
Y56825D01*
Y56150D02*
X54972D01*
Y55475*
X54859Y55250*
X54747Y55137*
X54522Y55025*
X54072*
X53847Y55137*
X53734Y55250*
X53622Y55475*
Y56150*
Y54125D02*
Y53675D01*
Y53900D02*
X54972D01*
X54747Y54125*
X53547Y28250D02*
X52197D01*
Y29037*
X52309Y29263*
X52534Y29375*
X52759Y29263*
X52872Y29037*
Y28250*
Y29037D02*
X53547Y29375D01*
X52872Y30387D02*
Y30613D01*
X52759Y30837*
X52534Y30950*
X52309Y30837*
X52197Y30613*
Y30387*
X52309Y30163*
X52534Y30050*
X52759Y30163*
X52872Y30387*
X52984Y30163*
X53209Y30050*
X53434Y30163*
X53547Y30387*
Y30613*
X53434Y30837*
X53209Y30950*
X52984Y30837*
X52872Y30613*
D02*
D131*
X8895Y1880D02*
X20876D01*
Y7995*
X8895*
Y1880*
X9219Y25778D02*
X11173D01*
Y29814*
X9219*
Y25778*
X11149Y45822D02*
X9196D01*
Y41786*
X11149*
Y45822*
X13784Y15825D02*
X16655D01*
Y21768*
X13784*
Y15825*
X39796Y16117D02*
X22573D01*
Y1390*
X39796*
Y16117*
X48009Y39250D02*
Y42120D01*
X42067*
Y39250*
X48009*
D02*
D132*
X47194Y44576D02*
X44831D01*
Y45954*
X45028Y46348*
X45422Y46544*
X45816Y46348*
X46013Y45954*
Y44576*
Y45954D02*
X47194Y46544D01*
Y47726D02*
X44831D01*
Y49694*
X46013Y49300D02*
Y47726D01*
X47194D02*
Y49694D01*
X46209Y52253D02*
Y52844D01*
X46406*
X46800Y52647*
X46997Y52450*
X47194Y52056*
Y51663*
X46997Y51269*
X46800Y51072*
X46406Y50875*
X45619*
X45225Y51072*
X45028Y51269*
X44831Y51663*
Y52056*
X45028Y52450*
X45225Y52647*
X45619Y52844*
X46997Y54222D02*
X47194Y54615D01*
Y55009*
X46997Y55403*
X46603Y55600*
X45422*
X45028Y55403*
X44831Y55009*
Y54615*
X45028Y54222*
X45422Y54025*
X46603*
X46997Y54222*
X45028Y55403*
X47194Y57568D02*
Y58356D01*
Y57962D02*
X44831D01*
X45225Y57568*
X0Y0D02*
M02*
