G04 EasyPC Gerber Version 21.0.3 Build 4286 *
G04 #@! TF.Part,Single*
G04 #@! TF.FileFunction,Paste,Top *
G04 #@! TF.FilePolarity,Positive *
%FSLAX35Y35*%
%MOIN*%
G04 #@! TA.AperFunction,SMDPad*
%ADD138R,0.00787X0.01181*%
%ADD111R,0.01200X0.01200*%
%ADD136R,0.01378X0.04134*%
%ADD142R,0.02362X0.04331*%
%ADD72R,0.02400X0.03500*%
%ADD145R,0.02500X0.07000*%
%ADD141R,0.02500X0.09000*%
%ADD144R,0.04500X0.07000*%
%ADD137R,0.07087X0.07087*%
%ADD139R,0.01181X0.00787*%
%ADD135R,0.04134X0.01378*%
%ADD143R,0.05984X0.01496*%
%ADD29R,0.02400X0.02000*%
%ADD114R,0.04134X0.02165*%
%ADD110R,0.03500X0.02400*%
%ADD140R,0.07874X0.04528*%
X0Y0D02*
D02*
D29*
X10184Y25850D03*
Y29850D03*
Y41750D03*
Y45750D03*
D02*
D72*
X41984Y40750D03*
X47984D03*
D02*
D110*
X15284Y15850D03*
Y21850D03*
D02*
D111*
X11884Y12300D03*
Y14700D03*
X41984Y61450D03*
Y63850D03*
X54284Y51000D03*
Y53400D03*
D02*
D114*
X12166Y54010D03*
Y57750D03*
Y61490D03*
X21866Y14810D03*
Y18550D03*
Y22290D03*
X22402Y54010D03*
Y61490D03*
X32102Y14810D03*
Y22290D03*
X42866Y2810D03*
Y6550D03*
Y10290D03*
X53102Y2810D03*
Y10290D03*
D02*
D135*
X14804Y32411D03*
Y34970D03*
Y37530D03*
Y40089D03*
X29765Y32411D03*
Y34970D03*
Y37530D03*
Y40089D03*
D02*
D136*
X18446Y28770D03*
Y43730D03*
X21005Y28770D03*
Y43730D03*
X23564Y28770D03*
Y43730D03*
X26123Y28770D03*
Y43730D03*
D02*
D137*
X22284Y36250D03*
D02*
D138*
X9195Y16962D03*
Y19262D03*
X9895Y48862D03*
X10573Y16962D03*
Y19262D03*
X11273Y48862D03*
X33795Y37738D03*
X35173D03*
X52695Y61138D03*
X54073D03*
D02*
D139*
X9772Y12261D03*
Y13639D03*
X10472Y36161D03*
Y37539D03*
X15272Y48161D03*
Y49539D03*
X17972Y48161D03*
Y49539D03*
X20996Y48161D03*
Y49539D03*
X23672Y48161D03*
Y49539D03*
X27272Y52561D03*
Y53939D03*
X34496Y28361D03*
Y29739D03*
X36572Y43661D03*
Y45039D03*
X44096Y62561D03*
Y63939D03*
X46196Y62561D03*
Y63939D03*
X54296Y46661D03*
Y48039D03*
X54572Y28961D03*
Y30339D03*
D02*
D140*
X32984Y51822D03*
Y60878D03*
D02*
D141*
X24418Y5738D03*
X28918D03*
X33418D03*
X37918D03*
D02*
D142*
X42341Y45935D03*
Y56959D03*
X46081Y45935D03*
X49821D03*
Y56959D03*
D02*
D143*
X40974Y18149D03*
Y20669D03*
Y23189D03*
Y25708D03*
Y28228D03*
Y30748D03*
X49990Y18149D03*
Y20669D03*
Y23189D03*
Y25708D03*
Y28228D03*
Y30748D03*
D02*
D144*
X10884Y4750D03*
D02*
D145*
X15884D03*
X19884D03*
X0Y0D02*
M02*
