G04 EasyPC Gerber Version 21.0.3 Build 4286 *
G04 #@! TF.Part,Single*
G04 #@! TF.FileFunction,Legend,Top *
G04 #@! TF.FilePolarity,Positive *
%FSLAX35Y35*%
%MOIN*%
%ADD106C,0.00300*%
%ADD105C,0.00394*%
%ADD24C,0.00500*%
%ADD104C,0.00787*%
%ADD133C,0.01280*%
X0Y0D02*
D02*
D24*
X8895Y7870D02*
X21001D01*
Y1755*
X8895*
Y7870*
X9272Y13850D02*
X10272D01*
Y12050*
X9272*
Y13850*
X9294Y29850D02*
X11173D01*
Y25778*
X9294*
Y29850*
X9972Y37750D02*
X10972D01*
Y35950*
X9972*
Y37750*
X10784Y17462D02*
Y16462D01*
X8984*
Y17462*
X10784*
Y19762D02*
Y18762D01*
X8984*
Y19762*
X10784*
X11074Y41750D02*
X9196D01*
Y45822*
X11074*
Y41750*
X11484Y49362D02*
Y48362D01*
X9684*
Y49362*
X11484*
X11884Y9500D02*
Y11500D01*
X12484Y12500D02*
X11084D01*
Y14600*
X12484*
Y12500*
X12784Y15800D02*
X10784D01*
X12884Y10500D02*
X10884D01*
X13784Y21850D02*
X16809D01*
Y15825*
X13784*
Y21850*
X14772Y49750D02*
X15772D01*
Y47950*
X14772*
Y49750*
X17472D02*
X18472D01*
Y47950*
X17472*
Y49750*
X21496Y47950D02*
X20496D01*
Y49750*
X21496*
Y47950*
X23172Y49750D02*
X24172D01*
Y47950*
X23172*
Y49750*
X26772Y54150D02*
X27772D01*
Y52350*
X26772*
Y54150*
X33584Y37238D02*
Y38238D01*
X35384*
Y37238*
X33584*
X34996Y28150D02*
X33996D01*
Y29950*
X34996*
Y28150*
X36072Y45250D02*
X37072D01*
Y43450*
X36072*
Y45250*
X39796Y1390D02*
X22573D01*
Y16117*
X39796*
Y1390*
X41984Y39250D02*
Y42274D01*
X48009*
Y39250*
X41984*
X42484Y61650D02*
X41484D01*
Y63650*
X42484*
Y61650*
X44596Y62350D02*
X43596D01*
Y64150*
X44596*
Y62350*
X46696D02*
X45696D01*
Y64150*
X46696*
Y62350*
X51790Y48297D02*
X40372D01*
Y54596*
X51790*
Y48297*
X52484Y60638D02*
Y61638D01*
X54284*
Y60638*
X52484*
X54072Y30550D02*
X55072D01*
Y28750*
X54072*
Y30550*
X54284Y48200D02*
Y50200D01*
X54796Y46450D02*
X53796D01*
Y48250*
X54796*
Y46450*
X54884Y51200D02*
X53484D01*
Y53300*
X54884*
Y51200*
X55184Y54500D02*
X53184D01*
X55284Y49200D02*
X53284D01*
D02*
D104*
X10099Y63557D02*
X14233D01*
X15611Y63459D02*
X18957D01*
Y52041*
X15611*
Y63459*
X19799Y24357D02*
X23933D01*
X25311Y24259D02*
X28657D01*
Y12841*
X25311*
Y24259*
X29835Y56350D02*
X36134D01*
X40799Y12357D02*
X44933D01*
X46311Y12259D02*
X49657D01*
Y841*
X46311*
Y12259*
D02*
D105*
X17284Y44124D02*
X30158D01*
Y28376*
X14410*
Y41250*
X17284Y44124*
X29441Y51429D02*
Y61271D01*
X36528*
Y51429*
X29441*
X39672Y14839D02*
X40297D01*
X39985D02*
Y16713D01*
X39672Y16401*
X43110Y14839D02*
X41860D01*
X42954Y15932*
X43110Y16245*
X42954Y16557*
X42641Y16713*
X42172*
X41860Y16557*
X41791Y32161D02*
X40541D01*
X41635Y33255*
X41791Y33568*
X41635Y33880*
X41322Y34036*
X40854*
X40541Y33880*
X48728Y14839D02*
X49352D01*
X49040D02*
Y16713D01*
X48728Y16401*
X51228Y14839D02*
X51852D01*
X51540D02*
Y16713D01*
X51228Y16401*
X50302Y32161D02*
X50927D01*
X50615D02*
Y34036D01*
X50302Y33724*
D02*
D106*
X8584Y8775D02*
X8897Y8619D01*
X9365*
X9678Y8775*
X9834Y9087*
Y9244*
X9678Y9556*
X9365Y9713*
X8584*
Y10494*
X9834*
X11084D02*
X11865Y8619D01*
X12647Y10494*
X17384Y10794D02*
Y8919D01*
X18947*
X21134D02*
X19884D01*
X20978Y10013*
X21134Y10325*
X20978Y10637*
X20665Y10794*
X20197*
X19884Y10637*
D02*
D133*
X13379Y43927D02*
G75*
G02X12099I-640D01*
G01*
X13379D02*
G75*
G02X12099I-640D01*
G01*
G75*
G02X13379I640*
G01*
X0Y0D02*
M02*
