G04 EasyPC Gerber Version 21.0.3 Build 4286 *
G04 #@! TF.Part,Single*
G04 #@! TF.FileFunction,Copper,L4,Inr *
G04 #@! TF.FilePolarity,Positive *
%FSLAX35Y35*%
%MOIN*%
%ADD10C,0.00001*%
%ADD17C,0.00800*%
%ADD19C,0.01000*%
%ADD16C,0.01100*%
G04 #@! TA.AperFunction,ViaPad*
%ADD12C,0.01700*%
%ADD14C,0.02000*%
%ADD13C,0.02600*%
%ADD15C,0.03400*%
G04 #@! TA.AperFunction,WasherPad*
%ADD11C,0.05500*%
X0Y0D02*
D02*
D10*
X63284Y41250D02*
G75*
G03X58284Y46250I-5000D01*
G01*
G75*
G02X56284Y48250J2000*
G01*
Y65750*
X38784*
G75*
G02X36784Y67750J2000*
G01*
G75*
G03X26784I-5000*
G01*
G75*
G02X24784Y65750I-2000*
G01*
X7784*
Y48250*
G75*
G02X5784Y46250I-2000*
G01*
X5284*
G75*
G03X250Y41216J-5034*
G01*
Y41216*
Y41215*
G75*
G03X5284Y36181I5034*
G01*
X5353*
G75*
G02X7784Y33750J-2431*
G01*
Y250*
X56284*
Y34250*
G75*
G02X58284Y36250I2000*
G01*
G75*
G03X63284Y41250J5000*
G01*
X42234Y53050D02*
G75*
G02X44734I1250D01*
G01*
G75*
G02X42234I-1250*
G01*
X53101Y14335D02*
G75*
G02X55234Y13450I883J-885D01*
G01*
G75*
G02X54728Y12445I-1250*
G01*
G75*
G02X51584Y10150I-3143J1005*
G01*
X50384*
G75*
G02X47384Y13150J3000*
G01*
Y21550*
G75*
G03X46279Y23211I-1800*
G01*
G75*
G02X45934Y23050I-694J1039*
G01*
G75*
G02X46834Y21850I-350J-1200*
G01*
G75*
G02X44334I-1250*
G01*
G75*
G02X45234Y23050I1250*
G01*
G75*
G02X44334Y24250I350J1200*
G01*
G75*
G02X46576Y25011I1250*
G01*
G75*
G02X49184Y21550I-991J-3461*
G01*
Y21550*
Y13150*
G75*
G03X50384Y11950I1200*
G01*
X51584*
G75*
G03X52928Y12782J1500*
G01*
G75*
G02X52767Y13165I1057J667*
G01*
G75*
G02X50634Y14050I-883J885*
G01*
G75*
G02X51963Y15298I1250*
G01*
G75*
G02X51834Y15850I1121J552*
G01*
G75*
G02X54334I1250*
G01*
G75*
G02X53006Y14602I-1250*
G01*
G75*
G02X53101Y14335I-1120J-552*
G01*
X51639Y6157D02*
G75*
G02X54134Y6050I1245J-107D01*
G01*
G75*
G02X51930Y5243I-1250*
G01*
G75*
G02X49434Y5350I-1245J107*
G01*
G75*
G02X51639Y6157I1250*
G01*
X45984Y60750D02*
G75*
G02X49384I1700D01*
G01*
G75*
G02X45984I-1700*
G01*
X46084Y52750D02*
G75*
G02X49484I1700D01*
G01*
G75*
G02X46084I-1700*
G01*
X49784Y40750D02*
G75*
G02X53984I2100D01*
G01*
G75*
G02X49784I-2100*
G01*
X52884Y37450D02*
G75*
G02X56284I1700D01*
G01*
G75*
G02X52884I-1700*
G01*
X54284Y19500D02*
G75*
G02X55534Y18250J-1250D01*
G01*
G75*
G02X53034I-1250*
G01*
G75*
G02X54284Y19500I1250*
G01*
X53034Y23189D02*
G75*
G02X55534I1250D01*
G01*
G75*
G02X54559Y21969I-1250*
G01*
G75*
G02X55534Y20750I-275J-1219*
G01*
G75*
G02X54284Y19500I-1250*
G01*
G75*
G02X53034Y20750J1250*
G01*
G75*
G02X54009Y21969I1250*
G01*
G75*
G02X53034Y23189I275J1219*
G01*
X51584Y58750D02*
G75*
G02X54984I1700D01*
G01*
G75*
G02X51584I-1700*
G01*
X52134Y55550D02*
G75*
G02X54634I1250D01*
G01*
G75*
G02X52134I-1250*
G01*
X55634Y41250D02*
G75*
G02X61934I3150D01*
G01*
G75*
G02X55634I-3150*
G01*
X38300Y60350D02*
G75*
G03X39384Y59265I1285J200D01*
G01*
Y58862*
G75*
G02X37896Y60350I200J1689*
G01*
X38300*
X38334Y53050D02*
G75*
G02X40834I1250D01*
G01*
G75*
G02X38334I-1250*
G01*
X38184Y63550D02*
G75*
G02X41584I1700D01*
G01*
G75*
G02X40516Y61972I-1700*
G01*
G75*
G02X41272Y60750I-932J-1422*
G01*
X40869*
G75*
G03X39784Y61835I-1285J-200*
G01*
Y61853*
G75*
G02X39384Y61925I101J1697*
G01*
Y61835*
G75*
G03X38300Y60750I200J-1285*
G01*
X37896*
G75*
G02X38952Y62128I1689J-200*
G01*
G75*
G02X38184Y63550I932J1422*
G01*
X40869Y60350D02*
X41272D01*
G75*
G02X39784Y58862I-1689J200*
G01*
Y59265*
G75*
G03X40869Y60350I-200J1285*
G01*
X28634Y68250D02*
G75*
G02X34934I3150D01*
G01*
G75*
G02X28634I-3150*
G01*
X30234Y56950D02*
G75*
G02X32734I1250D01*
G01*
G75*
G02X30234I-1250*
G01*
X10831Y9633D02*
G75*
G02X13234Y9150I1153J-483D01*
G01*
G75*
G02X10737Y9067I-1250*
G01*
G75*
G02X8334Y9550I-1153J483*
G01*
G75*
G02X10831Y9633I1250*
G01*
X8534Y15050D02*
G75*
G02X11034I1250D01*
G01*
G75*
G02X8534I-1250*
G01*
X9096Y21950D02*
G75*
G03X10584Y20462I1689J200D01*
G01*
Y20059*
G75*
G02X8694Y21950I200J2091*
G01*
X9096*
X8694Y22350D02*
G75*
G02X10584Y24241I2091J-200D01*
G01*
Y23838*
G75*
G03X9096Y22350I200J-1689*
G01*
X8694*
X10858Y50950D02*
G75*
G03X11484Y50324I827J201D01*
G01*
Y49916*
G75*
G02X10450Y50950I200J1234*
G01*
X10858*
X10884Y44050D02*
G75*
G02X13684I1400D01*
G01*
G75*
G02X10884I-1400*
G01*
X12472Y21950D02*
X12875D01*
G75*
G02X10984Y20059I-2091J200*
G01*
Y20462*
G75*
G03X12472Y21950I-200J1689*
G01*
X12634Y11650D02*
G75*
G02X15134I1250D01*
G01*
G75*
G02X12634I-1250*
G01*
X10984Y24241D02*
G75*
G02X12875Y22350I-200J-2091D01*
G01*
X12472*
G75*
G03X10984Y23838I-1689J-200*
G01*
Y24241*
X13034Y27550D02*
G75*
G02X15534I1250D01*
G01*
G75*
G02X13034I-1250*
G01*
X14834Y13250D02*
G75*
G02X17334I1250D01*
G01*
G75*
G02X14834I-1250*
G01*
X17134Y11950D02*
G75*
G02X19634I1250D01*
G01*
G75*
G02X17134I-1250*
G01*
X10450Y51350D02*
G75*
G02X11484Y52384I1234J-200D01*
G01*
Y51976*
G75*
G03X10858Y51350I201J-827*
G01*
X10450*
X12510Y50950D02*
X12918D01*
G75*
G02X11884Y49916I-1234J200*
G01*
Y50324*
G75*
G03X12510Y50950I-201J827*
G01*
X11884Y52384D02*
G75*
G02X12918Y51350I-200J-1234D01*
G01*
X12510*
G75*
G03X11884Y51976I-827J-201*
G01*
Y52384*
X13134Y51350D02*
G75*
G02X15634I1250D01*
G01*
G75*
G02X13134I-1250*
G01*
X14934Y29950D02*
G75*
G02X17434I1250D01*
G01*
G75*
G02X14934I-1250*
G01*
X15834Y24550D02*
G75*
G02X18334I1250D01*
G01*
G75*
G02X15834I-1250*
G01*
X17034Y15850D02*
G75*
G02X19534I1250D01*
G01*
G75*
G02X17034I-1250*
G01*
X17134Y20150D02*
G75*
G02X19634I1250D01*
G01*
G75*
G02X17134I-1250*
G01*
X14684Y62250D02*
G75*
G02X18884I2100D01*
G01*
G75*
G02X14684I-2100*
G01*
X17734Y57050D02*
G75*
G02X20234I1250D01*
G01*
G75*
G02X17734I-1250*
G01*
X18834Y24550D02*
G75*
G02X21334I1250D01*
G01*
G75*
G02X18834I-1250*
G01*
X19734Y12550D02*
G75*
G02X22234I1250D01*
G01*
G75*
G02X19734I-1250*
G01*
X20234Y57850D02*
G75*
G02X22734I1250D01*
G01*
G75*
G02X20234I-1250*
G01*
X40784Y34211D02*
G75*
G02X41234Y33250I-800J-961D01*
G01*
G75*
G02X38734I-1250*
G01*
G75*
G02X39184Y34211I1250*
G01*
Y34750*
G75*
G03X36684Y37250I-2500*
G01*
X26684*
G75*
G03X23584Y34150J-3100*
G01*
Y34150*
Y24250*
Y24250*
G75*
G03X26340Y21169I3100*
G01*
G75*
G02X28532Y20425I944J-819*
G01*
G75*
G02X30834Y19750I1052J-675*
G01*
G75*
G02X30581Y18996I-1250*
G01*
G75*
G02X31431Y18752I103J-1246*
G01*
G75*
G02X31384Y19150I1653J398*
G01*
G75*
G02X34784I1700*
G01*
G75*
G02X34729Y18720I-1700J-1*
G01*
G75*
G02X37034Y18050I1055J-670*
G01*
G75*
G02X35948Y16811I-1250*
G01*
G75*
G02X36734Y15650I-464J-1161*
G01*
G75*
G02X34234I-1250*
G01*
G75*
G02X35320Y16889I1250*
G01*
G75*
G02X34534Y18050I464J1161*
G01*
G75*
G02X34561Y18308I1250J1*
G01*
G75*
G02X31924Y17907I-1477J842*
G01*
G75*
G02X31934Y17750I-1239J-157*
G01*
G75*
G02X29434I-1250*
G01*
G75*
G02X29687Y18504I1250*
G01*
G75*
G02X28337Y19675I-103J1246*
G01*
G75*
G02X26311Y19565I-1052J675*
G01*
G75*
G02X21984Y24250I373J4685*
G01*
Y34150*
G75*
G02X26684Y38850I4700*
G01*
X36684*
G75*
G02X40784Y34750J-4100*
G01*
Y34750*
Y34211*
X43134Y17930D02*
G75*
G02X42816Y17220I-950J0D01*
G01*
G75*
G02X42728Y17151I-631J711*
G01*
X41823Y16245*
G75*
G02X42034Y15550I-1039J-696*
G01*
G75*
G02X40434Y14350I-1250*
G01*
G75*
G02X39884Y14683I350J1200*
G01*
Y14384*
G75*
G02X40434Y14350I200J-1234*
G01*
G75*
G02X41334Y13150I-350J-1200*
G01*
G75*
G02X38966Y12592I-1250*
G01*
G75*
G02X38084Y14250I1119J1658*
G01*
Y29578*
X35936Y31726*
G75*
G02X34434Y32950I-252J1224*
G01*
G75*
G02X35149Y34080I1250*
G01*
G75*
G02X33834Y35328I-65J1248*
G01*
G75*
G02X36334I1250*
G01*
G75*
G02X35619Y34198I-1250*
G01*
G75*
G02X36874Y33332I65J-1248*
G01*
X39620Y30586*
G75*
G02X39884Y29950I-634J-636*
G01*
Y29950*
Y16854*
G75*
G02X40113Y17222I902J-304*
G01*
X41234Y18343*
Y33250*
Y44550*
G75*
G03X37284Y48500I-3950*
G01*
X35803*
G75*
G02X36484Y47139I-1019J-1361*
G01*
G75*
G02X33084I-1700*
G01*
G75*
G02X33766Y48500I1700*
G01*
X28397*
G75*
G02X26334Y49450I-813J950*
G01*
G75*
G02X28397Y50400I1250*
G01*
X37284*
G75*
G02X43134Y44550J-5850*
G01*
Y17950*
Y17930*
X41334Y13150D02*
G75*
G02X43834I1250D01*
G01*
G75*
G02X41334I-1250*
G01*
X38334Y45250D02*
G75*
G02X40834I1250D01*
G01*
G75*
G02X38334I-1250*
G01*
X39669Y42050D02*
X40072D01*
G75*
G02X38584Y40562I-1689J200*
G01*
Y40965*
G75*
G03X39669Y42050I-200J1285*
G01*
X38584Y43938D02*
G75*
G02X40072Y42450I-200J-1689D01*
G01*
X39669*
G75*
G03X38584Y43535I-1285J-200*
G01*
Y43938*
X37100Y42050D02*
G75*
G03X38184Y40965I1285J200D01*
G01*
Y40562*
G75*
G02X36696Y42050I200J1689*
G01*
X37100*
X36696Y42450D02*
G75*
G02X38184Y43938I1689J-200D01*
G01*
Y43535*
G75*
G03X37100Y42450I200J-1285*
G01*
X36696*
X27800Y43850D02*
G75*
G03X28884Y42765I1285J200D01*
G01*
Y42362*
G75*
G02X27396Y43850I200J1689*
G01*
X27800*
X27396Y44250D02*
G75*
G02X28884Y45738I1689J-200D01*
G01*
Y45335*
G75*
G03X27800Y44250I200J-1285*
G01*
X27396*
X27534Y47139D02*
G75*
G02X30034I1250D01*
G01*
G75*
G02X27534I-1250*
G01*
X30369Y43850D02*
X30772D01*
G75*
G02X29284Y42362I-1689J200*
G01*
Y42765*
G75*
G03X30369Y43850I-200J1285*
G01*
X29284Y45738D02*
G75*
G02X30772Y44250I-200J-1689D01*
G01*
X30369*
G75*
G03X29284Y45335I-1285J-200*
G01*
Y45738*
X42034Y15650D02*
G75*
G02X44534I1250D01*
G01*
G75*
G02X42034I-1250*
G01*
X34134Y25150D02*
G75*
G02X36634I1250D01*
G01*
G75*
G02X34134I-1250*
G01*
X35334Y22750D02*
G75*
G02X37834I1250D01*
G01*
G75*
G02X35334I-1250*
G01*
X27834Y22290D02*
G75*
G02X30334I1250D01*
G01*
G75*
G02X27834I-1250*
G01*
X30534Y29350D02*
G75*
G02X33034I1250D01*
G01*
G75*
G02X30534I-1250*
G01*
X24162Y24250D02*
G75*
G02X27562I1700D01*
G01*
G75*
G02X24162I-1700*
G01*
X31434Y11950D02*
G75*
G02X33934I1250D01*
G01*
G75*
G02X31434I-1250*
G01*
X25334D02*
G75*
G02X27834I1250D01*
G01*
G75*
G02X25334I-1250*
G01*
X25585Y58198D02*
G75*
G02X28984Y58150I1699J-48D01*
G01*
G75*
G02X25631Y57756I-1700*
G01*
G75*
G02X23134Y57850I-1246J94*
G01*
G75*
G02X25585Y58198I1250*
G01*
X1634Y41250D02*
G75*
G02X7934I3150D01*
G01*
G75*
G02X1634I-3150*
G01*
X56284Y5700D02*
G36*
X54084D01*
G75*
G02X51930Y5243I-1200J350*
G01*
G75*
G02X49434Y5350I-1245J107*
G01*
G75*
G02X49484Y5700I1250*
G01*
X7784*
Y250*
X56284*
Y5700*
G37*
Y9350D02*
G36*
X13218D01*
G75*
G02X13234Y9150I-1235J-200*
G01*
G75*
G02X10737Y9067I-1250*
G01*
G75*
G02X8350Y9350I-1153J483*
G01*
X7784*
Y5700*
X49484*
G75*
G02X51639Y6157I1200J-350*
G01*
G75*
G02X54134Y6050I1245J-107*
G01*
G75*
G02X54084Y5700I-1250*
G01*
X56284*
Y9350*
G37*
Y11650D02*
G36*
X54350D01*
G75*
G02X51584Y10150I-2766J1800*
G01*
X50384*
G75*
G02X47786Y11650I0J3000*
G01*
X33898*
G75*
G02X31471I-1213J300*
G01*
X27798*
G75*
G02X25371I-1213J300*
G01*
X21852*
G75*
G02X20117I-867J900*
G01*
X19598*
G75*
G02X17171I-1213J300*
G01*
X15134*
G75*
G02X12634I-1250*
G01*
X7784*
Y9350*
X8350*
G75*
G02X8334Y9550I1235J200*
G01*
G75*
G02X10831Y9633I1250*
G01*
G75*
G02X13218Y9350I1153J-483*
G01*
X56284*
Y11650*
G37*
X19949Y13250D02*
G36*
X17334D01*
G75*
G02X14834I-1250*
G01*
X7784*
Y11650*
X12634*
G75*
G02X15134I1250*
G01*
X17171*
G75*
G02X17134Y11950I1213J300*
G01*
G75*
G02X19634I1250*
G01*
G75*
G02X19598Y11650I-1250J0*
G01*
X20117*
G75*
G02X19734Y12550I867J900*
G01*
G75*
G02X19949Y13250I1250J0*
G01*
G37*
X41338D02*
G36*
X41330D01*
G75*
G02X41334Y13150I-1244J-99*
G01*
G75*
G02X41338Y13250I1248J0*
G01*
G37*
X47786Y11650D02*
G36*
G75*
G02X47384Y13150I2598J1499D01*
G01*
Y13150*
Y13250*
X43830*
G75*
G02X43834Y13150I-1246J-99*
G01*
G75*
G02X41334I-1250*
G01*
G75*
G02X38966Y12592I-1250*
G01*
G75*
G02X38352Y13250I1119J1658*
G01*
X22020*
G75*
G02X22234Y12550I-1035J-700*
G01*
G75*
G02X21852Y11650I-1250*
G01*
X25371*
G75*
G02X25334Y11950I1213J300*
G01*
G75*
G02X27834I1250*
G01*
G75*
G02X27798Y11650I-1250J0*
G01*
X31471*
G75*
G02X31434Y11950I1213J300*
G01*
G75*
G02X33934I1250*
G01*
G75*
G02X33898Y11650I-1250J0*
G01*
X47786*
G37*
X50924Y13250D02*
G36*
X49184D01*
Y13150*
Y13150*
G75*
G03X50384Y11950I1200*
G01*
X51584*
G75*
G03X52928Y12782I0J1500*
G01*
G75*
G02X52767Y13165I1059J669*
G01*
G75*
G02X50924Y13250I-883J885*
G01*
G37*
X56284D02*
G36*
X55218D01*
G75*
G02X54728Y12445I-1233J200*
G01*
G75*
G02X54350Y11650I-3143J1004*
G01*
X56284*
Y13250*
G37*
X38084Y15050D02*
G36*
X36581D01*
G75*
G02X34388I-1096J600*
G01*
X19245*
G75*
G02X17324I-961J800*
G01*
X11034*
G75*
G02X8534I-1250*
G01*
X7784*
Y13250*
X14834*
G75*
G02X17334I1250*
G01*
X19949*
G75*
G02X22020I1035J-700*
G01*
X38352*
G75*
G02X38084Y14250I1732J1000*
G01*
Y15050*
G37*
X47384D02*
G36*
X44381D01*
G75*
G02X42188I-1096J600*
G01*
X41930*
G75*
G02X39884Y14683I-1146J500*
G01*
Y14384*
G75*
G02X41330Y13250I200J-1234*
G01*
X41338*
G75*
G02X43830I1246J-100*
G01*
X47384*
Y15050*
G37*
X50924Y13250D02*
G36*
G75*
G02X50634Y14050I961J800D01*
G01*
G75*
G02X51134Y15050I1250*
G01*
X49184*
Y13250*
X50924*
G37*
X56284Y15050D02*
G36*
X54045D01*
G75*
G02X53006Y14602I-961J800*
G01*
G75*
G02X53101Y14335I-1121J-552*
G01*
G75*
G02X55234Y13450I883J-885*
G01*
Y13450*
G75*
G02X55218Y13250I-1249J0*
G01*
X56284*
Y15050*
G37*
X34555Y17825D02*
G36*
X34149D01*
G75*
G02X32019I-1065J1325*
G01*
X31932*
G75*
G02X31934Y17753I-1207J-69*
G01*
G75*
G02Y17750I-1203J-2*
G01*
G75*
G02X29434I-1250*
G01*
Y17750*
G75*
G02X29437Y17825I1250J-2*
G01*
X7784*
Y15050*
X8534*
G75*
G02X11034I1250*
G01*
X17324*
G75*
G02X17034Y15850I961J800*
G01*
G75*
G02X19534I1250*
G01*
G75*
G02X19245Y15050I-1250J0*
G01*
X34388*
G75*
G02X34234Y15650I1096J600*
G01*
Y15650*
G75*
G02X35320Y16889I1250*
G01*
G75*
G02X34555Y17825I463J1161*
G01*
G37*
X38084Y15050D02*
G36*
Y17825D01*
X37014*
G75*
G02X35948Y16811I-1230J225*
G01*
G75*
G02X36734Y15650I-463J-1161*
G01*
G75*
G02X36581Y15050I-1250J0*
G01*
X38084*
G37*
X40716Y17825D02*
G36*
X39884D01*
Y16854*
G75*
G02X40113Y17222I900J-304*
G01*
X40716Y17825*
G37*
X47384D02*
G36*
X43128D01*
G75*
G02X42816Y17220I-946J106*
G01*
G75*
G02X42728Y17151I-572J635*
G01*
X41823Y16245*
G75*
G02X42034Y15550I-1039J-696*
G01*
G75*
G02X41930Y15050I-1250*
G01*
X42188*
G75*
G02X42034Y15650I1096J600*
G01*
G75*
G02X44534I1250*
G01*
G75*
G02X44381Y15050I-1250J0*
G01*
X47384*
Y17825*
G37*
X56284D02*
G36*
X55460D01*
G75*
G02X53109I-1176J425*
G01*
X49184*
Y15050*
X51134*
G75*
G02X51963Y15298I750J-1000*
G01*
G75*
G02X51834Y15850I1124J553*
G01*
G75*
G02X54334I1250*
G01*
G75*
G02X54045Y15050I-1250*
G01*
X56284*
Y17825*
G37*
X29437D02*
G36*
G75*
G02X29687Y18504I1247J-74D01*
G01*
G75*
G02X28337Y19675I-103J1246*
G01*
G75*
G02X26311Y19565I-1052J675*
G01*
G75*
G02X23285Y21005I374J4686*
G01*
X19296*
G75*
G02X19634Y20150I-912J-855*
G01*
G75*
G02X17134I-1250*
G01*
G75*
G02X17472Y21005I1250*
G01*
X12544*
G75*
G02X10984Y20059I-1760J1145*
G01*
Y20462*
G75*
G03X12041Y21005I-200J1689*
G01*
X9528*
G75*
G03X10584Y20462I1257J1146*
G01*
Y20059*
G75*
G02X9024Y21005I200J2090*
G01*
X7784*
Y17825*
X29437*
G37*
X32019D02*
G36*
G75*
G02X31924Y17907I1065J1324D01*
G01*
G75*
G02X31932Y17825I-1198J-156*
G01*
X32019*
G37*
X34555D02*
G36*
G75*
G02X34534Y18050I1230J225D01*
G01*
Y18050*
G75*
G02X34561Y18308I1255*
G01*
G75*
G02X34149Y17825I-1477J842*
G01*
X34555*
G37*
X38084Y21005D02*
G36*
X28349D01*
G75*
G02X28532Y20425I-1065J-655*
G01*
G75*
G02X30834Y19750I1052J-675*
G01*
Y19750*
G75*
G02X30581Y18996I-1249*
G01*
G75*
G02X31431Y18752I104J-1245*
G01*
G75*
G02X31384Y19149I1647J397*
G01*
G75*
G02Y19150I2051J0*
G01*
G75*
G02X34784I1700*
G01*
Y19150*
G75*
G02X34729Y18720I-1701*
G01*
G75*
G02X37034Y18050I1055J-670*
G01*
Y18050*
G75*
G02X37014Y17825I-1250J0*
G01*
X38084*
Y21005*
G37*
X41234D02*
G36*
X39884D01*
Y17825*
X40716*
X41234Y18343*
Y21005*
G37*
X47384D02*
G36*
X46505D01*
G75*
G02X44663I-921J845*
G01*
X43134*
Y17930*
G75*
G02X43128Y17825I-952J1*
G01*
X47384*
Y21005*
G37*
X56284D02*
G36*
X55508D01*
G75*
G02X55534Y20750I-1224J-254*
G01*
Y20750*
G75*
G02X54284Y19500I-1250*
G01*
G75*
G02X53034Y20750J1250*
G01*
G75*
G02X53061Y21005I1250J-1*
G01*
X49184*
Y17825*
X53109*
G75*
G02X53034Y18250I1176J425*
G01*
G75*
G02X54284Y19500I1250*
G01*
G75*
G02X55534Y18250J-1250*
G01*
G75*
G02X55460Y17825I-1250J0*
G01*
X56284*
Y21005*
G37*
X23285D02*
G36*
G75*
G02X22575Y21969I3400J3246D01*
G01*
X7784*
Y21005*
X9024*
G75*
G02X8694Y21950I1760J1145*
G01*
X9096*
G75*
G03X9528Y21005I1689J200*
G01*
X12041*
G75*
G03X12472Y21950I-1257J1146*
G01*
X12875*
G75*
G02X12544Y21005I-2091J200*
G01*
X17472*
G75*
G02X19296I912J-855*
G01*
X23285*
G37*
X38084Y21969D02*
G36*
X37561D01*
G75*
G02X35608I-976J781*
G01*
X30293*
G75*
G02X27876I-1208J321*
G01*
X24585*
G75*
G03X26340Y21169I2100J2281*
G01*
G75*
G02X28349Y21005I944J-819*
G01*
X38084*
Y21969*
G37*
X41234D02*
G36*
X39884D01*
Y21005*
X41234*
Y21969*
G37*
X44340D02*
G36*
X43134D01*
Y21005*
X44663*
G75*
G02X44334Y21850I921J845*
G01*
G75*
G02X44340Y21969I1250J2*
G01*
G37*
X47384Y21005D02*
G36*
Y21550D01*
Y21550*
G75*
G03X47335Y21969I-1800J-1*
G01*
X46829*
G75*
G02X46834Y21850I-1244J-117*
G01*
G75*
G02X46505Y21005I-1250*
G01*
X47384*
G37*
X53061D02*
G36*
G75*
G02X54009Y21969I1224J-255D01*
G01*
X49160*
G75*
G02X49184Y21550I-3576J-419*
G01*
Y21550*
Y21005*
X53061*
G37*
X56284Y21969D02*
G36*
X54559D01*
G75*
G02X55508Y21005I-274J-1219*
G01*
X56284*
Y21969*
G37*
X22575D02*
G36*
G75*
G02X22082Y23295I4110J2282D01*
G01*
X12544*
G75*
G02X12875Y22350I-1760J-1145*
G01*
X12472*
G75*
G03X12041Y23295I-1689J-200*
G01*
X9528*
G75*
G03X9096Y22350I1257J-1146*
G01*
X8694*
G75*
G02X9024Y23295I2091J-200*
G01*
X7784*
Y21969*
X22575*
G37*
X27876D02*
G36*
G75*
G02X27834Y22290I1208J320D01*
G01*
G75*
G02X28341Y23295I1250*
G01*
X27269*
G75*
G02X24456I-1407J955*
G01*
X23735*
G75*
G03X24585Y21969I2949J954*
G01*
X27876*
G37*
X35459Y23295D02*
G36*
X29828D01*
G75*
G02X30334Y22290I-743J-1005*
G01*
G75*
G02X30293Y21969I-1250J0*
G01*
X35608*
G75*
G02X35334Y22750I976J780*
G01*
G75*
G02X35459Y23295I1250*
G01*
G37*
X38084D02*
G36*
X37709D01*
G75*
G02X37834Y22750I-1125J-545*
G01*
G75*
G02X37561Y21969I-1250J0*
G01*
X38084*
Y23295*
G37*
X41234D02*
G36*
X39884D01*
Y21969*
X41234*
Y23295*
G37*
X44778D02*
G36*
X43134D01*
Y21969*
X44340*
G75*
G02X45234Y23050I1244J-119*
G01*
G75*
G02X44778Y23295I350J1200*
G01*
G37*
X47335Y21969D02*
G36*
G75*
G03X46279Y23211I-1750J-419D01*
G01*
G75*
G02X45934Y23050I-701J1054*
G01*
G75*
G02X46829Y21969I-350J-1200*
G01*
X47335*
G37*
X53039Y23295D02*
G36*
X48733D01*
G75*
G02X49160Y21969I-3148J-1745*
G01*
X54009*
G75*
G02X53034Y23188I275J1219*
G01*
Y23189*
G75*
G02X53039Y23295I1250J-2*
G01*
G37*
X56284D02*
G36*
X55530D01*
G75*
G02X55534Y23189I-1245J-109*
G01*
G75*
G02X54559Y21969I-1250J0*
G01*
X56284*
Y23295*
G37*
X22082D02*
G36*
G75*
G02X21984Y24250I4603J955D01*
G01*
Y24550*
X21334*
G75*
G02X18834I-1250*
G01*
X18334*
G75*
G02X15834I-1250*
G01*
X7784*
Y23295*
X9024*
G75*
G02X10584Y24241I1760J-1145*
G01*
Y23838*
G75*
G03X9528Y23295I200J-1689*
G01*
X12041*
G75*
G03X10984Y23838I-1257J-1146*
G01*
Y24241*
G75*
G02X12544Y23295I-200J-2090*
G01*
X22082*
G37*
X24189Y24550D02*
G36*
X23584D01*
Y24250*
Y24250*
G75*
G03X23735Y23295I3100J1*
G01*
X24456*
G75*
G02X24162Y24250I1407J955*
G01*
G75*
G02X24189Y24550I1700J0*
G01*
G37*
X38084D02*
G36*
X36481D01*
G75*
G02X34288I-1096J600*
G01*
X27535*
G75*
G02X27562Y24250I-1673J-300*
G01*
G75*
G02X27269Y23295I-1700*
G01*
X28341*
G75*
G02X29828I743J-1006*
G01*
X35459*
G75*
G02X37709I1125J-545*
G01*
X38084*
Y24550*
G37*
X41234D02*
G36*
X39884D01*
Y23295*
X41234*
Y24550*
G37*
X44778Y23295D02*
G36*
G75*
G02X44334Y24250I807J955D01*
G01*
G75*
G02X44371Y24550I1250J0*
G01*
X43134*
Y23295*
X44778*
G37*
X56284Y24550D02*
G36*
X47574D01*
G75*
G02X48733Y23295I-1990J-3001*
G01*
X53039*
G75*
G02X55530I1245J-107*
G01*
X56284*
Y24550*
G37*
X21984Y27550D02*
G36*
X15534D01*
G75*
G02X13034I-1250*
G01*
X7784*
Y24550*
X15834*
G75*
G02X18334I1250*
G01*
X18834*
G75*
G02X21334I1250*
G01*
X21984*
Y27550*
G37*
X38084D02*
G36*
X23584D01*
Y24550*
X24189*
G75*
G02X27535I1673J-300*
G01*
X34288*
G75*
G02X34134Y25150I1096J600*
G01*
G75*
G02X36634I1250*
G01*
G75*
G02X36481Y24550I-1250J0*
G01*
X38084*
Y27550*
G37*
X41234D02*
G36*
X39884D01*
Y24550*
X41234*
Y27550*
G37*
X56284D02*
G36*
X43134D01*
Y24550*
X44371*
G75*
G02X46576Y25011I1213J-300*
G01*
G75*
G02X47574Y24550I-992J-3460*
G01*
X56284*
Y27550*
G37*
X21984Y29950D02*
G36*
X17434D01*
G75*
G02X14934I-1250*
G01*
X7784*
Y27550*
X13034*
G75*
G02X15534I1250*
G01*
X21984*
Y29950*
G37*
X37712D02*
G36*
X32881D01*
G75*
G02X33034Y29350I-1096J-600*
G01*
G75*
G02X30534I-1250*
G01*
G75*
G02X30688Y29950I1250J0*
G01*
X23584*
Y27550*
X38084*
Y29578*
X37712Y29950*
G37*
X41234D02*
G36*
X39884D01*
Y27550*
X41234*
Y29950*
G37*
X56284D02*
G36*
X43134D01*
Y27550*
X56284*
Y29950*
G37*
X23337Y37450D02*
G36*
X1943D01*
G75*
G03X5284Y36181I3341J3765*
G01*
X5353*
G75*
G02X7784Y33750J-2431*
G01*
Y29950*
X14934*
G75*
G02X17434I1250*
G01*
X21984*
Y34150*
G75*
G02X23337Y37450I4700J0*
G01*
G37*
X41234D02*
G36*
X39769D01*
G75*
G02X40784Y34750I-3085J-2701*
G01*
Y34750*
Y34211*
G75*
G02X41234Y33250I-801J-961*
G01*
G75*
G02X38734I-1250*
G01*
G75*
G02X39184Y34211I1251J0*
G01*
Y34750*
G75*
G03X36684Y37250I-2500*
G01*
X26684*
G75*
G03X23584Y34150J-3100*
G01*
Y34150*
Y29950*
X30688*
G75*
G02X32881I1096J-600*
G01*
X37712*
X35936Y31726*
G75*
G02X34434Y32950I-252J1224*
G01*
G75*
G02X35149Y34080I1250*
G01*
G75*
G02X33834Y35328I-65J1248*
G01*
G75*
G02X36334I1250*
G01*
Y35328*
G75*
G02X35619Y34198I-1249*
G01*
G75*
G02X36874Y33332I64J-1249*
G01*
X39620Y30586*
G75*
G02X39884Y29950I-634J-636*
G01*
Y29950*
X41234*
Y33250*
Y37450*
G37*
X61534D02*
G36*
X56284D01*
G75*
G02X52884I-1700*
G01*
X43134*
Y29950*
X56284*
Y34250*
G75*
G02X58284Y36250I2000*
G01*
G75*
G03X61534Y37450I0J5000*
G01*
G37*
X41234Y40750D02*
G36*
X39184D01*
G75*
G02X38584Y40562I-800J1500*
G01*
Y40750*
X38184*
Y40562*
G75*
G02X37585Y40750I200J1688*
G01*
X7894*
G75*
G02X1674I-3110J500*
G01*
X272*
G75*
G03X1943Y37450I5012J465*
G01*
X23337*
G75*
G02X26684Y38850I3347J-3300*
G01*
X36684*
G75*
G02X39769Y37450I0J-4100*
G01*
X41234*
Y40750*
G37*
X63259D02*
G36*
X61894D01*
G75*
G02X55674I-3110J500*
G01*
X53984*
G75*
G02X49784I-2100*
G01*
X43134*
Y37450*
X52884*
G75*
G02X56284I1700*
G01*
X61534*
G75*
G03X63259Y40750I-3250J3799*
G01*
G37*
X1674D02*
G36*
G75*
G02X1634Y41250I3110J499D01*
G01*
G75*
G02X2306Y43194I3150J0*
G01*
X655*
G75*
G03X250Y41216I4630J-1979*
G01*
Y41216*
Y41215*
Y41214*
G75*
G03X272Y40750I5034J2*
G01*
X1674*
G37*
X41234Y43194D02*
G36*
X39798D01*
G75*
G02X40072Y42450I-1414J-945*
G01*
X39669*
G75*
G03X39278Y43194I-1285J-200*
G01*
X37491*
G75*
G03X37100Y42450I894J-944*
G01*
X36696*
G75*
G02X36971Y43194I1689J-201*
G01*
X30553*
G75*
G02X29284Y42362I-1469J856*
G01*
Y42765*
G75*
G03X30063Y43194I-200J1285*
G01*
X28106*
G75*
G03X28884Y42765I979J856*
G01*
Y42362*
G75*
G02X27616Y43194I201J1689*
G01*
X13392*
G75*
G02X11176I-1108J856*
G01*
X7263*
G75*
G02X7934Y41250I-2478J-1944*
G01*
G75*
G02X7894Y40750I-3150J-1*
G01*
X37585*
G75*
G02X36696Y42050I800J1501*
G01*
X37100*
G75*
G03X38184Y40965I1285J200*
G01*
Y40750*
X38584*
Y40965*
G75*
G03X39669Y42050I-200J1285*
G01*
X40072*
G75*
G02X39184Y40750I-1689J201*
G01*
X41234*
Y43194*
G37*
X55674Y40750D02*
G36*
G75*
G02X55634Y41250I3110J499D01*
G01*
G75*
G02X56306Y43194I3150J0*
G01*
X43134*
Y40750*
X49784*
G75*
G02X53984I2100*
G01*
X55674*
G37*
X61894D02*
G36*
X63259D01*
G75*
G03X63284Y41249I-4973J501*
G01*
Y41250*
Y41251*
G75*
G03X62891Y43194I-5000J0*
G01*
X61263*
G75*
G02X61934Y41250I-2478J-1944*
G01*
G75*
G02X61894Y40750I-3150J-1*
G01*
G37*
X2306Y43194D02*
G36*
G75*
G02X3341Y44050I2479J-1944D01*
G01*
X1124*
G75*
G03X655Y43194I4161J-2834*
G01*
X2306*
G37*
X10884Y44050D02*
G36*
X6227D01*
G75*
G02X7263Y43194I-1443J-2800*
G01*
X11176*
G75*
G02X10884Y44050I1108J856*
G01*
G37*
X41234D02*
G36*
X39934D01*
G75*
G02X39234I-350J1200*
G01*
X13684*
G75*
G02X13392Y43194I-1400*
G01*
X27616*
G75*
G02X27396Y43850I1469J857*
G01*
X27800*
G75*
G03X28106Y43194I1285J200*
G01*
X30063*
G75*
G03X30369Y43850I-979J856*
G01*
X30772*
G75*
G02X30553Y43194I-1689J201*
G01*
X36971*
G75*
G02X38184Y43938I1414J-944*
G01*
Y43535*
G75*
G03X37491Y43194I200J-1285*
G01*
X39278*
G75*
G03X38584Y43535I-894J-944*
G01*
Y43938*
G75*
G02X39798Y43194I-201J-1689*
G01*
X41234*
Y44050*
G37*
X56306Y43194D02*
G36*
G75*
G02X57341Y44050I2479J-1944D01*
G01*
X43134*
Y43194*
X56306*
G37*
X61263D02*
G36*
X62891D01*
G75*
G03X62427Y44050I-4607J-1944*
G01*
X60227*
G75*
G02X61263Y43194I-1443J-2800*
G01*
G37*
X10884Y44050D02*
G36*
G75*
G02X11250Y44994I1400D01*
G01*
X1957*
G75*
G03X1124Y44050I3327J-3779*
G01*
X3341*
G75*
G02X6227I1443J-2800*
G01*
X10884*
G37*
X38361Y44994D02*
G36*
X30498D01*
G75*
G02X30772Y44250I-1414J-945*
G01*
X30369*
G75*
G03X29978Y44994I-1285J-200*
G01*
X28191*
G75*
G03X27800Y44250I894J-944*
G01*
X27396*
G75*
G02X27671Y44994I1689J-201*
G01*
X13318*
G75*
G02X13684Y44050I-1034J-944*
G01*
X39234*
G75*
G02X38361Y44994I350J1200*
G01*
G37*
X41234Y44050D02*
G36*
Y44550D01*
G75*
G03X41209Y44994I-3951J-2*
G01*
X40808*
G75*
G02X39934Y44050I-1224J256*
G01*
X41234*
G37*
X61598Y44994D02*
G36*
X43117D01*
G75*
G02X43134Y44550I-5835J-445*
G01*
Y44050*
X57341*
G75*
G02X60227I1443J-2800*
G01*
X62427*
G75*
G03X61598Y44994I-4143J-2799*
G01*
G37*
X41209D02*
G36*
G75*
G03X40267Y47139I-3925J-444D01*
G01*
X36484*
G75*
G02X33084I-1700*
G01*
X30034*
G75*
G02X27534I-1250*
G01*
X7447*
G75*
G02X5784Y46250I-1663J1111*
G01*
X5284*
G75*
G03X1957Y44994I0J-5035*
G01*
X11250*
G75*
G02X13318I1034J-944*
G01*
X27671*
G75*
G02X28884Y45738I1414J-944*
G01*
Y45335*
G75*
G03X28191Y44994I200J-1285*
G01*
X29978*
G75*
G03X29284Y45335I-894J-944*
G01*
Y45738*
G75*
G02X30498Y44994I-201J-1689*
G01*
X38361*
G75*
G02X38334Y45250I1224J256*
G01*
G75*
G02X40834I1250*
G01*
G75*
G02X40808Y44994I-1250J0*
G01*
X41209*
G37*
X56621Y47139D02*
G36*
X42530D01*
G75*
G02X43117Y44994I-5246J-2589*
G01*
X61598*
G75*
G03X58284Y46250I-3314J-3744*
G01*
G75*
G02X56621Y47139J2000*
G01*
G37*
X33084D02*
G36*
G75*
G02X33766Y48500I1700D01*
G01*
X28397*
G75*
G02X26334Y49450I-813J950*
G01*
G75*
G02X26812Y50433I1250*
G01*
X15234*
G75*
G02X13535I-850J917*
G01*
X12708*
G75*
G02X11884Y49916I-1024J717*
G01*
Y50324*
G75*
G03X12140Y50433I-201J827*
G01*
X11228*
G75*
G03X11484Y50324I457J718*
G01*
Y49916*
G75*
G02X10660Y50433I200J1234*
G01*
X7784*
Y48250*
G75*
G02X7447Y47139I-2000*
G01*
X27534*
G75*
G02X30034I1250*
G01*
X33084*
G37*
X56284Y50433D02*
G36*
X28357D01*
G75*
G02X28397Y50400I-772J-979*
G01*
X37284*
G75*
G02X42530Y47139J-5850*
G01*
X56621*
G75*
G02X56284Y48250I1663J1111*
G01*
Y50433*
G37*
X40267Y47139D02*
G36*
G75*
G03X37284Y48500I-2983J-2590D01*
G01*
X35803*
G75*
G02X36484Y47139I-1019J-1361*
G01*
X40267*
G37*
X56284Y51867D02*
G36*
X49237D01*
G75*
G02X46331I-1453J883*
G01*
X43888*
G75*
G02X43081I-404J1183*
G01*
X39988*
G75*
G02X39181I-404J1183*
G01*
X15522*
G75*
G02X15634Y51350I-1138J-517*
G01*
G75*
G02X15234Y50433I-1250*
G01*
X26812*
G75*
G02X28357I772J-983*
G01*
X56284*
Y51867*
G37*
X13246D02*
G36*
X12708D01*
G75*
G02X12918Y51350I-1024J-717*
G01*
X12510*
G75*
G03X12140Y51867I-827J-201*
G01*
X11228*
G75*
G03X10858Y51350I457J-718*
G01*
X10450*
G75*
G02X10660Y51867I1234J-200*
G01*
X7784*
Y50433*
X10660*
G75*
G02X10450Y50950I1024J717*
G01*
X10858*
G75*
G03X11228Y50433I827J201*
G01*
X12140*
G75*
G03X12510Y50950I-457J718*
G01*
X12918*
G75*
G02X12708Y50433I-1234J200*
G01*
X13535*
G75*
G02X13134Y51350I850J917*
G01*
G75*
G02X13246Y51867I1250*
G01*
G37*
X38334Y53050D02*
G36*
X7784D01*
Y51867*
X10660*
G75*
G02X11484Y52384I1024J-717*
G01*
Y51976*
G75*
G03X11228Y51867I201J-827*
G01*
X12140*
G75*
G03X11884Y51976I-457J-718*
G01*
Y52384*
G75*
G02X12708Y51867I-200J-1234*
G01*
X13246*
G75*
G02X15522I1138J-517*
G01*
X39181*
G75*
G02X38334Y53050I404J1183*
G01*
G37*
X42234D02*
G36*
X40834D01*
G75*
G02X39988Y51867I-1250*
G01*
X43081*
G75*
G02X42234Y53050I404J1183*
G01*
G37*
X46111D02*
G36*
X44734D01*
G75*
G02X43888Y51867I-1250*
G01*
X46331*
G75*
G02X46084Y52750I1453J883*
G01*
G75*
G02X46111Y53050I1700J0*
G01*
G37*
X56284D02*
G36*
X49457D01*
G75*
G02X49484Y52750I-1673J-300*
G01*
G75*
G02X49237Y51867I-1700*
G01*
X56284*
Y53050*
G37*
Y55550D02*
G36*
X54634D01*
G75*
G02X52134I-1250*
G01*
X7784*
Y53050*
X38334*
G75*
G02X40834I1250*
G01*
X42234*
G75*
G02X44734I1250*
G01*
X46111*
G75*
G02X49457I1673J-300*
G01*
X56284*
Y55550*
G37*
Y56950D02*
G36*
X32734D01*
G75*
G02X30234I-1250*
G01*
X28488*
G75*
G02X26080I-1204J1200*
G01*
X25252*
G75*
G02X23517I-868J900*
G01*
X22352*
G75*
G02X20617I-867J900*
G01*
X20230*
G75*
G02X17738I-1246J100*
G01*
X7784*
Y55550*
X52134*
G75*
G02X54634I1250*
G01*
X56284*
Y56950*
G37*
Y58750D02*
G36*
X54984D01*
G75*
G02X51584I-1700*
G01*
X28875*
G75*
G02X28984Y58150I-1591J-600*
G01*
G75*
G02X28488Y56950I-1700J0*
G01*
X30234*
G75*
G02X32734I1250*
G01*
X56284*
Y58750*
G37*
X20617D02*
G36*
X7784D01*
Y56950*
X17738*
G75*
G02X17734Y57050I1246J99*
G01*
G75*
G02X20234I1250*
G01*
G75*
G02X20230Y56950I-1250J-1*
G01*
X20617*
G75*
G02X20234Y57850I867J900*
G01*
G75*
G02X20617Y58750I1250*
G01*
G37*
X23517D02*
G36*
X22352D01*
G75*
G02X22734Y57850I-867J-900*
G01*
G75*
G02X22352Y56950I-1250*
G01*
X23517*
G75*
G02X23134Y57850I868J900*
G01*
G75*
G02X23517Y58750I1250*
G01*
G37*
X26080Y56950D02*
G36*
G75*
G02X25631Y57756I1204J1200D01*
G01*
G75*
G02X25252Y56950I-1246J94*
G01*
X26080*
G37*
X25694Y58750D02*
G36*
X25252D01*
G75*
G02X25585Y58198I-868J-900*
G01*
G75*
G02X25694Y58750I1699J-47*
G01*
G37*
G36*
G75*
G02X26407Y59606I1591J-600*
G01*
X7784*
Y58750*
X20617*
G75*
G02X22352I867J-900*
G01*
X23517*
G75*
G02X25252I868J-900*
G01*
X25694*
G37*
X51584D02*
G36*
G75*
G02X51815Y59606I1700D01*
G01*
X48942*
G75*
G02X46427I-1257J1144*
G01*
X40998*
G75*
G02X39784Y58862I-1414J944*
G01*
Y59265*
G75*
G03X40478Y59606I-200J1285*
G01*
X38691*
G75*
G03X39384Y59265I894J944*
G01*
Y58862*
G75*
G02X38171Y59606I201J1689*
G01*
X28161*
G75*
G02X28875Y58750I-877J-1456*
G01*
X51584*
G37*
X56284Y59606D02*
G36*
X54753D01*
G75*
G02X54984Y58750I-1469J-856*
G01*
X56284*
Y59606*
G37*
X45984Y60750D02*
G36*
X41272D01*
X40869*
X38300*
X37896*
X18254*
G75*
G02X15315I-1470J1500*
G01*
X7784*
Y59606*
X26407*
G75*
G02X28161I877J-1456*
G01*
X38171*
G75*
G02X37896Y60350I1414J945*
G01*
X38300*
G75*
G03X38691Y59606I1285J200*
G01*
X40478*
G75*
G03X40869Y60350I-894J944*
G01*
X41272*
G75*
G02X40998Y59606I-1689J201*
G01*
X46427*
G75*
G02X45984Y60750I1257J1144*
G01*
G37*
X56284D02*
G36*
X49384D01*
G75*
G02X48942Y59606I-1700*
G01*
X51815*
G75*
G02X54753I1469J-856*
G01*
X56284*
Y60750*
G37*
X36759Y68250D02*
G36*
X34934D01*
G75*
G02X28634I-3150*
G01*
X26809*
G75*
G03X26784Y67750I4975J-501*
G01*
G75*
G02X24784Y65750I-2000*
G01*
X7784*
Y60750*
X15315*
G75*
G02X14684Y62250I1470J1500*
G01*
G75*
G02X18884I2100*
G01*
G75*
G02X18254Y60750I-2100*
G01*
X37896*
G75*
G02X38952Y62128I1689J-201*
G01*
G75*
G02X38184Y63550I932J1422*
G01*
G75*
G02X41584I1700*
G01*
G75*
G02X40516Y61972I-1701J0*
G01*
G75*
G02X41272Y60750I-934J-1423*
G01*
X45984*
G75*
G02X49384I1700*
G01*
X56284*
Y65750*
X38784*
G75*
G02X36784Y67750J2000*
G01*
G75*
G03X36759Y68250I-5000J-1*
G01*
G37*
X40869Y60750D02*
G36*
G75*
G03X39784Y61835I-1285J-200D01*
G01*
Y61853*
G75*
G02X39384Y61925I105J1718*
G01*
Y61835*
G75*
G03X38300Y60750I200J-1285*
G01*
X40869*
G37*
X31784Y72750D02*
G36*
G75*
G03X26809Y68250J-5000D01*
G01*
X28634*
G75*
G02X34934I3150*
G01*
X36759*
G75*
G03X31784Y72750I-4975J-500*
G01*
G37*
D02*
D11*
X4784Y41250D03*
X31784Y68250D03*
X58784Y41250D03*
D02*
D12*
X9584Y9550D03*
X9784Y15050D03*
X11684Y51150D03*
X11984Y9150D03*
X13884Y11650D03*
X14284Y27550D03*
X14384Y51350D03*
X16084Y13250D03*
X16184Y29950D03*
X17084Y24550D03*
X18284Y15850D03*
X18384Y11950D03*
Y20150D03*
X18984Y57050D03*
X20084Y24550D03*
X20984Y12550D03*
X21484Y57850D03*
X24384D03*
X26584Y11950D03*
X27284Y20350D03*
X27584Y49450D03*
X28784Y47139D03*
X29084Y22290D03*
X29584Y19750D03*
X30684Y17750D03*
X31484Y56950D03*
X31784Y29350D03*
X32684Y11950D03*
X35084Y35328D03*
X35384Y25150D03*
X35484Y15650D03*
X35684Y32950D03*
X35784Y18050D03*
X36584Y22750D03*
X39584Y45250D03*
Y53050D03*
X39984Y33250D03*
X40084Y13150D03*
X40784Y15550D03*
X42584Y13150D03*
X43284Y15650D03*
X43484Y53050D03*
X45584Y21850D03*
Y24250D03*
X50684Y5350D03*
X51884Y14050D03*
X52884Y6050D03*
X53084Y15850D03*
X53384Y55550D03*
X53984Y13450D03*
X54284Y18250D03*
Y20750D03*
Y23189D03*
D02*
D13*
X25862Y24250D03*
X27284Y58150D03*
X29084Y44050D03*
X33084Y19150D03*
X34784Y47139D03*
X38384Y42250D03*
X39584Y60550D03*
X39884Y63550D03*
X47684Y60750D03*
X47784Y52750D03*
X53284Y58750D03*
X54584Y37450D03*
D02*
D14*
X12284Y44050D03*
D02*
D15*
X10784Y22150D03*
X16784Y62250D03*
X51884Y40750D03*
D02*
D16*
X27584Y49450D02*
X37284D01*
G75*
G02X42184Y44550J-4900*
G01*
Y17930*
X40784Y15550D02*
Y16550D01*
X42184Y17950*
Y17930*
D02*
D17*
X39984Y33250D02*
G75*
G03Y33850I-300J300D01*
G01*
Y34750*
G75*
G03X36684Y38050I-3300*
G01*
X26684*
G75*
G03X22784Y34150J-3900*
G01*
Y24250*
G75*
G03X26684Y20350I3900*
G01*
X27284*
D02*
D19*
X35684Y32950D02*
X35984D01*
X38984Y29950*
Y14250*
G75*
G03X40084Y13150I1100*
G01*
X53984Y13450D02*
G75*
G02X51584Y11050I-2400D01*
G01*
X50384*
G75*
G02X48284Y13150J2100*
G01*
Y21550*
G75*
G03X45584Y24250I-2700*
G01*
X0Y0D02*
M02*
