G04 EasyPC Gerber Version 21.0.3 Build 4286 *
G04 #@! TF.Part,Single*
G04 #@! TF.FileFunction,Soldermask,Bot *
G04 #@! TF.FilePolarity,Negative *
%FSLAX35Y35*%
%MOIN*%
G04 #@! TA.AperFunction,SMDPad*
%ADD88R,0.01387X0.01781*%
%ADD90R,0.01800X0.01800*%
%ADD92R,0.02600X0.03000*%
%ADD91R,0.03000X0.04100*%
%ADD83C,0.01978*%
%ADD89R,0.01781X0.01387*%
%ADD87R,0.01800X0.01800*%
%ADD85R,0.02431X0.02175*%
%ADD84R,0.05400X0.02200*%
G04 #@! TA.AperFunction,WasherPad*
%ADD82C,0.06100*%
G04 #@! TA.AperFunction,SMDPad*
%ADD86R,0.04100X0.03000*%
X0Y0D02*
D02*
D82*
X4784Y41250D03*
X31784Y68250D03*
X58784Y41250D03*
D02*
D83*
X17988Y27454D03*
Y31391D03*
Y35328D03*
Y39265D03*
Y43202D03*
Y47139D03*
Y51076D03*
Y55013D03*
X21925Y27454D03*
Y31391D03*
Y35328D03*
Y39265D03*
Y43202D03*
Y47139D03*
Y51076D03*
Y55013D03*
X25862Y27454D03*
Y31391D03*
Y35328D03*
Y47139D03*
Y51076D03*
Y55013D03*
X29799Y27454D03*
Y31391D03*
Y51076D03*
Y55013D03*
X33736Y27454D03*
Y31391D03*
Y51076D03*
Y55013D03*
X37673Y27454D03*
Y31391D03*
Y35328D03*
Y47139D03*
Y51076D03*
Y55013D03*
X41610Y27454D03*
Y31391D03*
Y35328D03*
Y39265D03*
Y43202D03*
Y47139D03*
Y51076D03*
Y55013D03*
X45547Y27454D03*
Y31391D03*
Y35328D03*
Y39265D03*
Y43202D03*
Y47139D03*
Y51076D03*
Y55013D03*
D02*
D84*
X17284Y2150D03*
Y4650D03*
Y7250D03*
Y9750D03*
X26884Y2150D03*
Y4650D03*
Y7250D03*
Y9750D03*
X35684Y2150D03*
Y4650D03*
Y7250D03*
Y9750D03*
X45284Y2150D03*
Y4650D03*
Y7250D03*
Y9750D03*
D02*
D85*
X22996Y15850D03*
X27972Y14275D03*
Y17425D03*
X32596Y15850D03*
X37572Y14275D03*
Y17425D03*
D02*
D86*
X10784Y6150D03*
Y12150D03*
X51284Y2650D03*
Y8650D03*
D02*
D87*
X45284Y64150D03*
X47684D03*
D02*
D88*
X10095Y33862D03*
Y35938D03*
X10884Y28838D03*
Y30938D03*
X11473Y33862D03*
Y35938D03*
X12262Y28838D03*
Y30938D03*
X31695Y60762D03*
X33073D03*
X35295Y60362D03*
X36673D03*
D02*
D89*
X10796Y60961D03*
Y62339D03*
X13796Y60961D03*
Y62339D03*
X50296Y61061D03*
Y62439D03*
X51296Y47261D03*
Y48639D03*
X53296Y61061D03*
Y62439D03*
X53696Y47261D03*
Y48639D03*
D02*
D90*
X11584Y24450D03*
Y26850D03*
X11684Y53050D03*
Y55450D03*
D02*
D91*
X21284Y61650D03*
X27284D03*
D02*
D92*
X32184Y63094D03*
X36184D03*
X0Y0D02*
M02*
