G04 EasyPC Gerber Version 21.0.3 Build 4286 *
G04 #@! TF.Part,Single*
G04 #@! TF.FileFunction,Copper,L2,Inr *
G04 #@! TF.FilePolarity,Positive *
%FSLAX35Y35*%
%MOIN*%
%ADD10C,0.00001*%
%ADD18C,0.00600*%
%ADD17C,0.00800*%
%ADD19C,0.01000*%
%ADD16C,0.01100*%
G04 #@! TA.AperFunction,ViaPad*
%ADD12C,0.01700*%
%ADD14C,0.02000*%
%ADD13C,0.02600*%
%ADD15C,0.03400*%
G04 #@! TA.AperFunction,WasherPad*
%ADD11C,0.05500*%
X0Y0D02*
D02*
D10*
X63284Y41250D02*
G75*
G03X58284Y46250I-5000D01*
G01*
G75*
G02X56284Y48250J2000*
G01*
Y65750*
X38784*
G75*
G02X36784Y67750J2000*
G01*
G75*
G03X26784I-5000*
G01*
G75*
G02X24784Y65750I-2000*
G01*
X7784*
Y48250*
G75*
G02X5784Y46250I-2000*
G01*
X5284*
G75*
G03X250Y41216J-5034*
G01*
Y41216*
Y41215*
G75*
G03X5284Y36181I5034*
G01*
X5353*
G75*
G02X7784Y33750J-2431*
G01*
Y250*
X56284*
Y34250*
G75*
G02X58284Y36250I2000*
G01*
G75*
G03X63284Y41250J5000*
G01*
X40084Y65238D02*
G75*
G02X41572Y63750I-200J-1689D01*
G01*
X41169*
G75*
G03X40084Y64835I-1285J-200*
G01*
Y65238*
X42234Y53050D02*
G75*
G02X44734I1250D01*
G01*
G75*
G02X42234I-1250*
G01*
X45984Y60750D02*
G75*
G02X49384I1700D01*
G01*
G75*
G02X45984I-1700*
G01*
X46500Y52550D02*
G75*
G03X47584Y51465I1285J200D01*
G01*
Y51062*
G75*
G02X46096Y52550I200J1689*
G01*
X46500*
X46096Y52950D02*
G75*
G02X47584Y54438I1689J-200D01*
G01*
Y54035*
G75*
G03X46500Y52950I200J-1285*
G01*
X46096*
X49069Y52550D02*
X49472D01*
G75*
G02X47984Y51062I-1689J200*
G01*
Y51465*
G75*
G03X49069Y52550I-200J1285*
G01*
X47984Y54438D02*
G75*
G02X49472Y52950I-200J-1689D01*
G01*
X49069*
G75*
G03X47984Y54035I-1285J-200*
G01*
Y54438*
X50196Y40550D02*
G75*
G03X51684Y39062I1689J200D01*
G01*
Y38659*
G75*
G02X49794Y40550I200J2091*
G01*
X50196*
X49794Y40950D02*
G75*
G02X51684Y42841I2091J-200D01*
G01*
Y42438*
G75*
G03X50196Y40950I200J-1689*
G01*
X49794*
X52000Y58550D02*
G75*
G03X53084Y57465I1285J200D01*
G01*
Y57062*
G75*
G02X51596Y58550I200J1689*
G01*
X52000*
X53572Y40550D02*
X53975D01*
G75*
G02X52084Y38659I-2091J200*
G01*
Y39062*
G75*
G03X53572Y40550I-200J1689*
G01*
X52884Y37450D02*
G75*
G02X56284I1700D01*
G01*
G75*
G02X52884I-1700*
G01*
X53034Y23189D02*
G75*
G02X55534I1250D01*
G01*
G75*
G02X54559Y21969I-1250*
G01*
G75*
G02X55518Y20950I-275J-1219*
G01*
X55110*
G75*
G03X54484Y21576I-827J-201*
G01*
Y21955*
G75*
G02X54084I-200J1234*
G01*
Y21576*
G75*
G03X53458Y20950I201J-827*
G01*
X53050*
G75*
G02X54009Y21969I1234J-200*
G01*
G75*
G02X53034Y23189I275J1219*
G01*
X55110Y20550D02*
X55518D01*
G75*
G02X54484Y19516I-1234J200*
G01*
Y19924*
G75*
G03X55110Y20550I-201J827*
G01*
X53458D02*
G75*
G03X54084Y19924I827J201D01*
G01*
Y19516*
G75*
G02X53050Y20550I200J1234*
G01*
X53458*
X52084Y42841D02*
G75*
G02X53975Y40950I-200J-2091D01*
G01*
X53572*
G75*
G03X52084Y42438I-1689J-200*
G01*
Y42841*
X52134Y55550D02*
G75*
G02X54634I1250D01*
G01*
G75*
G02X52134I-1250*
G01*
X51596Y58950D02*
G75*
G02X53084Y60438I1689J-200D01*
G01*
Y60035*
G75*
G03X52000Y58950I200J-1285*
G01*
X51596*
X54569Y58550D02*
X54972D01*
G75*
G02X53484Y57062I-1689J200*
G01*
Y57465*
G75*
G03X54569Y58550I-200J1285*
G01*
X53484Y60438D02*
G75*
G02X54972Y58950I-200J-1689D01*
G01*
X54569*
G75*
G03X53484Y60035I-1285J-200*
G01*
Y60438*
X55634Y41250D02*
G75*
G02X61934I3150D01*
G01*
G75*
G02X55634I-3150*
G01*
X41169Y63350D02*
X41572D01*
G75*
G02X40516Y61972I-1689J200*
G01*
G75*
G02X41284Y60550I-932J-1422*
G01*
G75*
G02X37884I-1700*
G01*
G75*
G02X38952Y62128I1700*
G01*
G75*
G02X38196Y63350I932J1422*
G01*
X38600*
G75*
G03X39684Y62265I1285J200*
G01*
Y62247*
G75*
G02X40084Y62175I-101J-1697*
G01*
Y62265*
G75*
G03X41169Y63350I-200J1285*
G01*
X38334Y53050D02*
G75*
G02X40834I1250D01*
G01*
G75*
G02X38334I-1250*
G01*
X38196Y63750D02*
G75*
G02X39684Y65238I1689J-200D01*
G01*
Y64835*
G75*
G03X38600Y63750I200J-1285*
G01*
X38196*
X28634Y68250D02*
G75*
G02X34934I3150D01*
G01*
G75*
G02X28634I-3150*
G01*
X53540Y19254D02*
G75*
G02X55534Y18250I744J-1004D01*
G01*
G75*
G02X53413Y17354I-1250*
G01*
G75*
G02X47234Y24350I872J6996*
G01*
Y39957*
X31491Y55700*
G75*
G02X30234Y56950I-7J1250*
G01*
G75*
G02X32716Y57161I1250*
G01*
X48856Y41022*
G75*
G02X49134Y40350I-673J-672*
G01*
Y24350*
Y24350*
G75*
G03X53540Y19254I5150*
G01*
X51639Y6157D02*
G75*
G02X54134Y6050I1245J-107D01*
G01*
G75*
G02X51930Y5243I-1250*
G01*
G75*
G02X49434Y5350I-1245J107*
G01*
G75*
G02X51639Y6157I1250*
G01*
X53101Y14335D02*
G75*
G02X55234Y13450I883J-885D01*
G01*
G75*
G02X52767Y13165I-1250*
G01*
G75*
G02X50634Y14050I-883J885*
G01*
G75*
G02X51963Y15298I1250*
G01*
G75*
G02X51834Y15850I1121J552*
G01*
G75*
G02X54334I1250*
G01*
G75*
G02X53006Y14602I-1250*
G01*
G75*
G02X53101Y14335I-1120J-552*
G01*
X33500Y46939D02*
G75*
G03X34584Y45854I1285J200D01*
G01*
Y45451*
G75*
G02X33096Y46939I200J1689*
G01*
X33500*
X34258Y35128D02*
G75*
G03X34884Y34502I827J201D01*
G01*
Y34094*
G75*
G02X33850Y35128I200J1234*
G01*
X34258*
X41334Y13150D02*
G75*
G02X43834I1250D01*
G01*
G75*
G02X43200Y12062I-1250J0*
G01*
G75*
G02X40084Y9850I-3115J1088*
G01*
X39484*
G75*
G02X36984Y12350J2500*
G01*
Y17050*
G75*
G02X37219Y17616I801J0*
G01*
X39184Y19581*
Y22450*
G75*
G03X37284Y24350I-1900*
G01*
X36345*
G75*
G02X34134Y25150I-961J800*
G01*
G75*
G02X36345Y25950I1250*
G01*
X37284*
G75*
G02X40784Y22450J-3500*
G01*
Y19250*
G75*
G02X40550Y18684I-801J0*
G01*
X38584Y16719*
Y12350*
G75*
G03X39484Y11450I900*
G01*
X40084*
G75*
G03X41600Y12380I0J1700*
G01*
G75*
G02X41334Y13150I985J770*
G01*
X40434Y14350D02*
G75*
G02X41334Y13150I-350J-1200D01*
G01*
G75*
G02X38834I-1250*
G01*
G75*
G02X40434Y14350I1250*
G01*
X39534Y15550D02*
G75*
G02X42034I1250D01*
G01*
G75*
G02X40434Y14350I-1250*
G01*
G75*
G02X39534Y15550I350J1200*
G01*
X35334Y22750D02*
G75*
G02X37834I1250D01*
G01*
G75*
G02X35334I-1250*
G01*
X35619Y34198D02*
G75*
G02X36934Y32950I65J-1248D01*
G01*
G75*
G02X34434I-1250*
G01*
G75*
G02X35284Y34134I1250*
G01*
Y34502*
G75*
G03X35910Y35128I-201J827*
G01*
X36318*
G75*
G02X35619Y34198I-1234J200*
G01*
X33850Y35528D02*
G75*
G02X34884Y36562I1234J-200D01*
G01*
Y36154*
G75*
G03X34258Y35528I201J-827*
G01*
X33850*
X33096Y47339D02*
G75*
G02X34584Y48827I1689J-200D01*
G01*
Y48424*
G75*
G03X33500Y47339I200J-1285*
G01*
X33096*
X36069Y46939D02*
X36472D01*
G75*
G02X34984Y45451I-1689J200*
G01*
Y45854*
G75*
G03X36069Y46939I-200J1285*
G01*
X35284Y36562D02*
G75*
G02X36318Y35528I-200J-1234D01*
G01*
X35910*
G75*
G03X35284Y36154I-827J-201*
G01*
Y36562*
X34984Y48827D02*
G75*
G02X36472Y47339I-200J-1689D01*
G01*
X36069*
G75*
G03X34984Y48424I-1285J-200*
G01*
Y48827*
X36684Y42250D02*
G75*
G02X40084I1700D01*
G01*
G75*
G02X36684I-1700*
G01*
X38734Y33250D02*
G75*
G02X41234I1250D01*
G01*
G75*
G02X38734I-1250*
G01*
X38334Y45250D02*
G75*
G02X40834I1250D01*
G01*
G75*
G02X38334I-1250*
G01*
X42458Y15450D02*
G75*
G03X43084Y14824I827J201D01*
G01*
Y14416*
G75*
G02X42050Y15450I200J1234*
G01*
X42458*
X42050Y15850D02*
G75*
G02X43084Y16884I1234J-200D01*
G01*
Y16476*
G75*
G03X42458Y15850I201J-827*
G01*
X42050*
X44110Y15450D02*
X44518D01*
G75*
G02X43484Y14416I-1234J200*
G01*
Y14824*
G75*
G03X44110Y15450I-201J827*
G01*
X43484Y16884D02*
G75*
G02X44518Y15850I-200J-1234D01*
G01*
X44110*
G75*
G03X43484Y16476I-827J-201*
G01*
Y16884*
X44334Y24250D02*
G75*
G02X46834I1250D01*
G01*
G75*
G02X45934Y23050I-1250*
G01*
G75*
G02X46834Y21850I-350J-1200*
G01*
G75*
G02X44334I-1250*
G01*
G75*
G02X45234Y23050I1250*
G01*
G75*
G02X44334Y24250I350J1200*
G01*
X17324Y16650D02*
G75*
G02X19534Y15850I961J-800D01*
G01*
G75*
G02X17324Y15050I-1250*
G01*
X15884*
G75*
G03X10457Y10444I0J-5500*
G01*
G75*
G02X10831Y9633I-873J-894*
G01*
G75*
G02X13234Y9150I1153J-483*
G01*
G75*
G02X10737Y9067I-1250*
G01*
G75*
G02X8334Y9550I-1153J483*
G01*
G75*
G02X8857Y10567I1250*
G01*
G75*
G02X10272Y13899I7027J-1017*
G01*
G75*
G02X9984Y13816I-488J1152*
G01*
Y14224*
G75*
G03X10610Y14850I-201J827*
G01*
X11018*
G75*
G02X10979Y14683I-1233J201*
G01*
G75*
G02X15884Y16650I4905J-5133*
G01*
X17324*
X12634Y11650D02*
G75*
G02X15134I1250D01*
G01*
G75*
G02X12634I-1250*
G01*
X14834Y13250D02*
G75*
G02X17334I1250D01*
G01*
G75*
G02X14834I-1250*
G01*
X17134Y11950D02*
G75*
G02X19634I1250D01*
G01*
G75*
G02X17134I-1250*
G01*
X8958Y14850D02*
G75*
G03X9584Y14224I827J201D01*
G01*
Y13816*
G75*
G02X8550Y14850I200J1234*
G01*
X8958*
X8550Y15250D02*
G75*
G02X9584Y16284I1234J-200D01*
G01*
Y15876*
G75*
G03X8958Y15250I201J-827*
G01*
X8550*
X8684Y22150D02*
G75*
G02X12884I2100D01*
G01*
G75*
G02X8684I-2100*
G01*
X9984Y16284D02*
G75*
G02X11018Y15250I-200J-1234D01*
G01*
X10610*
G75*
G03X9984Y15876I-827J-201*
G01*
Y16284*
X10434Y51150D02*
G75*
G02X12934I1250D01*
G01*
G75*
G02X10434I-1250*
G01*
X11304Y43850D02*
G75*
G03X12084Y43070I981J201D01*
G01*
Y42664*
G75*
G02X10898Y43850I200J1385*
G01*
X11304*
X10898Y44250D02*
G75*
G02X12084Y45436I1385J-200D01*
G01*
Y45030*
G75*
G03X11304Y44250I201J-981*
G01*
X10898*
X13264Y43850D02*
X13670D01*
G75*
G02X12484Y42664I-1385J200*
G01*
Y43070*
G75*
G03X13264Y43850I-201J981*
G01*
X13034Y27550D02*
G75*
G02X15534I1250D01*
G01*
G75*
G02X13034I-1250*
G01*
X12484Y45436D02*
G75*
G02X13670Y44250I-200J-1385D01*
G01*
X13264*
G75*
G03X12484Y45030I-981J-201*
G01*
Y45436*
X13134Y51350D02*
G75*
G02X15634I1250D01*
G01*
G75*
G02X13134I-1250*
G01*
X14934Y29950D02*
G75*
G02X17434I1250D01*
G01*
G75*
G02X14934I-1250*
G01*
X16258Y24350D02*
G75*
G03X16884Y23724I827J201D01*
G01*
Y23316*
G75*
G02X15850Y24350I200J1234*
G01*
X16258*
X15850Y24750D02*
G75*
G02X16884Y25784I1234J-200D01*
G01*
Y25376*
G75*
G03X16258Y24750I201J-827*
G01*
X15850*
X17134Y20150D02*
G75*
G02X19634I1250D01*
G01*
G75*
G02X17134I-1250*
G01*
X17910Y24350D02*
X18318D01*
G75*
G02X17284Y23316I-1234J200*
G01*
Y23724*
G75*
G03X17910Y24350I-201J827*
G01*
X17284Y25784D02*
G75*
G02X18318Y24750I-200J-1234D01*
G01*
X17910*
G75*
G03X17284Y25376I-827J-201*
G01*
Y25784*
X14684Y62250D02*
G75*
G02X18884I2100D01*
G01*
G75*
G02X14684I-2100*
G01*
X18158Y56850D02*
G75*
G03X18784Y56224I827J201D01*
G01*
Y55816*
G75*
G02X17750Y56850I200J1234*
G01*
X18158*
X17750Y57250D02*
G75*
G02X18784Y58284I1234J-200D01*
G01*
Y57876*
G75*
G03X18158Y57250I201J-827*
G01*
X17750*
X18834Y24550D02*
G75*
G02X21334I1250D01*
G01*
G75*
G02X18834I-1250*
G01*
X34729Y18720D02*
G75*
G02X37034Y18050I1055J-670D01*
G01*
G75*
G02X35948Y16811I-1250*
G01*
G75*
G02X36718Y15850I-464J-1161*
G01*
X36310*
G75*
G03X35684Y16476I-827J-201*
G01*
Y16804*
G75*
G02X34534Y18050I100J1246*
G01*
G75*
G02X34561Y18308I1250J1*
G01*
G75*
G02X31924Y17907I-1477J842*
G01*
G75*
G02X31934Y17750I-1239J-157*
G01*
G75*
G02X29724Y16950I-1250*
G01*
X26184*
G75*
G03X21873Y13429I0J-4400*
G01*
G75*
G02X22234Y12550I-889J-879*
G01*
G75*
G02X19734I-1250*
G01*
G75*
G02X20273Y13578I1250*
G01*
G75*
G02X26184Y18550I5912J-1028*
G01*
X29234*
G75*
G02X28337Y19675I350J1200*
G01*
G75*
G02X26034Y20350I-1052J675*
G01*
G75*
G02X28532Y20425I1250*
G01*
G75*
G02X29659Y20998I1052J-675*
G01*
X30084Y21422*
Y21540*
G75*
G02X27834Y22290I-1000J750*
G01*
G75*
G02X28384Y23326I1250*
G01*
Y30250*
G75*
G03X26684Y31950I-1700*
G01*
G75*
G02X23684Y34950J3000*
G01*
Y56815*
G75*
G02X23134Y57850I700J1035*
G01*
G75*
G02X25585Y58198I1250*
G01*
G75*
G02X28984Y58150I1699J-48*
G01*
G75*
G02X25631Y57756I-1700*
G01*
G75*
G02X25084Y56815I-1246J94*
G01*
Y34950*
Y34950*
G75*
G03X26684Y33350I1600*
G01*
G75*
G02X29784Y30250J-3100*
G01*
Y30250*
Y23326*
G75*
G02X30084Y23040I-700J-1035*
G01*
Y28450*
Y28450*
G75*
G02X30348Y29086I898*
G01*
X30537Y29275*
G75*
G02X30534Y29350I1246J77*
G01*
G75*
G02X33034I1250*
G01*
G75*
G02X31913Y28107I-1250*
G01*
X31884Y28078*
Y21050*
Y21050*
G75*
G02X31620Y20414I-898*
G01*
X30828Y19621*
G75*
G02X30581Y18996I-1243J129*
G01*
G75*
G02X31431Y18752I103J-1246*
G01*
G75*
G02X31384Y19150I1653J398*
G01*
G75*
G02X34784I1700*
G01*
G75*
G02X34729Y18720I-1700J-1*
G01*
X24162Y24250D02*
G75*
G02X27562I1700D01*
G01*
G75*
G02X24162I-1700*
G01*
X26334Y49450D02*
G75*
G02X28834I1250D01*
G01*
G75*
G02X26334I-1250*
G01*
X27384Y44050D02*
G75*
G02X30784I1700D01*
G01*
G75*
G02X27384I-1700*
G01*
X27958Y46939D02*
G75*
G03X28584Y46313I827J201D01*
G01*
Y45905*
G75*
G02X27550Y46939I200J1234*
G01*
X27958*
X27550Y47339D02*
G75*
G02X28584Y48373I1234J-200D01*
G01*
Y47965*
G75*
G03X27958Y47339I201J-827*
G01*
X27550*
X29610Y46939D02*
X30018D01*
G75*
G02X28984Y45905I-1234J200*
G01*
Y46313*
G75*
G03X29610Y46939I-201J827*
G01*
X28984Y48373D02*
G75*
G02X30018Y47339I-200J-1234D01*
G01*
X29610*
G75*
G03X28984Y47965I-827J-201*
G01*
Y48373*
X36310Y15450D02*
X36718D01*
G75*
G02X35684Y14416I-1234J200*
G01*
Y14824*
G75*
G03X36310Y15450I-201J827*
G01*
X34658D02*
G75*
G03X35284Y14824I827J201D01*
G01*
Y14416*
G75*
G02X34250Y15450I200J1234*
G01*
X34658*
X34250Y15850D02*
G75*
G02X35284Y16884I1234J-200D01*
G01*
Y16476*
G75*
G03X34658Y15850I201J-827*
G01*
X34250*
X31434Y11950D02*
G75*
G02X33934I1250D01*
G01*
G75*
G02X31434I-1250*
G01*
X27410Y11750D02*
X27818D01*
G75*
G02X26784Y10716I-1234J200*
G01*
Y11124*
G75*
G03X27410Y11750I-201J827*
G01*
X26784Y13184D02*
G75*
G02X27818Y12150I-200J-1234D01*
G01*
X27410*
G75*
G03X26784Y12776I-827J-201*
G01*
Y13184*
X25758Y11750D02*
G75*
G03X26384Y11124I827J201D01*
G01*
Y10716*
G75*
G02X25350Y11750I200J1234*
G01*
X25758*
X25350Y12150D02*
G75*
G02X26384Y13184I1234J-200D01*
G01*
Y12776*
G75*
G03X25758Y12150I201J-827*
G01*
X25350*
X19810Y56850D02*
X20218D01*
G75*
G02X19184Y55816I-1234J200*
G01*
Y56224*
G75*
G03X19810Y56850I-201J827*
G01*
X19184Y58284D02*
G75*
G02X20218Y57250I-200J-1234D01*
G01*
X19810*
G75*
G03X19184Y57876I-827J-201*
G01*
Y58284*
X20234Y57850D02*
G75*
G02X22734I1250D01*
G01*
G75*
G02X20234I-1250*
G01*
X2041Y41050D02*
G75*
G03X4584Y38507I2743J200D01*
G01*
Y38106*
G75*
G02X1641Y41050I200J3143*
G01*
X2041*
X1641Y41450D02*
G75*
G02X4584Y44394I3143J-200D01*
G01*
Y43993*
G75*
G03X2041Y41450I200J-2743*
G01*
X1641*
X7527Y41050D02*
X7928D01*
G75*
G02X4984Y38106I-3143J200*
G01*
Y38507*
G75*
G03X7527Y41050I-200J2743*
G01*
X4984Y44394D02*
G75*
G02X7928Y41450I-200J-3143D01*
G01*
X7527*
G75*
G03X4984Y43993I-2743J-200*
G01*
Y44394*
X56284Y5700D02*
G36*
X54084D01*
G75*
G02X51930Y5243I-1200J350*
G01*
G75*
G02X49434Y5350I-1245J107*
G01*
G75*
G02X49484Y5700I1250*
G01*
X7784*
Y250*
X56284*
Y5700*
G37*
Y11650D02*
G36*
X43024D01*
G75*
G02X40084Y9850I-2939J1500*
G01*
X39484*
G75*
G02X37084Y11650J2500*
G01*
X33898*
G75*
G02X31471I-1213J300*
G01*
X27798*
G75*
G02X26784Y10716I-1213J300*
G01*
Y11124*
G75*
G03X27379Y11650I-201J827*
G01*
X25789*
G75*
G03X26384Y11124I796J301*
G01*
Y10716*
G75*
G02X25371Y11650I200J1234*
G01*
X21852*
G75*
G02X20117I-867J900*
G01*
X19598*
G75*
G02X17171I-1213J300*
G01*
X15134*
G75*
G02X12634I-1250*
G01*
X10801*
G75*
G03X10457Y10444I5084J-2101*
G01*
G75*
G02X10831Y9633I-874J-895*
G01*
G75*
G02X13234Y9150I1153J-483*
G01*
G75*
G02X10737Y9067I-1250*
G01*
G75*
G02X8334Y9550I-1153J483*
G01*
G75*
G02X8857Y10567I1251J-1*
G01*
G75*
G02X9102Y11650I7022J-1016*
G01*
X7784*
Y5700*
X49484*
G75*
G02X51639Y6157I1200J-350*
G01*
G75*
G02X54134Y6050I1245J-107*
G01*
G75*
G02X54084Y5700I-1250*
G01*
X56284*
Y11650*
G37*
X40884D02*
G36*
X38919D01*
G75*
G03X39484Y11450I566J700*
G01*
X40084*
G75*
G03X40884Y11650I0J1700*
G01*
G37*
X9765Y13150D02*
G36*
X7784D01*
Y11650*
X9102*
G75*
G02X9765Y13150I6778J-2098*
G01*
G37*
X17171Y11650D02*
G36*
G75*
G02X17134Y11950I1213J300D01*
G01*
G75*
G02X18034Y13150I1250*
G01*
X17330*
G75*
G02X14838I-1246J100*
G01*
X11726*
G75*
G03X10801Y11650I4159J-3600*
G01*
X12634*
G75*
G02X15134I1250*
G01*
X17171*
G37*
X19888Y13150D02*
G36*
X18734D01*
G75*
G02X19634Y11950I-350J-1200*
G01*
G75*
G02X19598Y11650I-1250J0*
G01*
X20117*
G75*
G02X19734Y12550I867J900*
G01*
G75*
G02X19888Y13150I1251J0*
G01*
G37*
X31471Y11650D02*
G36*
G75*
G02X31434Y11950I1213J300D01*
G01*
G75*
G02X32334Y13150I1250*
G01*
X26934*
G75*
G02X27818Y12150I-350J-1200*
G01*
X27410*
G75*
G03X26784Y12776I-827J-201*
G01*
Y13150*
X26384*
Y12776*
G75*
G03X25758Y12150I201J-827*
G01*
X25350*
G75*
G02X26234Y13150I1234J-200*
G01*
X22081*
G75*
G02X22234Y12551I-1095J-599*
G01*
G75*
G02Y12550I-1410J0*
G01*
G75*
G02X21852Y11650I-1250*
G01*
X25371*
G75*
G02X25350Y11750I1214J300*
G01*
X25758*
G75*
G03X25789Y11650I827J202*
G01*
X27379*
G75*
G03X27410Y11750I-796J302*
G01*
X27818*
G75*
G02X27798Y11650I-1234J200*
G01*
X31471*
G37*
X37084D02*
G36*
G75*
G02X36984Y12350I2400J700D01*
G01*
Y13150*
X33034*
G75*
G02X33934Y11950I-350J-1200*
G01*
G75*
G02X33898Y11650I-1250J0*
G01*
X37084*
G37*
X40884D02*
G36*
G75*
G03X41600Y12380I-800J1500D01*
G01*
G75*
G02X41334Y13150I985J770*
G01*
G75*
G02X38834I-1250*
G01*
X38584*
Y12350*
G75*
G03X38919Y11650I900*
G01*
X40884*
G37*
X56284Y13150D02*
G36*
X55198D01*
G75*
G02X52771I-1213J300*
G01*
X52752*
G75*
G02X51017I-868J900*
G01*
X43834*
G75*
G02X43200Y12062I-1251J1*
G01*
G75*
G02X43024Y11650I-3115J1087*
G01*
X56284*
Y13150*
G37*
X10534Y14650D02*
G36*
X9035D01*
G75*
G03X9584Y14224I751J401*
G01*
Y13816*
G75*
G02X8600Y14650I200J1234*
G01*
X7784*
Y13150*
X9765*
G75*
G02X10272Y13899I6115J-3598*
G01*
G75*
G02X9984Y13816I-483J1133*
G01*
Y14224*
G75*
G03X10534Y14650I-201J827*
G01*
G37*
X20564D02*
G36*
X18635D01*
G75*
G02X17934I-350J1200*
G01*
X13826*
G75*
G03X11726Y13150I2059J-5101*
G01*
X14838*
G75*
G02X14834Y13250I1246J99*
G01*
G75*
G02X17334I1250*
G01*
G75*
G02X17330Y13150I-1250J-1*
G01*
X18034*
G75*
G02X18734I350J-1200*
G01*
X19888*
G75*
G02X20273Y13578I1097J-600*
G01*
G75*
G02X20564Y14650I5911J-1029*
G01*
G37*
X36984D02*
G36*
X36234D01*
G75*
G02X35684Y14416I-750J1000*
G01*
Y14650*
X35284*
Y14416*
G75*
G02X34734Y14650I200J1234*
G01*
X22317*
G75*
G03X21873Y13429I3866J-2099*
G01*
G75*
G02X22081Y13150I-887J-879*
G01*
X26234*
G75*
G02X26384Y13184I350J-1201*
G01*
Y13150*
X26784*
Y13184*
G75*
G02X26934Y13150I-200J-1235*
G01*
X32334*
G75*
G02X33034I350J-1200*
G01*
X36984*
Y14650*
G37*
X50788D02*
G36*
X44034D01*
G75*
G02X43484Y14416I-750J1000*
G01*
Y14650*
X43084*
Y14416*
G75*
G02X42534Y14650I200J1234*
G01*
X41652*
G75*
G02X40434Y14350I-867J900*
G01*
G75*
G02X39917Y14650I350J1200*
G01*
X38584*
Y13150*
X38834*
G75*
G02X40434Y14350I1250*
G01*
G75*
G02X41334Y13150I-350J-1200*
G01*
G75*
G02X43834I1250*
G01*
X51017*
G75*
G02X50634Y14050I868J900*
G01*
G75*
G02X50788Y14650I1250J0*
G01*
G37*
X53633D02*
G36*
X53435D01*
G75*
G02X53006Y14602I-350J1200*
G01*
G75*
G02X53101Y14335I-1121J-552*
G01*
G75*
G02X53633Y14650I883J-885*
G01*
G37*
X52771Y13150D02*
G36*
G75*
G02X52767Y13165I1214J295D01*
G01*
G75*
G02X52752Y13150I-883J891*
G01*
X52771*
G37*
X56284Y14650D02*
G36*
X54335D01*
G75*
G02X55234Y13450I-351J-1200*
G01*
G75*
G02X55198Y13150I-1250J0*
G01*
X56284*
Y14650*
G37*
X17934D02*
G36*
G75*
G02X17324Y15050I350J1200D01*
G01*
X15884*
G75*
G03X13826Y14650I0J-5501*
G01*
X17934*
G37*
X12454Y15767D02*
G36*
X10808D01*
G75*
G02X11018Y15250I-1024J-717*
G01*
X10610*
G75*
G03X10240Y15767I-827J-201*
G01*
X9328*
G75*
G03X8958Y15250I457J-718*
G01*
X8550*
G75*
G02X8760Y15767I1234J-200*
G01*
X7784*
Y14650*
X8600*
G75*
G02X8550Y14850I1184J400*
G01*
X8958*
G75*
G03X9035Y14650I827J201*
G01*
X10534*
G75*
G03X10610Y14850I-751J401*
G01*
X11018*
G75*
G02X10979Y14683I-1201J193*
G01*
G75*
G02X12454Y15767I4904J-5131*
G01*
G37*
X21119D02*
G36*
X19531D01*
G75*
G02X18635Y14650I-1247J83*
G01*
X20564*
G75*
G02X21119Y15767I5621J-2099*
G01*
G37*
X36984D02*
G36*
X23182D01*
G75*
G03X22317Y14650I3001J-3216*
G01*
X34734*
G75*
G02X34250Y15450I750J1000*
G01*
X34658*
G75*
G03X35284Y14824I827J201*
G01*
Y14650*
X35684*
Y14824*
G75*
G03X36310Y15450I-201J827*
G01*
X36718*
G75*
G02X36234Y14650I-1234J200*
G01*
X36984*
Y15767*
G37*
X39553D02*
G36*
X38584D01*
Y14650*
X39917*
G75*
G02X39534Y15550I867J900*
G01*
G75*
G02X39553Y15767I1250J0*
G01*
G37*
X51837D02*
G36*
X42015D01*
G75*
G02X42034Y15550I-1231J-217*
G01*
G75*
G02X41652Y14650I-1250*
G01*
X42534*
G75*
G02X42050Y15450I750J1000*
G01*
X42458*
G75*
G03X43084Y14824I827J201*
G01*
Y14650*
X43484*
Y14824*
G75*
G03X44110Y15450I-201J827*
G01*
X44518*
G75*
G02X44034Y14650I-1234J200*
G01*
X50788*
G75*
G02X51963Y15298I1096J-600*
G01*
G75*
G02X51837Y15767I1124J553*
G01*
G37*
X56284D02*
G36*
X54331D01*
G75*
G02X53435Y14650I-1247J83*
G01*
X53633*
G75*
G02X54335I351J-1200*
G01*
X56284*
Y15767*
G37*
X12454D02*
G36*
G75*
G02X13899Y16367I3429J-6217D01*
G01*
X7784*
Y15767*
X8760*
G75*
G02X9584Y16284I1024J-717*
G01*
Y15876*
G75*
G03X9328Y15767I201J-827*
G01*
X10240*
G75*
G03X9984Y15876I-457J-718*
G01*
Y16284*
G75*
G02X10808Y15767I-200J-1234*
G01*
X12454*
G37*
X21555Y16367D02*
G36*
X19422D01*
G75*
G02X19534Y15850I-1139J-517*
G01*
G75*
G02X19531Y15767I-1252*
G01*
X21119*
G75*
G02X21555Y16367I5065J-3218*
G01*
G37*
X36984D02*
G36*
X36508D01*
G75*
G02X36718Y15850I-1024J-717*
G01*
X36310*
G75*
G03X35940Y16367I-827J-201*
G01*
X35028*
G75*
G03X34658Y15850I457J-718*
G01*
X34250*
G75*
G02X34460Y16367I1234J-200*
G01*
X23994*
G75*
G03X23182Y15767I2189J-3815*
G01*
X36984*
Y16367*
G37*
X39553Y15767D02*
G36*
G75*
G02X39838Y16367I1231J-217D01*
G01*
X38584*
Y15767*
X39553*
G37*
X51837D02*
G36*
G75*
G02X51834Y15850I1250J83D01*
G01*
G75*
G02X51946Y16367I1250*
G01*
X44308*
G75*
G02X44518Y15850I-1024J-717*
G01*
X44110*
G75*
G03X43740Y16367I-827J-201*
G01*
X42828*
G75*
G03X42458Y15850I457J-718*
G01*
X42050*
G75*
G02X42260Y16367I1234J-200*
G01*
X41730*
G75*
G02X42015Y15767I-946J-817*
G01*
X51837*
G37*
X56284Y16367D02*
G36*
X54222D01*
G75*
G02X54334Y15850I-1138J-517*
G01*
G75*
G02X54331Y15767I-1250*
G01*
X56284*
Y16367*
G37*
Y20033D02*
G36*
X55308D01*
G75*
G02X54484Y19516I-1024J717*
G01*
Y19924*
G75*
G03X54740Y20033I-201J827*
G01*
X53828*
G75*
G03X54084Y19924I457J718*
G01*
Y19516*
G75*
G02X53260Y20033I200J1234*
G01*
X51475*
G75*
G03X53540Y19254I2808J4317*
G01*
G75*
G02X55534Y18250I745J-1004*
G01*
Y18250*
G75*
G02X53413Y17354I-1250*
G01*
G75*
G02X48710Y20033I872J6996*
G01*
X40784*
Y19250*
G75*
G02X40550Y18684I-801J0*
G01*
X38584Y16719*
Y16367*
X39838*
G75*
G02X41730I946J-817*
G01*
X42260*
G75*
G02X43084Y16884I1024J-717*
G01*
Y16476*
G75*
G03X42828Y16367I201J-827*
G01*
X43740*
G75*
G03X43484Y16476I-457J-718*
G01*
Y16884*
G75*
G02X44308Y16367I-200J-1234*
G01*
X51946*
G75*
G02X54222I1138J-517*
G01*
X56284*
Y20033*
G37*
X26075D02*
G36*
X19629D01*
G75*
G02X17140I-1244J117*
G01*
X7784*
Y16367*
X13899*
G75*
G02X15884Y16650I1985J-6815*
G01*
X17324*
G75*
G02X19422Y16367I961J-800*
G01*
X21555*
G75*
G02X26184Y18550I4630J-3817*
G01*
X29234*
G75*
G02X28337Y19675I350J1200*
G01*
G75*
G02X26075Y20033I-1052J675*
G01*
G37*
X31631D02*
G36*
X31240D01*
X30828Y19621*
G75*
G02X30581Y18996I-1240J128*
G01*
G75*
G02X31431Y18752I104J-1245*
G01*
G75*
G02X31384Y19149I1647J397*
G01*
G75*
G02Y19150I2051J0*
G01*
G75*
G02X31631Y20033I1700*
G01*
G37*
X35940Y16367D02*
G36*
G75*
G03X35684Y16476I-457J-718D01*
G01*
Y16804*
G75*
G02X34534Y18050I100J1246*
G01*
Y18050*
G75*
G02X34561Y18308I1255*
G01*
G75*
G02X31924Y17907I-1477J841*
G01*
G75*
G02X31934Y17753I-1198J-154*
G01*
G75*
G02Y17750I-1203J-2*
G01*
G75*
G02X29724Y16950I-1250*
G01*
X26184*
G75*
G03X23994Y16367I-1J-4399*
G01*
X34460*
G75*
G02X35284Y16884I1024J-717*
G01*
Y16476*
G75*
G03X35028Y16367I201J-827*
G01*
X35940*
G37*
X39184Y20033D02*
G36*
X34537D01*
G75*
G02X34784Y19150I-1453J-883*
G01*
Y19150*
G75*
G02X34729Y18720I-1701*
G01*
G75*
G02X37034Y18050I1055J-670*
G01*
Y18050*
G75*
G02X35948Y16811I-1250*
G01*
G75*
G02X36508Y16367I-463J-1161*
G01*
X36984*
Y17050*
G75*
G02X37219Y17616I801J0*
G01*
X39184Y19581*
Y20033*
G37*
X27901Y22694D02*
G36*
X26547D01*
G75*
G02X25177I-685J1556*
G01*
X12813*
G75*
G02X12884Y22150I-2028J-544*
G01*
G75*
G02X8684I-2100*
G01*
G75*
G02X8756Y22694I2100J0*
G01*
X7784*
Y20033*
X17140*
G75*
G02X17134Y20150I1244J117*
G01*
G75*
G02X19634I1250*
G01*
G75*
G02X19629Y20033I-1250J0*
G01*
X26075*
G75*
G02X26034Y20350I1209J317*
G01*
G75*
G02X28532Y20425I1250*
G01*
G75*
G02X29659Y20998I1052J-676*
G01*
X30084Y21422*
Y21540*
G75*
G02X27834Y22290I-1000J750*
G01*
G75*
G02X27901Y22694I1250J0*
G01*
G37*
X39184Y20033D02*
G36*
Y22450D01*
G75*
G03X39169Y22694I-1900*
G01*
X37833*
G75*
G02X35335I-1249J56*
G01*
X31884*
Y21050*
Y21050*
G75*
G02X31620Y20414I-898*
G01*
X31240Y20033*
X31631*
G75*
G02X34537I1453J-883*
G01*
X39184*
G37*
X48710D02*
G36*
G75*
G02X47431Y22694I5574J4317D01*
G01*
X46506*
G75*
G02X46834Y21850I-922J-844*
G01*
G75*
G02X44334I-1250*
G01*
G75*
G02X44662Y22694I1250*
G01*
X40776*
G75*
G02X40784Y22450I-3492J-246*
G01*
Y22450*
Y20033*
X48710*
G37*
X56284Y22694D02*
G36*
X55432D01*
G75*
G02X54559Y21969I-1148J495*
G01*
G75*
G02X55518Y20950I-275J-1219*
G01*
X55110*
G75*
G03X54484Y21576I-827J-201*
G01*
Y21955*
G75*
G02X54084I-200J1231*
G01*
Y21576*
G75*
G03X53458Y20950I201J-827*
G01*
X53050*
G75*
G02X54009Y21969I1234J-200*
G01*
G75*
G02X53136Y22694I275J1219*
G01*
X49407*
G75*
G03X51475Y20033I4876J1655*
G01*
X53260*
G75*
G02X53050Y20550I1024J717*
G01*
X53458*
G75*
G03X53828Y20033I827J201*
G01*
X54740*
G75*
G03X55110Y20550I-457J718*
G01*
X55518*
G75*
G02X55308Y20033I-1234J200*
G01*
X56284*
Y22694*
G37*
X8756D02*
G36*
G75*
G02X9528Y23833I2028J-544D01*
G01*
X7784*
Y22694*
X8756*
G37*
X24214Y23833D02*
G36*
X21108D01*
G75*
G02X19060I-1024J717*
G01*
X18108*
G75*
G02X17284Y23316I-1024J717*
G01*
Y23724*
G75*
G03X17540Y23833I-201J827*
G01*
X16628*
G75*
G03X16884Y23724I457J718*
G01*
Y23316*
G75*
G02X16060Y23833I200J1234*
G01*
X12040*
G75*
G02X12813Y22694I-1256J-1683*
G01*
X25177*
G75*
G02X24214Y23833I685J1556*
G01*
G37*
X27901Y22694D02*
G36*
G75*
G02X28384Y23326I1183J-404D01*
G01*
Y23833*
X27510*
G75*
G02X26547Y22694I-1648J417*
G01*
X27901*
G37*
X30084Y23833D02*
G36*
X29784D01*
Y23326*
G75*
G02X30084Y23040I-707J-1043*
G01*
Y23833*
G37*
X35335Y22694D02*
G36*
G75*
G02X35334Y22750I1249J54D01*
G01*
G75*
G02X35960Y23833I1250*
G01*
X31884*
Y22694*
X35335*
G37*
X39169D02*
G36*
G75*
G03X38587Y23833I-1884J-244D01*
G01*
X37208*
G75*
G02X37834Y22750I-624J-1083*
G01*
G75*
G02X37833Y22694I-1250J-2*
G01*
X39169*
G37*
X44406Y23833D02*
G36*
X40500D01*
G75*
G02X40776Y22694I-3215J-1382*
G01*
X44662*
G75*
G02X45234Y23050I922J-844*
G01*
G75*
G02X44406Y23833I350J1200*
G01*
G37*
X47431Y22694D02*
G36*
G75*
G02X47253Y23833I6853J1657D01*
G01*
X46763*
G75*
G02X45934Y23050I-1178J417*
G01*
G75*
G02X46506Y22694I-350J-1200*
G01*
X47431*
G37*
X53136D02*
G36*
G75*
G02X53034Y23188I1148J494D01*
G01*
Y23189*
G75*
G02X53213Y23833I1250J0*
G01*
X49160*
G75*
G03X49407Y22694I5124J516*
G01*
X53136*
G37*
X56284Y23833D02*
G36*
X55355D01*
G75*
G02X55534Y23189I-1071J-645*
G01*
G75*
G02X55432Y22694I-1250*
G01*
X56284*
Y23833*
G37*
X19060Y25267D02*
G36*
X18108D01*
G75*
G02X18318Y24750I-1024J-717*
G01*
X17910*
G75*
G03X17540Y25267I-827J-201*
G01*
X16628*
G75*
G03X16258Y24750I457J-718*
G01*
X15850*
G75*
G02X16060Y25267I1234J-200*
G01*
X7784*
Y23833*
X9528*
G75*
G02X12040I1256J-1683*
G01*
X16060*
G75*
G02X15850Y24350I1024J717*
G01*
X16258*
G75*
G03X16628Y23833I827J201*
G01*
X17540*
G75*
G03X17910Y24350I-457J718*
G01*
X18318*
G75*
G02X18108Y23833I-1234J200*
G01*
X19060*
G75*
G02X18834Y24550I1024J717*
G01*
G75*
G02X19060Y25267I1250*
G01*
G37*
X24214Y23833D02*
G36*
G75*
G02X24162Y24250I1648J417D01*
G01*
G75*
G02X24500Y25267I1700*
G01*
X21108*
G75*
G02X21334Y24550I-1024J-717*
G01*
G75*
G02X21108Y23833I-1250*
G01*
X24214*
G37*
X28384Y25267D02*
G36*
X27224D01*
G75*
G02X27562Y24250I-1362J-1017*
G01*
G75*
G02X27510Y23833I-1700J0*
G01*
X28384*
Y25267*
G37*
X30084D02*
G36*
X29784D01*
Y23833*
X30084*
Y25267*
G37*
X38587Y23833D02*
G36*
G75*
G03X37284Y24350I-1303J-1383D01*
G01*
X36345*
G75*
G02X34134Y25150I-961J800*
G01*
G75*
G02X34140Y25267I1251J0*
G01*
X31884*
Y23833*
X35960*
G75*
G02X37208I624J-1083*
G01*
X38587*
G37*
X44406D02*
G36*
G75*
G02X44334Y24250I1178J417D01*
G01*
G75*
G02X44857Y25267I1250*
G01*
X39362*
G75*
G02X40500Y23833I-2077J-2817*
G01*
X44406*
G37*
X47253D02*
G36*
G75*
G02X47234Y24350I7033J516D01*
G01*
Y25267*
X46311*
G75*
G02X46834Y24250I-727J-1017*
G01*
G75*
G02X46763Y23833I-1250J0*
G01*
X47253*
G37*
X56284Y25267D02*
G36*
X49134D01*
Y24350*
Y24350*
Y24349*
G75*
G03X49160Y23833I5150J0*
G01*
X53213*
G75*
G02X55355I1071J-644*
G01*
X56284*
Y25267*
G37*
X28384Y27550D02*
G36*
X15534D01*
G75*
G02X13034I-1250*
G01*
X7784*
Y25267*
X16060*
G75*
G02X16884Y25784I1024J-717*
G01*
Y25376*
G75*
G03X16628Y25267I201J-827*
G01*
X17540*
G75*
G03X17284Y25376I-457J-718*
G01*
Y25784*
G75*
G02X18108Y25267I-200J-1234*
G01*
X19060*
G75*
G02X21108I1024J-717*
G01*
X24500*
G75*
G02X27224I1362J-1017*
G01*
X28384*
Y27550*
G37*
X30084D02*
G36*
X29784D01*
Y25267*
X30084*
Y27550*
G37*
X47234D02*
G36*
X31884D01*
Y25267*
X34140*
G75*
G02X36345Y25950I1244J-117*
G01*
X37284*
G75*
G02X39362Y25267I0J-3500*
G01*
X44857*
G75*
G02X46311I727J-1017*
G01*
X47234*
Y27550*
G37*
X56284D02*
G36*
X49134D01*
Y25267*
X56284*
Y27550*
G37*
X28384Y29950D02*
G36*
X17434D01*
G75*
G02X14934I-1250*
G01*
X7784*
Y27550*
X13034*
G75*
G02X15534I1250*
G01*
X28384*
Y29950*
G37*
X30688D02*
G36*
X29784D01*
Y27550*
X30084*
Y28450*
Y28450*
G75*
G02X30348Y29086I898*
G01*
X30537Y29275*
G75*
G02X30534Y29350I1768J93*
G01*
G75*
G02X30688Y29950I1250J0*
G01*
G37*
X47234D02*
G36*
X32881D01*
G75*
G02X33034Y29350I-1096J-600*
G01*
G75*
G02X31913Y28107I-1250*
G01*
X31884Y28078*
Y27550*
X47234*
Y29950*
G37*
X56284D02*
G36*
X49134D01*
Y27550*
X56284*
Y29950*
G37*
X28384D02*
G36*
Y30250D01*
Y30250*
G75*
G03X26684Y31950I-1700*
G01*
G75*
G02X24212Y33250I0J3000*
G01*
X7784*
Y29950*
X14934*
G75*
G02X17434I1250*
G01*
X28384*
G37*
X47234Y33250D02*
G36*
X41234D01*
G75*
G02X38734I-1250*
G01*
X36898*
G75*
G02X36934Y32950I-1214J-300*
G01*
G75*
G02X34434I-1250*
G01*
G75*
G02X34471Y33250I1251J0*
G01*
X27465*
G75*
G02X29784Y30250I-781J-3000*
G01*
Y30250*
Y29950*
X30688*
G75*
G02X32881I1096J-600*
G01*
X47234*
Y33250*
G37*
X56284D02*
G36*
X49134D01*
Y29950*
X56284*
Y33250*
G37*
X24212D02*
G36*
G75*
G02X23704Y34611I2472J1699D01*
G01*
X7627*
G75*
G02X7784Y33750I-2274J-861*
G01*
Y33250*
X24212*
G37*
X34471D02*
G36*
G75*
G02X35284Y34134I1214J-301D01*
G01*
Y34502*
G75*
G03X35540Y34611I-201J827*
G01*
X34628*
G75*
G03X34884Y34502I457J718*
G01*
Y34094*
G75*
G02X34060Y34611I200J1234*
G01*
X25120*
G75*
G03X26684Y33350I1563J339*
G01*
G75*
G02X27465Y33250I0J-3100*
G01*
X34471*
G37*
X47234Y34611D02*
G36*
X36108D01*
G75*
G02X35619Y34198I-1024J717*
G01*
G75*
G02X36898Y33250I65J-1248*
G01*
X38734*
G75*
G02X41234I1250*
G01*
X47234*
Y34611*
G37*
X56317D02*
G36*
X49134D01*
Y33250*
X56284*
Y34250*
G75*
G02X56317Y34611I2000J-1*
G01*
G37*
X23704D02*
G36*
G75*
G02X23684Y34950I2981J340D01*
G01*
Y34950*
Y36045*
X6156*
G75*
G02X7627Y34611I-804J-2295*
G01*
X23704*
G37*
X47234Y36045D02*
G36*
X36108D01*
G75*
G02X36318Y35528I-1024J-717*
G01*
X35910*
G75*
G03X35540Y36045I-827J-201*
G01*
X34628*
G75*
G03X34258Y35528I457J-718*
G01*
X33850*
G75*
G02X34060Y36045I1234J-200*
G01*
X25084*
Y34950*
Y34950*
G75*
G03X25120Y34611I1600*
G01*
X34060*
G75*
G02X33850Y35128I1024J717*
G01*
X34258*
G75*
G03X34628Y34611I827J201*
G01*
X35540*
G75*
G03X35910Y35128I-457J718*
G01*
X36318*
G75*
G02X36108Y34611I-1234J201*
G01*
X47234*
Y36045*
G37*
X57402D02*
G36*
X55541D01*
G75*
G02X53627I-957J1406*
G01*
X49134*
Y34611*
X56317*
G75*
G02X57402Y36045I1967J-361*
G01*
G37*
X23684Y37450D02*
G36*
X1943D01*
G75*
G03X5284Y36181I3341J3765*
G01*
X5353*
G75*
G02X6156Y36045J-2432*
G01*
X23684*
Y37450*
G37*
X47234D02*
G36*
X25084D01*
Y36045*
X34060*
G75*
G02X34884Y36562I1024J-717*
G01*
Y36154*
G75*
G03X34628Y36045I201J-827*
G01*
X35540*
G75*
G03X35284Y36154I-457J-718*
G01*
Y36562*
G75*
G02X36108Y36045I-200J-1234*
G01*
X47234*
Y37450*
G37*
X52884D02*
G36*
X49134D01*
Y36045*
X53627*
G75*
G02X52884Y37450I957J1405*
G01*
G37*
X61534D02*
G36*
X56284D01*
G75*
G02X55541Y36045I-1700*
G01*
X57402*
G75*
G02X58284Y36250I882J-1795*
G01*
G75*
G03X61534Y37450I0J5000*
G01*
G37*
X23684Y39605D02*
G36*
X7471D01*
G75*
G02X4984Y38106I-2686J1645*
G01*
Y38507*
G75*
G03X6988Y39605I-200J2743*
G01*
X2580*
G75*
G03X4584Y38507I2204J1645*
G01*
Y38106*
G75*
G02X2098Y39605I199J3143*
G01*
X515*
G75*
G03X1943Y37450I4769J1610*
G01*
X23684*
Y39605*
G37*
X47234D02*
G36*
X25084D01*
Y37450*
X47234*
Y39605*
G37*
X63006D02*
G36*
X61470D01*
G75*
G02X56098I-2686J1645*
G01*
X53644*
G75*
G02X52084Y38659I-1760J1145*
G01*
Y39062*
G75*
G03X53141Y39605I-200J1689*
G01*
X50628*
G75*
G03X51684Y39062I1257J1146*
G01*
Y38659*
G75*
G02X50124Y39605I200J2090*
G01*
X49134*
Y37450*
X52884*
G75*
G02X56284I1700*
G01*
X61534*
G75*
G03X63006Y39605I-3250J3799*
G01*
G37*
X23684Y41895D02*
G36*
X7868D01*
G75*
G02X7928Y41450I-3083J-644*
G01*
X7527*
G75*
G03X7458Y41895I-2743J-199*
G01*
X2111*
G75*
G03X2041Y41450I2674J-644*
G01*
X1641*
G75*
G02X1701Y41895I3143J-198*
G01*
X296*
G75*
G03X250Y41216I4989J-680*
G01*
Y41216*
Y41215*
Y41214*
G75*
G03X515Y39605I5033J1*
G01*
X2098*
G75*
G02X1641Y41050I2686J1644*
G01*
X2041*
G75*
G03X2580Y39605I2743J200*
G01*
X6988*
G75*
G03X7527Y41050I-2204J1645*
G01*
X7928*
G75*
G02X7471Y39605I-3143J199*
G01*
X23684*
Y41895*
G37*
X47234Y39605D02*
G36*
Y39957D01*
X45296Y41895*
X40047*
G75*
G02X36722I-1663J355*
G01*
X25084*
Y39605*
X47234*
G37*
X55701Y41895D02*
G36*
X53644D01*
G75*
G02X53975Y40950I-1760J-1145*
G01*
X53572*
G75*
G03X53141Y41895I-1689J-200*
G01*
X50628*
G75*
G03X50196Y40950I1257J-1146*
G01*
X49794*
G75*
G02X50124Y41895I2091J-200*
G01*
X47982*
X48856Y41022*
G75*
G02X49134Y40350I-673J-672*
G01*
Y39605*
X50124*
G75*
G02X49794Y40550I1760J1145*
G01*
X50196*
G75*
G03X50628Y39605I1689J200*
G01*
X53141*
G75*
G03X53572Y40550I-1257J1146*
G01*
X53975*
G75*
G02X53644Y39605I-2091J200*
G01*
X56098*
G75*
G02X55634Y41250I2686J1645*
G01*
G75*
G02X55701Y41895I3150J-1*
G01*
G37*
X61867D02*
G36*
G75*
G02X61934Y41250I-3083J-646D01*
G01*
G75*
G02X61470Y39605I-3150*
G01*
X63006*
G75*
G03X63284Y41249I-4721J1645*
G01*
Y41250*
Y41251*
G75*
G03X63243Y41895I-4999*
G01*
X61867*
G37*
X683Y43257D02*
G36*
G75*
G03X296Y41895I4602J-2042D01*
G01*
X1701*
G75*
G02X2356Y43257I3083J-645*
G01*
X683*
G37*
X7458Y41895D02*
G36*
G75*
G03X6665Y43257I-2674J-645D01*
G01*
X2904*
G75*
G03X2111Y41895I1880J-2007*
G01*
X7458*
G37*
X23684Y43257D02*
G36*
X13439D01*
G75*
G02X12484Y42664I-1154J793*
G01*
Y43070*
G75*
G03X12894Y43257I-200J981*
G01*
X11675*
G75*
G03X12084Y43070I610J794*
G01*
Y42664*
G75*
G02X11130Y43257I200J1386*
G01*
X7212*
G75*
G02X7868Y41895I-2428J-2007*
G01*
X23684*
Y43257*
G37*
X36722Y41895D02*
G36*
G75*
G02X36684Y42250I1663J355D01*
G01*
G75*
G02X37015Y43257I1700*
G01*
X30588*
G75*
G02X27580I-1504J793*
G01*
X25084*
Y41895*
X36722*
G37*
X45296D02*
G36*
X43934Y43257D01*
X39754*
G75*
G02X40084Y42250I-1370J-1007*
G01*
G75*
G02X40047Y41895I-1700*
G01*
X45296*
G37*
X55701D02*
G36*
G75*
G02X56356Y43257I3083J-644D01*
G01*
X46620*
X47982Y41895*
X50124*
G75*
G02X51684Y42841I1760J-1145*
G01*
Y42438*
G75*
G03X50628Y41895I200J-1689*
G01*
X53141*
G75*
G03X52084Y42438I-1257J-1146*
G01*
Y42841*
G75*
G02X53644Y41895I-200J-2090*
G01*
X55701*
G37*
X61867D02*
G36*
X63243D01*
G75*
G03X62864Y43257I-4958J-645*
G01*
X61212*
G75*
G02X61867Y41895I-2428J-2006*
G01*
G37*
X23684Y44843D02*
G36*
X13439D01*
G75*
G02X13670Y44250I-1154J-792*
G01*
X13264*
G75*
G03X12894Y44843I-980J-200*
G01*
X11675*
G75*
G03X11304Y44250I610J-793*
G01*
X10898*
G75*
G02X11130Y44843I1385J-199*
G01*
X1793*
G75*
G03X683Y43257I3491J-3627*
G01*
X2356*
G75*
G02X4584Y44394I2428J-2006*
G01*
Y43993*
G75*
G03X2904Y43257I200J-2743*
G01*
X6665*
G75*
G03X4984Y43993I-1880J-2007*
G01*
Y44394*
G75*
G02X7212Y43257I-200J-3143*
G01*
X11130*
G75*
G02X10898Y43850I1154J792*
G01*
X11304*
G75*
G03X11675Y43257I980J200*
G01*
X12894*
G75*
G03X13264Y43850I-610J793*
G01*
X13670*
G75*
G02X13439Y43257I-1385J199*
G01*
X23684*
Y44843*
G37*
X27580D02*
G36*
X25084D01*
Y43257*
X27580*
G75*
G02X27384Y44050I1504J793*
G01*
G75*
G02X27580Y44843I1700J0*
G01*
G37*
X43934Y43257D02*
G36*
X42348Y44843D01*
X40766*
G75*
G02X38402I-1182J407*
G01*
X30588*
G75*
G02X30784Y44050I-1504J-793*
G01*
G75*
G02X30588Y43257I-1700J0*
G01*
X37015*
G75*
G02X39754I1370J-1007*
G01*
X43934*
G37*
X61762Y44843D02*
G36*
X45035D01*
X46620Y43257*
X56356*
G75*
G02X61212I2428J-2007*
G01*
X62864*
G75*
G03X61762Y44843I-4579J-2006*
G01*
G37*
X23684Y46195D02*
G36*
X4542D01*
G75*
G03X1793Y44843I743J-4980*
G01*
X11130*
G75*
G02X12084Y45436I1154J-793*
G01*
Y45030*
G75*
G03X11675Y44843I200J-981*
G01*
X12894*
G75*
G03X12484Y45030I-610J-794*
G01*
Y45436*
G75*
G02X13439Y44843I-200J-1386*
G01*
X23684*
Y46195*
G37*
X38402Y44843D02*
G36*
G75*
G02X38334Y45250I1182J407D01*
G01*
G75*
G02X38766Y46195I1250*
G01*
X36198*
G75*
G02X34984Y45451I-1414J944*
G01*
Y45854*
G75*
G03X35678Y46195I-200J1285*
G01*
X33891*
G75*
G03X34584Y45854I894J944*
G01*
Y45451*
G75*
G02X33371Y46195I201J1689*
G01*
X29604*
G75*
G02X28984Y45905I-819J944*
G01*
Y46195*
X28584*
Y45905*
G75*
G02X27965Y46195I200J1234*
G01*
X25084*
Y44843*
X27580*
G75*
G02X30588I1504J-793*
G01*
X38402*
G37*
X42348D02*
G36*
X40996Y46195D01*
X40403*
G75*
G02X40834Y45250I-819J-945*
G01*
G75*
G02X40766Y44843I-1250*
G01*
X42348*
G37*
X59025Y46195D02*
G36*
X43683D01*
X45035Y44843*
X61762*
G75*
G03X59025Y46195I-3477J-3593*
G01*
G37*
X23684Y48083D02*
G36*
X7777D01*
G75*
G02X5784Y46250I-1993J167*
G01*
X5284*
G75*
G03X4542Y46195I0J-5035*
G01*
X23684*
Y48083*
G37*
X40996Y46195D02*
G36*
X39108Y48083D01*
X36198*
G75*
G02X36472Y47339I-1414J-945*
G01*
X36069*
G75*
G03X35678Y48083I-1285J-200*
G01*
X33891*
G75*
G03X33500Y47339I894J-944*
G01*
X33096*
G75*
G02X33371Y48083I1689J-201*
G01*
X29604*
G75*
G02X30018Y47339I-819J-944*
G01*
X29610*
G75*
G03X28984Y47965I-827J-201*
G01*
Y48083*
X28584*
Y47965*
G75*
G03X27958Y47339I201J-827*
G01*
X27550*
G75*
G02X27965Y48083I1234J-200*
G01*
X25084*
Y46195*
X27965*
G75*
G02X27550Y46939I819J944*
G01*
X27958*
G75*
G03X28584Y46313I827J201*
G01*
Y46195*
X28984*
Y46313*
G75*
G03X29610Y46939I-201J827*
G01*
X30018*
G75*
G02X29604Y46195I-1234J200*
G01*
X33371*
G75*
G02X33096Y46939I1414J945*
G01*
X33500*
G75*
G03X33891Y46195I1285J200*
G01*
X35678*
G75*
G03X36069Y46939I-894J944*
G01*
X36472*
G75*
G02X36198Y46195I-1689J201*
G01*
X38766*
G75*
G02X40403I819J-945*
G01*
X40996*
G37*
X56291Y48083D02*
G36*
X41794D01*
X43683Y46195*
X59025*
G75*
G03X58284Y46250I-740J-4944*
G01*
G75*
G02X56291Y48083I0J2000*
G01*
G37*
X23684Y49450D02*
G36*
X7784D01*
Y48250*
G75*
G02X7777Y48083I-2000J1*
G01*
X23684*
Y49450*
G37*
X39108Y48083D02*
G36*
X37741Y49450D01*
X28834*
G75*
G02X26334I-1250*
G01*
X25084*
Y48083*
X27965*
G75*
G02X28584Y48373I819J-944*
G01*
Y48083*
X28984*
Y48373*
G75*
G02X29604Y48083I-200J-1234*
G01*
X33371*
G75*
G02X34584Y48827I1414J-944*
G01*
Y48424*
G75*
G03X33891Y48083I200J-1285*
G01*
X35678*
G75*
G03X34984Y48424I-894J-944*
G01*
Y48827*
G75*
G02X36198Y48083I-201J-1689*
G01*
X39108*
G37*
X56284Y49450D02*
G36*
X40428D01*
X41794Y48083*
X56291*
G75*
G02X56284Y48250I1993J168*
G01*
Y49450*
G37*
Y51806D02*
G36*
X49198D01*
G75*
G02X47984Y51062I-1414J944*
G01*
Y51465*
G75*
G03X48678Y51806I-200J1285*
G01*
X46891*
G75*
G03X47584Y51465I894J944*
G01*
Y51062*
G75*
G02X46371Y51806I201J1689*
G01*
X43606*
G75*
G02X43363I-121J1243*
G01*
X39706*
G75*
G02X39463I-121J1243*
G01*
X38072*
X40428Y49450*
X56284*
Y51806*
G37*
X23684D02*
G36*
X15548D01*
G75*
G02X15634Y51350I-1164J-456*
G01*
G75*
G02X13134I-1250*
G01*
G75*
G02X13220Y51806I1250J0*
G01*
X12748*
G75*
G02X12934Y51150I-1064J-656*
G01*
G75*
G02X10434I-1250*
G01*
G75*
G02X10620Y51806I1250*
G01*
X7784*
Y49450*
X23684*
Y51806*
G37*
X37741Y49450D02*
G36*
X35385Y51806D01*
X25084*
Y49450*
X26334*
G75*
G02X28834I1250*
G01*
X37741*
G37*
X23684Y53050D02*
G36*
X7784D01*
Y51806*
X10620*
G75*
G02X12748I1064J-656*
G01*
X13220*
G75*
G02X15548I1164J-456*
G01*
X23684*
Y53050*
G37*
X35385Y51806D02*
G36*
X34141Y53050D01*
X25084*
Y51806*
X35385*
G37*
X42234Y53050D02*
G36*
X40834D01*
G75*
G02X39706Y51806I-1250*
G01*
X43363*
G75*
G02X42234Y53050I121J1244*
G01*
G37*
X38072Y51806D02*
G36*
X39463D01*
G75*
G02X38334Y53050I121J1244*
G01*
X36828*
X38072Y51806*
G37*
X56284Y53050D02*
G36*
X49457D01*
G75*
G02X49472Y52950I-1674J-302*
G01*
X49069*
G75*
G03X49049Y53050I-1285J-201*
G01*
X46519*
G75*
G03X46500Y52950I1265J-301*
G01*
X46096*
G75*
G02X46111Y53050I1689J-202*
G01*
X44734*
G75*
G02X43606Y51806I-1250*
G01*
X46371*
G75*
G02X46096Y52550I1414J945*
G01*
X46500*
G75*
G03X46891Y51806I1285J200*
G01*
X48678*
G75*
G03X49069Y52550I-894J944*
G01*
X49472*
G75*
G02X49198Y51806I-1689J201*
G01*
X56284*
Y53050*
G37*
Y55550D02*
G36*
X54634D01*
G75*
G02X52134I-1250*
G01*
X34328*
X36828Y53050*
X38334*
G75*
G02X40834I1250*
G01*
X42234*
G75*
G02X44734I1250*
G01*
X46111*
G75*
G02X47584Y54438I1674J-300*
G01*
Y54035*
G75*
G03X46519Y53050I200J-1285*
G01*
X49049*
G75*
G03X47984Y54035I-1265J-300*
G01*
Y54438*
G75*
G02X49457Y53050I-200J-1689*
G01*
X56284*
Y55550*
G37*
X23684D02*
G36*
X7784D01*
Y53050*
X23684*
Y55550*
G37*
X34141Y53050D02*
G36*
X31641Y55550D01*
X25084*
Y53050*
X34141*
G37*
X23684Y56333D02*
G36*
X20008D01*
G75*
G02X19184Y55816I-1024J717*
G01*
Y56224*
G75*
G03X19440Y56333I-201J827*
G01*
X18528*
G75*
G03X18784Y56224I457J718*
G01*
Y55816*
G75*
G02X17960Y56333I200J1234*
G01*
X7784*
Y55550*
X23684*
Y56333*
G37*
X31641Y55550D02*
G36*
X31491Y55700D01*
G75*
G02X30397Y56333I-7J1250*
G01*
X25084*
Y55550*
X31641*
G37*
X52134D02*
G36*
G75*
G02X52410Y56333I1250D01*
G01*
X33544*
X34328Y55550*
X52134*
G37*
X56284Y56333D02*
G36*
X54359D01*
G75*
G02X54634Y55550I-974J-783*
G01*
X56284*
Y56333*
G37*
Y57806D02*
G36*
X54698D01*
G75*
G02X53484Y57062I-1414J944*
G01*
Y57465*
G75*
G03X54178Y57806I-200J1285*
G01*
X52391*
G75*
G03X53084Y57465I894J944*
G01*
Y57062*
G75*
G02X51871Y57806I201J1689*
G01*
X32395*
G75*
G02X32716Y57161I-911J-856*
G01*
X33544Y56333*
X52410*
G75*
G02X54359I974J-783*
G01*
X56284*
Y57806*
G37*
X23135D02*
G36*
X22733D01*
G75*
G02X20235I-1249J44*
G01*
X19980*
G75*
G02X20218Y57250I-996J-756*
G01*
X19810*
G75*
G03X19372Y57806I-827J-201*
G01*
X18596*
G75*
G03X18158Y57250I389J-757*
G01*
X17750*
G75*
G02X17989Y57806I1234J-200*
G01*
X7784*
Y56333*
X17960*
G75*
G02X17750Y56850I1024J717*
G01*
X18158*
G75*
G03X18528Y56333I827J201*
G01*
X19440*
G75*
G03X19810Y56850I-457J718*
G01*
X20218*
G75*
G02X20008Y56333I-1234J200*
G01*
X23684*
Y56815*
G75*
G02X23135Y57806I700J1035*
G01*
G37*
X30397Y56333D02*
G36*
G75*
G02X30234Y56950I1087J617D01*
G01*
Y56950*
G75*
G02X30573Y57806I1250*
G01*
X28949*
G75*
G02X25631Y57756I-1665J344*
G01*
G75*
G02X25084Y56815I-1245J94*
G01*
Y56333*
X30397*
G37*
X56284Y59694D02*
G36*
X54698D01*
G75*
G02X54972Y58950I-1414J-945*
G01*
X54569*
G75*
G03X54178Y59694I-1285J-200*
G01*
X52391*
G75*
G03X52000Y58950I894J-944*
G01*
X51596*
G75*
G02X51871Y59694I1689J-201*
G01*
X49017*
G75*
G02X46352I-1332J1056*
G01*
X41053*
G75*
G02X38115I-1469J856*
G01*
X27995*
G75*
G02X28984Y58150I-711J-1544*
G01*
G75*
G02X28949Y57806I-1700J-1*
G01*
X30573*
G75*
G02X32395I911J-856*
G01*
X51871*
G75*
G02X51596Y58550I1414J945*
G01*
X52000*
G75*
G03X52391Y57806I1285J200*
G01*
X54178*
G75*
G03X54569Y58550I-894J944*
G01*
X54972*
G75*
G02X54698Y57806I-1689J201*
G01*
X56284*
Y59694*
G37*
X23135Y57806D02*
G36*
G75*
G02X23134Y57850I1250J44D01*
G01*
G75*
G02X25585Y58198I1250*
G01*
G75*
G02X26574Y59694I1699J-48*
G01*
X7784*
Y57806*
X17989*
G75*
G02X18784Y58284I996J-756*
G01*
Y57876*
G75*
G03X18596Y57806I201J-828*
G01*
X19372*
G75*
G03X19184Y57876I-389J-757*
G01*
Y58284*
G75*
G02X19980Y57806I-200J-1234*
G01*
X20235*
G75*
G02X20234Y57850I1250J44*
G01*
G75*
G02X22734I1250*
G01*
G75*
G02X22733Y57806I-1250J0*
G01*
X23135*
G37*
X37896Y60750D02*
G36*
X18254D01*
G75*
G02X15315I-1470J1500*
G01*
X7784*
Y59694*
X26574*
G75*
G02X27995I711J-1544*
G01*
X38115*
G75*
G02X37884Y60550I1469J856*
G01*
G75*
G02X37896Y60750I1701*
G01*
G37*
X45984D02*
G36*
X41272D01*
G75*
G02X41284Y60550I-1690J-200*
G01*
G75*
G02X41053Y59694I-1700*
G01*
X46352*
G75*
G02X45984Y60750I1332J1056*
G01*
G37*
X56284D02*
G36*
X49384D01*
G75*
G02X49017Y59694I-1700*
G01*
X51871*
G75*
G02X53084Y60438I1414J-944*
G01*
Y60035*
G75*
G03X52391Y59694I200J-1285*
G01*
X54178*
G75*
G03X53484Y60035I-894J-944*
G01*
Y60438*
G75*
G02X54698Y59694I-201J-1689*
G01*
X56284*
Y60750*
G37*
Y64494D02*
G36*
X41298D01*
G75*
G02X41572Y63750I-1414J-945*
G01*
X41169*
G75*
G03X40778Y64494I-1285J-200*
G01*
X38991*
G75*
G03X38600Y63750I894J-944*
G01*
X38196*
G75*
G02X38471Y64494I1689J-201*
G01*
X7784*
Y60750*
X15315*
G75*
G02X14684Y62250I1470J1500*
G01*
G75*
G02X18884I2100*
G01*
G75*
G02X18254Y60750I-2100*
G01*
X37896*
G75*
G02X38952Y62128I1689J-200*
G01*
G75*
G02X38196Y63350I934J1423*
G01*
X38600*
G75*
G03X39684Y62265I1285J200*
G01*
Y62247*
G75*
G02X40084Y62175I-105J-1718*
G01*
Y62265*
G75*
G03X41169Y63350I-200J1285*
G01*
X41572*
G75*
G02X40516Y61972I-1689J201*
G01*
G75*
G02X41272Y60750I-932J-1422*
G01*
X45984*
G75*
G02X49384I1700*
G01*
X56284*
Y64494*
G37*
X36759Y68250D02*
G36*
X34934D01*
G75*
G02X28634I-3150*
G01*
X26809*
G75*
G03X26784Y67750I4975J-501*
G01*
G75*
G02X24784Y65750I-2000*
G01*
X7784*
Y64494*
X38471*
G75*
G02X39684Y65238I1414J-944*
G01*
Y64835*
G75*
G03X38991Y64494I200J-1285*
G01*
X40778*
G75*
G03X40084Y64835I-894J-944*
G01*
Y65238*
G75*
G02X41298Y64494I-201J-1689*
G01*
X56284*
Y65750*
X38784*
G75*
G02X36784Y67750J2000*
G01*
G75*
G03X36759Y68250I-5000J-1*
G01*
G37*
X31784Y72750D02*
G36*
G75*
G03X26809Y68250J-5000D01*
G01*
X28634*
G75*
G02X34934I3150*
G01*
X36759*
G75*
G03X31784Y72750I-4975J-500*
G01*
G37*
D02*
D11*
X4784Y41250D03*
X31784Y68250D03*
X58784Y41250D03*
D02*
D12*
X9584Y9550D03*
X9784Y15050D03*
X11684Y51150D03*
X11984Y9150D03*
X13884Y11650D03*
X14284Y27550D03*
X14384Y51350D03*
X16084Y13250D03*
X16184Y29950D03*
X17084Y24550D03*
X18284Y15850D03*
X18384Y11950D03*
Y20150D03*
X18984Y57050D03*
X20084Y24550D03*
X20984Y12550D03*
X21484Y57850D03*
X24384D03*
X26584Y11950D03*
X27284Y20350D03*
X27584Y49450D03*
X28784Y47139D03*
X29084Y22290D03*
X29584Y19750D03*
X30684Y17750D03*
X31484Y56950D03*
X31784Y29350D03*
X32684Y11950D03*
X35084Y35328D03*
X35384Y25150D03*
X35484Y15650D03*
X35684Y32950D03*
X35784Y18050D03*
X36584Y22750D03*
X39584Y45250D03*
Y53050D03*
X39984Y33250D03*
X40084Y13150D03*
X40784Y15550D03*
X42584Y13150D03*
X43284Y15650D03*
X43484Y53050D03*
X45584Y21850D03*
Y24250D03*
X50684Y5350D03*
X51884Y14050D03*
X52884Y6050D03*
X53084Y15850D03*
X53384Y55550D03*
X53984Y13450D03*
X54284Y18250D03*
Y20750D03*
Y23189D03*
D02*
D13*
X25862Y24250D03*
X27284Y58150D03*
X29084Y44050D03*
X33084Y19150D03*
X34784Y47139D03*
X38384Y42250D03*
X39584Y60550D03*
X39884Y63550D03*
X47684Y60750D03*
X47784Y52750D03*
X53284Y58750D03*
X54584Y37450D03*
D02*
D14*
X12284Y44050D03*
D02*
D15*
X10784Y22150D03*
X16784Y62250D03*
X51884Y40750D03*
D02*
D16*
X31484Y56950D02*
X31584D01*
X48184Y40350*
Y24350*
G75*
G03X54284Y18250I6100*
G01*
D02*
D17*
X9584Y9550D02*
G75*
G02X15884Y15850I6300D01*
G01*
X18284*
X30684Y17750D02*
X26184D01*
G75*
G03X20984Y12550J-5200*
G01*
X35384Y25150D02*
X37284D01*
G75*
G02X39984Y22450J-2700*
G01*
Y19250*
X37784Y17050*
Y12350*
G75*
G03X39484Y10650I1700*
G01*
X40084*
G75*
G03X42584Y13150J2500*
G01*
X42884D02*
X42584D01*
D02*
D18*
X24384Y57850D02*
Y34950D01*
G75*
G03X26684Y32650I2300*
G01*
G75*
G02X29084Y30250J-2400*
G01*
Y22290*
D02*
D19*
X29584Y19750D02*
X29884D01*
X31784Y29250D02*
Y29350D01*
Y29250*
X30984Y28450*
Y21050*
X29684Y19750*
X29584*
X0Y0D02*
M02*
