G04 EasyPC Gerber Version 21.0.3 Build 4286 *
G04 #@! TF.Part,Single*
G04 #@! TF.FileFunction,Paste,Bot *
G04 #@! TF.FilePolarity,Positive *
%FSLAX35Y35*%
%MOIN*%
G04 #@! TA.AperFunction,SMDPad*
%ADD25R,0.00787X0.01181*%
%ADD27R,0.01200X0.01200*%
%ADD29R,0.02000X0.02400*%
%ADD28R,0.02400X0.03500*%
%ADD20C,0.01378*%
%ADD26R,0.01181X0.00787*%
%ADD24R,0.01200X0.01200*%
%ADD22R,0.01831X0.01575*%
%ADD21R,0.04800X0.01600*%
%ADD23R,0.03500X0.02400*%
X0Y0D02*
D02*
D20*
X17988Y27454D03*
Y31391D03*
Y35328D03*
Y39265D03*
Y43202D03*
Y47139D03*
Y51076D03*
Y55013D03*
X21925Y27454D03*
Y31391D03*
Y35328D03*
Y39265D03*
Y43202D03*
Y47139D03*
Y51076D03*
Y55013D03*
X25862Y27454D03*
Y31391D03*
Y35328D03*
Y47139D03*
Y51076D03*
Y55013D03*
X29799Y27454D03*
Y31391D03*
Y51076D03*
Y55013D03*
X33736Y27454D03*
Y31391D03*
Y51076D03*
Y55013D03*
X37673Y27454D03*
Y31391D03*
Y35328D03*
Y47139D03*
Y51076D03*
Y55013D03*
X41610Y27454D03*
Y31391D03*
Y35328D03*
Y39265D03*
Y43202D03*
Y47139D03*
Y51076D03*
Y55013D03*
X45547Y27454D03*
Y31391D03*
Y35328D03*
Y39265D03*
Y43202D03*
Y47139D03*
Y51076D03*
Y55013D03*
D02*
D21*
X17284Y2150D03*
Y4650D03*
Y7250D03*
Y9750D03*
X26884Y2150D03*
Y4650D03*
Y7250D03*
Y9750D03*
X35684Y2150D03*
Y4650D03*
Y7250D03*
Y9750D03*
X45284Y2150D03*
Y4650D03*
Y7250D03*
Y9750D03*
D02*
D22*
X22996Y15850D03*
X27972Y14275D03*
Y17425D03*
X32596Y15850D03*
X37572Y14275D03*
Y17425D03*
D02*
D23*
X10784Y6150D03*
Y12150D03*
X51284Y2650D03*
Y8650D03*
D02*
D24*
X45284Y64150D03*
X47684D03*
D02*
D25*
X10095Y33862D03*
Y35938D03*
X10884Y28838D03*
Y30938D03*
X11473Y33862D03*
Y35938D03*
X12262Y28838D03*
Y30938D03*
X31695Y60762D03*
X33073D03*
X35295Y60362D03*
X36673D03*
D02*
D26*
X10796Y60961D03*
Y62339D03*
X13796Y60961D03*
Y62339D03*
X50296Y61061D03*
Y62439D03*
X51296Y47261D03*
Y48639D03*
X53296Y61061D03*
Y62439D03*
X53696Y47261D03*
Y48639D03*
D02*
D27*
X11584Y24450D03*
Y26850D03*
X11684Y53050D03*
Y55450D03*
D02*
D28*
X21284Y61650D03*
X27284D03*
D02*
D29*
X32184Y63094D03*
X36184D03*
X0Y0D02*
M02*
