G04 EasyPC Gerber Version 21.0.3 Build 4286 *
G04 #@! TF.Part,Single*
G04 #@! TF.FileFunction,Legend,Bot *
G04 #@! TF.FilePolarity,Positive *
%FSLAX35Y35*%
%MOIN*%
%ADD76C,0.00500*%
%ADD18C,0.00600*%
%ADD79C,0.00787*%
X0Y0D02*
D02*
D18*
X20384Y11650D02*
X23784D01*
X20884D02*
G75*
G03X23284I1200D01*
G01*
X23784Y250D02*
X20384D01*
X38784Y11650D02*
X42184D01*
X39284D02*
G75*
G03X41684I1200D01*
G01*
X42184Y250D02*
X38784D01*
D02*
D76*
X9884Y34362D02*
Y33362D01*
X11684*
Y34362*
X9884*
X11296Y62550D02*
X10296D01*
Y60750*
X11296*
Y62550*
X11684Y35438D02*
Y36438D01*
X9884*
Y35438*
X11684*
X12084Y26650D02*
X11084D01*
Y24650*
X12084*
Y26650*
X12184Y55250D02*
X11184D01*
Y53250*
X12184*
Y55250*
X12284Y12150D02*
X9260D01*
Y6125*
X12284*
Y12150*
X12473Y28338D02*
Y29338D01*
X10673*
Y28338*
X12473*
Y30438D02*
Y31438D01*
X10673*
Y30438*
X12473*
X14296Y62550D02*
X13296D01*
Y60750*
X14296*
Y62550*
X21284Y63150D02*
Y60126D01*
X27309*
Y63150*
X21284*
X31484Y61262D02*
Y60262D01*
X33284*
Y61262*
X31484*
X32184Y63984D02*
Y62106D01*
X36256*
Y63984*
X32184*
X35084Y60862D02*
Y59862D01*
X36884*
Y60862*
X35084*
X47484Y63650D02*
Y64650D01*
X45484*
Y63650*
X47484*
X49484Y58950D02*
Y23517D01*
X14051*
Y58950*
X49484*
X50370Y59737D02*
G75*
G02X49484Y58950I-443J-394D01*
G01*
G75*
G02X50370Y59737I443J394*
G01*
X50796Y62650D02*
X49796D01*
Y60850*
X50796*
Y62650*
X51796Y48850D02*
X50796D01*
Y47050*
X51796*
Y48850*
X52784Y8650D02*
X49760D01*
Y2625*
X52784*
Y8650*
X53796Y62650D02*
X52796D01*
Y60850*
X53796*
Y62650*
X54196Y48850D02*
X53196D01*
Y47050*
X54196*
Y48850*
D02*
D79*
X25681Y18212D02*
X25287D01*
Y13488*
X25681*
Y18212*
X28890Y19196D02*
X27059D01*
X35281Y18212D02*
X34887D01*
Y13488*
X35281*
Y18212*
X38490Y19196D02*
X36659D01*
X0Y0D02*
M02*
