G04 EasyPC Gerber Version 21.0.3 Build 4286 *
G04 #@! TF.Part,Single*
G04 #@! TF.FileFunction,Copper,L6,Bot *
G04 #@! TF.FilePolarity,Positive *
%FSLAX35Y35*%
%MOIN*%
G04 #@! TA.AperFunction,SMDPad*
%ADD25R,0.00787X0.01181*%
%ADD27R,0.01200X0.01200*%
%ADD29R,0.02000X0.02400*%
%ADD28R,0.02400X0.03500*%
G04 #@! TD.AperFunction*
%ADD75C,0.00300*%
%ADD71C,0.00400*%
%ADD76C,0.00500*%
%ADD18C,0.00600*%
%ADD74C,0.00700*%
%ADD17C,0.00800*%
%ADD19C,0.01000*%
%ADD16C,0.01100*%
%ADD70C,0.01200*%
G04 #@! TA.AperFunction,SMDPad*
%ADD20C,0.01378*%
G04 #@! TD.AperFunction*
%ADD72C,0.01400*%
%ADD78C,0.01600*%
G04 #@! TA.AperFunction,ViaPad*
%ADD12C,0.01700*%
G04 #@! TD.AperFunction*
%ADD77C,0.01800*%
G04 #@! TA.AperFunction,ViaPad*
%ADD14C,0.02000*%
G04 #@! TD.AperFunction*
%ADD73C,0.02200*%
G04 #@! TA.AperFunction,ViaPad*
%ADD13C,0.02600*%
%ADD15C,0.03400*%
G04 #@! TA.AperFunction,WasherPad*
%ADD11C,0.05500*%
G04 #@! TA.AperFunction,SMDPad*
%ADD26R,0.01181X0.00787*%
%ADD24R,0.01200X0.01200*%
%ADD22R,0.01831X0.01575*%
%ADD21R,0.04800X0.01600*%
%ADD23R,0.03500X0.02400*%
X0Y0D02*
D02*
D11*
X4784Y41250D03*
X31784Y68250D03*
X58784Y41250D03*
D02*
D12*
X9584Y9550D03*
X9784Y15050D03*
X11684Y51150D03*
X11984Y9150D03*
X13884Y11650D03*
X14284Y27550D03*
X14384Y51350D03*
X16084Y13250D03*
X16184Y29950D03*
X17084Y24550D03*
X18284Y15850D03*
X18384Y11950D03*
Y20150D03*
X18984Y57050D03*
X20084Y24550D03*
X20984Y12550D03*
X21484Y57850D03*
X24384D03*
X26584Y11950D03*
X27284Y20350D03*
X27584Y49450D03*
X28784Y47139D03*
X29084Y22290D03*
X29584Y19750D03*
X30684Y17750D03*
X31484Y56950D03*
X31784Y29350D03*
X32684Y11950D03*
X35084Y35328D03*
X35384Y25150D03*
X35484Y15650D03*
X35684Y32950D03*
X35784Y18050D03*
X36584Y22750D03*
X39584Y45250D03*
Y53050D03*
X39984Y33250D03*
X40084Y13150D03*
X40784Y15550D03*
X42584Y13150D03*
X43284Y15650D03*
X43484Y53050D03*
X45584Y21850D03*
Y24250D03*
X50684Y5350D03*
X51884Y14050D03*
X52884Y6050D03*
X53084Y15850D03*
X53384Y55550D03*
X53984Y13450D03*
X54284Y18250D03*
Y20750D03*
Y23189D03*
D02*
D13*
X25862Y24250D03*
X27284Y58150D03*
X29084Y44050D03*
X33084Y19150D03*
X34784Y47139D03*
X38384Y42250D03*
X39584Y60550D03*
X39884Y63550D03*
X47684Y60750D03*
X47784Y52750D03*
X53284Y58750D03*
X54584Y37450D03*
D02*
D14*
X12284Y44050D03*
D02*
D15*
X10784Y22150D03*
X16784Y62250D03*
X51884Y40750D03*
D02*
D16*
X11684Y53050D02*
Y51150D01*
X27584Y49450D02*
X28173D01*
X29799Y51076*
X31484Y56950D02*
Y56698D01*
X29799Y55013*
D02*
D17*
X10095Y35938D02*
Y41861D01*
G75*
G02X12284Y44050I2189*
G01*
X10784Y6150D02*
Y6050D01*
X9984*
Y9150*
G75*
G03X9584Y9550I-400*
G01*
X10796Y60961D02*
X10784Y58250D01*
X9784Y57250*
Y52850*
G75*
G03X11584Y51050I1800*
G01*
G75*
G03X11684Y51150J100*
G01*
X10796Y62339D02*
X13796D01*
X10884Y28838D02*
Y28650D01*
G75*
G03X9784Y27550J-1100*
G01*
Y22850*
G75*
G03X10484Y22150I700*
G01*
X10784*
X10884Y30938D02*
Y28838D01*
X11473Y35938D02*
X13484Y35950D01*
X17988Y31446*
Y31391*
X11473Y35938D02*
Y33862D01*
X11584Y24450D02*
Y22950D01*
G75*
G02X10784Y22150I-800*
G01*
X11584Y26850D02*
X11684D01*
G75*
G03X12284Y27450J600*
G01*
Y28828*
G75*
G03X12262Y28838I-16J-6*
G01*
X12984Y28850*
G75*
G02X14284Y27550J-1300*
G01*
X12262Y30938D02*
Y28838D01*
X13796Y60961D02*
X10796D01*
X13796Y62339D02*
X16695D01*
G75*
G02X16784Y62250J-89*
G01*
X13796Y62339D02*
X13984D01*
X17988Y31391D02*
Y31446D01*
X18284Y15850D02*
X22996D01*
X21925Y35328D02*
Y35209D01*
X23884Y33250*
Y26950*
G75*
G02X19384Y22450I-4500*
G01*
X17084*
G75*
G02X14384Y25150J2700*
G01*
Y27450*
G75*
G03X14284Y27550I-100*
G01*
X21925Y35328D02*
Y35609D01*
X25862Y27454D02*
Y24250D01*
X27284Y20350D02*
Y18113D01*
G75*
G03X27972Y17425I688*
G01*
Y14275D02*
Y13338D01*
G75*
G02X26584Y11950I-1388*
G01*
X31695Y60762D02*
Y62605D01*
G75*
G02X32184Y63094I489*
G01*
X31695Y60762D02*
Y59583D01*
G75*
G03X32984Y58294I1289*
G01*
X33239*
G75*
G03X35295Y60362I-6J2062*
G01*
X32184Y63094D02*
Y63350D01*
G75*
G03X31184Y64350I-1000*
G01*
X22684*
G75*
G03X21284Y62950J-1400*
G01*
Y61650*
X33073Y60762D02*
X33484Y60750D01*
X35084Y62350*
X35440*
X36184Y63094*
X35684Y2150D02*
X34084D01*
G75*
G02X30284Y5950J3800*
G01*
Y17350*
G75*
G02X30684Y17750I400*
G01*
X36673Y60362D02*
X39384Y60350D01*
G75*
G03X39584Y60550J200*
G01*
X37572Y14275D02*
X36859D01*
G75*
G02X35484Y15650J1375*
G01*
X37572Y17425D02*
X36409D01*
G75*
G02X35784Y18050J625*
G01*
X37673Y27454D02*
Y28139D01*
G75*
G02X38984Y29450I1311*
G01*
X48284*
G75*
G02X51484Y26250J-3200*
G01*
Y23550*
G75*
G03X54284Y20750I2800*
G01*
X37673Y55013D02*
Y54961D01*
X39584Y53050*
X40784Y63550D02*
X39884D01*
X41610Y27454D02*
Y25824D01*
G75*
G03X45584Y21850I3974*
G01*
X41610Y55013D02*
Y54924D01*
X43484Y53050*
X41625Y31391D02*
X43484Y33250D01*
X52184*
X45284Y64150D02*
X40484D01*
G75*
G03X39884Y63550J-600*
G01*
X45547Y55013D02*
X46047D01*
X47984Y60450D02*
X47684Y60750D01*
X50296Y61061D02*
X53296D01*
X50296Y62439D02*
X50284Y62750D01*
G75*
G03X48884Y64150I-1400*
G01*
X47684*
X50296Y62439D02*
X50384D01*
X51296Y48639D02*
X53696D01*
X53296Y61061D02*
X53284Y58750D01*
X53296Y62439D02*
X50296D01*
X53696Y48639D02*
X53684Y50050D01*
G75*
G03X48584Y55150I-5100*
G01*
X45684*
G75*
G03X45547Y55013J-137*
G01*
X54284Y23189D02*
Y31150D01*
G75*
G03X52184Y33250I-2100*
G01*
D02*
D18*
X10095Y33862D02*
Y33539D01*
G75*
G03X11084Y32550I989*
G01*
X13784*
G75*
G02X16184Y30150J-2400*
G01*
Y29950*
X15784Y49450D02*
X13084D01*
G75*
G02X13135Y48806I-4078J-646*
G01*
G75*
G02X11634Y45621I-4130J0*
G01*
G75*
G02X13984Y44050I650J-1571*
G01*
G75*
G02X10584I-1700*
G01*
G75*
G02X11047Y45216I1700*
G01*
G75*
G02X10484Y44950I-2041J3588*
G01*
G75*
G03X7464Y43422I-50J-3650*
G01*
G75*
G02X7387Y38986I-2680J-2172*
G01*
G75*
G03X10284Y37450I2897J1964*
G01*
X15784*
Y49450*
G36*
X13084*
G75*
G02X13135Y48806I-4078J-646*
G01*
G75*
G02X11634Y45621I-4130J0*
G01*
G75*
G02X13984Y44050I650J-1571*
G01*
G75*
G02X10584I-1700*
G01*
G75*
G02X11047Y45216I1700*
G01*
G75*
G02X10484Y44950I-2041J3588*
G01*
G75*
G03X7464Y43422I-50J-3650*
G01*
G75*
G02X7387Y38986I-2680J-2172*
G01*
G75*
G03X10284Y37450I2897J1964*
G01*
X15784*
Y49450*
G37*
X32596Y15850D02*
X32984D01*
Y15250*
X36584Y11650*
X51884*
G75*
G02X54984Y8550J-3100*
G01*
Y6050*
G75*
G02X52384Y3450I-2600*
G01*
X51284*
Y2650*
X33736Y27454D02*
Y23798D01*
G75*
G03X37184Y20350I3448*
G01*
X48284*
G75*
G03X49484Y21550J1200*
G01*
Y22750*
G75*
G03X47984Y24250I-1500*
G01*
X45284*
D02*
D19*
X13884Y11650D02*
Y3450D01*
G75*
G03X15284Y2050I1400*
G01*
X17184*
X21925Y47009D02*
X24884Y44050D01*
X29084*
X25862Y35328D02*
Y40828D01*
X29084Y44050*
D02*
D70*
X10784Y12150D02*
G75*
G03X12384Y13750J1600D01*
G01*
Y15650*
G75*
G02X14684Y17950I2300*
G01*
X23384*
G75*
G02X25484Y15850J-2100*
G01*
Y14050*
G75*
G02X23984Y12550I-1500*
G01*
G75*
G03X22984Y11550J-1000*
G01*
Y9650*
G75*
G03X25384Y7250I2400*
G01*
X26884*
X11684Y55450D02*
X13484D01*
X15584Y57550*
X17184Y2050D02*
X17284Y2150D01*
X35684Y7250D02*
X34184D01*
G75*
G02X31984Y9450J2200*
G01*
Y11250*
G75*
G02X32684Y11950I700*
G01*
X39584Y60550D02*
X39328D01*
X36784Y63094*
X36184*
X46047Y55013D02*
X47984Y56950D01*
X47684Y60750D02*
Y64150D01*
X47984Y56950D02*
Y60450D01*
D02*
D71*
X7334Y41250D02*
X8234D01*
X11484Y44050D02*
X10584D01*
X12284Y43250D02*
Y42350D01*
Y44850D02*
Y45750D01*
X13084Y44050D02*
X13984D01*
D02*
D20*
X17988Y27454D03*
Y31391D03*
Y35328D03*
Y39265D03*
Y43202D03*
Y47139D03*
Y51076D03*
Y55013D03*
X21925Y27454D03*
Y31391D03*
Y35328D03*
Y39265D03*
Y43202D03*
Y47139D03*
Y51076D03*
Y55013D03*
X25862Y27454D03*
Y31391D03*
Y35328D03*
Y47139D03*
Y51076D03*
Y55013D03*
X29799Y27454D03*
Y31391D03*
Y51076D03*
Y55013D03*
X33736Y27454D03*
Y31391D03*
Y51076D03*
Y55013D03*
X37673Y27454D03*
Y31391D03*
Y35328D03*
Y47139D03*
Y51076D03*
Y55013D03*
X41610Y27454D03*
Y31391D03*
Y35328D03*
Y39265D03*
Y43202D03*
Y47139D03*
Y51076D03*
Y55013D03*
X45547Y27454D03*
Y31391D03*
Y35328D03*
Y39265D03*
Y43202D03*
Y47139D03*
Y51076D03*
Y55013D03*
D02*
D21*
X17284Y2150D03*
Y4650D03*
Y7250D03*
Y9750D03*
X26884Y2150D03*
Y4650D03*
Y7250D03*
Y9750D03*
X35684Y2150D03*
Y4650D03*
Y7250D03*
Y9750D03*
X45284Y2150D03*
Y4650D03*
Y7250D03*
Y9750D03*
D02*
D22*
X22996Y15850D03*
X27972Y14275D03*
Y17425D03*
X32596Y15850D03*
X37572Y14275D03*
Y17425D03*
D02*
D23*
X10784Y6150D03*
Y12150D03*
X51284Y2650D03*
Y8650D03*
D02*
D24*
X45284Y64150D03*
X47684D03*
D02*
D25*
X10095Y33862D03*
Y35938D03*
X10884Y28838D03*
Y30938D03*
X11473Y33862D03*
Y35938D03*
X12262Y28838D03*
Y30938D03*
X31695Y60762D03*
X33073D03*
X35295Y60362D03*
X36673D03*
D02*
D26*
X10796Y60961D03*
Y62339D03*
X13796Y60961D03*
Y62339D03*
X50296Y61061D03*
Y62439D03*
X51296Y47261D03*
Y48639D03*
X53296Y61061D03*
Y62439D03*
X53696Y47261D03*
Y48639D03*
D02*
D27*
X11584Y24450D03*
Y26850D03*
X11684Y53050D03*
Y55450D03*
D02*
D28*
X21284Y61650D03*
X27284D03*
D02*
D29*
X32184Y63094D03*
X36184D03*
D02*
D72*
X15584Y57550D02*
Y61050D01*
X16784Y62250*
X17084Y24550D02*
Y26550D01*
G75*
G02X17988Y27454I904*
G01*
X17284Y61750D02*
X16784Y62250D01*
X17988Y35328D02*
X21925Y31391D01*
X17988Y47139D02*
Y51076D01*
X17858*
X15584Y53350*
Y57550*
X21925Y27454D02*
X17988D01*
X21925Y31391D02*
Y27454D01*
X25862Y47139D02*
X28784D01*
X33736Y51076D02*
Y55013D01*
Y55202*
X36784Y58250*
X42384*
G75*
G03X43484Y59350J1100*
G01*
G75*
G02X45284Y61150I1800*
G01*
X47284*
G75*
G02X47684Y60750J-400*
G01*
X37673Y35328D02*
X35084D01*
X37673Y47139D02*
X34784D01*
X41610Y39265D02*
X37769D01*
G75*
G02X31784Y45250J5985*
G01*
Y49124*
X33736Y51076*
X45547Y43202D02*
Y47139D01*
Y51076D02*
Y51250D01*
X47347Y53050*
X47784*
Y52750*
X45547Y51076D02*
Y47139D01*
D02*
D73*
X27284Y61650D02*
Y58150D01*
D02*
D74*
X21925Y47139D02*
Y47009D01*
D02*
D75*
X41610Y55013D02*
Y55576D01*
Y55013D02*
Y55576D01*
X45284Y24250D02*
G75*
G03X45584I150J150D01*
G01*
D02*
D76*
X33736Y31391D02*
Y31298D01*
X35384Y29650*
Y25150*
X41610Y27454D02*
Y27476D01*
Y31391D02*
X41625D01*
X41610Y43202D02*
Y42954D01*
X41384Y42728*
Y42250*
X43484Y40150*
Y38950*
G75*
G03X44984Y37450I1500*
G01*
X45884*
G75*
G03X48584Y40150J2700*
G01*
Y41050*
X53684Y46150*
X53696Y47261*
X41610Y47139D02*
Y47124D01*
X41984*
G75*
G02X43784Y45324J-1800*
G01*
Y42250*
G75*
G03X44984Y41050I1200*
G01*
X46784*
X51284Y45550*
X51296Y47261*
D02*
D77*
X21284Y61650D02*
X17384D01*
G75*
G02X16784Y62250J600*
G01*
X51284Y8650D02*
X49984D01*
X48684Y7350*
X45384*
X45284Y7250*
D02*
D78*
X17284Y9750D02*
G75*
G02X16084Y10950J1200D01*
G01*
Y13250*
X17284Y9750D02*
Y7250D01*
X26884Y2150D02*
Y4650D01*
Y7250*
X35684Y9750D02*
Y7250D01*
X45284Y2150D02*
Y4650D01*
Y7250*
X0Y0D02*
M02*
