G04 EasyPC Gerber Version 21.0.3 Build 4286 *
G04 #@! TF.Part,Single*
G04 #@! TF.FileFunction,Copper,L2,Inr *
G04 #@! TF.FilePolarity,Positive *
%FSLAX35Y35*%
%MOIN*%
%ADD16C,0.00001*%
G04 #@! TA.AperFunction,ViaPad*
%ADD15C,0.02600*%
G04 #@! TA.AperFunction,WasherPad*
%ADD10C,0.05500*%
X0Y0D02*
D02*
D10*
X10093Y22691D03*
X30565D03*
D02*
D15*
X2612Y3006D03*
X11667Y17573D03*
X17573Y3006D03*
X28596Y12061D03*
X32533D03*
X38045Y5368D03*
D02*
D16*
X18504Y19935D02*
X17967D01*
G75*
G02X14817Y23085J3150*
G01*
G75*
G03X10093Y27415I-4490J-156*
G01*
G75*
G03X5368Y23085I-378J-4330*
G01*
Y23085*
G75*
G02X2219Y19935I-3150*
G01*
X250*
Y250*
X18504*
Y1465*
G75*
G02X15773Y3006I-931J1541*
G01*
G75*
G02X18504Y4546I1800*
G01*
Y19935*
X6843Y22691D02*
G75*
G02X13343I3250D01*
G01*
G75*
G02X11167Y19624I-3250*
G01*
Y18773*
G75*
G03X10467Y18073I499J-1199*
G01*
X9422*
G75*
G02X10339Y19450I2244J-499*
G01*
G75*
G02X6843Y22691I-246J3241*
G01*
X12867Y17073D02*
X13912D01*
G75*
G02X12167Y15328I-2244J499*
G01*
Y16373*
G75*
G03X12867Y17073I-499J1199*
G01*
X12167Y19818D02*
G75*
G02X13912Y18073I-499J-2244D01*
G01*
X12867*
G75*
G03X12167Y18773I-1199J-499*
G01*
Y19818*
X10467Y17073D02*
G75*
G03X11167Y16373I1199J499D01*
G01*
Y15328*
G75*
G02X9422Y17073I499J2244*
G01*
X10467*
X812Y3006D02*
G75*
G02X4412I1800D01*
G01*
G75*
G02X812I-1800*
G01*
X15773D02*
G36*
X4412D01*
G75*
G02X812I-1800*
G01*
X250*
Y250*
X18504*
Y1465*
G75*
G02X15773Y3006I-931J1541*
G01*
G37*
X18504Y16200D02*
G36*
X13513D01*
G75*
G02X12167Y15328I-1845J1372*
G01*
Y16200*
X11167*
Y15328*
G75*
G02X9822Y16200I499J2244*
G01*
X250*
Y3006*
X812*
G75*
G02X4412I1800*
G01*
X15773*
G75*
G02X18504Y4546I1800J0*
G01*
Y16200*
G37*
Y18945D02*
G36*
X13513D01*
G75*
G02X13912Y18073I-1845J-1372*
G01*
X12867*
G75*
G03X12167Y18773I-1199J-499*
G01*
Y18945*
X11167*
Y18773*
G75*
G03X10467Y18073I499J-1199*
G01*
X9422*
G75*
G02X9822Y18945I2245J-500*
G01*
X250*
Y16200*
X9822*
G75*
G02X9422Y17073I1845J1372*
G01*
X10467*
G75*
G03X11167Y16373I1199J499*
G01*
Y16200*
X12167*
Y16373*
G75*
G03X12867Y17073I-499J1199*
G01*
X13912*
G75*
G02X13513Y16200I-2244J499*
G01*
X18504*
Y18945*
G37*
X15007Y22007D02*
G36*
X13270D01*
G75*
G02X11167Y19624I-3176J683*
G01*
Y18945*
X12167*
Y19818*
G75*
G02X13513Y18945I-499J-2244*
G01*
X18504*
Y19935*
X17967*
G75*
G02X15007Y22007J3149*
G01*
G37*
X6915D02*
G36*
X5178D01*
G75*
G02X2219Y19935I-2959J1078*
G01*
X250*
Y18945*
X9822*
G75*
G02X10339Y19450I1846J-1372*
G01*
G75*
G02X6915Y22007I-246J3241*
G01*
G37*
X15007D02*
G36*
G75*
G02X14817Y23085I2960J1078D01*
G01*
G75*
G03X10093Y27415I-4490J-156*
G01*
G75*
G03X5368Y23085I-378J-4330*
G01*
Y23085*
G75*
G02X5178Y22007I-3150*
G01*
X6915*
G75*
G02X6843Y22691I3178J684*
G01*
G75*
G02X13343I3250*
G01*
G75*
G02Y22690I-3759J0*
G01*
G75*
G02X13270Y22007I-3249J1*
G01*
X15007*
G37*
X21366Y19935D02*
Y250D01*
X40407*
Y19935*
X38045*
G75*
G02X35289Y22691J2756*
G01*
Y22691*
Y22691*
G75*
G03X30565Y27415I-4724*
G01*
X30171*
G75*
G03X25841Y23085J-4330*
G01*
Y23085*
G75*
G02X22691Y19935I-3150*
G01*
X21366*
X39245Y4868D02*
X40290D01*
G75*
G02X38545Y3123I-2244J499*
G01*
Y4168*
G75*
G03X39245Y4868I-499J1199*
G01*
X38545Y7613D02*
G75*
G02X40290Y5868I-499J-2244D01*
G01*
X39245*
G75*
G03X38545Y6568I-1199J-499*
G01*
Y7613*
X36845Y4868D02*
G75*
G03X37545Y4168I1199J499D01*
G01*
Y3123*
G75*
G02X35800Y4868I499J2244*
G01*
X36845*
X35800Y5868D02*
G75*
G02X37545Y7613I2244J-499D01*
G01*
Y6568*
G75*
G03X36845Y5868I499J-1199*
G01*
X35800*
X26796Y12061D02*
G75*
G02X30396I1800D01*
G01*
G75*
G02X26796I-1800*
G01*
X27315Y22691D02*
G75*
G02X33815I3250D01*
G01*
G75*
G02X27315I-3250*
G01*
X30733Y12061D02*
G75*
G02X34333I1800D01*
G01*
G75*
G02X30733I-1800*
G01*
X40407Y3996D02*
G36*
X39891D01*
G75*
G02X38545Y3123I-1845J1372*
G01*
Y3996*
X37545*
Y3123*
G75*
G02X36200Y3996I499J2244*
G01*
X21366*
Y250*
X40407*
Y3996*
G37*
Y6741D02*
G36*
X39891D01*
G75*
G02X40290Y5868I-1845J-1372*
G01*
X39245*
G75*
G03X38545Y6568I-1199J-499*
G01*
Y6741*
X37545*
Y6568*
G75*
G03X36845Y5868I499J-1199*
G01*
X35800*
G75*
G02X36200Y6741I2244J-499*
G01*
X21366*
Y3996*
X36200*
G75*
G02X35800Y4868I1845J1372*
G01*
X36845*
G75*
G03X37545Y4168I1199J499*
G01*
Y3996*
X38545*
Y4168*
G75*
G03X39245Y4868I-499J1199*
G01*
X40290*
G75*
G02X39891Y3996I-2244J499*
G01*
X40407*
Y6741*
G37*
Y12061D02*
G36*
X34333D01*
G75*
G02X30733I-1800*
G01*
X30396*
G75*
G02X26796I-1800*
G01*
X21366*
Y6741*
X36200*
G75*
G02X37545Y7613I1845J-1372*
G01*
Y6741*
X38545*
Y7613*
G75*
G02X39891Y6741I-499J-2244*
G01*
X40407*
Y12061*
G37*
X35289Y22691D02*
G36*
X33815D01*
G75*
G02X27315I-3250*
G01*
X25816*
G75*
G02X22691Y19935I-3125J393*
G01*
X21366*
Y12061*
X26796*
G75*
G02X30396I1800*
G01*
X30733*
G75*
G02X34333I1800*
G01*
X40407*
Y19935*
X38045*
G75*
G02X35289Y22691J2756*
G01*
Y22691*
G37*
G36*
Y22691*
G75*
G03X30565Y27415I-4724*
G01*
X30171*
G75*
G03X25841Y23085J-4330*
G01*
Y23085*
G75*
G02X25816Y22691I-3151J1*
G01*
X27315*
G75*
G02X33815I3250*
G01*
X35289*
G37*
X0Y0D02*
M02*
