G04 EasyPC Gerber Version 21.0.3 Build 4286 *
G04 #@! TF.Part,Single*
G04 #@! TF.FileFunction,Copper,L3,Inr *
G04 #@! TF.FilePolarity,Positive *
%FSLAX35Y35*%
%MOIN*%
%ADD16C,0.00001*%
G04 #@! TA.AperFunction,ViaPad*
%ADD15C,0.02600*%
G04 #@! TA.AperFunction,WasherPad*
%ADD10C,0.05500*%
X0Y0D02*
D02*
D10*
X10093Y22691D03*
X30565D03*
D02*
D15*
X2612Y3006D03*
X11667Y17573D03*
X17573Y3006D03*
X28596Y12061D03*
X32533D03*
X38045Y5368D03*
D02*
D16*
X40407Y19935D02*
X38045D01*
G75*
G02X35289Y22691J2756*
G01*
Y22691*
Y22691*
G75*
G03X30565Y27415I-4724*
G01*
X30171*
G75*
G03X25841Y23085J-4330*
G01*
Y23085*
G75*
G02X22691Y19935I-3150*
G01*
X17967*
G75*
G02X14817Y23085J3150*
G01*
G75*
G03X10093Y27415I-4490J-156*
G01*
G75*
G03X5368Y23085I-378J-4330*
G01*
Y23085*
G75*
G02X2219Y19935I-3150*
G01*
X250*
Y250*
X40407*
Y19935*
X36245Y5368D02*
G75*
G02X39845I1800D01*
G01*
G75*
G02X36245I-1800*
G01*
X26796Y12061D02*
G75*
G02X30396I1800D01*
G01*
G75*
G02X26796I-1800*
G01*
X27315Y22691D02*
G75*
G02X33815I3250D01*
G01*
G75*
G02X27315I-3250*
G01*
X30733Y12061D02*
G75*
G02X34333I1800D01*
G01*
G75*
G02X30733I-1800*
G01*
X15773Y3006D02*
G75*
G02X19373I1800D01*
G01*
G75*
G02X15773I-1800*
G01*
X6843Y22691D02*
G75*
G02X13343I3250D01*
G01*
G75*
G02X6843I-3250*
G01*
X9867Y17573D02*
G75*
G02X13467I1800D01*
G01*
G75*
G02X9867I-1800*
G01*
X812Y3006D02*
G75*
G02X4412I1800D01*
G01*
G75*
G02X812I-1800*
G01*
X40407D02*
G36*
X19373D01*
G75*
G02X15773I-1800*
G01*
X4412*
G75*
G02X812I-1800*
G01*
X250*
Y250*
X40407*
Y3006*
G37*
Y5368D02*
G36*
X39845D01*
G75*
G02X36245I-1800*
G01*
X250*
Y3006*
X812*
G75*
G02X4412I1800*
G01*
X15773*
G75*
G02X19373I1800*
G01*
X40407*
Y5368*
G37*
Y12061D02*
G36*
X34333D01*
G75*
G02X30733I-1800*
G01*
X30396*
G75*
G02X26796I-1800*
G01*
X250*
Y5368*
X36245*
G75*
G02X39845I1800*
G01*
X40407*
Y12061*
G37*
Y17573D02*
G36*
X13467D01*
G75*
G02X9867I-1800*
G01*
X250*
Y12061*
X26796*
G75*
G02X30396I1800*
G01*
X30733*
G75*
G02X34333I1800*
G01*
X40407*
Y17573*
G37*
X35289Y22691D02*
G36*
X33815D01*
G75*
G02X27315I-3250*
G01*
X25816*
G75*
G02X22691Y19935I-3125J393*
G01*
X17967*
G75*
G02X14842Y22691J3149*
G01*
X13343*
G75*
G02X6843I-3250*
G01*
X5343*
G75*
G02X2219Y19935I-3125J393*
G01*
X250*
Y17573*
X9867*
G75*
G02X13467I1800*
G01*
X40407*
Y19935*
X38045*
G75*
G02X35289Y22691J2756*
G01*
Y22691*
G37*
X14842D02*
G36*
G75*
G02X14817Y23085I3126J394D01*
G01*
G75*
G03X10093Y27415I-4490J-156*
G01*
G75*
G03X5368Y23085I-378J-4330*
G01*
Y23085*
G75*
G02X5343Y22691I-3151J1*
G01*
X6843*
G75*
G02X13343I3250*
G01*
X14842*
G37*
X35289D02*
G36*
Y22691D01*
G75*
G03X30565Y27415I-4724*
G01*
X30171*
G75*
G03X25841Y23085J-4330*
G01*
Y23085*
G75*
G02X25816Y22691I-3151J1*
G01*
X27315*
G75*
G02X33815I3250*
G01*
X35289*
G37*
X0Y0D02*
M02*
