G04 EasyPC Gerber Version 21.0.3 Build 4286 *
G04 #@! TF.Part,Single*
G04 #@! TF.FileFunction,Copper,L2,Inr *
G04 #@! TF.FilePolarity,Positive *
%FSLAX35Y35*%
%MOIN*%
G04 #@! TA.AperFunction,ComponentPad*
%ADD130R,0.06000X0.06000*%
G04 #@! TD.AperFunction*
%ADD10C,0.00001*%
%ADD17C,0.00500*%
%ADD117C,0.00800*%
%ADD116C,0.00900*%
%ADD132C,0.01100*%
%ADD21C,0.01200*%
%ADD108C,0.01600*%
%ADD90C,0.01800*%
%ADD22C,0.02600*%
G04 #@! TA.AperFunction,ViaPad*
%ADD12C,0.03200*%
G04 #@! TA.AperFunction,ComponentPad*
%ADD121C,0.04724*%
G04 #@! TA.AperFunction,ViaPad*
%ADD107C,0.05600*%
G04 #@! TA.AperFunction,WasherPad*
%ADD119C,0.06000*%
G04 #@! TA.AperFunction,ComponentPad*
%ADD126C,0.07600*%
%ADD123C,0.09055*%
%ADD124C,0.10039*%
X0Y0D02*
D02*
D10*
X250Y383250D02*
Y250D01*
X344250*
Y383250*
X250*
X152713Y249312D02*
G75*
G02X153463Y247850I-1050J-1462D01*
G01*
G75*
G02X149863I-1800*
G01*
G75*
G02X150613Y249312I1800*
G01*
Y252337*
G75*
G03X141750Y261200I-8863*
G01*
X14350*
G75*
G03X4100Y250951J-10249*
G01*
G75*
G03Y250950I15038J0*
G01*
Y229650*
Y229650*
G75*
G03X6450Y227300I2350*
G01*
X7788*
G75*
G02X11050Y226250I1462J-1050*
G01*
G75*
G02X7788Y225200I-1800*
G01*
X6450*
G75*
G02X2000Y229650J4450*
G01*
Y250950*
G75*
G02X14350Y263300I12350*
G01*
X141750*
G75*
G02X152713Y252337J-10963*
G01*
Y252337*
Y249312*
X149650Y245309D02*
G75*
G02X150550Y243750I-900J-1559D01*
G01*
G75*
G02X146950I-1800*
G01*
G75*
G02X147850Y245309I1800*
G01*
Y249750*
G75*
G03X142750Y254850I-5100*
G01*
X24250*
G75*
G03X18150Y248750J-6100*
G01*
Y196750*
Y196750*
G75*
G02X12250Y190850I-5900*
G01*
X8250*
G75*
G03X5997Y189548I0J-2600*
G01*
G75*
G02X6288Y189185I-1248J-1298*
G01*
G75*
G03X38350Y222750I-1539J33565*
G01*
Y224180*
G75*
G02X37450Y225738I900J1559*
G01*
G75*
G02X41050I1800*
G01*
G75*
G02X40150Y224180I-1800*
G01*
Y222750*
G75*
G02X6329Y187385I-35400*
G01*
G75*
G02X2950Y188250I-1579J865*
G01*
G75*
G02X4197Y189963I1800*
G01*
G75*
G02X8250Y192650I4053J-1713*
G01*
X12250*
G75*
G03X16350Y196750J4100*
G01*
Y196750*
Y224390*
G75*
G02X15250Y223710I-1600J1360*
G01*
Y224550*
G75*
G03X15950Y225250I-499J1199*
G01*
X16350*
Y226250*
X15950*
G75*
G03X15250Y226950I-1199J-499*
G01*
Y227790*
G75*
G02X16350Y227110I-500J-2040*
G01*
Y248750*
Y248750*
G75*
G02X24250Y256650I7900*
G01*
X142750*
G75*
G02X149650Y249750J-6900*
G01*
Y249750*
Y245309*
X150995Y185049D02*
G75*
G03X153250Y182794I2756J500D01*
G01*
Y181984*
G75*
G02X150185Y185049I500J3565*
G01*
X150995*
X150185Y186049D02*
G75*
G02X153250Y189114I3565J-500D01*
G01*
Y188304*
G75*
G03X150995Y186049I500J-2756*
G01*
X150185*
X146311Y250780D02*
G75*
G02X147164Y249250I-947J-1531D01*
G01*
G75*
G02X143564I-1800*
G01*
G75*
G02X144409Y250776I1800*
G01*
G75*
G03X142250Y252800I-2159J-140*
G01*
X46250*
G75*
G03X39700Y246250J-6550*
G01*
Y232279*
G75*
G02X40550Y230787I-950J-1529*
G01*
G75*
G02X43650Y226771I-2050J-4787*
G01*
Y245250*
G75*
G03X43560Y245643I-901J0*
G01*
G75*
G02X40950Y247250I-810J1607*
G01*
G75*
G02X44450Y247843I1800*
G01*
G75*
G02X45850Y245250I-1699J-2592*
G01*
Y245250*
Y245169*
G75*
G02X54250Y252700I8400J-918*
G01*
X139250*
G75*
G02X143165Y248786J-3914*
G01*
Y248785*
Y246779*
G75*
G02X144015Y245250I-950J-1529*
G01*
G75*
G02X140415I-1800*
G01*
G75*
G02X141265Y246779I1800*
G01*
Y248785*
G75*
G03X139250Y250800I-2015*
G01*
X54250*
G75*
G03X47700Y244250J-6550*
G01*
Y177279*
G75*
G02X48550Y175750I-950J-1529*
G01*
G75*
G02X44950I-1800*
G01*
G75*
G02X45800Y177279I1800*
G01*
Y183361*
G75*
G02X37931Y176331I-7869J889*
G01*
X9675*
G75*
G02X6450Y177431I-1425J1100*
G01*
G75*
G02X9675Y178531I1800*
G01*
X37931*
G75*
G03X43650Y184250J5719*
G01*
Y197331*
G75*
G02X35250Y189800I-8400J918*
G01*
X26279*
G75*
G02X22950Y190750I-1529J950*
G01*
G75*
G02X26279Y191700I1800*
G01*
X35250*
G75*
G03X41800Y198250J6550*
G01*
Y225750*
G75*
G02Y225755I677J2*
G01*
G75*
G02X41802Y225806I662*
G01*
G75*
G03X41807Y226000I-3302J191*
G01*
G75*
G03X39548Y229137I-3307*
G01*
G75*
G02X36950Y230750I-798J1613*
G01*
G75*
G02X37800Y232279I1800*
G01*
Y246250*
Y246250*
G75*
G02X46250Y254700I8450*
G01*
X142250*
G75*
G02X146311Y250780I-1J-4065*
G01*
X146950Y171250D02*
G75*
G02X150550I1800D01*
G01*
G75*
G02X146950I-1800*
G01*
X142950Y202750D02*
G75*
G02X146550I1800D01*
G01*
G75*
G02X142950I-1800*
G01*
X137536Y249700D02*
G75*
G02X140865Y248750I1529J-950D01*
G01*
G75*
G02X137536Y247800I-1800*
G01*
X57750*
G75*
G03X52200Y242250J-5550*
G01*
Y163779*
G75*
G02X53050Y162250I-950J-1529*
G01*
G75*
G02X49450I-1800*
G01*
G75*
G02X50300Y163779I1800*
G01*
Y242250*
Y242250*
G75*
G02X57750Y249700I7450*
G01*
X137536*
X68117Y245250D02*
G75*
G02X72417Y240950J-4300D01*
G01*
G75*
G02X68117Y236650I-4300*
G01*
G75*
G02X63817Y240950J4300*
G01*
G75*
G02X68117Y245250I4300*
G01*
X87117D02*
G75*
G02X91417Y240950J-4300D01*
G01*
G75*
G02X87117Y236650I-4300*
G01*
G75*
G02X82817Y240950J4300*
G01*
G75*
G02X87117Y245250I4300*
G01*
X153359Y142392D02*
G75*
G02X156550Y141250I1391J-1142D01*
G01*
G75*
G02X153294Y140192I-1800*
G01*
G75*
G02X129650Y165250I1457J25058*
G01*
Y236750*
Y236750*
G75*
G03X126250Y240150I-3400*
G01*
X123675*
G75*
G02X120450Y241250I-1425J1100*
G01*
G75*
G02X123675Y242350I1800*
G01*
X126250*
G75*
G02X131850Y236750J-5600*
G01*
Y165250*
Y165250*
G75*
G03X153359Y142392I22900*
G01*
X128452Y138997D02*
G75*
G02X131550Y137750I1298J-1247D01*
G01*
G75*
G02X128037Y137197I-1800*
G01*
G75*
G02X125350Y141250I1713J4053*
G01*
Y141250*
Y218191*
G75*
G02X124450Y219750I900J1559*
G01*
G75*
G02X128050I1800*
G01*
G75*
G02X127150Y218191I-1800*
G01*
Y141250*
Y141250*
G75*
G03X128452Y138997I2600*
G01*
X109256Y235800D02*
G75*
G02X112519Y234750I1462J-1050D01*
G01*
G75*
G02X109256Y233700I-1800*
G01*
X67250*
G75*
G03X56800Y223250J-10450*
G01*
Y223250*
Y200712*
G75*
G02X57550Y199250I-1050J-1462*
G01*
G75*
G02X53950I-1800*
G01*
G75*
G02X54700Y200712I1800*
G01*
Y223250*
G75*
G02X67250Y235800I12550*
G01*
X109256*
X87117Y147250D02*
G75*
G02X91417Y142950J-4300D01*
G01*
G75*
G02X87117Y138650I-4300*
G01*
G75*
G02X82817Y142950J4300*
G01*
G75*
G02X87117Y147250I4300*
G01*
X89077Y121140D02*
G75*
G02X94801I2862D01*
G01*
G75*
G02X89077I-2862*
G01*
X82950Y120750D02*
G75*
G02X86550I1800D01*
G01*
G75*
G02X82950I-1800*
G01*
X87117Y166850D02*
G75*
G02X91417Y162550J-4300D01*
G01*
G75*
G02X87117Y158250I-4300*
G01*
G75*
G02X82817Y162550J4300*
G01*
G75*
G02X87117Y166850I4300*
G01*
Y186450D02*
G75*
G02X91417Y182150J-4300D01*
G01*
G75*
G02X87117Y177850I-4300*
G01*
G75*
G02X82817Y182150J4300*
G01*
G75*
G02X87117Y186450I4300*
G01*
Y206050D02*
G75*
G02X91417Y201750J-4300D01*
G01*
G75*
G02X87117Y197450I-4300*
G01*
G75*
G02X82817Y201750J4300*
G01*
G75*
G02X87117Y206050I4300*
G01*
Y225650D02*
G75*
G02X91417Y221350J-4300D01*
G01*
G75*
G02X87117Y217050I-4300*
G01*
G75*
G02X82817Y221350J4300*
G01*
G75*
G02X87117Y225650I4300*
G01*
X159450Y115250D02*
G75*
G02X163050I1800D01*
G01*
G75*
G02X162124Y113677I-1800*
G01*
G75*
G02X156750Y109650I-5374J1573*
G01*
X126750*
G75*
G02X117650Y118750J9100*
G01*
Y205750*
Y205750*
G75*
G03X112750Y210650I-4900*
G01*
X97750*
G75*
G02X93674Y214307J4100*
G01*
G75*
G02X92950Y215750I1076J1443*
G01*
G75*
G02X96550I1800*
G01*
G75*
G02X95891Y214358I-1800*
G01*
G75*
G03X97750Y212850I1860J393*
G01*
X112750*
G75*
G02X119850Y205750J-7100*
G01*
Y118750*
Y118750*
G75*
G03X126750Y111850I6900*
G01*
X156750*
G75*
G03X159924Y114032I0J3400*
G01*
G75*
G02X159450Y115250I1325J1218*
G01*
X110450Y182250D02*
G75*
G02X114050I1800D01*
G01*
G75*
G02X110450I-1800*
G01*
X110950Y162250D02*
G75*
G02X114550I1800D01*
G01*
G75*
G02X110950I-1800*
G01*
X111950Y142750D02*
G75*
G02X115550I1800D01*
G01*
G75*
G02X111950I-1800*
G01*
X134825Y116350D02*
G75*
G02X138050Y115250I1425J-1100D01*
G01*
G75*
G02X134825Y114150I-1800*
G01*
X127250*
G75*
G02X121650Y119750J5600*
G01*
Y210750*
Y210750*
G75*
G03X116250Y216150I-5400*
G01*
X106675*
G75*
G02X103450Y217250I-1425J1100*
G01*
G75*
G02X106675Y218350I1800*
G01*
X116250*
G75*
G02X123850Y210750J-7600*
G01*
Y119750*
Y119750*
G75*
G03X127250Y116350I3400*
G01*
X134825*
X58450Y212250D02*
G75*
G02X65050I3300D01*
G01*
G75*
G02X58450I-3300*
G01*
X60950Y110250D02*
G75*
G02X67550I3300D01*
G01*
G75*
G02X60950I-3300*
G01*
X68117Y147250D02*
G75*
G02X72417Y142950J-4300D01*
G01*
G75*
G02X68117Y138650I-4300*
G01*
G75*
G02X63817Y142950J4300*
G01*
G75*
G02X68117Y147250I4300*
G01*
X69450Y90250D02*
G75*
G02X73050I1800D01*
G01*
G75*
G02X69450I-1800*
G01*
X68117Y166850D02*
G75*
G02X72417Y162550J-4300D01*
G01*
G75*
G02X68117Y158250I-4300*
G01*
G75*
G02X63817Y162550J4300*
G01*
G75*
G02X68117Y166850I4300*
G01*
Y186450D02*
G75*
G02X72417Y182150J-4300D01*
G01*
G75*
G02X68117Y177850I-4300*
G01*
G75*
G02X63817Y182150J4300*
G01*
G75*
G02X68117Y186450I4300*
G01*
Y206050D02*
G75*
G02X72417Y201750J-4300D01*
G01*
G75*
G02X68117Y197450I-4300*
G01*
G75*
G02X63817Y201750J4300*
G01*
G75*
G02X68117Y206050I4300*
G01*
Y225650D02*
G75*
G02X72417Y221350J-4300D01*
G01*
G75*
G02X68117Y217050I-4300*
G01*
G75*
G02X63817Y221350J4300*
G01*
G75*
G02X68117Y225650I4300*
G01*
X55068Y130750D02*
G75*
G02X58668I1800D01*
G01*
G75*
G02X55068I-1800*
G01*
X16995Y170250D02*
G75*
G03X19250Y167995I2756J500D01*
G01*
Y167185*
G75*
G02X16185Y170250I500J3565*
G01*
X16995*
X16185Y171250D02*
G75*
G02X19250Y174315I3565J-500D01*
G01*
Y173505*
G75*
G03X16995Y171250I500J-2756*
G01*
X16185*
X22505Y170250D02*
X23315D01*
G75*
G02X20250Y167185I-3565J500*
G01*
Y167995*
G75*
G03X22505Y170250I-500J2756*
G01*
X20250Y174315D02*
G75*
G02X23315Y171250I-500J-3565D01*
G01*
X22505*
G75*
G03X20250Y173505I-2756J-500*
G01*
Y174315*
X175887Y69750D02*
X178750D01*
Y62750*
X171750*
Y69750*
X173718*
G75*
G03X161250Y79200I-12468J-3500*
G01*
X28712*
G75*
G02X25450Y80250I-1462J1050*
G01*
G75*
G02X28712Y81300I1800*
G01*
X161250*
G75*
G02X175887Y69750I0J-15049*
G01*
X30250Y57250D02*
G75*
G02X37250I3500D01*
G01*
G75*
G02X30250I-3500*
G01*
X38450Y68250D02*
G75*
G02X42050I1800D01*
G01*
G75*
G02X38450I-1800*
G01*
X61950Y69250D02*
G75*
G02X68550I3300D01*
G01*
G75*
G02X61950I-3300*
G01*
X171750Y59750D02*
X178750D01*
Y52750*
X171750*
Y54200*
X168250*
G75*
G02X161700Y60750J6550*
G01*
Y67250*
G75*
G03Y67251I-11279J0*
G01*
G75*
G03X154750Y74200I-6950*
G01*
X68712*
G75*
G02X65450Y75250I-1462J1050*
G01*
G75*
G02X68712Y76300I1800*
G01*
X154750*
G75*
G02X163800Y67250J-9050*
G01*
Y60750*
G75*
G03X168250Y56300I4450*
G01*
X171750*
Y59750*
X133250D02*
X140250D01*
Y52750*
X133250*
Y59750*
Y69750D02*
X140250D01*
Y62750*
X133250*
Y69750*
X31250Y98750D02*
G75*
G02X38250I3500D01*
G01*
G75*
G02X31250I-3500*
G01*
X36950Y115510D02*
G75*
G02X40550I1800D01*
G01*
G75*
G02X36950I-1800*
G01*
X8060Y168250D02*
G75*
G02X14660I3300D01*
G01*
G75*
G02X8060I-3300*
G01*
X33450Y181750D02*
G75*
G02X37050I1800D01*
G01*
G75*
G02X33450I-1800*
G01*
X23450Y207250D02*
G75*
G02X27050I1800D01*
G01*
G75*
G02X23450I-1800*
G01*
X26450Y202750D02*
G75*
G02X30050I1800D01*
G01*
G75*
G02X26450I-1800*
G01*
X6450Y184990D02*
G75*
G02X10050I1800D01*
G01*
G75*
G02X6450I-1800*
G01*
X18950Y183750D02*
G75*
G02X22550I1800D01*
G01*
G75*
G02X18950I-1800*
G01*
X4292Y31187D02*
G75*
G03X6750Y28729I2957J500D01*
G01*
Y27920*
G75*
G02X3483Y31187I500J3767*
G01*
X4292*
X7250Y27313D02*
G75*
G02X10750Y23813J-3500D01*
G01*
G75*
G02X7250Y20313I-3500*
G01*
G75*
G02X3750Y23813J3500*
G01*
G75*
G02X7250Y27313I3500*
G01*
X3483Y32187D02*
G75*
G02X6750Y35454I3767J-500D01*
G01*
Y34645*
G75*
G03X4292Y32187I500J-2957*
G01*
X3483*
X7250Y67313D02*
G75*
G02X10750Y63813J-3500D01*
G01*
G75*
G02X7250Y60313I-3500*
G01*
G75*
G02X3750Y63813J3500*
G01*
G75*
G02X7250Y67313I3500*
G01*
X10208Y31187D02*
X11017D01*
G75*
G02X7750Y27920I-3767J500*
G01*
Y28729*
G75*
G03X10208Y31187I-500J2957*
G01*
X7750Y35454D02*
G75*
G02X11017Y32187I-500J-3767D01*
G01*
X10208*
G75*
G03X7750Y34645I-2957J-500*
G01*
Y35454*
X7250Y75187D02*
G75*
G02X10750Y71687J-3500D01*
G01*
G75*
G02X7250Y68187I-3500*
G01*
G75*
G02X3750Y71687J3500*
G01*
G75*
G02X7250Y75187I3500*
G01*
Y107313D02*
G75*
G02X10750Y103813J-3500D01*
G01*
G75*
G02X7250Y100313I-3500*
G01*
G75*
G02X3750Y103813J3500*
G01*
G75*
G02X7250Y107313I3500*
G01*
Y115187D02*
G75*
G02X10750Y111687J-3500D01*
G01*
G75*
G02X7250Y108187I-3500*
G01*
G75*
G02X3750Y111687J3500*
G01*
G75*
G02X7250Y115187I3500*
G01*
X5050Y232750D02*
G75*
G03X5750Y232050I1199J499D01*
G01*
Y231210*
G75*
G02X4210Y232750I500J2040*
G01*
X5050*
X4850Y229250D02*
G75*
G02X8450I1800D01*
G01*
G75*
G02X4850I-1800*
G01*
X4210Y233750D02*
G75*
G02X5750Y235290I2040J-500D01*
G01*
Y234450*
G75*
G03X5050Y233750I499J-1199*
G01*
X4210*
X6450Y236750D02*
G75*
G02X10050I1800D01*
G01*
G75*
G02X6450I-1800*
G01*
X7450Y232750D02*
X8290D01*
G75*
G02X6750Y231210I-2040J500*
G01*
Y232050*
G75*
G03X7450Y232750I-499J1199*
G01*
X6750Y235290D02*
G75*
G02X8290Y233750I-500J-2040D01*
G01*
X7450*
G75*
G03X6750Y234450I-1199J-499*
G01*
Y235290*
X10450Y235750D02*
G75*
G02X14050I1800D01*
G01*
G75*
G02X10450I-1800*
G01*
X13550Y225250D02*
G75*
G03X14250Y224550I1199J499D01*
G01*
Y223710*
G75*
G02X12710Y225250I500J2040*
G01*
X13550*
X12710Y226250D02*
G75*
G02X14250Y227790I2040J-500D01*
G01*
Y226950*
G75*
G03X13550Y226250I499J-1199*
G01*
X12710*
X5255Y279750D02*
G75*
G03X9750Y275255I4995J500D01*
G01*
Y274452*
G75*
G02X4452Y279750I500J5798*
G01*
X5255*
X4452Y280750D02*
G75*
G02X9750Y286048I5798J-500D01*
G01*
Y285245*
G75*
G03X5255Y280750I500J-4995*
G01*
X4452*
X5255Y299750D02*
G75*
G03X9750Y295255I4995J500D01*
G01*
Y294452*
G75*
G02X4452Y299750I500J5798*
G01*
X5255*
X4452Y300750D02*
G75*
G02X9750Y306048I5798J-500D01*
G01*
Y305245*
G75*
G03X5255Y300750I500J-4995*
G01*
X4452*
X5255Y334750D02*
G75*
G03X9750Y330255I4995J500D01*
G01*
Y329452*
G75*
G02X4452Y334750I500J5798*
G01*
X5255*
X4452Y335750D02*
G75*
G02X9750Y341048I5798J-500D01*
G01*
Y340245*
G75*
G03X5255Y335750I500J-4995*
G01*
X4452*
X5255Y354750D02*
G75*
G03X9750Y350255I4995J500D01*
G01*
Y349452*
G75*
G02X4452Y354750I500J5798*
G01*
X5255*
X4452Y355750D02*
G75*
G02X9750Y361048I5798J-500D01*
G01*
Y360245*
G75*
G03X5255Y355750I500J-4995*
G01*
X4452*
X15245Y279750D02*
X16048D01*
G75*
G02X10750Y274452I-5798J500*
G01*
Y275255*
G75*
G03X15245Y279750I-500J4995*
G01*
X10750Y286048D02*
G75*
G02X16048Y280750I-500J-5798D01*
G01*
X15245*
G75*
G03X10750Y285245I-4995J-500*
G01*
Y286048*
X15245Y299750D02*
X16048D01*
G75*
G02X10750Y294452I-5798J500*
G01*
Y295255*
G75*
G03X15245Y299750I-500J4995*
G01*
X20250Y295278D02*
G75*
G02X25278Y290250J-5028D01*
G01*
G75*
G02X20250Y285222I-5028*
G01*
G75*
G02X15222Y290250J5028*
G01*
G75*
G02X20250Y295278I5028*
G01*
X25255Y279750D02*
G75*
G03X29750Y275255I4995J500D01*
G01*
Y274452*
G75*
G02X24452Y279750I500J5798*
G01*
X25255*
X24452Y280750D02*
G75*
G02X29750Y286048I5798J-500D01*
G01*
Y285245*
G75*
G03X25255Y280750I500J-4995*
G01*
X24452*
X10750Y306048D02*
G75*
G02X16048Y300750I-500J-5798D01*
G01*
X15245*
G75*
G03X10750Y305245I-4995J-500*
G01*
Y306048*
X15245Y334750D02*
X16048D01*
G75*
G02X10750Y329452I-5798J500*
G01*
Y330255*
G75*
G03X15245Y334750I-500J4995*
G01*
X10750Y341048D02*
G75*
G02X16048Y335750I-500J-5798D01*
G01*
X15245*
G75*
G03X10750Y340245I-4995J-500*
G01*
Y341048*
X15245Y354750D02*
X16048D01*
G75*
G02X10750Y349452I-5798J500*
G01*
Y350255*
G75*
G03X15245Y354750I-500J4995*
G01*
X20250Y350278D02*
G75*
G02X25278Y345250J-5028D01*
G01*
G75*
G02X20250Y340222I-5028*
G01*
G75*
G02X15222Y345250J5028*
G01*
G75*
G02X20250Y350278I5028*
G01*
X25255Y299750D02*
G75*
G03X29750Y295255I4995J500D01*
G01*
Y294452*
G75*
G02X24452Y299750I500J5798*
G01*
X25255*
X24452Y300750D02*
G75*
G02X29750Y306048I5798J-500D01*
G01*
Y305245*
G75*
G03X25255Y300750I500J-4995*
G01*
X24452*
X25255Y334750D02*
G75*
G03X29750Y330255I4995J500D01*
G01*
Y329452*
G75*
G02X24452Y334750I500J5798*
G01*
X25255*
X24452Y335750D02*
G75*
G02X29750Y341048I5798J-500D01*
G01*
Y340245*
G75*
G03X25255Y335750I500J-4995*
G01*
X24452*
X10750Y361048D02*
G75*
G02X16048Y355750I-500J-5798D01*
G01*
X15245*
G75*
G03X10750Y360245I-4995J-500*
G01*
Y361048*
X25255Y354750D02*
G75*
G03X29750Y350255I4995J500D01*
G01*
Y349452*
G75*
G02X24452Y354750I500J5798*
G01*
X25255*
X24452Y355750D02*
G75*
G02X29750Y361048I5798J-500D01*
G01*
Y360245*
G75*
G03X25255Y355750I500J-4995*
G01*
X24452*
X35245Y279750D02*
X36048D01*
G75*
G02X30750Y274452I-5798J500*
G01*
Y275255*
G75*
G03X35245Y279750I-500J4995*
G01*
X30750Y286048D02*
G75*
G02X36048Y280750I-500J-5798D01*
G01*
X35245*
G75*
G03X30750Y285245I-4995J-500*
G01*
Y286048*
X35245Y299750D02*
X36048D01*
G75*
G02X30750Y294452I-5798J500*
G01*
Y295255*
G75*
G03X35245Y299750I-500J4995*
G01*
X30750Y306048D02*
G75*
G02X36048Y300750I-500J-5798D01*
G01*
X35245*
G75*
G03X30750Y305245I-4995J-500*
G01*
Y306048*
X35245Y334750D02*
X36048D01*
G75*
G02X30750Y329452I-5798J500*
G01*
Y330255*
G75*
G03X35245Y334750I-500J4995*
G01*
X30750Y341048D02*
G75*
G02X36048Y335750I-500J-5798D01*
G01*
X35245*
G75*
G03X30750Y340245I-4995J-500*
G01*
Y341048*
X35245Y354750D02*
X36048D01*
G75*
G02X30750Y349452I-5798J500*
G01*
Y350255*
G75*
G03X35245Y354750I-500J4995*
G01*
X30750Y361048D02*
G75*
G02X36048Y355750I-500J-5798D01*
G01*
X35245*
G75*
G03X30750Y360245I-4995J-500*
G01*
Y361048*
X53450Y283250D02*
G75*
G02X57050I1800D01*
G01*
G75*
G02X53450I-1800*
G01*
Y311750D02*
G75*
G02X57050I1800D01*
G01*
G75*
G02X53450I-1800*
G01*
Y324400D02*
G75*
G02X60050I3300D01*
G01*
G75*
G02X53450I-3300*
G01*
X59950Y279250D02*
G75*
G02X66550I3300D01*
G01*
G75*
G02X59950I-3300*
G01*
X140987Y365750D02*
X143750D01*
Y358750*
X136750*
Y365750*
X138708*
G75*
G03X128750Y373150I-9958J-3000*
G01*
X114750*
G75*
G03X97350Y355750J-17400*
G01*
Y299750*
G75*
G02Y299749I-1049J0*
G01*
G75*
G02X97028Y298972I-1099*
G01*
X65035Y266980*
G75*
G02X65050Y266750I-1786J-229*
G01*
G75*
G02X61450I-1800*
G01*
G75*
G02X63480Y268535I1800*
G01*
X95150Y300206*
Y355750*
Y355750*
G75*
G02X114750Y375350I19600*
G01*
X128750*
G75*
G02X140987Y365750I0J-12600*
G01*
X136750Y355750D02*
X143750D01*
Y348750*
X141350*
Y283250*
G75*
G02Y283249I-45115J0*
G01*
G75*
G02X122750Y264650I-18600*
G01*
X85675*
G75*
G02X82450Y265750I-1425J1100*
G01*
G75*
G02X85675Y266850I1800*
G01*
X122750*
G75*
G03X139150Y283250J16400*
G01*
Y348750*
X136750*
Y355750*
X118750Y323250D02*
X125750D01*
Y316250*
X118750*
Y323250*
X126750Y355750D02*
X133750D01*
Y348750*
X126750*
Y355750*
X128750Y323250D02*
X135750D01*
Y316250*
X128750*
Y323250*
X126750Y365750D02*
X133750D01*
Y358750*
X126750*
Y365750*
X107450Y337750D02*
G75*
G02X111050I1800D01*
G01*
G75*
G02X107450I-1800*
G01*
X108750Y323250D02*
X115750D01*
Y316250*
X108750*
Y323250*
X111950Y340750D02*
G75*
G02X115550I1800D01*
G01*
G75*
G02X111950I-1800*
G01*
X89077Y278620D02*
G75*
G02X94801I2862D01*
G01*
G75*
G02X89077I-2862*
G01*
X147250Y359250D02*
X149750D01*
Y358450*
X146450*
Y361750*
X147250*
Y359250*
X146750Y355750D02*
X153750D01*
Y348750*
X146750*
Y355750*
X153450Y268250D02*
G75*
G02X157050I1800D01*
G01*
G75*
G02X153450I-1800*
G01*
X153950Y242750D02*
G75*
G02X157550I1800D01*
G01*
G75*
G02X153950I-1800*
G01*
X156505Y185049D02*
X157315D01*
G75*
G02X154250Y181984I-3565J500*
G01*
Y182794*
G75*
G03X156505Y185049I-500J2756*
G01*
X269950Y227750D02*
G75*
G02X276550I3300D01*
G01*
G75*
G02X275350Y225204I-3300*
G01*
Y207250*
Y207250*
G75*
G02X251250Y183150I-24100*
G01*
X174250*
G75*
G03X162350Y171250J-11900*
G01*
Y167384*
G75*
G02X171250Y171150I8900J-8634*
G01*
X179185*
G75*
G02X182850Y169750I1565J-1400*
G01*
G75*
G02X179185Y168350I-2100*
G01*
X171250*
G75*
G03X162350Y162348J-9600*
G01*
Y161296*
G75*
G02X163550Y158750I-2100J-2546*
G01*
G75*
G02X156950I-3300*
G01*
G75*
G02X158150Y161296I3300*
G01*
Y171250*
G75*
G02X174250Y187350I16100*
G01*
X251250*
G75*
G03X271150Y207250J19900*
G01*
Y225204*
G75*
G02X269950Y227750I2100J2546*
G01*
X175426Y177250D02*
G75*
G02X182026I3300D01*
G01*
G75*
G02X175426I-3300*
G01*
X186950Y167750D02*
G75*
G02X190550I1800D01*
G01*
G75*
G02X186950I-1800*
G01*
X191995Y157750D02*
G75*
G03X194250Y155495I2756J500D01*
G01*
Y154685*
G75*
G02X191185Y157750I500J3565*
G01*
X191995*
X191185Y158750D02*
G75*
G02X194250Y161815I3565J-500D01*
G01*
Y161005*
G75*
G03X191995Y158750I500J-2756*
G01*
X191185*
X197505Y157750D02*
X198315D01*
G75*
G02X195250Y154685I-3565J500*
G01*
Y155495*
G75*
G03X197505Y157750I-500J2756*
G01*
X195250Y161815D02*
G75*
G02X198315Y158750I-500J-3565D01*
G01*
X197505*
G75*
G03X195250Y161005I-2756J-500*
G01*
Y161815*
X202750Y171750D02*
G75*
G02X209750I3500D01*
G01*
G75*
G02X202750I-3500*
G01*
X224274Y121140D02*
G75*
G02X229998I2862D01*
G01*
G75*
G02X224274I-2862*
G01*
X171450Y144750D02*
G75*
G02X175050I1800D01*
G01*
G75*
G02X171450I-1800*
G01*
X177950Y160250D02*
G75*
G02X181550I1800D01*
G01*
G75*
G02X177950I-1800*
G01*
X178950Y145750D02*
G75*
G02X182550I1800D01*
G01*
G75*
G02X178950I-1800*
G01*
X165950Y110250D02*
G75*
G02X169550I1800D01*
G01*
G75*
G02X165950I-1800*
G01*
X154250Y189114D02*
G75*
G02X157315Y186049I-500J-3565D01*
G01*
X156505*
G75*
G03X154250Y188304I-2756J-500*
G01*
Y189114*
X153450Y274750D02*
G75*
G02X157050I1800D01*
G01*
G75*
G02X153450I-1800*
G01*
X146450Y366050D02*
X149750D01*
Y365250*
X147250*
Y362750*
X146450*
Y366050*
X153250Y361750D02*
X154050D01*
Y358450*
X150750*
Y359250*
X153250*
Y361750*
X154750Y316750D02*
X157250D01*
Y315950*
X153950*
Y319250*
X154750*
Y316750*
X153950Y323550D02*
X157250D01*
Y322750*
X154750*
Y320250*
X153950*
Y323550*
X150750Y366050D02*
X154050D01*
Y362750*
X153250*
Y365250*
X150750*
Y366050*
X157450Y249250D02*
G75*
G02X161050I1800D01*
G01*
G75*
G02X157450I-1800*
G01*
X160750Y319250D02*
X161550D01*
Y315950*
X158250*
Y316750*
X160750*
Y319250*
X158250Y323550D02*
X161550D01*
Y320250*
X160750*
Y322750*
X158250*
Y323550*
X164750Y316750D02*
X167250D01*
Y315950*
X163950*
Y319250*
X164750*
Y316750*
X163950Y323550D02*
X167250D01*
Y322750*
X164750*
Y320250*
X163950*
Y323550*
X170750Y319250D02*
X171550D01*
Y315950*
X168250*
Y316750*
X170750*
Y319250*
X168450Y236250D02*
G75*
G02X172050I1800D01*
G01*
G75*
G02X168450I-1800*
G01*
X168250Y323550D02*
X171550D01*
Y320250*
X170750*
Y322750*
X168250*
Y323550*
X195495Y299150D02*
G75*
G02X199050Y298750I1755J-400D01*
G01*
G75*
G02X196119Y297350I-1800*
G01*
X176809*
G75*
G02X173450Y298250I-1559J900*
G01*
G75*
G02X176809Y299150I1800*
G01*
X195495*
X197107Y265750D02*
G75*
G02X200707I1800D01*
G01*
G75*
G02X197107I-1800*
G01*
X178950Y246750D02*
X179790D01*
G75*
G02X178250Y245210I-2040J500*
G01*
Y246050*
G75*
G03X178950Y246750I-499J1199*
G01*
Y192250D02*
G75*
G02X182550I1800D01*
G01*
G75*
G02X178950I-1800*
G01*
X178250Y249290D02*
G75*
G02X179790Y247750I-500J-2040D01*
G01*
X178950*
G75*
G03X178250Y248450I-1199J-499*
G01*
Y249290*
X182050Y240750D02*
G75*
G03X182750Y240050I1199J499D01*
G01*
Y239210*
G75*
G02X181210Y240750I500J2040*
G01*
X182050*
X181950Y194750D02*
G75*
G02X185550I1800D01*
G01*
G75*
G02X181950I-1800*
G01*
X181210Y241750D02*
G75*
G02X182750Y243290I2040J-500D01*
G01*
Y242450*
G75*
G03X182050Y241750I499J-1199*
G01*
X181210*
X181450Y274250D02*
G75*
G02X185050I1800D01*
G01*
G75*
G02X181450I-1800*
G01*
X184450Y240750D02*
X185290D01*
G75*
G02X183750Y239210I-2040J500*
G01*
Y240050*
G75*
G03X184450Y240750I-499J1199*
G01*
X183950Y235250D02*
G75*
G02X187550I1800D01*
G01*
G75*
G02X183950I-1800*
G01*
X187163Y198250D02*
G75*
G02X190763I1800D01*
G01*
G75*
G02X187163I-1800*
G01*
X183750Y243290D02*
G75*
G02X185290Y241750I-500J-2040D01*
G01*
X184450*
G75*
G03X183750Y242450I-1199J-499*
G01*
Y243290*
X190450Y269250D02*
G75*
G02X194050I1800D01*
G01*
G75*
G02X190450I-1800*
G01*
X176550Y246750D02*
G75*
G03X177250Y246050I1199J499D01*
G01*
Y245210*
G75*
G02X175710Y246750I500J2040*
G01*
X176550*
X175710Y247750D02*
G75*
G02X177250Y249290I2040J-500D01*
G01*
Y248450*
G75*
G03X176550Y247750I499J-1199*
G01*
X175710*
X174750Y316750D02*
X177250D01*
Y315950*
X173950*
Y319250*
X174750*
Y316750*
X173950Y323550D02*
X177250D01*
Y322750*
X174750*
Y320250*
X173950*
Y323550*
X180750Y319250D02*
X181550D01*
Y315950*
X178250*
Y316750*
X180750*
Y319250*
X178250Y323550D02*
X181550D01*
Y320250*
X180750*
Y322750*
X178250*
Y323550*
X184750Y316750D02*
X187250D01*
Y315950*
X183950*
Y319250*
X184750*
Y316750*
X183950Y323550D02*
X187250D01*
Y322750*
X184750*
Y320250*
X183950*
Y323550*
X190750Y319250D02*
X191550D01*
Y315950*
X188250*
Y316750*
X190750*
Y319250*
X188250Y323550D02*
X191550D01*
Y320250*
X190750*
Y322750*
X188250*
Y323550*
X211450Y298750D02*
G75*
G02X218050I3300D01*
G01*
G75*
G02X211450I-3300*
G01*
X224274Y278620D02*
G75*
G02X229998I2862D01*
G01*
G75*
G02X224274I-2862*
G01*
X249250Y321750D02*
X256250D01*
Y314750*
X249250*
Y321750*
X279950Y317250D02*
G75*
G02X286550I3300D01*
G01*
G75*
G02X279950I-3300*
G01*
X299250Y145250D02*
X306250D01*
Y138250*
X299250*
Y145250*
Y155250D02*
X306250D01*
Y148250*
X299250*
Y155250*
Y165250D02*
X306250D01*
Y158250*
X299250*
Y165250*
Y175250D02*
X306250D01*
Y168250*
X299250*
Y175250*
Y185250D02*
X306250D01*
Y178250*
X299250*
Y185250*
Y195250D02*
X306250D01*
Y188250*
X299250*
Y195250*
Y205250D02*
X306250D01*
Y198250*
X299250*
Y205250*
Y215250D02*
X306250D01*
Y208250*
X299250*
Y215250*
X344250Y23813D02*
G36*
X10750D01*
G75*
G02X7250Y20313I-3500*
G01*
G75*
G02X3750Y23813J3500*
G01*
X250*
Y250*
X344250*
Y23813*
G37*
Y29554D02*
G36*
X10394D01*
G75*
G02X7750Y27920I-3144J2133*
G01*
Y28729*
G75*
G03X9359Y29554I-500J2958*
G01*
X5141*
G75*
G03X6750Y28729I2109J2133*
G01*
Y27920*
G75*
G02X4106Y29554I500J3767*
G01*
X250*
Y23813*
X3750*
G75*
G02X7250Y27313I3500*
G01*
G75*
G02X10750Y23813J-3500*
G01*
X344250*
Y29554*
G37*
Y33820D02*
G36*
X10394D01*
G75*
G02X11017Y32187I-3144J-2133*
G01*
X10208*
G75*
G03X9359Y33820I-2957J-500*
G01*
X5141*
G75*
G03X4292Y32187I2109J-2133*
G01*
X3483*
G75*
G02X4106Y33820I3767J-500*
G01*
X250*
Y29554*
X4106*
G75*
G02X3483Y31187I3144J2133*
G01*
X4292*
G75*
G03X5141Y29554I2957J500*
G01*
X9359*
G75*
G03X10208Y31187I-2109J2133*
G01*
X11017*
G75*
G02X10394Y29554I-3767J500*
G01*
X344250*
Y33820*
G37*
Y57250D02*
G36*
X178750D01*
Y52750*
X171750*
Y54200*
X168250*
G75*
G02X162713Y57250I0J6550*
G01*
X140250*
Y52750*
X133250*
Y57250*
X37250*
G75*
G02X30250I-3500*
G01*
X250*
Y33820*
X4106*
G75*
G02X6750Y35454I3144J-2133*
G01*
Y34645*
G75*
G03X5141Y33820I500J-2958*
G01*
X9359*
G75*
G03X7750Y34645I-2109J-2133*
G01*
Y35454*
G75*
G02X10394Y33820I-500J-3767*
G01*
X344250*
Y57250*
G37*
X171750D02*
G36*
X165502D01*
G75*
G03X168250Y56300I2748J3500*
G01*
X171750*
Y57250*
G37*
X162713D02*
G36*
G75*
G02X161700Y60750I5537J3500D01*
G01*
Y60750*
Y63813*
X140250*
Y62750*
X133250*
Y63813*
X10750*
G75*
G02X7250Y60313I-3500*
G01*
G75*
G02X3750Y63813J3500*
G01*
X250*
Y57250*
X30250*
G75*
G02X37250I3500*
G01*
X133250*
Y59750*
X140250*
Y57250*
X162713*
G37*
X344250Y63813D02*
G36*
X178750D01*
Y62750*
X171750*
Y63813*
X163800*
Y60750*
G75*
G03X165502Y57250I4450J0*
G01*
X171750*
Y59750*
X178750*
Y57250*
X344250*
Y63813*
G37*
X133250Y68250D02*
G36*
X68395D01*
G75*
G02X62105I-3145J1000*
G01*
X42050*
G75*
G02X38450I-1800*
G01*
X7911*
G75*
G02X7250Y68187I-661J3436*
G01*
G75*
G02X6589Y68250I0J3499*
G01*
X250*
Y63813*
X3750*
G75*
G02X7250Y67313I3500*
G01*
G75*
G02X10750Y63813J-3500*
G01*
X133250*
Y68250*
G37*
X161700Y63813D02*
G36*
Y67250D01*
Y67251*
Y67251*
G75*
G03X161628Y68250I-6950J1*
G01*
X140250*
Y63813*
X161700*
G37*
X171750Y68250D02*
G36*
X163744D01*
G75*
G02X163800Y67250I-8996J-1001*
G01*
Y63813*
X171750*
Y68250*
G37*
X344250D02*
G36*
X178750D01*
Y63813*
X344250*
Y68250*
G37*
X3824Y72400D02*
G36*
X250D01*
Y68250*
X6589*
G75*
G02X3750Y71687I661J3437*
G01*
G75*
G02X3824Y72400I3500J-1*
G01*
G37*
X62105Y68250D02*
G36*
G75*
G02X61950Y69250I3145J1000D01*
G01*
G75*
G02X64267Y72400I3300*
G01*
X10676*
G75*
G02X10750Y71687I-3427J-714*
G01*
G75*
G02X7911Y68250I-3500J0*
G01*
X38450*
G75*
G02X42050I1800*
G01*
X62105*
G37*
X161628D02*
G36*
G75*
G03X159418Y72400I-6877J-999D01*
G01*
X66233*
G75*
G02X68550Y69250I-983J-3150*
G01*
G75*
G02X68395Y68250I-3300*
G01*
X133250*
Y69750*
X140250*
Y68250*
X161628*
G37*
X171750D02*
G36*
Y69750D01*
X173718*
G75*
G03X172646Y72400I-12469J-3501*
G01*
X162192*
G75*
G02X163744Y68250I-7443J-5150*
G01*
X171750*
G37*
X344250Y72400D02*
G36*
X174986D01*
G75*
G02X175887Y69750I-13737J-6150*
G01*
X178750*
Y68250*
X344250*
Y72400*
G37*
Y90250D02*
G36*
X73050D01*
G75*
G02X69450I-1800*
G01*
X250*
Y72400*
X3824*
G75*
G02X7250Y75187I3427J-713*
G01*
G75*
G02X10676Y72400I0J-3500*
G01*
X64267*
G75*
G02X66233I983J-3150*
G01*
X159418*
G75*
G03X154750Y74200I-4667J-5149*
G01*
X68712*
G75*
G02X65450Y75250I-1462J1050*
G01*
G75*
G02X68712Y76300I1800*
G01*
X154750*
G75*
G02X162192Y72400I0J-9051*
G01*
X172646*
G75*
G03X161250Y79200I-11396J-6150*
G01*
X28712*
G75*
G02X25450Y80250I-1462J1050*
G01*
G75*
G02X28712Y81300I1800*
G01*
X161250*
G75*
G02X174986Y72400I0J-15050*
G01*
X344250*
Y90250*
G37*
Y98750D02*
G36*
X38250D01*
G75*
G02X31250I-3500*
G01*
X250*
Y90250*
X69450*
G75*
G02X73050I1800*
G01*
X344250*
Y98750*
G37*
Y103813D02*
G36*
X10750D01*
G75*
G02X7250Y100313I-3500*
G01*
G75*
G02X3750Y103813J3500*
G01*
X250*
Y98750*
X31250*
G75*
G02X38250I3500*
G01*
X344250*
Y103813*
G37*
Y110250D02*
G36*
X169550D01*
G75*
G02X165950I-1800*
G01*
X159272*
G75*
G02X156750Y109650I-2522J5000*
G01*
X126750*
G75*
G02X123500Y110250J9100*
G01*
X67550*
G75*
G02X60950I-3300*
G01*
X10441*
G75*
G02X7250Y108187I-3192J1437*
G01*
G75*
G02X4059Y110250I0J3500*
G01*
X250*
Y103813*
X3750*
G75*
G02X7250Y107313I3500*
G01*
G75*
G02X10750Y103813J-3500*
G01*
X344250*
Y110250*
G37*
X123500D02*
G36*
G75*
G02X118246Y115510I3250J8500D01*
G01*
X40550*
G75*
G02X36950I-1800*
G01*
X250*
Y110250*
X4059*
G75*
G02X3750Y111687I3192J1437*
G01*
G75*
G02X7250Y115187I3500*
G01*
G75*
G02X10750Y111687J-3500*
G01*
G75*
G02X10441Y110250I-3500*
G01*
X60950*
G75*
G02X67550I3300*
G01*
X123500*
G37*
X159469Y115510D02*
G36*
X138031D01*
G75*
G02X138050Y115250I-1781J-260*
G01*
G75*
G02X134825Y114150I-1800*
G01*
X127250*
G75*
G02X123592Y115510J5600*
G01*
X120658*
G75*
G03X126750Y111850I6091J3239*
G01*
X156750*
G75*
G03X159924Y114032I0J3400*
G01*
G75*
G02X159450Y115250I1326J1218*
G01*
G75*
G02X159469Y115510I1800J0*
G01*
G37*
X344250D02*
G36*
X163031D01*
G75*
G02X163050Y115250I-1781J-260*
G01*
Y115250*
G75*
G02X162124Y113677I-1799*
G01*
G75*
G02X159272Y110250I-5375J1574*
G01*
X165950*
G75*
G02X169550I1800*
G01*
X344250*
Y115510*
G37*
X118246D02*
G36*
G75*
G02X117650Y118750I8504J3241D01*
G01*
Y121140*
X94801*
G75*
G02X89077I-2862*
G01*
X86507*
G75*
G02X86550Y120750I-1757J-389*
G01*
G75*
G02X82950I-1800*
G01*
G75*
G02X82993Y121140I1800J1*
G01*
X250*
Y115510*
X36950*
G75*
G02X40550I1800*
G01*
X118246*
G37*
X123592D02*
G36*
G75*
G02X121650Y119750I3658J4240D01*
G01*
Y121140*
X119850*
Y118750*
Y118750*
G75*
G03Y118749I9023J0*
G01*
G75*
G03X120658Y115510I6899J0*
G01*
X123592*
G37*
X344250Y121140D02*
G36*
X229998D01*
G75*
G02X224274I-2862*
G01*
X123850*
Y119750*
Y119750*
G75*
G03X127250Y116350I3400*
G01*
X134825*
G75*
G02X138031Y115510I1425J-1100*
G01*
X159469*
G75*
G02X163031I1781J-260*
G01*
X344250*
Y121140*
G37*
X117650Y130750D02*
G36*
X58668D01*
G75*
G02X55068I-1800*
G01*
X250*
Y121140*
X82993*
G75*
G02X86507I1757J-390*
G01*
X89077*
G75*
G02X94801I2862*
G01*
X117650*
Y130750*
G37*
X121650D02*
G36*
X119850D01*
Y121140*
X121650*
Y130750*
G37*
X344250D02*
G36*
X123850D01*
Y121140*
X224274*
G75*
G02X229998I2862*
G01*
X344250*
Y130750*
G37*
X117650Y142950D02*
G36*
X115539D01*
G75*
G02X115550Y142750I-1789J-199*
G01*
G75*
G02X111950I-1800*
G01*
G75*
G02X111961Y142950I1800J1*
G01*
X91417*
G75*
G02X87117Y138650I-4300*
G01*
G75*
G02X82817Y142950J4300*
G01*
X72417*
G75*
G02X68117Y138650I-4300*
G01*
G75*
G02X63817Y142950J4300*
G01*
X250*
Y130750*
X55068*
G75*
G02X58668I1800*
G01*
X117650*
Y142950*
G37*
X121650D02*
G36*
X119850D01*
Y130750*
X121650*
Y142950*
G37*
X154159D02*
G36*
X149541D01*
G75*
G03X153359Y142392I5209J22302*
G01*
G75*
G02X154159Y142950I1391J-1142*
G01*
G37*
X344250D02*
G36*
X306250D01*
Y138250*
X299250*
Y142950*
X173250*
X155341*
G75*
G02X156550Y141250I-591J-1700*
G01*
G75*
G02X153294Y140192I-1800*
G01*
G75*
G02X143230Y142950I1457J25058*
G01*
X127150*
Y141250*
Y141250*
G75*
G03X128452Y138997I2600*
G01*
G75*
G02X131550Y137750I1298J-1247*
G01*
Y137750*
G75*
G02X128037Y137197I-1800*
G01*
G75*
G02X125350Y141249I1712J4052*
G01*
G75*
G02Y141250I5639J0*
G01*
Y141250*
Y142950*
X123850*
Y130750*
X344250*
Y142950*
G37*
X63817D02*
G36*
G75*
G02X64854Y145750I4300D01*
G01*
X250*
Y142950*
X63817*
G37*
X82817D02*
G36*
G75*
G02X83854Y145750I4300D01*
G01*
X71381*
G75*
G02X72417Y142950I-3263J-2800*
G01*
X82817*
G37*
X117650Y145750D02*
G36*
X90381D01*
G75*
G02X91417Y142950I-3263J-2800*
G01*
X111961*
G75*
G02X115539I1789J-200*
G01*
X117650*
Y145750*
G37*
X121650D02*
G36*
X119850D01*
Y142950*
X121650*
Y145750*
G37*
X125350D02*
G36*
X123850D01*
Y142950*
X125350*
Y145750*
G37*
X143230Y142950D02*
G36*
G75*
G02X138946Y145750I11521J22302D01*
G01*
X127150*
Y142950*
X143230*
G37*
X344250Y145750D02*
G36*
X182550D01*
G75*
G02X178950I-1800*
G01*
X174747*
G75*
G02X175050Y144750I-1497J-1000*
G01*
G75*
G02X173250Y142950I-1800*
G01*
G75*
G02X171450Y144750J1800*
G01*
G75*
G02X171753Y145750I1800J0*
G01*
X142743*
G75*
G03X149541Y142950I12007J19500*
G01*
X154159*
G75*
G02X155341I591J-1700*
G01*
X173250*
X299250*
Y145250*
X306250*
Y142950*
X344250*
Y145750*
G37*
X117650Y151750D02*
G36*
X250D01*
Y145750*
X64854*
G75*
G02X68117Y147250I3263J-2800*
G01*
G75*
G02X71381Y145750J-4300*
G01*
X83854*
G75*
G02X87117Y147250I3263J-2800*
G01*
G75*
G02X90381Y145750J-4300*
G01*
X117650*
Y151750*
G37*
X121650D02*
G36*
X119850D01*
Y145750*
X121650*
Y151750*
G37*
X125350D02*
G36*
X123850D01*
Y145750*
X125350*
Y151750*
G37*
X138946Y145750D02*
G36*
G75*
G02X133590Y151750I15805J19500D01*
G01*
X127150*
Y145750*
X138946*
G37*
X344250Y151750D02*
G36*
X306250D01*
Y148250*
X299250*
Y151750*
X136252*
G75*
G03X142743Y145750I18498J13499*
G01*
X171753*
G75*
G02X174747I1497J-1000*
G01*
X178950*
G75*
G02X182550I1800*
G01*
X344250*
Y151750*
G37*
X117650Y156217D02*
G36*
X250D01*
Y151750*
X117650*
Y156217*
G37*
X121650D02*
G36*
X119850D01*
Y151750*
X121650*
Y156217*
G37*
X125350D02*
G36*
X123850D01*
Y151750*
X125350*
Y156217*
G37*
X133590Y151750D02*
G36*
G75*
G02X131331Y156217I21161J13501D01*
G01*
X127150*
Y151750*
X133590*
G37*
X344250Y156217D02*
G36*
X197721D01*
G75*
G02X195250Y154685I-2971J2033*
G01*
Y155495*
G75*
G03X196676Y156217I-500J2755*
G01*
X192824*
G75*
G03X194250Y155495I1926J2033*
G01*
Y154685*
G75*
G02X191779Y156217I500J3565*
G01*
X162365*
G75*
G02X158135I-2115J2532*
G01*
X133707*
G75*
G03X136252Y151750I21044J9033*
G01*
X299250*
Y155250*
X306250*
Y151750*
X344250*
Y156217*
G37*
X117650Y160282D02*
G36*
X90771D01*
G75*
G02X87117Y158250I-3654J2268*
G01*
G75*
G02X83464Y160282J4300*
G01*
X71771*
G75*
G02X68117Y158250I-3654J2268*
G01*
G75*
G02X64464Y160282J4300*
G01*
X250*
Y156217*
X117650*
Y160282*
G37*
X121650D02*
G36*
X119850D01*
Y156217*
X121650*
Y160282*
G37*
X125350D02*
G36*
X123850D01*
Y156217*
X125350*
Y160282*
G37*
X131331Y156217D02*
G36*
G75*
G02X130146Y160282I23420J9033D01*
G01*
X127150*
Y156217*
X131331*
G37*
X157327Y160282D02*
G36*
X132395D01*
G75*
G03X133707Y156217I22355J4968*
G01*
X158135*
G75*
G02X156950Y158750I2115J2533*
G01*
G75*
G02X157327Y160282I3300J0*
G01*
G37*
X344250D02*
G36*
X306250D01*
Y158250*
X299250*
Y160282*
X197721*
G75*
G02X198315Y158750I-2971J-2032*
G01*
X197505*
G75*
G03X196676Y160282I-2756J-501*
G01*
X192824*
G75*
G03X191995Y158750I1926J-2033*
G01*
X191185*
G75*
G02X191779Y160282I3565J-500*
G01*
X181550*
G75*
G02X181550Y160250I-1801J-38*
G01*
G75*
G02X177950I-1800*
G01*
G75*
G02X177950Y160282I1801J-6*
G01*
X163173*
G75*
G02X163550Y158750I-2923J-1532*
G01*
G75*
G02X162365Y156217I-3300J0*
G01*
X191779*
G75*
G02X191185Y157750I2971J2033*
G01*
X191995*
G75*
G03X192824Y156217I2756J500*
G01*
X196676*
G75*
G03X197505Y157750I-1926J2033*
G01*
X198315*
G75*
G02X197721Y156217I-3565J500*
G01*
X344250*
Y160282*
G37*
X63817Y162550D02*
G36*
X53025D01*
G75*
G02X53050Y162250I-1775J-300*
G01*
G75*
G02X49450I-1800*
G01*
G75*
G02X49475Y162550I1800*
G01*
X250*
Y160282*
X64464*
G75*
G02X63817Y162550I3654J2267*
G01*
G37*
X82817D02*
G36*
X72417D01*
G75*
G02X71771Y160282I-4300J0*
G01*
X83464*
G75*
G02X82817Y162550I3654J2267*
G01*
G37*
X117650D02*
G36*
X114525D01*
G75*
G02X114550Y162250I-1775J-300*
G01*
G75*
G02X110950I-1800*
G01*
G75*
G02X110975Y162550I1800*
G01*
X91417*
G75*
G02X90771Y160282I-4300J0*
G01*
X117650*
Y162550*
G37*
X121650D02*
G36*
X119850D01*
Y160282*
X121650*
Y162550*
G37*
X125350D02*
G36*
X123850D01*
Y160282*
X125350*
Y162550*
G37*
X130146Y160282D02*
G36*
G75*
G02X129796Y162550I24608J4968D01*
G01*
X127150*
Y160282*
X130146*
G37*
X157327D02*
G36*
G75*
G02X158150Y161296I2922J-1532D01*
G01*
Y162550*
X132010*
G75*
G03X132395Y160282I22743J2699*
G01*
X157327*
G37*
X299250Y162550D02*
G36*
X162434D01*
G75*
G03X162350Y162348I8821J-3806*
G01*
Y161296*
G75*
G02X163173Y160282I-2100J-2546*
G01*
X177950*
G75*
G02X181550I1800J-32*
G01*
X191779*
G75*
G02X194250Y161815I2971J-2032*
G01*
Y161005*
G75*
G03X192824Y160282I500J-2755*
G01*
X196676*
G75*
G03X195250Y161005I-1926J-2032*
G01*
Y161815*
G75*
G02X197721Y160282I-500J-3565*
G01*
X299250*
Y162550*
G37*
X344250D02*
G36*
X306250D01*
Y160282*
X344250*
Y162550*
G37*
X49475D02*
G36*
G75*
G02X50300Y163779I1775J-300D01*
G01*
Y168717*
X22721*
G75*
G02X20250Y167185I-2971J2033*
G01*
Y167995*
G75*
G03X21676Y168717I-500J2755*
G01*
X17824*
G75*
G03X19250Y167995I1926J2033*
G01*
Y167185*
G75*
G02X16779Y168717I500J3565*
G01*
X14627*
G75*
G02X14660Y168250I-3267J-466*
G01*
G75*
G02X8060I-3300*
G01*
G75*
G02X8093Y168717I3300J1*
G01*
X250*
Y162550*
X49475*
G37*
X117650Y168717D02*
G36*
X52200D01*
Y163779*
G75*
G02X53025Y162550I-950J-1529*
G01*
X63817*
G75*
G02X68117Y166850I4300*
G01*
G75*
G02X72417Y162550J-4300*
G01*
X82817*
G75*
G02X87117Y166850I4300*
G01*
G75*
G02X91417Y162550J-4300*
G01*
X110975*
G75*
G02X114525I1775J-300*
G01*
X117650*
Y168717*
G37*
X121650D02*
G36*
X119850D01*
Y162550*
X121650*
Y168717*
G37*
X125350D02*
G36*
X123850D01*
Y162550*
X125350*
Y168717*
G37*
X129796Y162550D02*
G36*
G75*
G02X129650Y165250I24956J2700D01*
G01*
Y168717*
X127150*
Y162550*
X129796*
G37*
X158150D02*
G36*
Y168717D01*
X131850*
Y165250*
Y165250*
G75*
G03X132010Y162550I22901J2*
G01*
X158150*
G37*
X163874Y168717D02*
G36*
X162350D01*
Y167384*
G75*
G02X163874Y168717I8901J-8636*
G01*
G37*
X344250D02*
G36*
X306250D01*
Y168250*
X299250*
Y168717*
X207997*
G75*
G02X204503I-1747J3033*
G01*
X190268*
G75*
G02X190550Y167750I-1518J-967*
G01*
G75*
G02X186950I-1800*
G01*
G75*
G02X187232Y168717I1800*
G01*
X182578*
G75*
G02X179185Y168350I-1828J1033*
G01*
X171250*
G75*
G03X162434Y162550J-9600*
G01*
X299250*
Y165250*
X306250*
Y162550*
X344250*
Y168717*
G37*
X8093D02*
G36*
G75*
G02X9985Y171250I3267J-467D01*
G01*
X250*
Y168717*
X8093*
G37*
X50300Y171250D02*
G36*
X23315D01*
X22505*
X16995*
X16185*
X12735*
G75*
G02X14627Y168717I-1375J-3000*
G01*
X16779*
G75*
G02X16185Y170250I2971J2033*
G01*
X16995*
G75*
G03X17824Y168717I2756J500*
G01*
X21676*
G75*
G03X22505Y170250I-1926J2033*
G01*
X23315*
G75*
G02X22721Y168717I-3565J500*
G01*
X50300*
Y171250*
G37*
X117650D02*
G36*
X52200D01*
Y168717*
X117650*
Y171250*
G37*
X121650D02*
G36*
X119850D01*
Y168717*
X121650*
Y171250*
G37*
X125350D02*
G36*
X123850D01*
Y168717*
X125350*
Y171250*
G37*
X129650D02*
G36*
X127150D01*
Y168717*
X129650*
Y171250*
G37*
X158150D02*
G36*
X150550D01*
G75*
G02X146950I-1800*
G01*
X131850*
Y168717*
X158150*
Y171250*
G37*
X163874Y168717D02*
G36*
G75*
G02X171250Y171150I7377J-9969D01*
G01*
X179185*
G75*
G02X179280Y171250I1565J-1402*
G01*
X162350*
Y168717*
X163874*
G37*
X202786Y171250D02*
G36*
X182220D01*
G75*
G02X182850Y169750I-1470J-1500*
G01*
G75*
G02X182578Y168717I-2100J0*
G01*
X187232*
G75*
G02X190268I1518J-967*
G01*
X204503*
G75*
G02X202786Y171250I1747J3033*
G01*
G37*
X299250D02*
G36*
X209714D01*
G75*
G02X207997Y168717I-3464J500*
G01*
X299250*
Y171250*
G37*
X344250D02*
G36*
X306250D01*
Y168717*
X344250*
Y171250*
G37*
X50300Y177250D02*
G36*
X47745D01*
G75*
G02X48550Y175750I-995J-1500*
G01*
G75*
G02X44950I-1800*
G01*
G75*
G02X45755Y177250I1800*
G01*
X41634*
G75*
G02X37931Y176331I-3702J7000*
G01*
X9675*
G75*
G02X6459Y177250I-1425J1100*
G01*
X250*
Y171250*
X9985*
G75*
G02X12735I1375J-3000*
G01*
X16185*
G75*
G02X19250Y174315I3565J-500*
G01*
Y173505*
G75*
G03X16995Y171250I500J-2756*
G01*
X22505*
G75*
G03X20250Y173505I-2756J-500*
G01*
Y174315*
G75*
G02X23315Y171250I-500J-3565*
G01*
X50300*
Y177250*
G37*
X117650D02*
G36*
X52200D01*
Y171250*
X117650*
Y177250*
G37*
X121650D02*
G36*
X119850D01*
Y171250*
X121650*
Y177250*
G37*
X125350D02*
G36*
X123850D01*
Y171250*
X125350*
Y177250*
G37*
X129650D02*
G36*
X127150D01*
Y171250*
X129650*
Y177250*
G37*
X159310D02*
G36*
X131850D01*
Y171250*
X146950*
G75*
G02X150550I1800*
G01*
X158150*
G75*
G02X159310Y177250I16100J0*
G01*
G37*
X344250D02*
G36*
X182026D01*
G75*
G02X175426I-3300*
G01*
X163973*
G75*
G03X162350Y171250I10277J-6000*
G01*
X179280*
G75*
G02X182220I1470J-1500*
G01*
X202786*
G75*
G02X202750Y171750I3464J500*
G01*
G75*
G02X209750I3500*
G01*
G75*
G02X209714Y171250I-3500J0*
G01*
X299250*
Y175250*
X306250*
Y171250*
X344250*
Y177250*
G37*
X43603Y183517D02*
G36*
X35596D01*
G75*
G02X37050Y181750I-346J-1767*
G01*
G75*
G02X33450I-1800*
G01*
G75*
G02X34904Y183517I1800*
G01*
X22535*
G75*
G02X18965I-1785J233*
G01*
X9283*
G75*
G02X7217I-1033J1473*
G01*
X250*
Y177250*
X6459*
G75*
G02X6450Y177431I1791J180*
G01*
G75*
G02X9675Y178531I1800*
G01*
X37931*
G75*
G03X43603Y183517J5719*
G01*
G37*
X45755Y177250D02*
G36*
G75*
G02X45800Y177279I995J-1504D01*
G01*
Y183361*
G75*
G02X41634Y177250I-7869J889*
G01*
X45755*
G37*
X50300Y183517D02*
G36*
X47700D01*
Y177279*
G75*
G02X47745Y177250I-950J-1533*
G01*
X50300*
Y183517*
G37*
X117650D02*
G36*
X113529D01*
G75*
G02X114050Y182250I-1279J-1267*
G01*
G75*
G02X110450I-1800*
G01*
G75*
G02X110971Y183517I1800*
G01*
X91194*
G75*
G02X91417Y182150I-4077J-1366*
G01*
G75*
G02X87117Y177850I-4300*
G01*
G75*
G02X82817Y182150J4300*
G01*
G75*
G02X83040Y183517I4300J0*
G01*
X72194*
G75*
G02X72417Y182150I-4077J-1366*
G01*
G75*
G02X68117Y177850I-4300*
G01*
G75*
G02X63817Y182150J4300*
G01*
G75*
G02X64040Y183517I4300J0*
G01*
X52200*
Y177250*
X117650*
Y183517*
G37*
X121650D02*
G36*
X119850D01*
Y177250*
X121650*
Y183517*
G37*
X125350D02*
G36*
X123850D01*
Y177250*
X125350*
Y183517*
G37*
X129650D02*
G36*
X127150D01*
Y177250*
X129650*
Y183517*
G37*
X163822D02*
G36*
X156721D01*
G75*
G02X154250Y181984I-2971J2033*
G01*
Y182794*
G75*
G03X155676Y183517I-500J2755*
G01*
X151824*
G75*
G03X153250Y182794I1926J2033*
G01*
Y181984*
G75*
G02X150779Y183517I500J3565*
G01*
X131850*
Y177250*
X159310*
G75*
G02X163822Y183517I14940J-6000*
G01*
G37*
X344250D02*
G36*
X306250D01*
Y178250*
X299250*
Y183517*
X255438*
G75*
G02X251250Y183150I-4187J23735*
G01*
X174250*
G75*
G03X163973Y177250J-11900*
G01*
X175426*
G75*
G02X182026I3300*
G01*
X344250*
Y183517*
G37*
X43650Y187581D02*
G36*
X8793D01*
G75*
G02X6329Y187385I-4044J35172*
G01*
G75*
G02X3079Y187581I-1579J865*
G01*
X250*
Y183517*
X7217*
G75*
G02X6450Y184990I1033J1474*
G01*
G75*
G02X10050I1800*
G01*
G75*
G02X9283Y183517I-1800*
G01*
X18965*
G75*
G02X18950Y183750I1785J235*
G01*
G75*
G02X22550I1800*
G01*
G75*
G02X22535Y183517I-1800J1*
G01*
X34904*
G75*
G02X35596I346J-1768*
G01*
X43603*
G75*
G03X43650Y184250I-5673J733*
G01*
Y187581*
G37*
X50300D02*
G36*
X47700D01*
Y183517*
X50300*
Y187581*
G37*
X117650D02*
G36*
X52200D01*
Y183517*
X64040*
G75*
G02X68117Y186450I4077J-1367*
G01*
G75*
G02X72194Y183517J-4300*
G01*
X83040*
G75*
G02X87117Y186450I4077J-1367*
G01*
G75*
G02X91194Y183517J-4300*
G01*
X110971*
G75*
G02X113529I1279J-1267*
G01*
X117650*
Y187581*
G37*
X121650D02*
G36*
X119850D01*
Y183517*
X121650*
Y187581*
G37*
X125350D02*
G36*
X123850D01*
Y183517*
X125350*
Y187581*
G37*
X129650D02*
G36*
X127150D01*
Y183517*
X129650*
Y187581*
G37*
X254277D02*
G36*
X156721D01*
G75*
G02X157315Y186049I-2971J-2032*
G01*
X156505*
G75*
G03X155676Y187581I-2756J-501*
G01*
X151824*
G75*
G03X150995Y186049I1926J-2033*
G01*
X150185*
G75*
G02X150779Y187581I3565J-500*
G01*
X131850*
Y183517*
X150779*
G75*
G02X150185Y185049I2971J2033*
G01*
X150995*
G75*
G03X151824Y183517I2756J500*
G01*
X155676*
G75*
G03X156505Y185049I-1926J2033*
G01*
X157315*
G75*
G02X156721Y183517I-3565J500*
G01*
X163822*
G75*
G02X174250Y187350I10428J-12267*
G01*
X251250*
G75*
G03X254277Y187581J19901*
G01*
G37*
X344250D02*
G36*
X265178D01*
G75*
G02X255438Y183517I-13927J19668*
G01*
X299250*
Y185250*
X306250*
Y183517*
X344250*
Y187581*
G37*
X6417Y192250D02*
G36*
X250D01*
Y187581*
X3079*
G75*
G02X2950Y188250I1671J669*
G01*
Y188250*
G75*
G02X4197Y189963I1800J0*
G01*
G75*
G02X6417Y192250I4053J-1713*
G01*
G37*
X18846D02*
G36*
X16067D01*
G75*
G02X12250Y190850I-3815J4499*
G01*
X8250*
G75*
G03X5997Y189548I0J-2600*
G01*
G75*
G02X6288Y189185I-1259J-1307*
G01*
G75*
G03X18846Y192250I-1538J33565*
G01*
G37*
X37878D02*
G36*
X25745D01*
G75*
G02X26279Y191700I-995J-1500*
G01*
X35250*
G75*
G03X37878Y192250I0J6550*
G01*
G37*
X43650D02*
G36*
X41200D01*
G75*
G02X35250Y189800I-5950J6000*
G01*
X26279*
G75*
G02X22950Y190750I-1529J950*
G01*
G75*
G02X23755Y192250I1800*
G01*
X22720*
G75*
G02X8793Y187581I-17970J30500*
G01*
X43650*
Y192250*
G37*
X50300D02*
G36*
X47700D01*
Y187581*
X50300*
Y192250*
G37*
X117650D02*
G36*
X52200D01*
Y187581*
X117650*
Y192250*
G37*
X121650D02*
G36*
X119850D01*
Y187581*
X121650*
Y192250*
G37*
X125350D02*
G36*
X123850D01*
Y187581*
X125350*
Y192250*
G37*
X129650D02*
G36*
X127150D01*
Y187581*
X129650*
Y192250*
G37*
X264327D02*
G36*
X182550D01*
G75*
G02X178950I-1800*
G01*
X131850*
Y187581*
X150779*
G75*
G02X153250Y189114I2971J-2032*
G01*
Y188304*
G75*
G03X151824Y187581I500J-2755*
G01*
X155676*
G75*
G03X154250Y188304I-1926J-2032*
G01*
Y189114*
G75*
G02X156721Y187581I-500J-3565*
G01*
X254277*
G75*
G03X264327Y192250I-3027J19669*
G01*
G37*
X344250D02*
G36*
X306250D01*
Y188250*
X299250*
Y192250*
X270113*
G75*
G02X265178Y187581I-18863J15000*
G01*
X344250*
Y192250*
G37*
X15829Y194750D02*
G36*
X250D01*
Y192250*
X6417*
G75*
G02X8250Y192650I1833J-4000*
G01*
X12250*
G75*
G03X15829Y194750I0J4100*
G01*
G37*
X23323D02*
G36*
X17801D01*
G75*
G02X16067Y192250I-5550J1999*
G01*
X18846*
G75*
G03X23323Y194750I-14098J30504*
G01*
G37*
X40787D02*
G36*
X26410D01*
G75*
G02X22720Y192250I-21661J27999*
G01*
X23755*
G75*
G02X25745I995J-1500*
G01*
X37878*
G75*
G03X40787Y194750I-2627J6000*
G01*
G37*
X43650D02*
G36*
X42941D01*
G75*
G02X41200Y192250I-7691J3500*
G01*
X43650*
Y194750*
G37*
X50300D02*
G36*
X47700D01*
Y192250*
X50300*
Y194750*
G37*
X117650D02*
G36*
X52200D01*
Y192250*
X117650*
Y194750*
G37*
X121650D02*
G36*
X119850D01*
Y192250*
X121650*
Y194750*
G37*
X125350D02*
G36*
X123850D01*
Y192250*
X125350*
Y194750*
G37*
X129650D02*
G36*
X127150D01*
Y192250*
X129650*
Y194750*
G37*
X266734D02*
G36*
X185550D01*
G75*
G02X181950I-1800*
G01*
X131850*
Y192250*
X178950*
G75*
G02X182550I1800*
G01*
X264327*
G75*
G03X266734Y194750I-13078J15001*
G01*
G37*
X299250D02*
G36*
X271855D01*
G75*
G02X270113Y192250I-20604J12498*
G01*
X299250*
Y194750*
G37*
X344250D02*
G36*
X306250D01*
Y192250*
X344250*
Y194750*
G37*
X16350Y198250D02*
G36*
X250D01*
Y194750*
X15829*
G75*
G03X16350Y196750I-3579J2001*
G01*
Y196750*
Y198250*
G37*
X27744D02*
G36*
X18150D01*
Y196750*
Y196750*
G75*
G02Y196749I-7519J0*
G01*
G75*
G02X17801Y194750I-5899J0*
G01*
X23323*
G75*
G03X27744Y198250I-18576J28002*
G01*
G37*
X43650Y194750D02*
G36*
Y197331D01*
G75*
G02X42941Y194750I-8400J918*
G01*
X43650*
G37*
X41800Y198250D02*
G36*
X30302D01*
G75*
G02X26410Y194750I-25554J24502*
G01*
X40787*
G75*
G03X41800Y198250I-5537J3500*
G01*
Y198250*
G37*
X50300D02*
G36*
X47700D01*
Y194750*
X50300*
Y198250*
G37*
X117650D02*
G36*
X89615D01*
G75*
G02X87117Y197450I-2498J3500*
G01*
G75*
G02X84619Y198250J4300*
G01*
X70615*
G75*
G02X68117Y197450I-2498J3500*
G01*
G75*
G02X65619Y198250J4300*
G01*
X57247*
G75*
G02X54253I-1497J1000*
G01*
X52200*
Y194750*
X117650*
Y198250*
G37*
X121650D02*
G36*
X119850D01*
Y194750*
X121650*
Y198250*
G37*
X125350D02*
G36*
X123850D01*
Y194750*
X125350*
Y198250*
G37*
X129650D02*
G36*
X127150D01*
Y194750*
X129650*
Y198250*
G37*
X268998D02*
G36*
X190763D01*
G75*
G02X187163I-1800*
G01*
X131850*
Y194750*
X181950*
G75*
G02X185550I1800*
G01*
X266734*
G75*
G03X268998Y198250I-15485J12500*
G01*
G37*
X344250D02*
G36*
X306250D01*
X299250*
X273607*
G75*
G02X271855Y194750I-22357J9000*
G01*
X299250*
Y195250*
X306250*
Y194750*
X344250*
Y198250*
G37*
X16350Y202750D02*
G36*
X250D01*
Y198250*
X16350*
Y202750*
G37*
X31749D02*
G36*
X30050D01*
G75*
G02X26450I-1800*
G01*
X18150*
Y198250*
X27744*
G75*
G03X31749Y202750I-22996J24502*
G01*
G37*
X41800D02*
G36*
X33959D01*
G75*
G02X30302Y198250I-29210J20000*
G01*
X41800*
Y202750*
G37*
X50300D02*
G36*
X47700D01*
Y198250*
X50300*
Y202750*
G37*
X54253Y198250D02*
G36*
G75*
G02X53950Y199250I1497J1000D01*
G01*
G75*
G02X54700Y200712I1800*
G01*
Y202750*
X52200*
Y198250*
X54253*
G37*
X63935Y202750D02*
G36*
X56800D01*
Y200712*
G75*
G02X57550Y199250I-1050J-1462*
G01*
G75*
G02X57247Y198250I-1800J0*
G01*
X65619*
G75*
G02X63817Y201750I2498J3500*
G01*
G75*
G02X63935Y202750I4300J1*
G01*
G37*
X82935D02*
G36*
X72300D01*
G75*
G02X72417Y201750I-4182J-999*
G01*
G75*
G02X70615Y198250I-4300*
G01*
X84619*
G75*
G02X82817Y201750I2498J3500*
G01*
G75*
G02X82935Y202750I4300J1*
G01*
G37*
X117650D02*
G36*
X91300D01*
G75*
G02X91417Y201750I-4182J-999*
G01*
G75*
G02X89615Y198250I-4300*
G01*
X117650*
Y202750*
G37*
X121650D02*
G36*
X119850D01*
Y198250*
X121650*
Y202750*
G37*
X125350D02*
G36*
X123850D01*
Y198250*
X125350*
Y202750*
G37*
X129650D02*
G36*
X127150D01*
Y198250*
X129650*
Y202750*
G37*
X270635D02*
G36*
X146550D01*
G75*
G02X142950I-1800*
G01*
X131850*
Y198250*
X187163*
G75*
G02X190763I1800*
G01*
X268998*
G75*
G03X270635Y202750I-17749J9001*
G01*
G37*
X299250D02*
G36*
X274926D01*
G75*
G02X273607Y198250I-23678J4500*
G01*
X299250*
Y202750*
G37*
X344250D02*
G36*
X306250D01*
Y198250*
X344250*
Y202750*
G37*
X16350Y207250D02*
G36*
X250D01*
Y202750*
X16350*
Y207250*
G37*
X34561D02*
G36*
X27050D01*
G75*
G02X23450I-1800*
G01*
X18150*
Y202750*
X26450*
G75*
G02X30050I1800*
G01*
X31749*
G75*
G03X34561Y207250I-27002J20001*
G01*
G37*
X41800D02*
G36*
X36576D01*
G75*
G02X33959Y202750I-31828J15501*
G01*
X41800*
Y207250*
G37*
X50300D02*
G36*
X47700D01*
Y202750*
X50300*
Y207250*
G37*
X54700D02*
G36*
X52200D01*
Y202750*
X54700*
Y207250*
G37*
X117650Y202750D02*
G36*
Y205750D01*
Y205750*
G75*
G03X117415Y207250I-4900J0*
G01*
X56800*
Y202750*
X63935*
G75*
G02X68117Y206050I4182J-1000*
G01*
G75*
G02X72300Y202750J-4300*
G01*
X82935*
G75*
G02X87117Y206050I4182J-1000*
G01*
G75*
G02X91300Y202750J-4300*
G01*
X117650*
G37*
X121650Y207250D02*
G36*
X119690D01*
G75*
G02X119850Y205750I-6940J-1500*
G01*
Y202750*
X121650*
Y207250*
G37*
X125350D02*
G36*
X123850D01*
Y202750*
X125350*
Y207250*
G37*
X129650D02*
G36*
X127150D01*
Y202750*
X129650*
Y207250*
G37*
X271150D02*
G36*
X131850D01*
Y202750*
X142950*
G75*
G02X146550I1800*
G01*
X270635*
G75*
G03X271150Y207250I-19385J4500*
G01*
G37*
X344250D02*
G36*
X275350D01*
Y207250*
Y207249*
G75*
G02X274926Y202750I-24102J0*
G01*
X299250*
Y205250*
X306250*
Y202750*
X344250*
Y207250*
G37*
X16350Y212250D02*
G36*
X250D01*
Y207250*
X16350*
Y212250*
G37*
X36667D02*
G36*
X18150D01*
Y207250*
X23450*
G75*
G02X27050I1800*
G01*
X34561*
G75*
G03X36667Y212250I-29813J15503*
G01*
G37*
X41800D02*
G36*
X38557D01*
G75*
G02X36576Y207250I-33810J10501*
G01*
X41800*
Y212250*
G37*
X50300D02*
G36*
X47700D01*
Y207250*
X50300*
Y212250*
G37*
X54700D02*
G36*
X52200D01*
Y207250*
X54700*
Y212250*
G37*
X117415Y207250D02*
G36*
G75*
G03X112750Y210650I-4665J-1500D01*
G01*
X97750*
G75*
G02X94500Y212250J4100*
G01*
X65050*
G75*
G02X58450I-3300*
G01*
X56800*
Y207250*
X117415*
G37*
X121650D02*
G36*
Y210750D01*
Y210750*
G75*
G03X121437Y212250I-5400J-1*
G01*
X115607*
G75*
G02X119690Y207250I-2857J-6500*
G01*
X121650*
G37*
X125350Y212250D02*
G36*
X123700D01*
G75*
G02X123850Y210750I-7450J-1500*
G01*
Y207250*
X125350*
Y212250*
G37*
X129650D02*
G36*
X127150D01*
Y207250*
X129650*
Y212250*
G37*
X271150D02*
G36*
X131850D01*
Y207250*
X271150*
Y212250*
G37*
X344250D02*
G36*
X306250D01*
Y208250*
X299250*
Y212250*
X275350*
Y207250*
X344250*
Y212250*
G37*
X16350Y221350D02*
G36*
X250D01*
Y212250*
X16350*
Y221350*
G37*
X38321D02*
G36*
X18150D01*
Y212250*
X36667*
G75*
G03X38321Y221350I-31919J10500*
G01*
G37*
X41800D02*
G36*
X40122D01*
G75*
G02X38557Y212250I-35374J1400*
G01*
X41800*
Y221350*
G37*
X50300D02*
G36*
X47700D01*
Y212250*
X50300*
Y221350*
G37*
X54700D02*
G36*
X52200D01*
Y212250*
X54700*
Y221350*
G37*
X125350Y212250D02*
G36*
Y218191D01*
G75*
G02X124450Y219750I900J1559*
G01*
G75*
G02X125425Y221350I1800*
G01*
X91417*
G75*
G02X87117Y217050I-4300*
G01*
G75*
G02X82817Y221350J4300*
G01*
X72417*
G75*
G02X68117Y217050I-4300*
G01*
G75*
G02X63817Y221350J4300*
G01*
X56800*
Y212250*
X58450*
G75*
G02X65050I3300*
G01*
X94500*
G75*
G02X93674Y214307I3250J2500*
G01*
G75*
G02X92950Y215750I1078J1444*
G01*
G75*
G02X96550I1800*
G01*
G75*
G02X95891Y214358I-1801J1*
G01*
G75*
G03X97750Y212850I1859J392*
G01*
X112750*
G75*
G02X115607Y212250J-7100*
G01*
X121437*
G75*
G03X116250Y216150I-5187J-1500*
G01*
X106675*
G75*
G02X103450Y217250I-1425J1100*
G01*
G75*
G02X106675Y218350I1800*
G01*
X116250*
G75*
G02X123700Y212250J-7600*
G01*
X125350*
G37*
X129650Y221350D02*
G36*
X127075D01*
G75*
G02X128050Y219750I-825J-1600*
G01*
G75*
G02X127150Y218191I-1800J0*
G01*
Y212250*
X129650*
Y221350*
G37*
X271150D02*
G36*
X131850D01*
Y212250*
X271150*
Y221350*
G37*
X344250D02*
G36*
X275350D01*
Y212250*
X299250*
Y215250*
X306250*
Y212250*
X344250*
Y221350*
G37*
X15250Y224480D02*
G36*
X14250D01*
Y223710*
G75*
G02X13078Y224480I500J2039*
G01*
X9577*
G75*
G02X8923I-327J1770*
G01*
X250*
Y221350*
X16350*
Y224390*
G75*
G02X15250Y223710I-1602J1363*
G01*
Y224480*
G37*
X37963D02*
G36*
X18150D01*
Y221350*
X38321*
G75*
G03X38350Y222750I-33585J1399*
G01*
Y224180*
G75*
G02X37963Y224480I900J1559*
G01*
G37*
X41800D02*
G36*
X40537D01*
G75*
G02X40150Y224180I-1287J1259*
G01*
Y222750*
G75*
G02X40122Y221350I-35408J-3*
G01*
X41800*
Y224480*
G37*
X50300D02*
G36*
X47700D01*
Y221350*
X50300*
Y224480*
G37*
X54760D02*
G36*
X52200D01*
Y221350*
X54700*
Y223250*
G75*
G02X54760Y224480I12552J2*
G01*
G37*
X63817Y221350D02*
G36*
G75*
G02X65169Y224480I4300D01*
G01*
X56873*
G75*
G03X56800Y223250I10379J-1232*
G01*
Y223250*
Y221350*
X63817*
G37*
X82817D02*
G36*
G75*
G02X84169Y224480I4300D01*
G01*
X71066*
G75*
G02X72417Y221350I-2948J-3130*
G01*
X82817*
G37*
X129650Y224480D02*
G36*
X90066D01*
G75*
G02X91417Y221350I-2948J-3130*
G01*
X125425*
G75*
G02X127075I825J-1600*
G01*
X129650*
Y224480*
G37*
X271150D02*
G36*
X131850D01*
Y221350*
X271150*
Y224480*
G37*
X344250D02*
G36*
X275350D01*
Y221350*
X344250*
Y224480*
G37*
X2861Y227020D02*
G36*
X250D01*
Y224480*
X8923*
G75*
G02X7788Y225200I327J1770*
G01*
X6450*
G75*
G02X2861Y227020J4450*
G01*
G37*
X15250D02*
G36*
X14250D01*
Y226950*
G75*
G03X13550Y226250I499J-1199*
G01*
X12710*
G75*
G02X13077Y227020I2040J-500*
G01*
X10877*
G75*
G02X11050Y226250I-1627J-770*
G01*
G75*
G02X9577Y224480I-1800*
G01*
X13078*
G75*
G02X12710Y225250I1672J1270*
G01*
X13550*
G75*
G03X14250Y224550I1199J499*
G01*
Y224480*
X15250*
Y224550*
G75*
G03X15950Y225250I-499J1199*
G01*
X16350*
Y226250*
X15950*
G75*
G03X15250Y226950I-1199J-499*
G01*
Y227020*
G37*
X37963Y224480D02*
G36*
G75*
G02X37450Y225738I1287J1259D01*
G01*
G75*
G02X37986Y227020I1800*
G01*
X18150*
Y224480*
X37963*
G37*
X41800D02*
G36*
Y225750D01*
Y225755*
G75*
G02Y225759I568J2*
G01*
G75*
G02X41802Y225806I555*
G01*
G75*
G03X41807Y225987I-2975J181*
G01*
G75*
G03Y226000I-3027J6*
G01*
G75*
G03X41646Y227020I-3308J0*
G01*
X40514*
G75*
G02X41050Y225738I-1264J-1281*
G01*
G75*
G02X40537Y224480I-1800J0*
G01*
X41800*
G37*
X43650Y227020D02*
G36*
X43607D01*
G75*
G02X43650Y226771I-5107J-1017*
G01*
Y227020*
G37*
X50300D02*
G36*
X47700D01*
Y224480*
X50300*
Y227020*
G37*
X55280D02*
G36*
X52200D01*
Y224480*
X54760*
G75*
G02X55280Y227020I12491J-1231*
G01*
G37*
X129650D02*
G36*
X57504D01*
G75*
G03X56873Y224480I9747J-3769*
G01*
X65169*
G75*
G02X68117Y225650I2948J-3130*
G01*
G75*
G02X71066Y224480J-4300*
G01*
X84169*
G75*
G02X87117Y225650I2948J-3130*
G01*
G75*
G02X90066Y224480J-4300*
G01*
X129650*
Y227020*
G37*
X270032D02*
G36*
X131850D01*
Y224480*
X271150*
Y225204*
G75*
G02X270032Y227020I2100J2545*
G01*
G37*
X344250D02*
G36*
X276468D01*
G75*
G02X275350Y225204I-3218J730*
G01*
Y224480*
X344250*
Y227020*
G37*
X2861D02*
G36*
G75*
G02X2018Y229250I3589J2630D01*
G01*
X250*
Y227020*
X2861*
G37*
X16350Y229250D02*
G36*
X8450D01*
G75*
G02X4850I-1800*
G01*
X4134*
G75*
G03X6450Y227300I2315J400*
G01*
X7788*
G75*
G02X10877Y227020I1462J-1050*
G01*
X13077*
G75*
G02X14250Y227790I1673J-1270*
G01*
Y227020*
X15250*
Y227790*
G75*
G02X16350Y227110I-502J-2043*
G01*
Y229250*
G37*
X41646Y227020D02*
G36*
G75*
G03X39548Y229137I-3146J-1020D01*
G01*
G75*
G02X37755Y229250I-798J1613*
G01*
X18150*
Y227020*
X37986*
G75*
G02X40514I1264J-1281*
G01*
X41646*
G37*
X43650Y229250D02*
G36*
X42569D01*
G75*
G02X43607Y227020I-4069J-3251*
G01*
X43650*
Y229250*
G37*
X50300D02*
G36*
X47700D01*
Y227020*
X50300*
Y229250*
G37*
X56227D02*
G36*
X52200D01*
Y227020*
X55280*
G75*
G02X56227Y229250I11971J-3770*
G01*
G37*
X129650D02*
G36*
X58694D01*
G75*
G03X57504Y227020I8556J-6002*
G01*
X129650*
Y229250*
G37*
X270032Y227020D02*
G36*
G75*
G02X269950Y227750I3219J731D01*
G01*
G75*
G02X270311Y229250I3300*
G01*
X131850*
Y227020*
X270032*
G37*
X344250Y229250D02*
G36*
X276189D01*
G75*
G02X276550Y227750I-2939J-1500*
G01*
G75*
G02X276468Y227020I-3301J0*
G01*
X344250*
Y229250*
G37*
X2018D02*
G36*
G75*
G02X2000Y229650I4433J401D01*
G01*
Y231980*
X250*
Y229250*
X2018*
G37*
X16350Y231980D02*
G36*
X7922D01*
G75*
G02X6750Y231210I-1672J1270*
G01*
Y231980*
X5750*
Y231210*
G75*
G02X4578Y231980I500J2039*
G01*
X4100*
Y229650*
Y229650*
G75*
G03X4134Y229250I2350*
G01*
X4850*
G75*
G02X8450I1800*
G01*
X16350*
Y231980*
G37*
X37755Y229250D02*
G36*
G75*
G02X36950Y230750I995J1500D01*
G01*
G75*
G02X37436Y231980I1800*
G01*
X18150*
Y229250*
X37755*
G37*
X43650Y231980D02*
G36*
X40064D01*
G75*
G02X40550Y230787I-1314J-1230*
G01*
G75*
G02X42569Y229250I-2050J-4787*
G01*
X43650*
Y231980*
G37*
X50300D02*
G36*
X47700D01*
Y229250*
X50300*
Y231980*
G37*
X58234D02*
G36*
X52200D01*
Y229250*
X56227*
G75*
G02X58234Y231980I11023J-6000*
G01*
G37*
X129650D02*
G36*
X61506D01*
G75*
G03X58694Y229250I5744J-8730*
G01*
X129650*
Y231980*
G37*
X344250D02*
G36*
X131850D01*
Y229250*
X270311*
G75*
G02X276189I2939J-1500*
G01*
X344250*
Y231980*
G37*
X2000Y234520D02*
G36*
X250D01*
Y231980*
X2000*
Y234520*
G37*
X16350D02*
G36*
X13564D01*
G75*
G02X10936I-1314J1230*
G01*
X7923*
G75*
G02X8290Y233750I-1673J-1270*
G01*
X7450*
G75*
G03X6750Y234450I-1199J-499*
G01*
Y234520*
X5750*
Y234450*
G75*
G03X5050Y233750I499J-1199*
G01*
X4210*
G75*
G02X4577Y234520I2040J-500*
G01*
X4100*
Y231980*
X4578*
G75*
G02X4210Y232750I1672J1270*
G01*
X5050*
G75*
G03X5750Y232050I1199J499*
G01*
Y231980*
X6750*
Y232050*
G75*
G03X7450Y232750I-499J1199*
G01*
X8290*
G75*
G02X7922Y231980I-2040J500*
G01*
X16350*
Y234520*
G37*
X37436Y231980D02*
G36*
G75*
G02X37800Y232279I1314J-1230D01*
G01*
Y234520*
X18150*
Y231980*
X37436*
G37*
X43650Y234520D02*
G36*
X39700D01*
Y232279*
G75*
G02X40064Y231980I-950J-1529*
G01*
X43650*
Y234520*
G37*
X50300D02*
G36*
X47700D01*
Y231980*
X50300*
Y234520*
G37*
X61728D02*
G36*
X52200D01*
Y231980*
X58234*
G75*
G02X61728Y234520I9016J-8730*
G01*
G37*
X129650D02*
G36*
X112504D01*
G75*
G02X109256Y233700I-1785J230*
G01*
X67250*
G75*
G03X61506Y231980I0J-10451*
G01*
X129650*
Y234520*
G37*
X344250D02*
G36*
X187395D01*
G75*
G02X184105I-1645J730*
G01*
X170746*
G75*
G02X169754I-496J1731*
G01*
X131850*
Y231980*
X344250*
Y234520*
G37*
X2000Y236750D02*
G36*
X250D01*
Y234520*
X2000*
Y236750*
G37*
X10753D02*
G36*
X10050D01*
G75*
G02X6450I-1800*
G01*
X4100*
Y234520*
X4577*
G75*
G02X5750Y235290I1673J-1270*
G01*
Y234520*
X6750*
Y235290*
G75*
G02X7923Y234520I-500J-2040*
G01*
X10936*
G75*
G02X10450Y235750I1314J1230*
G01*
G75*
G02X10753Y236750I1800J0*
G01*
G37*
X16350D02*
G36*
X13747D01*
G75*
G02X14050Y235750I-1497J-1000*
G01*
G75*
G02X13564Y234520I-1800*
G01*
X16350*
Y236750*
G37*
X37800D02*
G36*
X18150D01*
Y234520*
X37800*
Y236750*
G37*
X43650D02*
G36*
X39700D01*
Y234520*
X43650*
Y236750*
G37*
X50300D02*
G36*
X47700D01*
Y234520*
X50300*
Y236750*
G37*
X129650D02*
G36*
X88039D01*
G75*
G02X87117Y236650I-922J4201*
G01*
G75*
G02X86195Y236750J4301*
G01*
X69039*
G75*
G02X68117Y236650I-922J4201*
G01*
G75*
G02X67195Y236750J4301*
G01*
X52200*
Y234520*
X61728*
G75*
G02X67250Y235800I5522J-11270*
G01*
X109256*
G75*
G02X112519Y234750I1462J-1050*
G01*
G75*
G02X112504Y234520I-1800J1*
G01*
X129650*
Y236750*
G37*
X168521D02*
G36*
X131850D01*
Y234520*
X169754*
G75*
G02X168450Y236250I496J1730*
G01*
G75*
G02X168521Y236750I1800*
G01*
G37*
X184105Y234520D02*
G36*
G75*
G02X183950Y235250I1645J730D01*
G01*
G75*
G02X184755Y236750I1800*
G01*
X171979*
G75*
G02X172050Y236250I-1729J-500*
G01*
G75*
G02X170746Y234520I-1800*
G01*
X184105*
G37*
X344250Y236750D02*
G36*
X186745D01*
G75*
G02X187550Y235250I-995J-1500*
G01*
G75*
G02X187395Y234520I-1800*
G01*
X344250*
Y236750*
G37*
X2000Y239980D02*
G36*
X250D01*
Y236750*
X2000*
Y239980*
G37*
X16350D02*
G36*
X4100D01*
Y236750*
X6450*
G75*
G02X10050I1800*
G01*
X10753*
G75*
G02X13747I1497J-1000*
G01*
X16350*
Y239980*
G37*
X37800D02*
G36*
X18150D01*
Y236750*
X37800*
Y239980*
G37*
X43650D02*
G36*
X39700D01*
Y236750*
X43650*
Y239980*
G37*
X50300D02*
G36*
X47700D01*
Y236750*
X50300*
Y239980*
G37*
X63928D02*
G36*
X52200D01*
Y236750*
X67195*
G75*
G02X63928Y239980I922J4200*
G01*
G37*
X82928D02*
G36*
X72306D01*
G75*
G02X69039Y236750I-4189J970*
G01*
X86195*
G75*
G02X82928Y239980I922J4200*
G01*
G37*
X129650Y236750D02*
G36*
Y236750D01*
G75*
G03X127312Y239980I-3400*
G01*
X123526*
G75*
G02X120974I-1276J1270*
G01*
X91306*
G75*
G02X88039Y236750I-4189J970*
G01*
X129650*
G37*
X344250Y239980D02*
G36*
X184922D01*
G75*
G02X183750Y239210I-1672J1270*
G01*
Y239980*
X182750*
Y239210*
G75*
G02X181578Y239980I500J2039*
G01*
X130825*
G75*
G02X131850Y236750I-4575J-3230*
G01*
X168521*
G75*
G02X171979I1729J-500*
G01*
X184755*
G75*
G02X186745I995J-1500*
G01*
X344250*
Y239980*
G37*
X2000Y242520D02*
G36*
X250D01*
Y239980*
X2000*
Y242520*
G37*
X16350D02*
G36*
X4100D01*
Y239980*
X16350*
Y242520*
G37*
X37800D02*
G36*
X18150D01*
Y239980*
X37800*
Y242520*
G37*
X43650D02*
G36*
X39700D01*
Y239980*
X43650*
Y242520*
G37*
X50305D02*
G36*
X47700D01*
Y239980*
X50300*
Y242250*
Y242250*
G75*
G02X50305Y242520I7455J4*
G01*
G37*
X63928Y239980D02*
G36*
G75*
G02X63817Y240950I4189J971D01*
G01*
G75*
G02X64114Y242520I4300J0*
G01*
X52207*
G75*
G03X52200Y242250I5544J-272*
G01*
Y239980*
X63928*
G37*
X82928D02*
G36*
G75*
G02X82817Y240950I4189J971D01*
G01*
G75*
G02X83114Y242520I4300J0*
G01*
X72120*
G75*
G02X72417Y240950I-4003J-1570*
G01*
G75*
G02X72306Y239980I-4300J1*
G01*
X82928*
G37*
X120974Y242520D02*
G36*
X91120D01*
G75*
G02X91417Y240950I-4003J-1570*
G01*
G75*
G02X91306Y239980I-4300J1*
G01*
X120974*
G75*
G02X120450Y241250I1276J1270*
G01*
G75*
G02X120974Y242520I1800*
G01*
G37*
X127312Y239980D02*
G36*
G75*
G03X126250Y240150I-1062J-3229D01*
G01*
X123675*
G75*
G02X123526Y239980I-1425J1100*
G01*
X127312*
G37*
X344250Y242520D02*
G36*
X184923D01*
G75*
G02X185290Y241750I-1673J-1270*
G01*
X184450*
G75*
G03X183750Y242450I-1199J-499*
G01*
Y242520*
X182750*
Y242450*
G75*
G03X182050Y241750I499J-1199*
G01*
X181210*
G75*
G02X181577Y242520I2040J-500*
G01*
X157535*
G75*
G02X153965I-1785J230*
G01*
X150064*
G75*
G02X147436I-1314J1230*
G01*
X123526*
G75*
G02X123675Y242350I-1276J-1269*
G01*
X126250*
G75*
G02X130825Y239980J-5600*
G01*
X181578*
G75*
G02X181210Y240750I1672J1270*
G01*
X182050*
G75*
G03X182750Y240050I1199J499*
G01*
Y239980*
X183750*
Y240050*
G75*
G03X184450Y240750I-499J1199*
G01*
X185290*
G75*
G02X184922Y239980I-2040J500*
G01*
X344250*
Y242520*
G37*
X2000Y243875D02*
G36*
X250D01*
Y242520*
X2000*
Y243875*
G37*
X16350D02*
G36*
X4100D01*
Y242520*
X16350*
Y243875*
G37*
X37800D02*
G36*
X18150D01*
Y242520*
X37800*
Y243875*
G37*
X43650D02*
G36*
X39700D01*
Y242520*
X43650*
Y243875*
G37*
X50479D02*
G36*
X47700D01*
Y242520*
X50305*
G75*
G02X50479Y243875I7445J-269*
G01*
G37*
X64114Y242520D02*
G36*
G75*
G02X64965Y243875I4004J-1570D01*
G01*
X52443*
G75*
G03X52207Y242520I5307J-1625*
G01*
X64114*
G37*
X83114D02*
G36*
G75*
G02X83965Y243875I4004J-1570D01*
G01*
X71269*
G75*
G02X72120Y242520I-3152J-2925*
G01*
X83114*
G37*
X146954Y243875D02*
G36*
X143376D01*
G75*
G02X141053I-1161J1375*
G01*
X90269*
G75*
G02X91120Y242520I-3152J-2925*
G01*
X120974*
G75*
G02X123526I1276J-1270*
G01*
X147436*
G75*
G02X146950Y243750I1314J1230*
G01*
G75*
G02X146954Y243875I1801*
G01*
G37*
X153965Y242520D02*
G36*
G75*
G02X153950Y242750I1785J231D01*
G01*
G75*
G02X154345Y243875I1800J0*
G01*
X150546*
G75*
G02X150550Y243750I-1796J-125*
G01*
G75*
G02X150064Y242520I-1800*
G01*
X153965*
G37*
X344250Y243875D02*
G36*
X157155D01*
G75*
G02X157550Y242750I-1405J-1125*
G01*
G75*
G02X157535Y242520I-1800J1*
G01*
X181577*
G75*
G02X182750Y243290I1673J-1270*
G01*
Y242520*
X183750*
Y243290*
G75*
G02X184923Y242520I-500J-2040*
G01*
X344250*
Y243875*
G37*
X2000Y245980D02*
G36*
X250D01*
Y243875*
X2000*
Y245980*
G37*
X16350D02*
G36*
X4100D01*
Y243875*
X16350*
Y245980*
G37*
X37800D02*
G36*
X18150D01*
Y243875*
X37800*
Y245980*
G37*
X43650Y243875D02*
G36*
Y245250D01*
G75*
G03X43560Y245643I-902J0*
G01*
G75*
G02X41474Y245980I-810J1607*
G01*
X39700*
Y243875*
X43650*
G37*
X45979Y245980D02*
G36*
X45763D01*
G75*
G02X45850Y245251I-3011J-729*
G01*
Y245250*
Y245250*
Y245169*
G75*
G02X45979Y245980I8400J-917*
G01*
G37*
X51301D02*
G36*
X47932D01*
G75*
G03X47700Y244250I6318J-1729*
G01*
Y244250*
Y243875*
X50479*
G75*
G02X51301Y245980I7270J-1625*
G01*
G37*
X140569D02*
G36*
X53640D01*
G75*
G03X52443Y243875I4110J-3730*
G01*
X64965*
G75*
G02X68117Y245250I3152J-2925*
G01*
G75*
G02X71269Y243875J-4300*
G01*
X83965*
G75*
G02X87117Y245250I3152J-2925*
G01*
G75*
G02X90269Y243875J-4300*
G01*
X141053*
G75*
G02X140415Y245250I1161J1375*
G01*
G75*
G02X140569Y245980I1800J0*
G01*
G37*
X146954Y243875D02*
G36*
G75*
G02X147850Y245309I1796J-125D01*
G01*
Y245980*
X143860*
G75*
G02X144015Y245250I-1646J-730*
G01*
G75*
G02X143376Y243875I-1800*
G01*
X146954*
G37*
X344250Y245980D02*
G36*
X179422D01*
G75*
G02X178250Y245210I-1672J1270*
G01*
Y245980*
X177250*
Y245210*
G75*
G02X176078Y245980I500J2039*
G01*
X149650*
Y245309*
G75*
G02X150546Y243875I-900J-1559*
G01*
X154345*
G75*
G02X157155I1405J-1125*
G01*
X344250*
Y245980*
G37*
X2000Y249250D02*
G36*
X250D01*
Y245980*
X2000*
Y249250*
G37*
X16366D02*
G36*
X4100D01*
Y245980*
X16350*
Y248750*
Y248750*
Y248751*
G75*
G02X16366Y249250I7902J0*
G01*
G37*
X38350D02*
G36*
X18170D01*
G75*
G03X18150Y248750I6081J-500*
G01*
Y245980*
X37800*
Y246250*
Y246250*
G75*
G02X38350Y249250I8450J0*
G01*
G37*
X47438D02*
G36*
X40427D01*
G75*
G03X39700Y246250I5822J-3000*
G01*
Y246250*
Y245980*
X41474*
G75*
G02X40950Y247250I1275J1270*
G01*
Y247250*
G75*
G02X44450Y247843I1800*
G01*
G75*
G02X45763Y245980I-1698J-2592*
G01*
X45979*
G75*
G02X47438Y249250I8271J-1730*
G01*
G37*
X55200D02*
G36*
X50019D01*
G75*
G03X47932Y245980I4231J-5000*
G01*
X51301*
G75*
G02X55200Y249250I6449J-3730*
G01*
G37*
X140569Y245980D02*
G36*
G75*
G02X141265Y246779I1646J-730D01*
G01*
Y248785*
Y248786*
G75*
G03X141210Y249250I-2014J0*
G01*
X140794*
G75*
G02X140865Y248750I-1729J-500*
G01*
G75*
G02X137536Y247800I-1800*
G01*
X57750*
G75*
G03X53640Y245980J-5550*
G01*
X140569*
G37*
X147850Y249250D02*
G36*
X147164D01*
G75*
G02X143564I-1800*
G01*
X143137*
G75*
G02X143165Y248786I-3887J-464*
G01*
Y248785*
Y246779*
G75*
G02X143860Y245980I-950J-1529*
G01*
X147850*
Y249250*
G37*
X344250D02*
G36*
X178391D01*
G75*
G02X179790Y247750I-641J-2000*
G01*
X178950*
G75*
G03X178250Y248450I-1199J-499*
G01*
Y249250*
X177250*
Y248450*
G75*
G03X176550Y247750I499J-1199*
G01*
X175710*
G75*
G02X177109Y249250I2040J-500*
G01*
X161050*
G75*
G02X157450I-1800*
G01*
X152795*
G75*
G02X153463Y247850I-1132J-1400*
G01*
G75*
G02X149863I-1800*
G01*
G75*
G02X150532Y249250I1800*
G01*
X149650*
Y245980*
X176078*
G75*
G02X175710Y246750I1672J1270*
G01*
X176550*
G75*
G03X177250Y246050I1199J499*
G01*
Y245980*
X178250*
Y246050*
G75*
G03X178950Y246750I-499J1199*
G01*
X179790*
G75*
G02X179422Y245980I-2040J500*
G01*
X344250*
Y249250*
G37*
Y265750D02*
G36*
X200707D01*
G75*
G02X197107I-1800*
G01*
X129053*
G75*
G02X122750Y264650I-6301J17498*
G01*
X85675*
G75*
G02X82450Y265750I-1425J1100*
G01*
X64747*
G75*
G02X61753I-1497J1000*
G01*
X250*
Y249250*
X2000*
Y250950*
G75*
G02X14350Y263300I12350*
G01*
X141750*
G75*
G02X152713Y252337J-10963*
G01*
Y252337*
Y249312*
G75*
G02X152795Y249250I-1050J-1461*
G01*
X157450*
G75*
G02X161050I1800*
G01*
X177109*
G75*
G02X177250Y249290I641J-2002*
G01*
Y249250*
X178250*
Y249290*
G75*
G02X178391Y249250I-500J-2042*
G01*
X344250*
Y265750*
G37*
X141210Y249250D02*
G36*
G75*
G03X139250Y250800I-1960J-464D01*
G01*
X54250*
G75*
G03X50019Y249250I0J-6550*
G01*
X55200*
G75*
G02X57750Y249700I2550J-6999*
G01*
X137536*
G75*
G02X140794Y249250I1529J-950*
G01*
X141210*
G37*
X143564D02*
G36*
G75*
G02X144409Y250776I1802J-1D01*
G01*
G75*
G03X142250Y252800I-2159J-140*
G01*
X46250*
G75*
G03X40427Y249250I0J-6550*
G01*
X47438*
G75*
G02X54250Y252700I6812J-5000*
G01*
X139250*
G75*
G02X143137Y249250I0J-3915*
G01*
X143564*
G37*
X147850D02*
G36*
Y249750D01*
G75*
G03X142750Y254850I-5100*
G01*
X24250*
G75*
G03X18170Y249250J-6100*
G01*
X38350*
G75*
G02X46250Y254700I7899J-3000*
G01*
X142250*
G75*
G02X146311Y250780I-1J-4065*
G01*
G75*
G02X147164Y249250I-946J-1530*
G01*
X147850*
G37*
X150532D02*
G36*
G75*
G02X150613Y249312I1132J-1399D01*
G01*
Y252337*
G75*
G03X141750Y261200I-8863*
G01*
X14350*
G75*
G03X4100Y250951I1J-10251*
G01*
Y250950*
Y249250*
X16366*
G75*
G02X24250Y256650I7883J-499*
G01*
X142750*
G75*
G02X149650Y249750J-6900*
G01*
Y249750*
Y249250*
X150532*
G37*
X62255Y268250D02*
G36*
X250D01*
Y265750*
X61753*
G75*
G02X61450Y266750I1497J1000*
G01*
G75*
G02X62255Y268250I1800*
G01*
G37*
X129380D02*
G36*
X66306D01*
X65035Y266980*
G75*
G02X65050Y266753I-1752J-226*
G01*
G75*
G02Y266750I-1823J-2*
G01*
G75*
G02X64747Y265750I-1800J0*
G01*
X82450*
G75*
G02X85675Y266850I1800*
G01*
X122750*
G75*
G03X129380Y268250I0J16401*
G01*
G37*
X344250D02*
G36*
X193747D01*
G75*
G02X190753I-1497J1000*
G01*
X157050*
G75*
G02X153450I-1800*
G01*
X133750*
G75*
G02X129053Y265750I-10998J14999*
G01*
X197107*
G75*
G02X200707I1800*
G01*
X344250*
Y268250*
G37*
X69694Y274750D02*
G36*
X32152D01*
G75*
G02X30750Y274452I-1902J5500*
G01*
Y274750*
X29750*
Y274452*
G75*
G02X28348Y274750I500J5798*
G01*
X12152*
G75*
G02X10750Y274452I-1902J5500*
G01*
Y274750*
X9750*
Y274452*
G75*
G02X8348Y274750I500J5798*
G01*
X250*
Y268250*
X62255*
G75*
G02X63480Y268535I995J-1500*
G01*
X69694Y274750*
G37*
X136775D02*
G36*
X72806D01*
X66306Y268250*
X129380*
G75*
G03X136775Y274750I-6630J15001*
G01*
G37*
X344250D02*
G36*
X184979D01*
G75*
G02X185050Y274250I-1729J-500*
G01*
G75*
G02X181450I-1800*
G01*
G75*
G02X181521Y274750I1800*
G01*
X157050*
G75*
G02X153450I-1800*
G01*
X139295*
G75*
G02X133750Y268250I-16543J8498*
G01*
X153450*
G75*
G02X157050I1800*
G01*
X190753*
G75*
G02X190450Y269250I1497J1000*
G01*
G75*
G02X194050I1800*
G01*
G75*
G02X193747Y268250I-1800J0*
G01*
X344250*
Y274750*
G37*
X8348D02*
G36*
G75*
G02X5356Y277101I1902J5500D01*
G01*
X250*
Y274750*
X8348*
G37*
X14159Y277101D02*
G36*
X6341D01*
G75*
G03X9750Y275255I3909J3149*
G01*
Y274750*
X10750*
Y275255*
G75*
G03X14159Y277101I-500J4994*
G01*
G37*
X28348Y274750D02*
G36*
G75*
G02X25356Y277101I1902J5500D01*
G01*
X15144*
G75*
G02X12152Y274750I-4894J3150*
G01*
X28348*
G37*
X34159Y277101D02*
G36*
X26341D01*
G75*
G03X29750Y275255I3909J3149*
G01*
Y274750*
X30750*
Y275255*
G75*
G03X34159Y277101I-500J4994*
G01*
G37*
X72045D02*
G36*
X65754D01*
G75*
G02X60746I-2504J2149*
G01*
X35144*
G75*
G02X32152Y274750I-4894J3150*
G01*
X69694*
X72045Y277101*
G37*
X137954D02*
G36*
X94365D01*
G75*
G02X89513I-2426J1519*
G01*
X75157*
X72806Y274750*
X136775*
G75*
G03X137954Y277101I-14026J8501*
G01*
G37*
X344250D02*
G36*
X229561D01*
G75*
G02X224710I-2426J1519*
G01*
X140305*
G75*
G02X139295Y274750I-17553J6148*
G01*
X153450*
G75*
G02X157050I1800*
G01*
X181521*
G75*
G02X184979I1729J-500*
G01*
X344250*
Y277101*
G37*
X78343Y283399D02*
G36*
X57044D01*
G75*
G02X57050Y283250I-1794J-150*
G01*
G75*
G02X53450I-1800*
G01*
G75*
G02X53456Y283399I1800J-2*
G01*
X35144*
G75*
G02X36048Y280750I-4894J-3149*
G01*
X35245*
G75*
G03X34159Y283399I-4995J-500*
G01*
X26341*
G75*
G03X25255Y280750I3909J-3149*
G01*
X24452*
G75*
G02X25356Y283399I5798J-500*
G01*
X15144*
G75*
G02X16048Y280750I-4894J-3149*
G01*
X15245*
G75*
G03X14159Y283399I-4995J-500*
G01*
X6341*
G75*
G03X5255Y280750I3909J-3149*
G01*
X4452*
G75*
G02X5356Y283399I5798J-500*
G01*
X250*
Y277101*
X5356*
G75*
G02X4452Y279750I4894J3150*
G01*
X5255*
G75*
G03X6341Y277101I4995J500*
G01*
X14159*
G75*
G03X15245Y279750I-3909J3149*
G01*
X16048*
G75*
G02X15144Y277101I-5798J500*
G01*
X25356*
G75*
G02X24452Y279750I4894J3150*
G01*
X25255*
G75*
G03X26341Y277101I4995J500*
G01*
X34159*
G75*
G03X35245Y279750I-3909J3149*
G01*
X36048*
G75*
G02X35144Y277101I-5798J500*
G01*
X60746*
G75*
G02X59950Y279250I2504J2149*
G01*
G75*
G02X66550I3300*
G01*
G75*
G02X65754Y277101I-3300*
G01*
X72045*
X78343Y283399*
G37*
X139150D02*
G36*
X81455D01*
X75157Y277101*
X89513*
G75*
G02X89077Y278620I2426J1519*
G01*
G75*
G02X94801I2862*
G01*
G75*
G02X94365Y277101I-2862*
G01*
X137954*
G75*
G03X139150Y283250I-15204J6149*
G01*
Y283399*
G37*
X344250D02*
G36*
X141350D01*
Y283250*
Y283249*
G75*
G02Y283248I-22557J0*
G01*
G75*
G02X140305Y277101I-18598*
G01*
X224710*
G75*
G02X224274Y278620I2426J1519*
G01*
G75*
G02X229998I2862*
G01*
G75*
G02X229561Y277101I-2862*
G01*
X344250*
Y283399*
G37*
X85194Y290250D02*
G36*
X25278D01*
Y290250*
G75*
G02X20250Y285222I-5028*
G01*
G75*
G02X15222Y290250J5027*
G01*
Y290250*
X250*
Y283399*
X5356*
G75*
G02X9750Y286048I4894J-3149*
G01*
Y285245*
G75*
G03X6341Y283399I500J-4995*
G01*
X14159*
G75*
G03X10750Y285245I-3909J-3149*
G01*
Y286048*
G75*
G02X15144Y283399I-500J-5798*
G01*
X25356*
G75*
G02X29750Y286048I4894J-3149*
G01*
Y285245*
G75*
G03X26341Y283399I500J-4995*
G01*
X34159*
G75*
G03X30750Y285245I-3909J-3149*
G01*
Y286048*
G75*
G02X35144Y283399I-500J-5798*
G01*
X53456*
G75*
G02X57044I1794J-149*
G01*
X78343*
X85194Y290250*
G37*
X139150D02*
G36*
X88306D01*
X81455Y283399*
X139150*
Y290250*
G37*
X344250D02*
G36*
X141350D01*
Y283399*
X344250*
Y290250*
G37*
X92045Y297101D02*
G36*
X35144D01*
G75*
G02X30750Y294452I-4894J3150*
G01*
Y295255*
G75*
G03X34159Y297101I-500J4994*
G01*
X26341*
G75*
G03X29750Y295255I3909J3149*
G01*
Y294452*
G75*
G02X25356Y297101I500J5798*
G01*
X15144*
G75*
G02X10750Y294452I-4894J3150*
G01*
Y295255*
G75*
G03X14159Y297101I-500J4994*
G01*
X6341*
G75*
G03X9750Y295255I3909J3149*
G01*
Y294452*
G75*
G02X5356Y297101I500J5798*
G01*
X250*
Y290250*
X15222*
Y290250*
G75*
G02X20250Y295278I5028*
G01*
G75*
G02X25278Y290250J-5027*
G01*
Y290250*
X85194*
X92045Y297101*
G37*
X139150D02*
G36*
X95157D01*
X88306Y290250*
X139150*
Y297101*
G37*
X344250D02*
G36*
X217608D01*
G75*
G02X211892I-2858J1649*
G01*
X197971*
G75*
G02X196529I-721J1649*
G01*
X176635*
G75*
G02X173865I-1385J1149*
G01*
X141350*
Y290250*
X344250*
Y297101*
G37*
X95150Y303399D02*
G36*
X35144D01*
G75*
G02X36048Y300750I-4894J-3149*
G01*
X35245*
G75*
G03X34159Y303399I-4995J-500*
G01*
X26341*
G75*
G03X25255Y300750I3909J-3149*
G01*
X24452*
G75*
G02X25356Y303399I5798J-500*
G01*
X15144*
G75*
G02X16048Y300750I-4894J-3149*
G01*
X15245*
G75*
G03X14159Y303399I-4995J-500*
G01*
X6341*
G75*
G03X5255Y300750I3909J-3149*
G01*
X4452*
G75*
G02X5356Y303399I5798J-500*
G01*
X250*
Y297101*
X5356*
G75*
G02X4452Y299750I4894J3150*
G01*
X5255*
G75*
G03X6341Y297101I4995J500*
G01*
X14159*
G75*
G03X15245Y299750I-3909J3149*
G01*
X16048*
G75*
G02X15144Y297101I-5798J500*
G01*
X25356*
G75*
G02X24452Y299750I4894J3150*
G01*
X25255*
G75*
G03X26341Y297101I4995J500*
G01*
X34159*
G75*
G03X35245Y299750I-3909J3149*
G01*
X36048*
G75*
G02X35144Y297101I-5798J500*
G01*
X92045*
X95150Y300206*
Y303399*
G37*
X139150D02*
G36*
X97350D01*
Y299750*
Y299749*
G75*
G02X97028Y298972I-1101J1*
G01*
X95157Y297101*
X139150*
Y303399*
G37*
X196529Y297101D02*
G36*
G75*
G02X196119Y297350I721J1650D01*
G01*
X176809*
G75*
G02X176635Y297101I-1559J901*
G01*
X196529*
G37*
X344250Y303399D02*
G36*
X141350D01*
Y297101*
X173865*
G75*
G02X173450Y298250I1385J1149*
G01*
G75*
G02X176809Y299150I1800*
G01*
X195495*
G75*
G02X199050Y298750I1755J-400*
G01*
G75*
G02X197971Y297101I-1800*
G01*
X211892*
G75*
G02X211450Y298750I2858J1649*
G01*
G75*
G02X218050I3300*
G01*
G75*
G02X217608Y297101I-3300*
G01*
X344250*
Y303399*
G37*
X95150Y311750D02*
G36*
X57050D01*
G75*
G02X53450I-1800*
G01*
X250*
Y303399*
X5356*
G75*
G02X9750Y306048I4894J-3149*
G01*
Y305245*
G75*
G03X6341Y303399I500J-4995*
G01*
X14159*
G75*
G03X10750Y305245I-3909J-3149*
G01*
Y306048*
G75*
G02X15144Y303399I-500J-5798*
G01*
X25356*
G75*
G02X29750Y306048I4894J-3149*
G01*
Y305245*
G75*
G03X26341Y303399I500J-4995*
G01*
X34159*
G75*
G03X30750Y305245I-3909J-3149*
G01*
Y306048*
G75*
G02X35144Y303399I-500J-5798*
G01*
X95150*
Y311750*
G37*
X139150D02*
G36*
X97350D01*
Y303399*
X139150*
Y311750*
G37*
X344250D02*
G36*
X141350D01*
Y303399*
X344250*
Y311750*
G37*
X95150Y317600D02*
G36*
X250D01*
Y311750*
X53450*
G75*
G02X57050I1800*
G01*
X95150*
Y317600*
G37*
X139150D02*
G36*
X135750D01*
Y316250*
X128750*
Y317600*
X125750*
Y316250*
X118750*
Y317600*
X115750*
Y316250*
X108750*
Y317600*
X97350*
Y311750*
X139150*
Y317600*
G37*
X344250D02*
G36*
X286531D01*
G75*
G02X286550Y317250I-3281J-349*
G01*
G75*
G02X279950I-3300*
G01*
G75*
G02X279969Y317600I3300J1*
G01*
X256250*
Y314750*
X249250*
Y317600*
X191550*
Y315950*
X188250*
Y316750*
X190750*
Y317600*
X184750*
Y316750*
X187250*
Y315950*
X183950*
Y317600*
X181550*
Y315950*
X178250*
Y316750*
X180750*
Y317600*
X174750*
Y316750*
X177250*
Y315950*
X173950*
Y317600*
X171550*
Y315950*
X168250*
Y316750*
X170750*
Y317600*
X164750*
Y316750*
X167250*
Y315950*
X163950*
Y317600*
X161550*
Y315950*
X158250*
Y316750*
X160750*
Y317600*
X154750*
Y316750*
X157250*
Y315950*
X153950*
Y317600*
X141350*
Y311750*
X344250*
Y317600*
G37*
X95150Y319750D02*
G36*
X250D01*
Y317600*
X95150*
Y319750*
G37*
X108750D02*
G36*
X97350D01*
Y317600*
X108750*
Y319750*
G37*
X118750D02*
G36*
X115750D01*
Y317600*
X118750*
Y319750*
G37*
X128750D02*
G36*
X125750D01*
Y317600*
X128750*
Y319750*
G37*
X139150D02*
G36*
X135750D01*
Y317600*
X139150*
Y319750*
G37*
X249250D02*
G36*
X141350D01*
Y317600*
X153950*
Y319250*
X154750*
Y317600*
X160750*
Y319250*
X161550*
Y317600*
X163950*
Y319250*
X164750*
Y317600*
X170750*
Y319250*
X171550*
Y317600*
X173950*
Y319250*
X174750*
Y317600*
X180750*
Y319250*
X181550*
Y317600*
X183950*
Y319250*
X184750*
Y317600*
X190750*
Y319250*
X191550*
Y317600*
X249250*
Y319750*
G37*
X279969Y317600D02*
G36*
G75*
G02X281096Y319750I3281J-350D01*
G01*
X256250*
Y317600*
X279969*
G37*
X344250Y319750D02*
G36*
X285404D01*
G75*
G02X286531Y317600I-2154J-2500*
G01*
X344250*
Y319750*
G37*
X95150Y321900D02*
G36*
X58904D01*
G75*
G02X54596I-2154J2500*
G01*
X250*
Y319750*
X95150*
Y321900*
G37*
X108750D02*
G36*
X97350D01*
Y319750*
X108750*
Y321900*
G37*
X118750D02*
G36*
X115750D01*
Y319750*
X118750*
Y321900*
G37*
X128750D02*
G36*
X125750D01*
Y319750*
X128750*
Y321900*
G37*
X139150D02*
G36*
X135750D01*
Y319750*
X139150*
Y321900*
G37*
X344250D02*
G36*
X191550D01*
Y320250*
X190750*
Y321900*
X184750*
Y320250*
X183950*
Y321900*
X181550*
Y320250*
X180750*
Y321900*
X174750*
Y320250*
X173950*
Y321900*
X171550*
Y320250*
X170750*
Y321900*
X164750*
Y320250*
X163950*
Y321900*
X161550*
Y320250*
X160750*
Y321900*
X154750*
Y320250*
X153950*
Y321900*
X141350*
Y319750*
X249250*
Y321750*
X256250*
Y319750*
X281096*
G75*
G02X285404I2154J-2500*
G01*
X344250*
Y321900*
G37*
X53450Y324400D02*
G36*
X250D01*
Y321900*
X54596*
G75*
G02X53450Y324400I2154J2500*
G01*
G37*
X95150D02*
G36*
X60050D01*
G75*
G02X58904Y321900I-3300*
G01*
X95150*
Y324400*
G37*
X139150D02*
G36*
X97350D01*
Y321900*
X108750*
Y323250*
X115750*
Y321900*
X118750*
Y323250*
X125750*
Y321900*
X128750*
Y323250*
X135750*
Y321900*
X139150*
Y324400*
G37*
X344250D02*
G36*
X141350D01*
Y321900*
X153950*
Y323550*
X157250*
Y322750*
X154750*
Y321900*
X160750*
Y322750*
X158250*
Y323550*
X161550*
Y321900*
X163950*
Y323550*
X167250*
Y322750*
X164750*
Y321900*
X170750*
Y322750*
X168250*
Y323550*
X171550*
Y321900*
X173950*
Y323550*
X177250*
Y322750*
X174750*
Y321900*
X180750*
Y322750*
X178250*
Y323550*
X181550*
Y321900*
X183950*
Y323550*
X187250*
Y322750*
X184750*
Y321900*
X190750*
Y322750*
X188250*
Y323550*
X191550*
Y321900*
X344250*
Y324400*
G37*
X95150Y332101D02*
G36*
X35144D01*
G75*
G02X30750Y329452I-4894J3150*
G01*
Y330255*
G75*
G03X34159Y332101I-500J4994*
G01*
X26341*
G75*
G03X29750Y330255I3909J3149*
G01*
Y329452*
G75*
G02X25356Y332101I500J5798*
G01*
X15144*
G75*
G02X10750Y329452I-4894J3150*
G01*
Y330255*
G75*
G03X14159Y332101I-500J4994*
G01*
X6341*
G75*
G03X9750Y330255I3909J3149*
G01*
Y329452*
G75*
G02X5356Y332101I500J5798*
G01*
X250*
Y324400*
X53450*
G75*
G02X60050I3300*
G01*
X95150*
Y332101*
G37*
X139150D02*
G36*
X97350D01*
Y324400*
X139150*
Y332101*
G37*
X344250D02*
G36*
X141350D01*
Y324400*
X344250*
Y332101*
G37*
X95150Y338399D02*
G36*
X35144D01*
G75*
G02X36048Y335750I-4894J-3149*
G01*
X35245*
G75*
G03X34159Y338399I-4995J-500*
G01*
X26341*
G75*
G03X25255Y335750I3909J-3149*
G01*
X24452*
G75*
G02X25356Y338399I5798J-500*
G01*
X15144*
G75*
G02X16048Y335750I-4894J-3149*
G01*
X15245*
G75*
G03X14159Y338399I-4995J-500*
G01*
X6341*
G75*
G03X5255Y335750I3909J-3149*
G01*
X4452*
G75*
G02X5356Y338399I5798J-500*
G01*
X250*
Y332101*
X5356*
G75*
G02X4452Y334750I4894J3150*
G01*
X5255*
G75*
G03X6341Y332101I4995J500*
G01*
X14159*
G75*
G03X15245Y334750I-3909J3149*
G01*
X16048*
G75*
G02X15144Y332101I-5798J500*
G01*
X25356*
G75*
G02X24452Y334750I4894J3150*
G01*
X25255*
G75*
G03X26341Y332101I4995J500*
G01*
X34159*
G75*
G03X35245Y334750I-3909J3149*
G01*
X36048*
G75*
G02X35144Y332101I-5798J500*
G01*
X95150*
Y338399*
G37*
X139150D02*
G36*
X110929D01*
G75*
G02X111050Y337750I-1679J-648*
G01*
G75*
G02X107450I-1800*
G01*
G75*
G02X107571Y338399I1800J0*
G01*
X97350*
Y332101*
X139150*
Y338399*
G37*
X344250D02*
G36*
X141350D01*
Y332101*
X344250*
Y338399*
G37*
X8348Y340750D02*
G36*
X250D01*
Y338399*
X5356*
G75*
G02X8348Y340750I4894J-3150*
G01*
G37*
X14159Y338399D02*
G36*
G75*
G03X10750Y340245I-3909J-3149D01*
G01*
Y340750*
X9750*
Y340245*
G75*
G03X6341Y338399I500J-4995*
G01*
X14159*
G37*
X28348Y340750D02*
G36*
X22492D01*
G75*
G02X20250Y340222I-2242J4500*
G01*
G75*
G02X18008Y340750I0J5027*
G01*
X12152*
G75*
G02X15144Y338399I-1902J-5501*
G01*
X25356*
G75*
G02X28348Y340750I4894J-3150*
G01*
G37*
X34159Y338399D02*
G36*
G75*
G03X30750Y340245I-3909J-3149D01*
G01*
Y340750*
X29750*
Y340245*
G75*
G03X26341Y338399I500J-4995*
G01*
X34159*
G37*
X95150Y340750D02*
G36*
X32152D01*
G75*
G02X35144Y338399I-1902J-5501*
G01*
X95150*
Y340750*
G37*
X139150D02*
G36*
X115550D01*
G75*
G02X111950I-1800*
G01*
X97350*
Y338399*
X107571*
G75*
G02X110929I1679J-649*
G01*
X139150*
Y340750*
G37*
X344250D02*
G36*
X141350D01*
Y338399*
X344250*
Y340750*
G37*
X15222Y345250D02*
G36*
X250D01*
Y340750*
X8348*
G75*
G02X9750Y341048I1902J-5500*
G01*
Y340750*
X10750*
Y341048*
G75*
G02X12152Y340750I-500J-5798*
G01*
X18008*
G75*
G02X15222Y345250I2242J4500*
G01*
Y345250*
G37*
X95150D02*
G36*
X25278D01*
Y345250*
G75*
G02X22492Y340750I-5027*
G01*
X28348*
G75*
G02X29750Y341048I1902J-5500*
G01*
Y340750*
X30750*
Y341048*
G75*
G02X32152Y340750I-500J-5798*
G01*
X95150*
Y345250*
G37*
X139150D02*
G36*
X97350D01*
Y340750*
X111950*
G75*
G02X115550I1800*
G01*
X139150*
Y345250*
G37*
X344250D02*
G36*
X141350D01*
Y340750*
X344250*
Y345250*
G37*
X95150Y352101D02*
G36*
X35144D01*
G75*
G02X30750Y349452I-4894J3150*
G01*
Y350255*
G75*
G03X34159Y352101I-500J4994*
G01*
X26341*
G75*
G03X29750Y350255I3909J3149*
G01*
Y349452*
G75*
G02X25356Y352101I500J5798*
G01*
X15144*
G75*
G02X10750Y349452I-4894J3150*
G01*
Y350255*
G75*
G03X14159Y352101I-500J4994*
G01*
X6341*
G75*
G03X9750Y350255I3909J3149*
G01*
Y349452*
G75*
G02X5356Y352101I500J5798*
G01*
X250*
Y345250*
X15222*
Y345250*
G75*
G02X20250Y350278I5028*
G01*
G75*
G02X25278Y345250J-5027*
G01*
Y345250*
X95150*
Y352101*
G37*
X136750D02*
G36*
X133750D01*
Y348750*
X126750*
Y352101*
X97350*
Y345250*
X139150*
Y348750*
X136750*
Y352101*
G37*
X344250D02*
G36*
X153750D01*
Y348750*
X146750*
Y352101*
X143750*
Y348750*
X141350*
Y345250*
X344250*
Y352101*
G37*
X95330Y358399D02*
G36*
X35144D01*
G75*
G02X36048Y355750I-4894J-3149*
G01*
X35245*
G75*
G03X34159Y358399I-4995J-500*
G01*
X26341*
G75*
G03X25255Y355750I3909J-3149*
G01*
X24452*
G75*
G02X25356Y358399I5798J-500*
G01*
X15144*
G75*
G02X16048Y355750I-4894J-3149*
G01*
X15245*
G75*
G03X14159Y358399I-4995J-500*
G01*
X6341*
G75*
G03X5255Y355750I3909J-3149*
G01*
X4452*
G75*
G02X5356Y358399I5798J-500*
G01*
X250*
Y352101*
X5356*
G75*
G02X4452Y354750I4894J3150*
G01*
X5255*
G75*
G03X6341Y352101I4995J500*
G01*
X14159*
G75*
G03X15245Y354750I-3909J3149*
G01*
X16048*
G75*
G02X15144Y352101I-5798J500*
G01*
X25356*
G75*
G02X24452Y354750I4894J3150*
G01*
X25255*
G75*
G03X26341Y352101I4995J500*
G01*
X34159*
G75*
G03X35245Y354750I-3909J3149*
G01*
X36048*
G75*
G02X35144Y352101I-5798J500*
G01*
X95150*
Y355750*
Y355750*
G75*
G02Y355751I22557J0*
G01*
G75*
G02X95330Y358399I19601J1*
G01*
G37*
X344250D02*
G36*
X97553D01*
G75*
G03X97350Y355750I17198J-2648*
G01*
Y352101*
X126750*
Y355750*
X133750*
Y352101*
X136750*
Y355750*
X143750*
Y352101*
X146750*
Y355750*
X153750*
Y352101*
X344250*
Y358399*
G37*
X7034Y360100D02*
G36*
X250D01*
Y358399*
X5356*
G75*
G02X7034Y360100I4894J-3150*
G01*
G37*
X14159Y358399D02*
G36*
G75*
G03X11545Y360100I-3909J-3148D01*
G01*
X8955*
G75*
G03X6341Y358399I1295J-4850*
G01*
X14159*
G37*
X27034Y360100D02*
G36*
X13466D01*
G75*
G02X15144Y358399I-3217J-4851*
G01*
X25356*
G75*
G02X27034Y360100I4894J-3150*
G01*
G37*
X34159Y358399D02*
G36*
G75*
G03X31545Y360100I-3909J-3148D01*
G01*
X28955*
G75*
G03X26341Y358399I1295J-4850*
G01*
X34159*
G37*
X95639Y360100D02*
G36*
X33466D01*
G75*
G02X35144Y358399I-3217J-4851*
G01*
X95330*
G75*
G02X95639Y360100I19420J-2650*
G01*
G37*
X344250D02*
G36*
X154050D01*
Y358450*
X150750*
Y359250*
X153250*
Y360100*
X147250*
Y359250*
X149750*
Y358450*
X146450*
Y360100*
X143750*
Y358750*
X136750*
Y360100*
X133750*
Y358750*
X126750*
Y360100*
X97903*
G75*
G03X97553Y358399I16848J-4353*
G01*
X344250*
Y360100*
G37*
X96259Y362250D02*
G36*
X250D01*
Y360100*
X7034*
G75*
G02X9750Y361048I3217J-4850*
G01*
Y360245*
G75*
G03X8955Y360100I500J-4996*
G01*
X11545*
G75*
G03X10750Y360245I-1295J-4851*
G01*
Y361048*
G75*
G02X13466Y360100I-500J-5798*
G01*
X27034*
G75*
G02X29750Y361048I3217J-4850*
G01*
Y360245*
G75*
G03X28955Y360100I500J-4996*
G01*
X31545*
G75*
G03X30750Y360245I-1295J-4851*
G01*
Y361048*
G75*
G02X33466Y360100I-500J-5798*
G01*
X95639*
G75*
G02X96259Y362250I19111J-4347*
G01*
G37*
X126750D02*
G36*
X98610D01*
G75*
G03X97903Y360100I16143J-6500*
G01*
X126750*
Y362250*
G37*
X136750D02*
G36*
X133750D01*
Y360100*
X136750*
Y362250*
G37*
X344250D02*
G36*
X143750D01*
Y360100*
X146450*
Y361750*
X147250*
Y360100*
X153250*
Y361750*
X154050*
Y360100*
X344250*
Y362250*
G37*
X97161Y364400D02*
G36*
X250D01*
Y362250*
X96259*
G75*
G02X97161Y364400I18493J-6500*
G01*
G37*
X126750D02*
G36*
X99653D01*
G75*
G03X98610Y362250I15098J-8652*
G01*
X126750*
Y364400*
G37*
X136750D02*
G36*
X133750D01*
Y362250*
X136750*
Y364400*
G37*
X344250D02*
G36*
X154050D01*
Y362750*
X153250*
Y364400*
X147250*
Y362750*
X146450*
Y364400*
X143750*
Y362250*
X344250*
Y364400*
G37*
X143750D02*
G36*
X146450D01*
Y366050*
X149750*
Y365250*
X147250*
Y364400*
X153250*
Y365250*
X150750*
Y366050*
X154050*
Y364400*
X344250*
Y383250*
X250*
Y364400*
X97161*
G75*
G02X114750Y375350I17587J-8649*
G01*
X128750*
G75*
G02X140987Y365750I-1J-12600*
G01*
X143750*
Y364400*
G37*
X136750D02*
G36*
Y365750D01*
X138708*
G75*
G03X128750Y373150I-9957J-3000*
G01*
X114750*
G75*
G03X99653Y364400I1J-17400*
G01*
X126750*
Y365750*
X133750*
Y364400*
X136750*
G37*
D02*
D12*
X180750Y169750D03*
X273250Y226250D02*
Y207250D01*
G75*
G02X251250Y185250I-22000*
G01*
X174250*
G75*
G03X160250Y171250J-14000*
G01*
Y158750*
D02*
D17*
X197250Y298250D02*
G75*
G02Y298750I250J250D01*
G01*
D02*
D21*
X8250Y177431D02*
X37931D01*
G75*
G03X44750Y184250J6819*
G01*
Y245250*
G75*
G03X42750Y247250I-2000*
G01*
X63250Y266750D02*
X96250Y299750D01*
Y355750*
G75*
G02X114750Y374250I18500*
G01*
X128750*
G75*
G02X140250Y362750J-11500*
G01*
Y362250*
X84250Y265750D02*
X122750D01*
G75*
G03X140250Y283250J17500*
G01*
Y352250*
X94750Y215750D02*
Y214750D01*
G75*
G03X97750Y211750I3000*
G01*
X112750*
G75*
G02X118750Y205750J-6000*
G01*
Y118750*
G75*
G03X126750Y110750I8000*
G01*
X156750*
G75*
G03X161250Y115250J4500*
G01*
X105250Y217250D02*
X116250D01*
G75*
G02X122750Y210750J-6500*
G01*
Y119750*
G75*
G03X127250Y115250I4500*
G01*
X136250*
X122250Y241250D02*
X126250D01*
G75*
G02X130750Y236750J-4500*
G01*
Y165250*
G75*
G03X154750Y141250I24000*
G01*
D02*
D22*
X4750Y188250D03*
X6250Y233250D03*
X6650Y229250D03*
X8250Y177431D03*
Y184990D03*
Y236750D03*
X9250Y226250D03*
X12250Y235750D03*
X14750Y225750D03*
X20750Y183750D03*
X24750Y190750D03*
X25250Y207250D03*
X27250Y80250D03*
X28250Y202750D03*
X35250Y181750D03*
X38750Y115510D03*
Y230750D03*
X39250Y225738D03*
X40250Y68250D03*
X42750Y247250D03*
X46750Y175750D03*
X51250Y162250D03*
X55250Y283250D03*
Y311750D03*
X55750Y199250D03*
X56868Y130750D03*
X63250Y266750D03*
X67250Y75250D03*
X71250Y90250D03*
X84250Y265750D03*
X84750Y120750D03*
X94750Y215750D03*
X105250Y217250D03*
X109250Y337750D03*
X110719Y234750D03*
X112250Y182250D03*
X112750Y162250D03*
X113750Y142750D03*
Y340750D03*
X122250Y241250D03*
X126250Y219750D03*
X129750Y137750D03*
X136250Y115250D03*
X139065Y248750D03*
X142215Y245250D03*
X144750Y202750D03*
X145364Y249250D03*
X148750Y171250D03*
Y243750D03*
X151663Y247850D03*
X154750Y141250D03*
X155250Y268250D03*
Y274750D03*
X155750Y242750D03*
X159250Y249250D03*
X161250Y115250D03*
X167750Y110250D03*
X170250Y236250D03*
X173250Y144750D03*
X175250Y298250D03*
X177750Y247250D03*
X179750Y160250D03*
X180750Y145750D03*
Y192250D03*
X183250Y241250D03*
Y274250D03*
X183750Y194750D03*
X185750Y235250D03*
X188750Y167750D03*
X188963Y198250D03*
X192250Y269250D03*
X197250Y298750D03*
X198907Y265750D03*
D02*
D90*
X180750Y169750D02*
X171250D01*
G75*
G03X160250Y158750J-11000*
G01*
D02*
D107*
X11360Y168250D03*
X19750Y170750D03*
X56750Y324400D03*
X61750Y212250D03*
X63250Y279250D03*
X64250Y110250D03*
X65250Y69250D03*
X153750Y185549D03*
X160250Y158750D03*
X178726Y177250D03*
X194750Y158250D03*
X214750Y298750D03*
X273250Y227750D03*
X283250Y317250D03*
D02*
D108*
X273250Y227750D02*
G75*
G02Y226250I-750J-750D01*
G01*
D02*
D116*
X38750Y230750D02*
Y230250D01*
G75*
G02X42750Y225750I-250J-4250*
G01*
Y198250*
G75*
G02X35250Y190750I-7500*
G01*
X24750*
X139065Y248750D02*
X57750D01*
G75*
G03X51250Y242250J-6500*
G01*
Y162250*
X142215Y245250D02*
Y248785D01*
G75*
G03X139250Y251750I-2965*
G01*
X54250*
G75*
G03X46750Y244250J-7500*
G01*
Y175750*
X145364Y249250D02*
Y250636D01*
G75*
G03X142250Y253750I-3114*
G01*
X46250*
G75*
G03X38750Y246250J-7500*
G01*
Y230750*
D02*
D117*
X39250Y225738D02*
Y222750D01*
G75*
G02X4750Y188250I-34500*
G01*
X126250Y219750D02*
Y141250D01*
G75*
G03X129750Y137750I3500*
G01*
X148750Y243750D02*
Y249750D01*
G75*
G03X142750Y255750I-6000*
G01*
X24250*
G75*
G03X17250Y248750J-7000*
G01*
Y196750*
G75*
G02X12250Y191750I-5000*
G01*
X8250*
G75*
G03X4750Y188250J-3500*
G01*
X175250Y298250D02*
X197250D01*
D02*
D119*
X7250Y23813D03*
Y31687D03*
Y63813D03*
Y71687D03*
Y103813D03*
Y111687D03*
X33750Y57250D03*
X34750Y98750D03*
X206250Y171750D03*
D02*
D121*
X91939Y121140D03*
Y278620D03*
X227136Y121140D03*
Y278620D03*
D02*
D123*
X20250Y290250D03*
Y345250D03*
D02*
D124*
X10250Y280250D03*
Y300250D03*
Y335250D03*
Y355250D03*
X30250Y280250D03*
Y300250D03*
Y335250D03*
Y355250D03*
D02*
D126*
X68117Y142950D03*
Y162550D03*
Y182150D03*
Y201750D03*
Y221350D03*
Y240950D03*
X87117Y142950D03*
Y162550D03*
Y182150D03*
Y201750D03*
Y221350D03*
Y240950D03*
D02*
D130*
X112250Y319750D03*
X122250D03*
X130250Y352250D03*
Y362250D03*
X132250Y319750D03*
X136750Y56250D03*
Y66250D03*
X140250Y352250D03*
Y362250D03*
X150250Y352250D03*
Y362250D03*
X157750Y319750D03*
X167750D03*
X175250Y56250D03*
Y66250D03*
X177750Y319750D03*
X187750D03*
X252750Y318250D03*
X302750Y141750D03*
Y151750D03*
Y161750D03*
Y171750D03*
Y181750D03*
Y191750D03*
Y201750D03*
Y211750D03*
D02*
D132*
X9250Y226250D02*
X6450D01*
G75*
G02X3050Y229650J3400*
G01*
Y250950*
G75*
G02X14350Y262250I11300*
G01*
X141750*
G75*
G02X151663Y252337J-9913*
G01*
Y247850*
X27250Y80250D02*
X161250D01*
G75*
G02X175250Y66250J-14000*
G01*
X67250Y75250D02*
X154750D01*
G75*
G02X162750Y67250J-8000*
G01*
Y60750*
G75*
G03X168250Y55250I5500*
G01*
X174250*
G75*
G03X175250Y56250J1000*
G01*
X110719Y234750D02*
X67250D01*
G75*
G03X55750Y223250J-11500*
G01*
Y199250*
X0Y0D02*
M02*
