G04 EasyPC Gerber Version 21.0.3 Build 4286 *
G04 #@! TF.Part,Single*
G04 #@! TF.FileFunction,Copper,L3,Inr *
G04 #@! TF.FilePolarity,Positive *
%FSLAX35Y35*%
%MOIN*%
G04 #@! TA.AperFunction,ComponentPad*
%ADD130R,0.06000X0.06000*%
G04 #@! TD.AperFunction*
%ADD10C,0.00001*%
%ADD117C,0.00800*%
%ADD132C,0.01100*%
%ADD21C,0.01200*%
%ADD108C,0.01600*%
%ADD22C,0.02600*%
G04 #@! TA.AperFunction,ViaPad*
%ADD12C,0.03200*%
G04 #@! TD.AperFunction*
%ADD133C,0.04400*%
G04 #@! TA.AperFunction,ComponentPad*
%ADD121C,0.04724*%
G04 #@! TA.AperFunction,ViaPad*
%ADD107C,0.05600*%
G04 #@! TA.AperFunction,WasherPad*
%ADD119C,0.06000*%
G04 #@! TA.AperFunction,ComponentPad*
%ADD126C,0.07600*%
%ADD123C,0.09055*%
%ADD124C,0.10039*%
G04 #@! TA.AperFunction,WasherPad*
%ADD118C,0.19700*%
X0Y0D02*
D02*
D10*
X250Y383250D02*
Y250D01*
X344250*
Y383250*
X250*
X2950Y188250D02*
G75*
G02X6550I1800D01*
G01*
G75*
G02X2950I-1800*
G01*
X7250Y27313D02*
G75*
G02X10750Y23813J-3500D01*
G01*
G75*
G02X7250Y20313I-3500*
G01*
G75*
G02X3750Y23813J3500*
G01*
G75*
G02X7250Y27313I3500*
G01*
Y35187D02*
G75*
G02X10750Y31687J-3500D01*
G01*
G75*
G02X7250Y28187I-3500*
G01*
G75*
G02X3750Y31687J3500*
G01*
G75*
G02X7250Y35187I3500*
G01*
Y67313D02*
G75*
G02X10750Y63813J-3500D01*
G01*
G75*
G02X7250Y60313I-3500*
G01*
G75*
G02X3750Y63813J3500*
G01*
G75*
G02X7250Y67313I3500*
G01*
Y75187D02*
G75*
G02X10750Y71687J-3500D01*
G01*
G75*
G02X7250Y68187I-3500*
G01*
G75*
G02X3750Y71687J3500*
G01*
G75*
G02X7250Y75187I3500*
G01*
Y107313D02*
G75*
G02X10750Y103813J-3500D01*
G01*
G75*
G02X7250Y100313I-3500*
G01*
G75*
G02X3750Y103813J3500*
G01*
G75*
G02X7250Y107313I3500*
G01*
Y115187D02*
G75*
G02X10750Y111687J-3500D01*
G01*
G75*
G02X7250Y108187I-3500*
G01*
G75*
G02X3750Y111687J3500*
G01*
G75*
G02X7250Y115187I3500*
G01*
X6450Y177431D02*
G75*
G02X10050I1800D01*
G01*
G75*
G02X6450I-1800*
G01*
X249250Y321750D02*
X256250D01*
Y314750*
X255450*
Y179250*
Y179250*
G75*
G02X225250Y149050I-30200*
G01*
X21750*
G75*
G02X8660Y162140J13090*
G01*
Y166353*
G75*
G02X8060Y168250I2700J1897*
G01*
G75*
G02X14660I3300*
G01*
G75*
G02X14060Y166353I-3300*
G01*
Y162140*
G75*
G03X21750Y154450I7690*
G01*
X225250*
G75*
G03X250050Y179250J24800*
G01*
Y314750*
X249250*
Y321750*
X25450Y80250D02*
G75*
G02X29050I1800D01*
G01*
G75*
G02X25450I-1800*
G01*
X30250Y57250D02*
G75*
G02X37250I3500D01*
G01*
G75*
G02X30250I-3500*
G01*
X31250Y98750D02*
G75*
G02X38250I3500D01*
G01*
G75*
G02X31250I-3500*
G01*
X137550Y69750D02*
X140250D01*
Y62750*
X133250*
Y69750*
X134950*
Y102750*
G75*
G03X123490Y114210I-11460*
G01*
X39995*
G75*
G02X36950Y115510I-1245J1300*
G01*
G75*
G02X39995Y116810I1800*
G01*
X123490*
G75*
G02X137550Y102750J-14060*
G01*
Y69750*
X133250Y59750D02*
X140250D01*
Y52750*
X133250*
Y59750*
X49900Y14750D02*
G75*
G02X70600I10350D01*
G01*
G75*
G02X49900I-10350*
G01*
X61495Y109750D02*
G75*
G03X63750Y107495I2756J500D01*
G01*
Y106685*
G75*
G02X60685Y109750I500J3565*
G01*
X61495*
X62495Y68750D02*
G75*
G03X64750Y66495I2756J500D01*
G01*
Y65685*
G75*
G02X61685Y68750I500J3565*
G01*
X62495*
X61685Y69750D02*
G75*
G02X64750Y72815I3565J-500D01*
G01*
Y72005*
G75*
G03X62495Y69750I500J-2756*
G01*
X61685*
X60685Y110750D02*
G75*
G02X63750Y113815I3565J-500D01*
G01*
Y113005*
G75*
G03X61495Y110750I500J-2756*
G01*
X60685*
X67005Y109750D02*
X67815D01*
G75*
G02X64750Y106685I-3565J500*
G01*
Y107495*
G75*
G03X67005Y109750I-500J2756*
G01*
X65450Y75250D02*
G75*
G02X69050I1800D01*
G01*
G75*
G02X65450I-1800*
G01*
X68005Y68750D02*
X68815D01*
G75*
G02X65750Y65685I-3565J500*
G01*
Y66495*
G75*
G03X68005Y68750I-500J2756*
G01*
X65750Y72815D02*
G75*
G02X68815Y69750I-500J-3565D01*
G01*
X68005*
G75*
G03X65750Y72005I-2756J-500*
G01*
Y72815*
X64750Y113815D02*
G75*
G02X67815Y110750I-500J-3565D01*
G01*
X67005*
G75*
G03X64750Y113005I-2756J-500*
G01*
Y113815*
X69450Y90250D02*
G75*
G02X73050I1800D01*
G01*
G75*
G02X69450I-1800*
G01*
X38450Y68250D02*
G75*
G02X42050I1800D01*
G01*
G75*
G02X38450I-1800*
G01*
X55068Y130750D02*
G75*
G02X58668I1800D01*
G01*
G75*
G02X55068I-1800*
G01*
X68117Y147250D02*
G75*
G02X72417Y142950J-4300D01*
G01*
G75*
G02X68117Y138650I-4300*
G01*
G75*
G02X63817Y142950J4300*
G01*
G75*
G02X68117Y147250I4300*
G01*
X87117D02*
G75*
G02X91417Y142950J-4300D01*
G01*
G75*
G02X87117Y138650I-4300*
G01*
G75*
G02X82817Y142950J4300*
G01*
G75*
G02X87117Y147250I4300*
G01*
X89077Y121140D02*
G75*
G02X94801I2862D01*
G01*
G75*
G02X89077I-2862*
G01*
X82950Y120750D02*
G75*
G02X86550I1800D01*
G01*
G75*
G02X82950I-1800*
G01*
X111950Y142750D02*
G75*
G02X115550I1800D01*
G01*
G75*
G02X111950I-1800*
G01*
X127950Y137750D02*
G75*
G02X131550I1800D01*
G01*
G75*
G02X127950I-1800*
G01*
X134450Y115250D02*
G75*
G02X138050I1800D01*
G01*
G75*
G02X134450I-1800*
G01*
X152950Y141250D02*
G75*
G02X156550I1800D01*
G01*
G75*
G02X152950I-1800*
G01*
X159450Y115250D02*
G75*
G02X163050I1800D01*
G01*
G75*
G02X159450I-1800*
G01*
X165950Y110250D02*
G75*
G02X169550I1800D01*
G01*
G75*
G02X165950I-1800*
G01*
X171450Y144750D02*
G75*
G02X175050I1800D01*
G01*
G75*
G02X171450I-1800*
G01*
X171750Y59750D02*
X178750D01*
Y52750*
X171750*
Y59750*
Y69750D02*
X178750D01*
Y62750*
X171750*
Y69750*
X179550Y145250D02*
G75*
G03X180250Y144550I1199J499D01*
G01*
Y143710*
G75*
G02X178710Y145250I500J2040*
G01*
X179550*
X178710Y146250D02*
G75*
G02X180250Y147790I2040J-500D01*
G01*
Y146950*
G75*
G03X179550Y146250I499J-1199*
G01*
X178710*
X181950Y145250D02*
X182790D01*
G75*
G02X181250Y143710I-2040J500*
G01*
Y144550*
G75*
G03X181950Y145250I-499J1199*
G01*
X181250Y147790D02*
G75*
G02X182790Y146250I-500J-2040D01*
G01*
X181950*
G75*
G03X181250Y146950I-1199J-499*
G01*
Y147790*
X224274Y121140D02*
G75*
G02X229998I2862D01*
G01*
G75*
G02X224274I-2862*
G01*
X6450Y184990D02*
G75*
G02X10050I1800D01*
G01*
G75*
G02X6450I-1800*
G01*
X4450Y233250D02*
G75*
G02X8050I1800D01*
G01*
G75*
G02X4450I-1800*
G01*
X5450Y228750D02*
G75*
G03X6150Y228050I1199J499D01*
G01*
Y227210*
G75*
G02X4610Y228750I500J2040*
G01*
X5450*
X4610Y229750D02*
G75*
G02X6150Y231290I2040J-500D01*
G01*
Y230450*
G75*
G03X5450Y229750I499J-1199*
G01*
X4610*
X7850Y228750D02*
X8690D01*
G75*
G02X7150Y227210I-2040J500*
G01*
Y228050*
G75*
G03X7850Y228750I-499J1199*
G01*
X7450Y226250D02*
G75*
G02X11050I1800D01*
G01*
G75*
G02X7450I-1800*
G01*
X7150Y231290D02*
G75*
G02X8690Y229750I-500J-2040D01*
G01*
X7850*
G75*
G03X7150Y230450I-1199J-499*
G01*
Y231290*
X10250Y285770D02*
G75*
G02X15770Y280250J-5520D01*
G01*
G75*
G02X10250Y274730I-5520*
G01*
G75*
G02X4730Y280250J5520*
G01*
G75*
G02X10250Y285770I5520*
G01*
X181450Y274250D02*
G75*
G02X185050I1800D01*
G01*
G75*
G02X183745Y272519I-1800*
G01*
G75*
G02X180250Y270350I-3494J1730*
G01*
X23750*
G75*
G03X13150Y259750J-10600*
G01*
Y237309*
G75*
G02X14050Y235750I-900J-1559*
G01*
G75*
G02X10450I-1800*
G01*
G75*
G02X11350Y237309I1800*
G01*
Y259750*
G75*
G02X23750Y272150I12400*
G01*
X180250*
G75*
G03X181945Y273010I0J2100*
G01*
G75*
G02X181450Y274250I1305J1240*
G01*
Y241250D02*
G75*
G02X185050I1800D01*
G01*
G75*
G02X181450I-1800*
G01*
X184550Y234750D02*
G75*
G03X185250Y234050I1199J499D01*
G01*
Y233210*
G75*
G02X183710Y234750I500J2040*
G01*
X184550*
X183710Y235750D02*
G75*
G02X185250Y237290I2040J-500D01*
G01*
Y236450*
G75*
G03X184550Y235750I499J-1199*
G01*
X183710*
X61788Y267800D02*
G75*
G02X65050Y266750I1462J-1050D01*
G01*
G75*
G02X61788Y265700I-1800*
G01*
X50750*
G75*
G03X36300Y251250J-14450*
G01*
Y183212*
G75*
G02X37050Y181750I-1050J-1462*
G01*
G75*
G02X33450I-1800*
G01*
G75*
G02X34200Y183212I1800*
G01*
Y251250*
Y251250*
G75*
G02X50750Y267800I16550*
G01*
X61788*
X36950Y230750D02*
G75*
G02X40550I1800D01*
G01*
G75*
G02X36950I-1800*
G01*
X37450Y225738D02*
G75*
G02X41050I1800D01*
G01*
G75*
G02X37450I-1800*
G01*
X82450Y265750D02*
G75*
G02X86050I1800D01*
G01*
G75*
G02X85295Y264285I-1800*
G01*
G75*
G02X65750Y246150I-19545J1465*
G01*
X44175*
G75*
G02X40950Y247250I-1425J1100*
G01*
G75*
G02X44175Y248350I1800*
G01*
X65750*
G75*
G03X83095Y264369I0J17400*
G01*
G75*
G02X82450Y265750I1155J1381*
G01*
X87117Y225650D02*
G75*
G02X91417Y221350J-4300D01*
G01*
G75*
G02X87117Y217050I-4300*
G01*
G75*
G02X82817Y221350J4300*
G01*
G75*
G02X87117Y225650I4300*
G01*
Y245250D02*
G75*
G02X91417Y240950J-4300D01*
G01*
G75*
G02X87117Y236650I-4300*
G01*
G75*
G02X82817Y240950J4300*
G01*
G75*
G02X87117Y245250I4300*
G01*
X44950Y175750D02*
G75*
G02X48550I1800D01*
G01*
G75*
G02X44950I-1800*
G01*
X53950Y199250D02*
G75*
G02X57550I1800D01*
G01*
G75*
G02X53950I-1800*
G01*
X211450Y298750D02*
G75*
G02X218050I3300D01*
G01*
G75*
G02X215850Y295639I-3300*
G01*
Y225750*
G75*
G02X201250Y211150I-14600*
G01*
X64861*
G75*
G02X58450Y212250I-3111J1100*
G01*
G75*
G02X64861Y213350I3300*
G01*
X201250*
G75*
G03X213650Y225750J12400*
G01*
Y295639*
G75*
G02X211450Y298750I1100J3111*
G01*
X202750Y171750D02*
G75*
G02X209750I3500D01*
G01*
G75*
G02X202750I-3500*
G01*
X87117Y186450D02*
G75*
G02X91417Y182150J-4300D01*
G01*
G75*
G02X87117Y177850I-4300*
G01*
G75*
G02X82817Y182150J4300*
G01*
G75*
G02X87117Y186450I4300*
G01*
Y206050D02*
G75*
G02X91417Y201750J-4300D01*
G01*
G75*
G02X87117Y197450I-4300*
G01*
G75*
G02X82817Y201750J4300*
G01*
G75*
G02X87117Y206050I4300*
G01*
X110450Y182250D02*
G75*
G02X114050I1800D01*
G01*
G75*
G02X110450I-1800*
G01*
X178272Y161278D02*
G75*
G02X181550Y160250I1478J-1028D01*
G01*
G75*
G02X178124Y159478I-1800*
G01*
G75*
G02X169350Y169750I1626J10272*
G01*
Y188250*
G75*
G03X155750Y201850I-13600*
G01*
X146309*
G75*
G02X142950Y202750I-1559J900*
G01*
G75*
G02X146309Y203650I1800*
G01*
X155750*
G75*
G02X171150Y188250J-15400*
G01*
Y169750*
G75*
G03X178272Y161278I8600*
G01*
X150450Y185549D02*
G75*
G02X157050I3300D01*
G01*
G75*
G02X150450I-3300*
G01*
X156950Y158750D02*
G75*
G02X163550I3300D01*
G01*
G75*
G02X156950I-3300*
G01*
X175971Y176750D02*
G75*
G03X178226Y174495I2756J500D01*
G01*
Y173685*
G75*
G02X175161Y176750I500J3565*
G01*
X175971*
X175161Y177750D02*
G75*
G02X178226Y180815I3565J-500D01*
G01*
Y180005*
G75*
G03X175971Y177750I500J-2756*
G01*
X175161*
X178650Y169750D02*
G75*
G02X182850I2100D01*
G01*
G75*
G02X178650I-2100*
G01*
X178950Y192250D02*
G75*
G02X182550I1800D01*
G01*
G75*
G02X178950I-1800*
G01*
X181481Y176750D02*
X182291D01*
G75*
G02X179226Y173685I-3565J500*
G01*
Y174495*
G75*
G03X181481Y176750I-500J2756*
G01*
X179226Y180815D02*
G75*
G02X182291Y177750I-500J-3565D01*
G01*
X181481*
G75*
G03X179226Y180005I-2756J-500*
G01*
Y180815*
X181950Y194750D02*
G75*
G02X185550I1800D01*
G01*
G75*
G02X181950I-1800*
G01*
X186950Y167750D02*
G75*
G02X190550I1800D01*
G01*
G75*
G02X186950I-1800*
G01*
X187163Y198250D02*
G75*
G02X190763I1800D01*
G01*
G75*
G02X187163I-1800*
G01*
X191450Y158250D02*
G75*
G02X198050I3300D01*
G01*
G75*
G02X191450I-3300*
G01*
X68117Y186450D02*
G75*
G02X72417Y182150J-4300D01*
G01*
G75*
G02X68117Y177850I-4300*
G01*
G75*
G02X63817Y182150J4300*
G01*
G75*
G02X68117Y186450I4300*
G01*
Y206050D02*
G75*
G02X72417Y201750J-4300D01*
G01*
G75*
G02X68117Y197450I-4300*
G01*
G75*
G02X63817Y201750J4300*
G01*
G75*
G02X68117Y206050I4300*
G01*
Y225650D02*
G75*
G02X72417Y221350J-4300D01*
G01*
G75*
G02X68117Y217050I-4300*
G01*
G75*
G02X63817Y221350J4300*
G01*
G75*
G02X68117Y225650I4300*
G01*
Y245250D02*
G75*
G02X72417Y240950J-4300D01*
G01*
G75*
G02X68117Y236650I-4300*
G01*
G75*
G02X63817Y240950J4300*
G01*
G75*
G02X68117Y245250I4300*
G01*
X92950Y215750D02*
G75*
G02X96550I1800D01*
G01*
G75*
G02X92950I-1800*
G01*
X103450Y217250D02*
G75*
G02X107050I1800D01*
G01*
G75*
G02X103450I-1800*
G01*
X108919Y234750D02*
G75*
G02X112519I1800D01*
G01*
G75*
G02X108919I-1800*
G01*
X120450Y241250D02*
G75*
G02X124050I1800D01*
G01*
G75*
G02X120450I-1800*
G01*
X124450Y219750D02*
G75*
G02X128050I1800D01*
G01*
G75*
G02X124450I-1800*
G01*
X137265Y248750D02*
G75*
G02X140865I1800D01*
G01*
G75*
G02X137265I-1800*
G01*
X140415Y245250D02*
G75*
G02X144015I1800D01*
G01*
G75*
G02X140415I-1800*
G01*
X143564Y249250D02*
G75*
G02X147164I1800D01*
G01*
G75*
G02X143564I-1800*
G01*
X146950Y243750D02*
G75*
G02X150550I1800D01*
G01*
G75*
G02X146950I-1800*
G01*
X149863Y247850D02*
G75*
G02X153463I1800D01*
G01*
G75*
G02X149863I-1800*
G01*
X153450Y268250D02*
G75*
G02X157050I1800D01*
G01*
G75*
G02X153450I-1800*
G01*
X153950Y242750D02*
G75*
G02X157550I1800D01*
G01*
G75*
G02X153950I-1800*
G01*
X157450Y249250D02*
G75*
G02X161050I1800D01*
G01*
G75*
G02X157450I-1800*
G01*
X169050Y235750D02*
G75*
G03X169750Y235050I1199J499D01*
G01*
Y234210*
G75*
G02X168210Y235750I500J2040*
G01*
X169050*
X168210Y236750D02*
G75*
G02X169750Y238290I2040J-500D01*
G01*
Y237450*
G75*
G03X169050Y236750I499J-1199*
G01*
X168210*
X171450Y235750D02*
X172290D01*
G75*
G02X170750Y234210I-2040J500*
G01*
Y235050*
G75*
G03X171450Y235750I-499J1199*
G01*
X170750Y238290D02*
G75*
G02X172290Y236750I-500J-2040D01*
G01*
X171450*
G75*
G03X170750Y237450I-1199J-499*
G01*
Y238290*
X175950Y247250D02*
G75*
G02X179550I1800D01*
G01*
G75*
G02X175950I-1800*
G01*
X18950Y183750D02*
G75*
G02X22550I1800D01*
G01*
G75*
G02X18950I-1800*
G01*
X22950Y190750D02*
G75*
G02X26550I1800D01*
G01*
G75*
G02X22950I-1800*
G01*
X23450Y207250D02*
G75*
G02X27050I1800D01*
G01*
G75*
G02X23450I-1800*
G01*
X147191Y172150D02*
G75*
G02X150550Y171250I1559J-900D01*
G01*
G75*
G02X147191Y170350I-1800*
G01*
X32750*
G75*
G02X27350Y175750J5400*
G01*
Y175750*
Y201191*
G75*
G02X26450Y202750I900J1559*
G01*
G75*
G02X30050I1800*
G01*
G75*
G02X29150Y201191I-1800*
G01*
Y175750*
Y175750*
G75*
G03X32750Y172150I3600*
G01*
X147191*
X49450Y162250D02*
G75*
G02X53050I1800D01*
G01*
G75*
G02X49450I-1800*
G01*
X68117Y166850D02*
G75*
G02X72417Y162550J-4300D01*
G01*
G75*
G02X68117Y158250I-4300*
G01*
G75*
G02X63817Y162550J4300*
G01*
G75*
G02X68117Y166850I4300*
G01*
X87117D02*
G75*
G02X91417Y162550J-4300D01*
G01*
G75*
G02X87117Y158250I-4300*
G01*
G75*
G02X82817Y162550J4300*
G01*
G75*
G02X87117Y166850I4300*
G01*
X110950Y162250D02*
G75*
G02X114550I1800D01*
G01*
G75*
G02X110950I-1800*
G01*
X12950Y225750D02*
G75*
G02X16550I1800D01*
G01*
G75*
G02X12950I-1800*
G01*
X16450Y170750D02*
G75*
G02X23050I3300D01*
G01*
G75*
G02X16450I-3300*
G01*
X6450Y236750D02*
G75*
G02X10050I1800D01*
G01*
G75*
G02X6450I-1800*
G01*
X10250Y305770D02*
G75*
G02X15770Y300250J-5520D01*
G01*
G75*
G02X10250Y294730I-5520*
G01*
G75*
G02X4730Y300250J5520*
G01*
G75*
G02X10250Y305770I5520*
G01*
X20250Y295278D02*
G75*
G02X25278Y290250J-5028D01*
G01*
G75*
G02X20250Y285222I-5028*
G01*
G75*
G02X15222Y290250J5028*
G01*
G75*
G02X20250Y295278I5028*
G01*
X30250Y285770D02*
G75*
G02X35770Y280250J-5520D01*
G01*
G75*
G02X30250Y274730I-5520*
G01*
G75*
G02X24730Y280250J5520*
G01*
G75*
G02X30250Y285770I5520*
G01*
X10250Y340770D02*
G75*
G02X15770Y335250J-5520D01*
G01*
G75*
G02X10250Y329730I-5520*
G01*
G75*
G02X4730Y335250J5520*
G01*
G75*
G02X10250Y340770I5520*
G01*
Y360770D02*
G75*
G02X15770Y355250J-5520D01*
G01*
G75*
G02X10250Y349730I-5520*
G01*
G75*
G02X4730Y355250J5520*
G01*
G75*
G02X10250Y360770I5520*
G01*
X20250Y350278D02*
G75*
G02X25278Y345250J-5028D01*
G01*
G75*
G02X20250Y340222I-5028*
G01*
G75*
G02X15222Y345250J5028*
G01*
G75*
G02X20250Y350278I5028*
G01*
X30250Y305770D02*
G75*
G02X35770Y300250J-5520D01*
G01*
G75*
G02X30250Y294730I-5520*
G01*
G75*
G02X24730Y300250J5520*
G01*
G75*
G02X30250Y305770I5520*
G01*
Y340770D02*
G75*
G02X35770Y335250J-5520D01*
G01*
G75*
G02X30250Y329730I-5520*
G01*
G75*
G02X24730Y335250J5520*
G01*
G75*
G02X30250Y340770I5520*
G01*
Y360770D02*
G75*
G02X35770Y355250J-5520D01*
G01*
G75*
G02X30250Y349730I-5520*
G01*
G75*
G02X24730Y355250J5520*
G01*
G75*
G02X30250Y360770I5520*
G01*
X49900Y369250D02*
G75*
G02X70600I10350D01*
G01*
G75*
G02X49900I-10350*
G01*
X53995Y323900D02*
G75*
G03X56250Y321645I2756J500D01*
G01*
Y320835*
G75*
G02X53185Y323900I500J3565*
G01*
X53995*
X53450Y311750D02*
G75*
G02X57050I1800D01*
G01*
G75*
G02X56150Y310191I-1800*
G01*
Y284809*
G75*
G02X57050Y283250I-900J-1559*
G01*
G75*
G02X53450I-1800*
G01*
G75*
G02X54350Y284809I1800*
G01*
Y310191*
G75*
G02X53450Y311750I900J1559*
G01*
X53185Y324900D02*
G75*
G02X56250Y327965I3565J-500D01*
G01*
Y327155*
G75*
G03X53995Y324900I500J-2756*
G01*
X53185*
X59505Y323900D02*
X60315D01*
G75*
G02X57250Y320835I-3565J500*
G01*
Y321645*
G75*
G03X59505Y323900I-500J2756*
G01*
X60495Y278750D02*
G75*
G03X62750Y276495I2756J500D01*
G01*
Y275685*
G75*
G02X59685Y278750I500J3565*
G01*
X60495*
X59685Y279750D02*
G75*
G02X62750Y282815I3565J-500D01*
G01*
Y282005*
G75*
G03X60495Y279750I500J-2756*
G01*
X59685*
X57250Y327965D02*
G75*
G02X60315Y324900I-500J-3565D01*
G01*
X59505*
G75*
G03X57250Y327155I-2756J-500*
G01*
Y327965*
X66005Y278750D02*
X66815D01*
G75*
G02X63750Y275685I-3565J500*
G01*
Y276495*
G75*
G03X66005Y278750I-500J2756*
G01*
X63750Y282815D02*
G75*
G02X66815Y279750I-500J-3565D01*
G01*
X66005*
G75*
G03X63750Y282005I-2756J-500*
G01*
Y282815*
X89077Y278620D02*
G75*
G02X94801I2862D01*
G01*
G75*
G02X89077I-2862*
G01*
X107450Y337750D02*
G75*
G02X111050I1800D01*
G01*
G75*
G02X107450I-1800*
G01*
X109250Y316750D02*
X111750D01*
Y315950*
X108450*
Y319250*
X109250*
Y316750*
X108450Y323550D02*
X111750D01*
Y322750*
X109250*
Y320250*
X108450*
Y323550*
X111950Y340750D02*
G75*
G02X115550I1800D01*
G01*
G75*
G02X111950I-1800*
G01*
X115250Y319250D02*
X116050D01*
Y315950*
X112750*
Y316750*
X115250*
Y319250*
X112750Y323550D02*
X116050D01*
Y320250*
X115250*
Y322750*
X112750*
Y323550*
X119250Y316750D02*
X121750D01*
Y315950*
X118450*
Y319250*
X119250*
Y316750*
X118450Y323550D02*
X121750D01*
Y322750*
X119250*
Y320250*
X118450*
Y323550*
X125250Y319250D02*
X126050D01*
Y315950*
X122750*
Y316750*
X125250*
Y319250*
X122750Y323550D02*
X126050D01*
Y320250*
X125250*
Y322750*
X122750*
Y323550*
X126750Y355750D02*
X133750D01*
Y348750*
X126750*
Y355750*
X129250Y316750D02*
X131750D01*
Y315950*
X128450*
Y319250*
X129250*
Y316750*
X128450Y323550D02*
X131750D01*
Y322750*
X129250*
Y320250*
X128450*
Y323550*
X135250Y319250D02*
X136050D01*
Y315950*
X132750*
Y316750*
X135250*
Y319250*
X132750Y323550D02*
X136050D01*
Y320250*
X135250*
Y322750*
X132750*
Y323550*
X126750Y365750D02*
X133750D01*
Y358750*
X126750*
Y365750*
X136750Y355750D02*
X143750D01*
Y348750*
X136750*
Y355750*
Y365750D02*
X143750D01*
Y358750*
X136750*
Y365750*
X146750Y355750D02*
X153750D01*
Y348750*
X146750*
Y355750*
X153450Y274750D02*
G75*
G02X157050I1800D01*
G01*
G75*
G02X153450I-1800*
G01*
X146750Y365750D02*
X153750D01*
Y358750*
X146750*
Y365750*
X154250Y323250D02*
X161250D01*
Y316250*
X154250*
Y323250*
X164250D02*
X171250D01*
Y316250*
X164250*
Y323250*
X173450Y298250D02*
G75*
G02X177050I1800D01*
G01*
G75*
G02X173450I-1800*
G01*
X174250Y323250D02*
X181250D01*
Y316250*
X174250*
Y323250*
X184250D02*
X191250D01*
Y316250*
X184250*
Y323250*
X186950Y234750D02*
X187790D01*
G75*
G02X186250Y233210I-2040J500*
G01*
Y234050*
G75*
G03X186950Y234750I-499J1199*
G01*
X186250Y237290D02*
G75*
G02X187790Y235750I-500J-2040D01*
G01*
X186950*
G75*
G03X186250Y236450I-1199J-499*
G01*
Y237290*
X190450Y269250D02*
G75*
G02X194050I1800D01*
G01*
G75*
G02X190450I-1800*
G01*
X195450Y298750D02*
G75*
G02X199050I1800D01*
G01*
G75*
G02X195450I-1800*
G01*
X197107Y265750D02*
G75*
G02X200707I1800D01*
G01*
G75*
G02X197107I-1800*
G01*
X224274Y278620D02*
G75*
G02X229998I2862D01*
G01*
G75*
G02X224274I-2862*
G01*
X269950Y227750D02*
G75*
G02X276550I3300D01*
G01*
G75*
G02X269950I-3300*
G01*
X280495Y316750D02*
G75*
G03X282750Y314495I2756J500D01*
G01*
Y313685*
G75*
G02X279685Y316750I500J3565*
G01*
X280495*
X279685Y317750D02*
G75*
G02X282750Y320815I3565J-500D01*
G01*
Y320005*
G75*
G03X280495Y317750I500J-2756*
G01*
X279685*
X286005Y316750D02*
X286815D01*
G75*
G02X283750Y313685I-3565J500*
G01*
Y314495*
G75*
G03X286005Y316750I-500J2756*
G01*
X283750Y320815D02*
G75*
G02X286815Y317750I-500J-3565D01*
G01*
X286005*
G75*
G03X283750Y320005I-2756J-500*
G01*
Y320815*
X299250Y145250D02*
X306250D01*
Y138250*
X299250*
Y145250*
Y155250D02*
X306250D01*
Y148250*
X299250*
Y155250*
Y165250D02*
X306250D01*
Y158250*
X299250*
Y165250*
Y175250D02*
X306250D01*
Y168250*
X299250*
Y175250*
Y185250D02*
X306250D01*
Y178250*
X299250*
Y185250*
Y195250D02*
X306250D01*
Y188250*
X299250*
Y195250*
Y205250D02*
X306250D01*
Y198250*
X299250*
Y205250*
Y215250D02*
X306250D01*
Y208250*
X299250*
Y215250*
X319900Y14750D02*
G75*
G02X340600I10350D01*
G01*
G75*
G02X319900I-10350*
G01*
Y369250D02*
G75*
G02X340600I10350D01*
G01*
G75*
G02X319900I-10350*
G01*
X344250Y23813D02*
G36*
X335248D01*
G75*
G02X340600Y14750I-4998J-9063*
G01*
G75*
G02X319900I-10350*
G01*
G75*
G02X325252Y23813I10350*
G01*
X65248*
G75*
G02X70600Y14750I-4998J-9063*
G01*
G75*
G02X49900I-10350*
G01*
G75*
G02X55252Y23813I10350*
G01*
X10750*
G75*
G02X7250Y20313I-3500*
G01*
G75*
G02X3750Y23813J3500*
G01*
X250*
Y250*
X344250*
Y23813*
G37*
Y31687D02*
G36*
X10750D01*
G75*
G02X7250Y28187I-3500*
G01*
G75*
G02X3750Y31687J3500*
G01*
X250*
Y23813*
X3750*
G75*
G02X7250Y27313I3500*
G01*
G75*
G02X10750Y23813J-3500*
G01*
X55252*
G75*
G02X65248I4998J-9063*
G01*
X325252*
G75*
G02X335248I4998J-9063*
G01*
X344250*
Y31687*
G37*
Y57250D02*
G36*
X178750D01*
Y52750*
X171750*
Y57250*
X140250*
Y52750*
X133250*
Y57250*
X37250*
G75*
G02X30250I-3500*
G01*
X250*
Y31687*
X3750*
G75*
G02X7250Y35187I3500*
G01*
G75*
G02X10750Y31687J-3500*
G01*
X344250*
Y57250*
G37*
Y63813D02*
G36*
X178750D01*
Y62750*
X171750*
Y63813*
X140250*
Y62750*
X133250*
Y63813*
X10750*
G75*
G02X7250Y60313I-3500*
G01*
G75*
G02X3750Y63813J3500*
G01*
X250*
Y57250*
X30250*
G75*
G02X37250I3500*
G01*
X133250*
Y59750*
X140250*
Y57250*
X171750*
Y59750*
X178750*
Y57250*
X344250*
Y63813*
G37*
X3750D02*
G36*
G75*
G02X6437Y67217I3500J0D01*
G01*
X250*
Y63813*
X3750*
G37*
X133250Y67217D02*
G36*
X68221D01*
G75*
G02X65750Y65685I-2971J2033*
G01*
Y66495*
G75*
G03X67176Y67217I-500J2755*
G01*
X63324*
G75*
G03X64750Y66495I1926J2033*
G01*
Y65685*
G75*
G02X62279Y67217I500J3565*
G01*
X41724*
G75*
G02X38776I-1474J1033*
G01*
X8063*
G75*
G02X10750Y63813I-813J-3405*
G01*
X133250*
Y67217*
G37*
X171750D02*
G36*
X140250D01*
Y63813*
X171750*
Y67217*
G37*
X344250D02*
G36*
X178750D01*
Y63813*
X344250*
Y67217*
G37*
X133250D02*
G36*
Y69750D01*
X134950*
Y71687*
X67900*
G75*
G02X68815Y69750I-2650J-2437*
G01*
X68005*
G75*
G03X66629Y71687I-2756J-500*
G01*
X63871*
G75*
G03X62495Y69750I1379J-2437*
G01*
X61685*
G75*
G02X62600Y71687I3565J-500*
G01*
X10750*
G75*
G02X7250Y68187I-3500*
G01*
G75*
G02X3750Y71687J3500*
G01*
X250*
Y67217*
X6437*
G75*
G02X7250Y67313I813J-3405*
G01*
G75*
G02X8063Y67217I0J-3501*
G01*
X38776*
G75*
G02X38450Y68250I1474J1033*
G01*
G75*
G02X42050I1800*
G01*
G75*
G02X41724Y67217I-1800*
G01*
X62279*
G75*
G02X61685Y68750I2971J2033*
G01*
X62495*
G75*
G03X63324Y67217I2756J500*
G01*
X67176*
G75*
G03X68005Y68750I-1926J2033*
G01*
X68815*
G75*
G02X68221Y67217I-3565J500*
G01*
X133250*
G37*
X344250Y71687D02*
G36*
X137550D01*
Y69750*
X140250*
Y67217*
X171750*
Y69750*
X178750*
Y67217*
X344250*
Y71687*
G37*
X134950Y75250D02*
G36*
X69050D01*
G75*
G02X65450I-1800*
G01*
X250*
Y71687*
X3750*
G75*
G02X7250Y75187I3500*
G01*
G75*
G02X10750Y71687J-3500*
G01*
X62600*
G75*
G02X64750Y72815I2650J-2437*
G01*
Y72005*
G75*
G03X63871Y71687I500J-2755*
G01*
X66629*
G75*
G03X65750Y72005I-1379J-2437*
G01*
Y72815*
G75*
G02X67900Y71687I-500J-3565*
G01*
X134950*
Y75250*
G37*
X344250D02*
G36*
X137550D01*
Y71687*
X344250*
Y75250*
G37*
X134950Y80250D02*
G36*
X29050D01*
G75*
G02X25450I-1800*
G01*
X250*
Y75250*
X65450*
G75*
G02X69050I1800*
G01*
X134950*
Y80250*
G37*
X344250D02*
G36*
X137550D01*
Y75250*
X344250*
Y80250*
G37*
X134950Y90250D02*
G36*
X73050D01*
G75*
G02X69450I-1800*
G01*
X250*
Y80250*
X25450*
G75*
G02X29050I1800*
G01*
X134950*
Y90250*
G37*
X344250D02*
G36*
X137550D01*
Y80250*
X344250*
Y90250*
G37*
X134950Y98750D02*
G36*
X38250D01*
G75*
G02X31250I-3500*
G01*
X250*
Y90250*
X69450*
G75*
G02X73050I1800*
G01*
X134950*
Y98750*
G37*
X344250D02*
G36*
X137550D01*
Y90250*
X344250*
Y98750*
G37*
X134950D02*
G36*
Y102750D01*
G75*
G03X134901Y103813I-11460J2*
G01*
X10750*
G75*
G02X7250Y100313I-3500*
G01*
G75*
G02X3750Y103813J3500*
G01*
X250*
Y98750*
X31250*
G75*
G02X38250I3500*
G01*
X134950*
G37*
X344250Y103813D02*
G36*
X137510D01*
G75*
G02X137550Y102750I-14023J-1062*
G01*
Y98750*
X344250*
Y103813*
G37*
X134901D02*
G36*
G75*
G03X133562Y108217I-11411J-1063D01*
G01*
X67221*
G75*
G02X64750Y106685I-2971J2033*
G01*
Y107495*
G75*
G03X66176Y108217I-500J2755*
G01*
X62324*
G75*
G03X63750Y107495I1926J2033*
G01*
Y106685*
G75*
G02X61279Y108217I500J3565*
G01*
X7709*
G75*
G02X7250Y108187I-460J3470*
G01*
G75*
G02X6791Y108217I0J3500*
G01*
X250*
Y103813*
X3750*
G75*
G02X7250Y107313I3500*
G01*
G75*
G02X10750Y103813J-3500*
G01*
X134901*
G37*
X344250Y108217D02*
G36*
X136443D01*
G75*
G02X137510Y103813I-12954J-5468*
G01*
X344250*
Y108217*
G37*
X3750Y111687D02*
G36*
X250D01*
Y108217*
X6791*
G75*
G02X3750Y111687I460J3470*
G01*
G37*
X133562Y108217D02*
G36*
G75*
G03X130664Y111687I-10072J-5467D01*
G01*
X67550*
G75*
G02X67815Y110750I-3300J-1438*
G01*
X67005*
G75*
G03X66653Y111687I-2756J-500*
G01*
X61847*
G75*
G03X61495Y110750I2404J-1437*
G01*
X60685*
G75*
G02X60950Y111687I3565J-501*
G01*
X10750*
G75*
G02X7709Y108217I-3500J0*
G01*
X61279*
G75*
G02X60685Y109750I2971J2033*
G01*
X61495*
G75*
G03X62324Y108217I2756J500*
G01*
X66176*
G75*
G03X67005Y109750I-1926J2033*
G01*
X67815*
G75*
G02X67221Y108217I-3565J500*
G01*
X133562*
G37*
X344250Y111687D02*
G36*
X168834D01*
G75*
G02X169550Y110250I-1084J-1437*
G01*
G75*
G02X165950I-1800*
G01*
G75*
G02X166666Y111687I1800*
G01*
X134344*
G75*
G02X136443Y108217I-10855J-8937*
G01*
X344250*
Y111687*
G37*
X130664D02*
G36*
G75*
G03X123490Y114210I-7174J-8937D01*
G01*
X39995*
G75*
G02X36969Y115250I-1245J1300*
G01*
X250*
Y111687*
X3750*
G75*
G02X7250Y115187I3500*
G01*
G75*
G02X10750Y111687J-3500*
G01*
X60950*
G75*
G02X63750Y113815I3300J-1437*
G01*
Y113005*
G75*
G03X61847Y111687I500J-2756*
G01*
X66653*
G75*
G03X64750Y113005I-2404J-1437*
G01*
Y113815*
G75*
G02X67550Y111687I-500J-3565*
G01*
X130664*
G37*
X344250Y115250D02*
G36*
X163050D01*
G75*
G02X159450I-1800*
G01*
X138050*
G75*
G02X134450I-1800*
G01*
X129926*
G75*
G02X134344Y111687I-6437J-12501*
G01*
X166666*
G75*
G02X168834I1084J-1437*
G01*
X344250*
Y115250*
G37*
Y121140D02*
G36*
X229998D01*
G75*
G02X224274I-2862*
G01*
X94801*
G75*
G02X89077I-2862*
G01*
X86507*
G75*
G02X86550Y120750I-1757J-389*
G01*
G75*
G02X82950I-1800*
G01*
G75*
G02X82993Y121140I1800J1*
G01*
X250*
Y115250*
X36969*
G75*
G02X36950Y115510I1782J260*
G01*
G75*
G02X39995Y116810I1800*
G01*
X123490*
G75*
G02X129926Y115250I0J-14060*
G01*
X134450*
G75*
G02X138050I1800*
G01*
X159450*
G75*
G02X163050I1800*
G01*
X344250*
Y121140*
G37*
Y130750D02*
G36*
X58668D01*
G75*
G02X55068I-1800*
G01*
X250*
Y121140*
X82993*
G75*
G02X86507I1757J-390*
G01*
X89077*
G75*
G02X94801I2862*
G01*
X224274*
G75*
G02X229998I2862*
G01*
X344250*
Y130750*
G37*
Y137750D02*
G36*
X131550D01*
G75*
G02X127950I-1800*
G01*
X250*
Y130750*
X55068*
G75*
G02X58668I1800*
G01*
X344250*
Y137750*
G37*
Y142950D02*
G36*
X306250D01*
Y138250*
X299250*
Y142950*
X173250*
X155342*
G75*
G02X156550Y141250I-592J-1700*
G01*
G75*
G02X152950I-1800*
G01*
G75*
G02X154158Y142950I1800*
G01*
X115539*
G75*
G02X115550Y142750I-1789J-199*
G01*
G75*
G02X111950I-1800*
G01*
G75*
G02X111961Y142950I1800J1*
G01*
X91417*
G75*
G02X87117Y138650I-4300*
G01*
G75*
G02X82817Y142950J4300*
G01*
X72417*
G75*
G02X68117Y138650I-4300*
G01*
G75*
G02X63817Y142950J4300*
G01*
X250*
Y137750*
X127950*
G75*
G02X131550I1800*
G01*
X344250*
Y142950*
G37*
X63817D02*
G36*
G75*
G02X64099Y144480I4300J0D01*
G01*
X250*
Y142950*
X63817*
G37*
X82817D02*
G36*
G75*
G02X83099Y144480I4300J0D01*
G01*
X72136*
G75*
G02X72417Y142950I-4019J-1530*
G01*
X82817*
G37*
X111961D02*
G36*
G75*
G02X113253Y144480I1789J-200D01*
G01*
X91136*
G75*
G02X91417Y142950I-4019J-1530*
G01*
X111961*
G37*
X299250Y144480D02*
G36*
X182422D01*
G75*
G02X181250Y143710I-1672J1270*
G01*
Y144480*
X180250*
Y143710*
G75*
G02X179078Y144480I500J2039*
G01*
X175030*
G75*
G02X173250Y142950I-1780J270*
G01*
G75*
G02X171470Y144480J1800*
G01*
X114247*
G75*
G02X115539Y142950I-497J-1730*
G01*
X154158*
G75*
G02X155342I592J-1700*
G01*
X173250*
X299250*
Y144480*
G37*
X344250D02*
G36*
X306250D01*
Y142950*
X344250*
Y144480*
G37*
X64099D02*
G36*
G75*
G02X66729Y147020I4019J-1530D01*
G01*
X250*
Y144480*
X64099*
G37*
X83099D02*
G36*
G75*
G02X85729Y147020I4019J-1530D01*
G01*
X69506*
G75*
G02X72136Y144480I-1388J-4070*
G01*
X83099*
G37*
X344250Y147020D02*
G36*
X182423D01*
G75*
G02X182790Y146250I-1673J-1270*
G01*
X181950*
G75*
G03X181250Y146950I-1199J-499*
G01*
Y147020*
X180250*
Y146950*
G75*
G03X179550Y146250I499J-1199*
G01*
X178710*
G75*
G02X179077Y147020I2040J-500*
G01*
X88506*
G75*
G02X91136Y144480I-1388J-4070*
G01*
X113253*
G75*
G02X114247I497J-1730*
G01*
X171470*
G75*
G02X171450Y144750I1780J271*
G01*
G75*
G02X175050I1800*
G01*
G75*
G02X175030Y144480I-1800J1*
G01*
X179078*
G75*
G02X178710Y145250I1672J1270*
G01*
X179550*
G75*
G03X180250Y144550I1199J499*
G01*
Y144480*
X181250*
Y144550*
G75*
G03X181950Y145250I-499J1199*
G01*
X182790*
G75*
G02X182422Y144480I-2040J500*
G01*
X299250*
Y145250*
X306250*
Y144480*
X344250*
Y147020*
G37*
Y151750D02*
G36*
X306250D01*
Y148250*
X299250*
Y151750*
X237732*
G75*
G02X225250Y149050I-12481J27499*
G01*
X21750*
G75*
G02X13788Y151750J13090*
G01*
X250*
Y147020*
X66729*
G75*
G02X68117Y147250I1388J-4069*
G01*
G75*
G02X69506Y147020J-4300*
G01*
X85729*
G75*
G02X87117Y147250I1388J-4069*
G01*
G75*
G02X88506Y147020J-4300*
G01*
X179077*
G75*
G02X180250Y147790I1673J-1270*
G01*
Y147020*
X181250*
Y147790*
G75*
G02X182423Y147020I-500J-2040*
G01*
X344250*
Y151750*
G37*
X13788D02*
G36*
G75*
G02X9107Y158750I7962J10390D01*
G01*
X250*
Y151750*
X13788*
G37*
X239207Y158750D02*
G36*
X198012D01*
G75*
G02X198050Y158250I-3262J-501*
G01*
G75*
G02X191450I-3300*
G01*
G75*
G02X191488Y158750I3300J-1*
G01*
X180745*
G75*
G02X178755I-995J1500*
G01*
X163550*
G75*
G02X156950I-3300*
G01*
X89130*
G75*
G02X87117Y158250I-2013J3800*
G01*
G75*
G02X85105Y158750J4300*
G01*
X70130*
G75*
G02X68117Y158250I-2013J3800*
G01*
G75*
G02X66105Y158750J4300*
G01*
X14848*
G75*
G03X21750Y154450I6903J3390*
G01*
X225250*
G75*
G03X239207Y158750J24800*
G01*
G37*
X344250D02*
G36*
X306250D01*
Y158250*
X299250*
Y158750*
X247427*
G75*
G02X237732Y151750I-22176J20500*
G01*
X299250*
Y155250*
X306250*
Y151750*
X344250*
Y158750*
G37*
X9107D02*
G36*
G75*
G02X8660Y162140I12644J3389D01*
G01*
Y162250*
X250*
Y158750*
X9107*
G37*
X63828Y162250D02*
G36*
X53050D01*
G75*
G02X49450I-1800*
G01*
X14060*
Y162140*
G75*
G03X14848Y158750I7690*
G01*
X66105*
G75*
G02X63828Y162250I2013J3800*
G01*
G37*
X82828D02*
G36*
X72407D01*
G75*
G02X70130Y158750I-4289J300*
G01*
X85105*
G75*
G02X82828Y162250I2013J3800*
G01*
G37*
X178755Y158750D02*
G36*
G75*
G02X178124Y159478I995J1500D01*
G01*
G75*
G02X172545Y162250I1626J10272*
G01*
X114550*
G75*
G02X110950I-1800*
G01*
X91407*
G75*
G02X89130Y158750I-4289J300*
G01*
X156950*
G75*
G02X163550I3300*
G01*
X178755*
G37*
X243307Y162250D02*
G36*
X175542D01*
G75*
G03X178272Y161278I4209J7501*
G01*
G75*
G02X181550Y160250I1478J-1028*
G01*
G75*
G02X180745Y158750I-1800*
G01*
X191488*
G75*
G02X198012I3262J-500*
G01*
X239207*
G75*
G03X243307Y162250I-13957J20502*
G01*
G37*
X299250D02*
G36*
X250211D01*
G75*
G02X247427Y158750I-24961J17002*
G01*
X299250*
Y162250*
G37*
X344250D02*
G36*
X306250D01*
Y158750*
X344250*
Y162250*
G37*
X8098Y167750D02*
G36*
X250D01*
Y162250*
X8660*
Y166353*
G75*
G02X8098Y167750I2700J1897*
G01*
G37*
X172545Y162250D02*
G36*
G75*
G02X169544Y167750I7205J7500D01*
G01*
X21125*
G75*
G02X18375I-1375J3000*
G01*
X14622*
G75*
G02X14060Y166353I-3261J500*
G01*
Y162250*
X49450*
G75*
G02X53050I1800*
G01*
X63828*
G75*
G02X63817Y162550I4290J302*
G01*
G75*
G02X68117Y166850I4300*
G01*
G75*
G02X72417Y162550J-4300*
G01*
G75*
G02X72407Y162250I-4301J2*
G01*
X82828*
G75*
G02X82817Y162550I4290J302*
G01*
G75*
G02X87117Y166850I4300*
G01*
G75*
G02X91417Y162550J-4300*
G01*
G75*
G02X91407Y162250I-4301J2*
G01*
X110950*
G75*
G02X114550I1800*
G01*
X172545*
G37*
X247222Y167750D02*
G36*
X190550D01*
G75*
G02X186950I-1800*
G01*
X181390*
G75*
G02X180110I-640J2000*
G01*
X171386*
G75*
G03X175542Y162250I8365J2001*
G01*
X243307*
G75*
G03X247222Y167750I-18058J17000*
G01*
G37*
X344250D02*
G36*
X253175D01*
G75*
G02X250211Y162250I-27926J11500*
G01*
X299250*
Y165250*
X306250*
Y162250*
X344250*
Y167750*
G37*
X16605Y171750D02*
G36*
X250D01*
Y167750*
X8098*
G75*
G02X8060Y168250I3262J501*
G01*
G75*
G02X14660I3300*
G01*
G75*
G02X14622Y167750I-3300J1*
G01*
X18375*
G75*
G02X16450Y170750I1375J3000*
G01*
G75*
G02X16605Y171750I3300*
G01*
G37*
X169544Y167750D02*
G36*
G75*
G02X169350Y169750I10207J2000D01*
G01*
Y171750*
X150479*
G75*
G02X150550Y171250I-1729J-500*
G01*
G75*
G02X147191Y170350I-1800*
G01*
X32750*
G75*
G02X29122Y171750I0J5400*
G01*
X22895*
G75*
G02X23050Y170750I-3145J-1000*
G01*
G75*
G02X21125Y167750I-3300*
G01*
X169544*
G37*
X180110Y171750D02*
G36*
X171150D01*
Y169750*
G75*
G03X171386Y167750I8601J0*
G01*
X180110*
G75*
G02X178650Y169750I640J2000*
G01*
G75*
G02X180110Y171750I2100*
G01*
G37*
X248889D02*
G36*
X209750D01*
G75*
G02X202750I-3500*
G01*
X181390*
G75*
G02X182850Y169750I-640J-2000*
G01*
G75*
G02X181390Y167750I-2100*
G01*
X186950*
G75*
G02X190550I1800*
G01*
X247222*
G75*
G03X248889Y171750I-21974J11500*
G01*
G37*
X344250D02*
G36*
X306250D01*
Y168250*
X299250*
Y171750*
X254504*
G75*
G02X253175Y167750I-29255J7497*
G01*
X344250*
Y171750*
G37*
X29122D02*
G36*
G75*
G02X27376Y175217I3628J4000D01*
G01*
X250*
Y171750*
X16605*
G75*
G02X22895I3145J-1000*
G01*
X29122*
G37*
X169350Y175217D02*
G36*
X48469D01*
G75*
G02X45031I-1719J533*
G01*
X29189*
G75*
G03X32750Y172150I3559J532*
G01*
X147191*
G75*
G02X150479Y171750I1559J-900*
G01*
X169350*
Y175217*
G37*
X202750Y171750D02*
G36*
G75*
G02X205773Y175217I3500D01*
G01*
X181697*
G75*
G02X179226Y173685I-2971J2033*
G01*
Y174495*
G75*
G03X180652Y175217I-500J2755*
G01*
X176801*
G75*
G03X178226Y174495I1926J2033*
G01*
Y173685*
G75*
G02X175756Y175217I500J3565*
G01*
X171150*
Y171750*
X180110*
G75*
G02X181390I640J-2000*
G01*
X202750*
G37*
X249720Y175217D02*
G36*
X206727D01*
G75*
G02X209750Y171750I-477J-3467*
G01*
X248889*
G75*
G03X249720Y175217I-23641J7503*
G01*
G37*
X299250D02*
G36*
X255180D01*
G75*
G02X254504Y171750I-29933J4033*
G01*
X299250*
Y175217*
G37*
X344250D02*
G36*
X306250D01*
Y171750*
X344250*
Y175217*
G37*
X27376D02*
G36*
G75*
G02X27350Y175750I5374J533D01*
G01*
Y175750*
Y177431*
X10050*
G75*
G02X6450I-1800*
G01*
X250*
Y175217*
X27376*
G37*
X45031D02*
G36*
G75*
G02X44950Y175750I1719J533D01*
G01*
G75*
G02X46107Y177431I1800*
G01*
X29150*
Y175750*
Y175750*
Y175749*
G75*
G03X29189Y175217I3600J-1*
G01*
X45031*
G37*
X169350Y177431D02*
G36*
X47393D01*
G75*
G02X48550Y175750I-643J-1681*
G01*
G75*
G02X48469Y175217I-1800J0*
G01*
X169350*
Y177431*
G37*
X249983D02*
G36*
X171150D01*
Y175217*
X175756*
G75*
G02X175161Y176750I2971J2033*
G01*
X175971*
G75*
G03X176801Y175217I2756J500*
G01*
X180652*
G75*
G03X181481Y176750I-1926J2033*
G01*
X182291*
G75*
G02X181697Y175217I-3565J500*
G01*
X205773*
G75*
G02X206727I477J-3468*
G01*
X249720*
G75*
G03X249983Y177431I-24472J4030*
G01*
G37*
X344250D02*
G36*
X255395D01*
G75*
G02X255180Y175217I-30151J1821*
G01*
X299250*
Y175250*
X306250*
Y175217*
X344250*
Y177431*
G37*
X27350Y179282D02*
G36*
X250D01*
Y177431*
X6450*
G75*
G02X10050I1800*
G01*
X27350*
Y179282*
G37*
X169350D02*
G36*
X90321D01*
G75*
G02X87117Y177850I-3204J2868*
G01*
G75*
G02X83913Y179282J4300*
G01*
X71321*
G75*
G02X68117Y177850I-3204J2868*
G01*
G75*
G02X64913Y179282J4300*
G01*
X29150*
Y177431*
X46107*
G75*
G02X47393I643J-1681*
G01*
X169350*
Y179282*
G37*
X250050D02*
G36*
X181698D01*
G75*
G02X182291Y177750I-2971J-2032*
G01*
X181481*
G75*
G03X180652Y179282I-2756J-501*
G01*
X176800*
G75*
G03X175971Y177750I1926J-2033*
G01*
X175161*
G75*
G02X175755Y179282I3565J-500*
G01*
X171150*
Y177431*
X249983*
G75*
G03X250050Y179250I-24739J1821*
G01*
Y179282*
G37*
X344250D02*
G36*
X306250D01*
Y178250*
X299250*
Y179282*
X255450*
Y179250*
Y179250*
G75*
G02Y179249I-45115J0*
G01*
G75*
G02X255395Y177431I-30197J0*
G01*
X344250*
Y179282*
G37*
X27350Y182250D02*
G36*
X21745D01*
G75*
G02X19755I-995J1500*
G01*
X250*
Y179282*
X27350*
Y182250*
G37*
X63819D02*
G36*
X36979D01*
G75*
G02X37050Y181750I-1730J-500*
G01*
G75*
G02X33450I-1800*
G01*
G75*
G02X33521Y182250I1800*
G01*
X29150*
Y179282*
X64913*
G75*
G02X63817Y182150I3204J2868*
G01*
G75*
G02X63819Y182250I4302J-1*
G01*
G37*
X82819D02*
G36*
X72416D01*
G75*
G02X72417Y182150I-4301J-101*
G01*
G75*
G02X71321Y179282I-4300J0*
G01*
X83913*
G75*
G02X82817Y182150I3204J2868*
G01*
G75*
G02X82819Y182250I4302J-1*
G01*
G37*
X169350D02*
G36*
X153822D01*
G75*
G02X153678I-72J3298*
G01*
X114050*
G75*
G02X110450I-1800*
G01*
X91416*
G75*
G02X91417Y182150I-4301J-101*
G01*
G75*
G02X90321Y179282I-4300J0*
G01*
X169350*
Y182250*
G37*
X250050D02*
G36*
X171150D01*
Y179282*
X175755*
G75*
G02X178226Y180815I2971J-2032*
G01*
Y180005*
G75*
G03X176800Y179282I500J-2755*
G01*
X180652*
G75*
G03X179226Y180005I-1926J-2032*
G01*
Y180815*
G75*
G02X181698Y179282I-500J-3565*
G01*
X250050*
Y182250*
G37*
X299250D02*
G36*
X255450D01*
Y179282*
X299250*
Y182250*
G37*
X344250D02*
G36*
X306250D01*
Y179282*
X344250*
Y182250*
G37*
X19445Y184990D02*
G36*
X10050D01*
G75*
G02X6450I-1800*
G01*
X250*
Y182250*
X19755*
G75*
G02X18950Y183750I995J1500*
G01*
G75*
G02X19445Y184990I1800*
G01*
G37*
X27350D02*
G36*
X22055D01*
G75*
G02X22550Y183750I-1305J-1240*
G01*
G75*
G02X21745Y182250I-1800*
G01*
X27350*
Y184990*
G37*
X33521Y182250D02*
G36*
G75*
G02X34200Y183212I1730J-500D01*
G01*
Y184990*
X29150*
Y182250*
X33521*
G37*
X63819D02*
G36*
G75*
G02X64889Y184990I4299J-100D01*
G01*
X36300*
Y183212*
G75*
G02X36979Y182250I-1050J-1462*
G01*
X63819*
G37*
X82819D02*
G36*
G75*
G02X83889Y184990I4299J-100D01*
G01*
X71346*
G75*
G02X72416Y182250I-3228J-2841*
G01*
X82819*
G37*
X150498Y184990D02*
G36*
X90346D01*
G75*
G02X91416Y182250I-3228J-2841*
G01*
X110450*
G75*
G02X114050I1800*
G01*
X153678*
G75*
G02X150498Y184990I72J3299*
G01*
G37*
X169350D02*
G36*
X157002D01*
G75*
G02X153822Y182250I-3252J559*
G01*
X169350*
Y184990*
G37*
X250050D02*
G36*
X171150D01*
Y182250*
X250050*
Y184990*
G37*
X299250D02*
G36*
X255450D01*
Y182250*
X299250*
Y184990*
G37*
X344250D02*
G36*
X306250D01*
Y182250*
X344250*
Y184990*
G37*
X27350Y188250D02*
G36*
X6550D01*
G75*
G02X2950I-1800*
G01*
X250*
Y184990*
X6450*
G75*
G02X10050I1800*
G01*
X19445*
G75*
G02X22055I1305J-1240*
G01*
X27350*
Y188250*
G37*
X34200D02*
G36*
X29150D01*
Y184990*
X34200*
Y188250*
G37*
X150498Y184990D02*
G36*
G75*
G02X150450Y185549I3252J559D01*
G01*
G75*
G02X151854Y188250I3300J0*
G01*
X36300*
Y184990*
X64889*
G75*
G02X68117Y186450I3228J-2840*
G01*
G75*
G02X71346Y184990J-4300*
G01*
X83889*
G75*
G02X87117Y186450I3228J-2840*
G01*
G75*
G02X90346Y184990J-4300*
G01*
X150498*
G37*
X169350Y188250D02*
G36*
X155646D01*
G75*
G02X157050Y185549I-1896J-2701*
G01*
G75*
G02X157002Y184990I-3300J0*
G01*
X169350*
Y188250*
G37*
X250050D02*
G36*
X171150D01*
Y184990*
X250050*
Y188250*
G37*
X344250D02*
G36*
X306250D01*
X299250*
X255450*
Y184990*
X299250*
Y185250*
X306250*
Y184990*
X344250*
Y188250*
G37*
X27350Y192250D02*
G36*
X25745D01*
G75*
G02X26550Y190750I-995J-1500*
G01*
G75*
G02X22950I-1800*
G01*
G75*
G02X23755Y192250I1800*
G01*
X250*
Y188250*
X2950*
G75*
G02X6550I1800*
G01*
X27350*
Y192250*
G37*
X34200D02*
G36*
X29150D01*
Y188250*
X34200*
Y192250*
G37*
X169350Y188250D02*
G36*
G75*
G03X168748Y192250I-13600D01*
G01*
X36300*
Y188250*
X151854*
G75*
G02X155646I1896J-2700*
G01*
X169350*
G37*
X250050Y192250D02*
G36*
X182550D01*
G75*
G02X178950I-1800*
G01*
X170622*
G75*
G02X171150Y188250I-14872J-3999*
G01*
Y188250*
X250050*
Y192250*
G37*
X299250D02*
G36*
X255450D01*
Y188250*
X299250*
Y192250*
G37*
X344250D02*
G36*
X306250D01*
Y188250*
X344250*
Y192250*
G37*
X27350Y194750D02*
G36*
X250D01*
Y192250*
X23755*
G75*
G02X25745I995J-1500*
G01*
X27350*
Y194750*
G37*
X34200D02*
G36*
X29150D01*
Y192250*
X34200*
Y194750*
G37*
X168748Y192250D02*
G36*
G75*
G03X167696Y194750I-12999J-4000D01*
G01*
X36300*
Y192250*
X168748*
G37*
X250050Y194750D02*
G36*
X185550D01*
G75*
G02X181950I-1800*
G01*
X169711*
G75*
G02X170622Y192250I-13961J-6501*
G01*
X178950*
G75*
G02X182550I1800*
G01*
X250050*
Y194750*
G37*
X299250D02*
G36*
X255450D01*
Y192250*
X299250*
Y194750*
G37*
X344250D02*
G36*
X306250D01*
Y192250*
X344250*
Y194750*
G37*
X27350Y199250D02*
G36*
X250D01*
Y194750*
X27350*
Y199250*
G37*
X34200D02*
G36*
X29150D01*
Y194750*
X34200*
Y199250*
G37*
X167696Y194750D02*
G36*
G75*
G03X163747Y199250I-11947J-6501D01*
G01*
X90616*
G75*
G02X87117Y197450I-3498J2500*
G01*
G75*
G02X83619Y199250J4300*
G01*
X71616*
G75*
G02X68117Y197450I-3498J2500*
G01*
G75*
G02X64619Y199250J4300*
G01*
X57550*
G75*
G02X53950I-1800*
G01*
X36300*
Y194750*
X167696*
G37*
X250050Y199250D02*
G36*
X190459D01*
G75*
G02X190763Y198250I-1497J-1000*
G01*
G75*
G02X187163I-1800*
G01*
G75*
G02X187466Y199250I1800J0*
G01*
X166528*
G75*
G02X169711Y194750I-10778J-10999*
G01*
X181950*
G75*
G02X185550I1800*
G01*
X250050*
Y199250*
G37*
X344250D02*
G36*
X306250D01*
Y198250*
X299250*
Y199250*
X255450*
Y194750*
X299250*
Y195250*
X306250*
Y194750*
X344250*
Y199250*
G37*
X34200Y207250D02*
G36*
X27050D01*
G75*
G02X23450I-1800*
G01*
X250*
Y199250*
X27350*
Y201191*
G75*
G02X26450Y202750I900J1559*
G01*
G75*
G02X30050I1800*
G01*
G75*
G02X29150Y201191I-1800J0*
G01*
Y199250*
X34200*
Y207250*
G37*
X250050D02*
G36*
X36300D01*
Y199250*
X53950*
G75*
G02X57550I1800*
G01*
X64619*
G75*
G02X63817Y201750I3498J2500*
G01*
G75*
G02X68117Y206050I4300*
G01*
G75*
G02X72417Y201750J-4300*
G01*
G75*
G02X71616Y199250I-4300J0*
G01*
X83619*
G75*
G02X82817Y201750I3498J2500*
G01*
G75*
G02X87117Y206050I4300*
G01*
G75*
G02X91417Y201750J-4300*
G01*
G75*
G02X90616Y199250I-4300J0*
G01*
X163747*
G75*
G03X155750Y201850I-7998J-11001*
G01*
X146309*
G75*
G02X142950Y202750I-1559J900*
G01*
G75*
G02X146309Y203650I1800*
G01*
X155750*
G75*
G02X166528Y199250I0J-15400*
G01*
X187466*
G75*
G02X190459I1497J-1000*
G01*
X250050*
Y207250*
G37*
X344250D02*
G36*
X255450D01*
Y199250*
X299250*
Y205250*
X306250*
Y199250*
X344250*
Y207250*
G37*
X34200Y211750D02*
G36*
X250D01*
Y207250*
X23450*
G75*
G02X27050I1800*
G01*
X34200*
Y211750*
G37*
X250050D02*
G36*
X205392D01*
G75*
G02X201250Y211150I-4143J14002*
G01*
X64861*
G75*
G02X58488Y211750I-3111J1100*
G01*
X36300*
Y207250*
X250050*
Y211750*
G37*
X344250D02*
G36*
X306250D01*
Y208250*
X299250*
Y211750*
X255450*
Y207250*
X344250*
Y211750*
G37*
X34200Y215750D02*
G36*
X250D01*
Y211750*
X34200*
Y215750*
G37*
X208582D02*
G36*
X106245D01*
G75*
G02X104255I-995J1500*
G01*
X96550*
G75*
G02X92950I-1800*
G01*
X36300*
Y211750*
X58488*
G75*
G02X58450Y212250I3262J501*
G01*
G75*
G02X64861Y213350I3300J0*
G01*
X201250*
G75*
G03X208582Y215750J12400*
G01*
G37*
X250050D02*
G36*
X211887D01*
G75*
G02X205392Y211750I-10638J10000*
G01*
X250050*
Y215750*
G37*
X344250D02*
G36*
X255450D01*
Y211750*
X299250*
Y215250*
X306250*
Y211750*
X344250*
Y215750*
G37*
X34200Y221350D02*
G36*
X250D01*
Y215750*
X34200*
Y221350*
G37*
X212843D02*
G36*
X127075D01*
G75*
G02X128050Y219750I-825J-1600*
G01*
G75*
G02X124450I-1800*
G01*
G75*
G02X125425Y221350I1800*
G01*
X91417*
G75*
G02X87117Y217050I-4300*
G01*
G75*
G02X82817Y221350J4300*
G01*
X72417*
G75*
G02X68117Y217050I-4300*
G01*
G75*
G02X63817Y221350J4300*
G01*
X36300*
Y215750*
X92950*
G75*
G02X96550I1800*
G01*
X104255*
G75*
G02X103450Y217250I995J1500*
G01*
G75*
G02X107050I1800*
G01*
G75*
G02X106245Y215750I-1800*
G01*
X208582*
G75*
G03X212843Y221350I-7332J10000*
G01*
G37*
X250050D02*
G36*
X215171D01*
G75*
G02X211887Y215750I-13922J4401*
G01*
X250050*
Y221350*
G37*
X344250D02*
G36*
X255450D01*
Y215750*
X344250*
Y221350*
G37*
X34200Y225738D02*
G36*
X16550D01*
G75*
G02X12950I-1800J12*
G01*
X10976*
G75*
G02X7524I-1726J512*
G01*
X250*
Y221350*
X34200*
Y225738*
G37*
X213650D02*
G36*
X41050D01*
G75*
G02X37450I-1800*
G01*
X36300*
Y221350*
X63817*
G75*
G02X68117Y225650I4300*
G01*
G75*
G02X72417Y221350J-4300*
G01*
X82817*
G75*
G02X87117Y225650I4300*
G01*
G75*
G02X91417Y221350J-4300*
G01*
X125425*
G75*
G02X127075I825J-1600*
G01*
X212843*
G75*
G03X213650Y225738I-11594J4401*
G01*
G37*
X250050D02*
G36*
X215850D01*
G75*
G02X215171Y221350I-14600J12*
G01*
X250050*
Y225738*
G37*
X344250D02*
G36*
X275866D01*
G75*
G02X270634I-2616J2012*
G01*
X255450*
Y221350*
X344250*
Y225738*
G37*
X7524D02*
G36*
G75*
G02X7450Y226250I1726J512D01*
G01*
G75*
G02X8753Y227980I1800*
G01*
X8322*
G75*
G02X7150Y227210I-1672J1270*
G01*
Y227980*
X6150*
Y227210*
G75*
G02X4978Y227980I500J2039*
G01*
X250*
Y225738*
X7524*
G37*
X34200Y227980D02*
G36*
X9747D01*
G75*
G02X11050Y226250I-497J-1730*
G01*
G75*
G02X10976Y225738I-1800J0*
G01*
X12950*
G75*
G02Y225750I1805J6*
G01*
G75*
G02X16550I1800*
G01*
G75*
G02Y225738I-1805J-6*
G01*
X34200*
Y227980*
G37*
X213650D02*
G36*
X36300D01*
Y225738*
X37450*
G75*
G02X41050I1800*
G01*
X213650*
G75*
G03Y225750I-12532J6*
G01*
Y227980*
G37*
X250050D02*
G36*
X215850D01*
Y225750*
G75*
G02Y225738I-14711J-6*
G01*
X250050*
Y227980*
G37*
X269958D02*
G36*
X255450D01*
Y225738*
X270634*
G75*
G02X269950Y227750I2616J2012*
G01*
G75*
G02X269958Y227980I3300J2*
G01*
G37*
X344250D02*
G36*
X276542D01*
G75*
G02X276550Y227750I-3292J-228*
G01*
G75*
G02X275866Y225738I-3300*
G01*
X344250*
Y227980*
G37*
X34200Y230520D02*
G36*
X8323D01*
G75*
G02X8690Y229750I-1673J-1270*
G01*
X7850*
G75*
G03X7150Y230450I-1199J-499*
G01*
Y230520*
X6150*
Y230450*
G75*
G03X5450Y229750I499J-1199*
G01*
X4610*
G75*
G02X4977Y230520I2040J-500*
G01*
X250*
Y227980*
X4978*
G75*
G02X4610Y228750I1672J1270*
G01*
X5450*
G75*
G03X6150Y228050I1199J499*
G01*
Y227980*
X7150*
Y228050*
G75*
G03X7850Y228750I-499J1199*
G01*
X8690*
G75*
G02X8322Y227980I-2040J500*
G01*
X8753*
G75*
G02X9747I497J-1730*
G01*
X34200*
Y230520*
G37*
X213650D02*
G36*
X40535D01*
G75*
G02X36965I-1785J230*
G01*
X36300*
Y227980*
X213650*
Y230520*
G37*
X250050D02*
G36*
X215850D01*
Y227980*
X250050*
Y230520*
G37*
X269958Y227980D02*
G36*
G75*
G02X271456Y230520I3292J-230D01*
G01*
X255450*
Y227980*
X269958*
G37*
X344250Y230520D02*
G36*
X275044D01*
G75*
G02X276542Y227980I-1794J-2770*
G01*
X344250*
Y230520*
G37*
X34200Y233250D02*
G36*
X8050D01*
G75*
G02X4450I-1800*
G01*
X250*
Y230520*
X4977*
G75*
G02X6150Y231290I1673J-1270*
G01*
Y230520*
X7150*
Y231290*
G75*
G02X8323Y230520I-500J-2040*
G01*
X34200*
Y233250*
G37*
X213650D02*
G36*
X186391D01*
G75*
G02X186250Y233210I-641J2002*
G01*
Y233250*
X185250*
Y233210*
G75*
G02X185109Y233250I500J2042*
G01*
X111713*
G75*
G02X109724I-995J1500*
G01*
X36300*
Y230520*
X36965*
G75*
G02X36950Y230750I1785J231*
G01*
G75*
G02X40550I1800*
G01*
G75*
G02X40535Y230520I-1800J1*
G01*
X213650*
Y233250*
G37*
X250050D02*
G36*
X215850D01*
Y230520*
X250050*
Y233250*
G37*
X344250D02*
G36*
X255450D01*
Y230520*
X271456*
G75*
G02X275044I1794J-2770*
G01*
X344250*
Y233250*
G37*
X4450D02*
G36*
G75*
G02X5753Y234980I1800D01*
G01*
X250*
Y233250*
X4450*
G37*
X34200Y234980D02*
G36*
X13877D01*
G75*
G02X10623I-1627J770*
G01*
X8577*
G75*
G02X7923I-327J1770*
G01*
X6747*
G75*
G02X8050Y233250I-497J-1730*
G01*
X34200*
Y234980*
G37*
X108933D02*
G36*
X36300D01*
Y233250*
X109724*
G75*
G02X108919Y234750I995J1500*
G01*
G75*
G02X108933Y234980I1800J1*
G01*
G37*
X213650D02*
G36*
X171922D01*
G75*
G02X170750Y234210I-1672J1270*
G01*
Y234980*
X169750*
Y234210*
G75*
G02X168578Y234980I500J2039*
G01*
X112504*
G75*
G02X112519Y234750I-1785J-229*
G01*
G75*
G02X111713Y233250I-1800*
G01*
X185109*
G75*
G02X183710Y234750I641J2000*
G01*
X184550*
G75*
G03X185250Y234050I1199J499*
G01*
Y233250*
X186250*
Y234050*
G75*
G03X186950Y234750I-499J1199*
G01*
X187790*
G75*
G02X186391Y233250I-2040J500*
G01*
X213650*
Y234980*
G37*
X250050D02*
G36*
X215850D01*
Y233250*
X250050*
Y234980*
G37*
X344250D02*
G36*
X255450D01*
Y233250*
X344250*
Y234980*
G37*
X6465Y236520D02*
G36*
X250D01*
Y234980*
X5753*
G75*
G02X6747I497J-1730*
G01*
X7923*
G75*
G02X6465Y236520I327J1770*
G01*
G37*
X10623D02*
G36*
X10035D01*
G75*
G02X8577Y234980I-1785J230*
G01*
X10623*
G75*
G02X10450Y235750I1627J770*
G01*
G75*
G02X10623Y236520I1800*
G01*
G37*
X34200D02*
G36*
X13877D01*
G75*
G02X14050Y235750I-1628J-770*
G01*
G75*
G02X13877Y234980I-1800J0*
G01*
X34200*
Y236520*
G37*
X108933Y234980D02*
G36*
G75*
G02X110389Y236520I1785J-230D01*
G01*
X36300*
Y234980*
X108933*
G37*
X213650Y236520D02*
G36*
X187423D01*
G75*
G02X187790Y235750I-1673J-1270*
G01*
X186950*
G75*
G03X186250Y236450I-1199J-499*
G01*
Y236520*
X185250*
Y236450*
G75*
G03X184550Y235750I499J-1199*
G01*
X183710*
G75*
G02X184077Y236520I2040J-500*
G01*
X111048*
G75*
G02X112504Y234980I-329J-1770*
G01*
X168578*
G75*
G02X168210Y235750I1672J1270*
G01*
X169050*
G75*
G03X169750Y235050I1199J499*
G01*
Y234980*
X170750*
Y235050*
G75*
G03X171450Y235750I-499J1199*
G01*
X172290*
G75*
G02X171922Y234980I-2040J500*
G01*
X213650*
Y236520*
G37*
X250050D02*
G36*
X215850D01*
Y234980*
X250050*
Y236520*
G37*
X344250D02*
G36*
X255450D01*
Y234980*
X344250*
Y236520*
G37*
X6465D02*
G36*
G75*
G02X6450Y236750I1785J231D01*
G01*
G75*
G02X6623Y237520I1800*
G01*
X250*
Y236520*
X6465*
G37*
X10623D02*
G36*
G75*
G02X11350Y237309I1628J-770D01*
G01*
Y237520*
X9877*
G75*
G02X10050Y236750I-1627J-770*
G01*
G75*
G02X10035Y236520I-1800J1*
G01*
X10623*
G37*
X34200Y237520D02*
G36*
X13150D01*
Y237309*
G75*
G02X13877Y236520I-900J-1559*
G01*
X34200*
Y237520*
G37*
X213650D02*
G36*
X171923D01*
G75*
G02X172290Y236750I-1673J-1270*
G01*
X171450*
G75*
G03X170750Y237450I-1199J-499*
G01*
Y237520*
X169750*
Y237450*
G75*
G03X169050Y236750I499J-1199*
G01*
X168210*
G75*
G02X168577Y237520I2040J-500*
G01*
X89710*
G75*
G02X87117Y236650I-2593J3431*
G01*
G75*
G02X84524Y237520J4300*
G01*
X70710*
G75*
G02X68117Y236650I-2593J3431*
G01*
G75*
G02X65524Y237520J4300*
G01*
X36300*
Y236520*
X110389*
G75*
G02X111048I329J-1771*
G01*
X184077*
G75*
G02X185250Y237290I1673J-1270*
G01*
Y236520*
X186250*
Y237290*
G75*
G02X187423Y236520I-500J-2040*
G01*
X213650*
Y237520*
G37*
X250050D02*
G36*
X215850D01*
Y236520*
X250050*
Y237520*
G37*
X344250D02*
G36*
X255450D01*
Y236520*
X344250*
Y237520*
G37*
X11350Y241250D02*
G36*
X250D01*
Y237520*
X6623*
G75*
G02X9877I1627J-770*
G01*
X11350*
Y241250*
G37*
X34200D02*
G36*
X13150D01*
Y237520*
X34200*
Y241250*
G37*
X63828D02*
G36*
X36300D01*
Y237520*
X65524*
G75*
G02X63817Y240950I2593J3430*
G01*
G75*
G02X63828Y241250I4301J-2*
G01*
G37*
X82828D02*
G36*
X72407D01*
G75*
G02X72417Y240950I-4290J-302*
G01*
G75*
G02X70710Y237520I-4300*
G01*
X84524*
G75*
G02X82817Y240950I2593J3430*
G01*
G75*
G02X82828Y241250I4301J-2*
G01*
G37*
X213650D02*
G36*
X185050D01*
G75*
G02X181450I-1800*
G01*
X156745*
G75*
G02X154755I-995J1500*
G01*
X124050*
G75*
G02X120450I-1800*
G01*
X91407*
G75*
G02X91417Y240950I-4290J-302*
G01*
G75*
G02X89710Y237520I-4300*
G01*
X168577*
G75*
G02X169750Y238290I1673J-1270*
G01*
Y237520*
X170750*
Y238290*
G75*
G02X171923Y237520I-500J-2040*
G01*
X213650*
Y241250*
G37*
X250050D02*
G36*
X215850D01*
Y237520*
X250050*
Y241250*
G37*
X344250D02*
G36*
X255450D01*
Y237520*
X344250*
Y241250*
G37*
X11350Y245250D02*
G36*
X250D01*
Y241250*
X11350*
Y245250*
G37*
X34200D02*
G36*
X13150D01*
Y241250*
X34200*
Y245250*
G37*
X213650D02*
G36*
X149745D01*
G75*
G02X150550Y243750I-995J-1500*
G01*
G75*
G02X146950I-1800*
G01*
G75*
G02X147755Y245250I1800*
G01*
X144015*
G75*
G02X140415I-1800*
G01*
X87117*
X68117*
X36300*
Y241250*
X63828*
G75*
G02X68117Y245250I4289J-300*
G01*
G75*
G02X72407Y241250J-4300*
G01*
X82828*
G75*
G02X87117Y245250I4289J-300*
G01*
G75*
G02X91407Y241250J-4300*
G01*
X120450*
G75*
G02X124050I1800*
G01*
X154755*
G75*
G02X153950Y242750I995J1500*
G01*
G75*
G02X157550I1800*
G01*
G75*
G02X156745Y241250I-1800*
G01*
X181450*
G75*
G02X185050I1800*
G01*
X213650*
Y245250*
G37*
X250050D02*
G36*
X215850D01*
Y241250*
X250050*
Y245250*
G37*
X344250D02*
G36*
X255450D01*
Y241250*
X344250*
Y245250*
G37*
X11350Y248750D02*
G36*
X250D01*
Y245250*
X11350*
Y248750*
G37*
X34200D02*
G36*
X13150D01*
Y245250*
X34200*
Y248750*
G37*
X69459D02*
G36*
X43745D01*
G75*
G02X44175Y248350I-995J-1500*
G01*
X65750*
G75*
G03X69459Y248750I0J17401*
G01*
G37*
X213650D02*
G36*
X178745D01*
G75*
G02X179550Y247250I-995J-1500*
G01*
G75*
G02X175950I-1800*
G01*
G75*
G02X176755Y248750I1800*
G01*
X160979*
G75*
G02X157521I-1729J500*
G01*
X153222*
G75*
G02X153463Y247850I-1559J-900*
G01*
G75*
G02X149863I-1800*
G01*
G75*
G02X150105Y248750I1800J0*
G01*
X147093*
G75*
G02X143635I-1729J500*
G01*
X140865*
G75*
G02X137265I-1800*
G01*
X75506*
G75*
G02X65750Y246150I-9755J17000*
G01*
X44175*
G75*
G02X40950Y247250I-1425J1100*
G01*
G75*
G02X41755Y248750I1800*
G01*
X36300*
Y245250*
X68117*
X87117*
X140415*
G75*
G02X144015I1800*
G01*
X147755*
G75*
G02X149745I995J-1500*
G01*
X213650*
Y248750*
G37*
X250050D02*
G36*
X215850D01*
Y245250*
X250050*
Y248750*
G37*
X344250D02*
G36*
X255450D01*
Y245250*
X344250*
Y248750*
G37*
X11350Y255000D02*
G36*
X250D01*
Y248750*
X11350*
Y255000*
G37*
X34630D02*
G36*
X13150D01*
Y248750*
X34200*
Y251250*
Y251250*
G75*
G02Y251251I22557J0*
G01*
G75*
G02X34630Y255000I16549J0*
G01*
G37*
X79432D02*
G36*
X36795D01*
G75*
G03X36300Y251250I13956J-3749*
G01*
Y248750*
X41755*
G75*
G02X43745I995J-1500*
G01*
X69459*
G75*
G03X79432Y255000I-3709J17001*
G01*
G37*
X213650D02*
G36*
X82139D01*
G75*
G02X75506Y248750I-16389J10750*
G01*
X137265*
G75*
G02X140865I1800*
G01*
X143635*
G75*
G02X143564Y249250I1729J500*
G01*
G75*
G02X147164I1800*
G01*
G75*
G02X147093Y248750I-1800*
G01*
X150105*
G75*
G02X153222I1559J-900*
G01*
X157521*
G75*
G02X157450Y249250I1729J500*
G01*
G75*
G02X161050I1800*
G01*
G75*
G02X160979Y248750I-1800*
G01*
X176755*
G75*
G02X178745I995J-1500*
G01*
X213650*
Y255000*
G37*
X250050D02*
G36*
X215850D01*
Y248750*
X250050*
Y255000*
G37*
X344250D02*
G36*
X255450D01*
Y248750*
X344250*
Y255000*
G37*
X12898Y265750D02*
G36*
X250D01*
Y255000*
X11350*
Y259750*
G75*
G02X12898Y265750I12400J0*
G01*
G37*
X42771D02*
G36*
X15012D01*
G75*
G03X13150Y259750I8739J-6000*
G01*
Y255000*
X34630*
G75*
G02X42771Y265750I16119J-3749*
G01*
G37*
X82450D02*
G36*
X64746D01*
G75*
G02X61788Y265700I-1497J1000*
G01*
X50750*
G75*
G03X36795Y255000J-14450*
G01*
X79432*
G75*
G03X83095Y264369I-13683J10751*
G01*
G75*
G02X82450Y265750I1154J1380*
G01*
Y265750*
G37*
X213650D02*
G36*
X200707D01*
G75*
G02X197107I-1800*
G01*
X86050*
Y265750*
G75*
G02X85295Y264285I-1799*
G01*
G75*
G02X82139Y255000I-19544J1465*
G01*
X213650*
Y265750*
G37*
X250050D02*
G36*
X215850D01*
Y255000*
X250050*
Y265750*
G37*
X344250D02*
G36*
X255450D01*
Y255000*
X344250*
Y265750*
G37*
X14722Y268250D02*
G36*
X250D01*
Y265750*
X12898*
G75*
G02X14722Y268250I10852J-5999*
G01*
G37*
X42771Y265750D02*
G36*
G75*
G02X50750Y267800I7978J-14499D01*
G01*
X61788*
G75*
G02X62255Y268250I1462J-1050*
G01*
X17417*
G75*
G03X15012Y265750I6333J-8500*
G01*
X42771*
G37*
X213650Y268250D02*
G36*
X193747D01*
G75*
G02X190753I-1497J1000*
G01*
X157050*
G75*
G02X153450I-1800*
G01*
X64245*
G75*
G02X65050Y266750I-995J-1500*
G01*
G75*
G02X64746Y265750I-1800J0*
G01*
X82450*
G75*
G02X86050I1800*
G01*
X197107*
G75*
G02X200707I1800*
G01*
X213650*
Y268250*
G37*
X250050D02*
G36*
X215850D01*
Y265750*
X250050*
Y268250*
G37*
X344250D02*
G36*
X255450D01*
Y265750*
X344250*
Y268250*
G37*
X181521Y274750D02*
G36*
X157050D01*
G75*
G02X153450I-1800*
G01*
X30716*
G75*
G02X30250Y274730I-466J5499*
G01*
G75*
G02X29784Y274750I0J5519*
G01*
X10716*
G75*
G02X10250Y274730I-466J5499*
G01*
G75*
G02X9784Y274750I0J5519*
G01*
X250*
Y268250*
X14722*
G75*
G02X23750Y272150I9028J-8500*
G01*
X180250*
G75*
G03X181945Y273010I0J2100*
G01*
G75*
G02X181450Y274250I1304J1240*
G01*
G75*
G02X181521Y274750I1800*
G01*
G37*
X213650D02*
G36*
X184979D01*
G75*
G02X185050Y274250I-1729J-500*
G01*
Y274250*
G75*
G02X183745Y272519I-1800*
G01*
G75*
G02X180250Y270350I-3494J1730*
G01*
X23750*
G75*
G03X17417Y268250I0J-10600*
G01*
X62255*
G75*
G02X64245I995J-1500*
G01*
X153450*
G75*
G02X157050I1800*
G01*
X190753*
G75*
G02X190450Y269250I1497J1000*
G01*
G75*
G02X194050I1800*
G01*
G75*
G02X193747Y268250I-1800J0*
G01*
X213650*
Y274750*
G37*
X250050D02*
G36*
X215850D01*
Y268250*
X250050*
Y274750*
G37*
X344250D02*
G36*
X255450D01*
Y268250*
X344250*
Y274750*
G37*
X5638Y277217D02*
G36*
X250D01*
Y274750*
X9784*
G75*
G02X5638Y277217I466J5500*
G01*
G37*
X25638D02*
G36*
X14862D01*
G75*
G02X10716Y274750I-4612J3032*
G01*
X29784*
G75*
G02X25638Y277217I466J5500*
G01*
G37*
X213650D02*
G36*
X94434D01*
G75*
G02X89444I-2495J1403*
G01*
X66221*
G75*
G02X63750Y275685I-2971J2033*
G01*
Y276495*
G75*
G03X65176Y277217I-500J2755*
G01*
X61324*
G75*
G03X62750Y276495I1926J2033*
G01*
Y275685*
G75*
G02X60279Y277217I500J3565*
G01*
X34862*
G75*
G02X30716Y274750I-4612J3032*
G01*
X153450*
G75*
G02X157050I1800*
G01*
X181521*
G75*
G02X184979I1729J-500*
G01*
X213650*
Y277217*
G37*
X250050D02*
G36*
X229631D01*
G75*
G02X224641I-2495J1403*
G01*
X215850*
Y274750*
X250050*
Y277217*
G37*
X344250D02*
G36*
X255450D01*
Y274750*
X344250*
Y277217*
G37*
X4730Y280250D02*
G36*
X250D01*
Y277217*
X5638*
G75*
G02X4730Y280250I4612J3032*
G01*
Y280250*
G37*
X24730D02*
G36*
X15770D01*
Y280250*
G75*
G02X14862Y277217I-5519*
G01*
X25638*
G75*
G02X24730Y280250I4612J3032*
G01*
Y280250*
G37*
X89444Y277217D02*
G36*
G75*
G02X89077Y278620I2495J1403D01*
G01*
G75*
G02X89586Y280250I2862*
G01*
X66708*
G75*
G02X66815Y279750I-3458J-999*
G01*
X66005*
G75*
G03X65865Y280250I-2756J-501*
G01*
X60635*
G75*
G03X60495Y279750I2616J-1001*
G01*
X59685*
G75*
G02X59792Y280250I3565J-499*
G01*
X35770*
Y280250*
G75*
G02X34862Y277217I-5519*
G01*
X60279*
G75*
G02X59685Y278750I2971J2033*
G01*
X60495*
G75*
G03X61324Y277217I2756J500*
G01*
X65176*
G75*
G03X66005Y278750I-1926J2033*
G01*
X66815*
G75*
G02X66221Y277217I-3565J500*
G01*
X89444*
G37*
X213650Y280250D02*
G36*
X94292D01*
G75*
G02X94801Y278620I-2353J-1630*
G01*
G75*
G02X94434Y277217I-2862*
G01*
X213650*
Y280250*
G37*
X224641Y277217D02*
G36*
G75*
G02X224274Y278620I2495J1403D01*
G01*
G75*
G02X224783Y280250I2862*
G01*
X215850*
Y277217*
X224641*
G37*
X250050Y280250D02*
G36*
X229489D01*
G75*
G02X229998Y278620I-2353J-1630*
G01*
G75*
G02X229631Y277217I-2862*
G01*
X250050*
Y280250*
G37*
X344250D02*
G36*
X255450D01*
Y277217*
X344250*
Y280250*
G37*
X213650Y290250D02*
G36*
X56150D01*
Y284809*
G75*
G02X57050Y283250I-900J-1559*
G01*
G75*
G02X53450I-1800*
G01*
G75*
G02X54350Y284809I1800J0*
G01*
Y290250*
X25278*
Y290250*
G75*
G02X20250Y285222I-5028*
G01*
G75*
G02X15222Y290250J5027*
G01*
Y290250*
X250*
Y280250*
X4730*
Y280250*
G75*
G02X10250Y285770I5520*
G01*
G75*
G02X15770Y280250J-5519*
G01*
Y280250*
X24730*
Y280250*
G75*
G02X30250Y285770I5520*
G01*
G75*
G02X35770Y280250J-5519*
G01*
Y280250*
X59792*
G75*
G02X62750Y282815I3458J-1000*
G01*
Y282005*
G75*
G03X60635Y280250I500J-2756*
G01*
X65865*
G75*
G03X63750Y282005I-2616J-1000*
G01*
Y282815*
G75*
G02X66708Y280250I-500J-3565*
G01*
X89586*
G75*
G02X94292I2353J-1630*
G01*
X213650*
Y290250*
G37*
X250050D02*
G36*
X215850D01*
Y280250*
X224783*
G75*
G02X229489I2353J-1630*
G01*
X250050*
Y290250*
G37*
X344250D02*
G36*
X255450D01*
Y280250*
X344250*
Y290250*
G37*
X54350Y298250D02*
G36*
X35395D01*
G75*
G02X30250Y294730I-5144J2000*
G01*
G75*
G02X25105Y298250I0J5519*
G01*
X15395*
G75*
G02X10250Y294730I-5144J2000*
G01*
G75*
G02X5105Y298250I0J5519*
G01*
X250*
Y290250*
X15222*
Y290250*
G75*
G02X20250Y295278I5028*
G01*
G75*
G02X25278Y290250J-5027*
G01*
Y290250*
X54350*
Y298250*
G37*
X211488D02*
G36*
X198979D01*
G75*
G02X195521I-1729J500*
G01*
X177050*
G75*
G02X173450I-1800*
G01*
X56150*
Y290250*
X213650*
Y295639*
G75*
G02X211488Y298250I1100J3111*
G01*
G37*
X250050D02*
G36*
X218012D01*
G75*
G02X215850Y295639I-3261J500*
G01*
Y290250*
X250050*
Y298250*
G37*
X344250D02*
G36*
X255450D01*
Y290250*
X344250*
Y298250*
G37*
X4730Y300250D02*
G36*
X250D01*
Y298250*
X5105*
G75*
G02X4730Y300250I5145J1999*
G01*
Y300250*
G37*
X24730D02*
G36*
X15770D01*
Y300250*
G75*
G02X15395Y298250I-5520J0*
G01*
X25105*
G75*
G02X24730Y300250I5145J1999*
G01*
Y300250*
G37*
X54350D02*
G36*
X35770D01*
Y300250*
G75*
G02X35395Y298250I-5520J0*
G01*
X54350*
Y300250*
G37*
X195521Y298250D02*
G36*
G75*
G02X195450Y298750I1729J500D01*
G01*
G75*
G02X196255Y300250I1800*
G01*
X56150*
Y298250*
X173450*
G75*
G02X177050I1800*
G01*
X195521*
G37*
X211488D02*
G36*
G75*
G02X211450Y298750I3262J501D01*
G01*
Y298750*
G75*
G02X211811Y300250I3300*
G01*
X198245*
G75*
G02X199050Y298750I-995J-1500*
G01*
G75*
G02X198979Y298250I-1800*
G01*
X211488*
G37*
X250050Y300250D02*
G36*
X217689D01*
G75*
G02X218050Y298750I-2939J-1500*
G01*
Y298750*
G75*
G02X218012Y298250I-3300J1*
G01*
X250050*
Y300250*
G37*
X344250D02*
G36*
X255450D01*
Y298250*
X344250*
Y300250*
G37*
X249250Y315217D02*
G36*
X250D01*
Y300250*
X4730*
Y300250*
G75*
G02X10250Y305770I5520*
G01*
G75*
G02X15770Y300250J-5519*
G01*
Y300250*
X24730*
Y300250*
G75*
G02X30250Y305770I5520*
G01*
G75*
G02X35770Y300250J-5519*
G01*
Y300250*
X54350*
Y310191*
G75*
G02X53450Y311750I900J1559*
G01*
G75*
G02X57050I1800*
G01*
G75*
G02X56150Y310191I-1800J0*
G01*
Y300250*
X196255*
G75*
G02X198245I995J-1500*
G01*
X211811*
G75*
G02X217689I2939J-1500*
G01*
X250050*
Y314750*
X249250*
Y315217*
G37*
X344250D02*
G36*
X286221D01*
G75*
G02X283750Y313685I-2971J2033*
G01*
Y314495*
G75*
G03X285176Y315217I-500J2755*
G01*
X281324*
G75*
G03X282750Y314495I1926J2033*
G01*
Y313685*
G75*
G02X280279Y315217I500J3565*
G01*
X256250*
Y314750*
X255450*
Y300250*
X344250*
Y315217*
G37*
X249250Y317600D02*
G36*
X191250D01*
Y316250*
X184250*
Y317600*
X181250*
Y316250*
X174250*
Y317600*
X171250*
Y316250*
X164250*
Y317600*
X161250*
Y316250*
X154250*
Y317600*
X136050*
Y315950*
X132750*
Y316750*
X135250*
Y317600*
X129250*
Y316750*
X131750*
Y315950*
X128450*
Y317600*
X126050*
Y315950*
X122750*
Y316750*
X125250*
Y317600*
X119250*
Y316750*
X121750*
Y315950*
X118450*
Y317600*
X116050*
Y315950*
X112750*
Y316750*
X115250*
Y317600*
X109250*
Y316750*
X111750*
Y315950*
X108450*
Y317600*
X250*
Y315217*
X249250*
Y317600*
G37*
X344250D02*
G36*
X256250D01*
Y315217*
X280279*
G75*
G02X279685Y316750I2971J2033*
G01*
X280495*
G75*
G03X281324Y315217I2756J500*
G01*
X285176*
G75*
G03X286005Y316750I-1926J2033*
G01*
X286815*
G75*
G02X286221Y315217I-3565J500*
G01*
X344250*
Y317600*
G37*
X154250Y319282D02*
G36*
X250D01*
Y317600*
X108450*
Y319250*
X109250*
Y317600*
X115250*
Y319250*
X116050*
Y317600*
X118450*
Y319250*
X119250*
Y317600*
X125250*
Y319250*
X126050*
Y317600*
X128450*
Y319250*
X129250*
Y317600*
X135250*
Y319250*
X136050*
Y317600*
X154250*
Y319282*
G37*
X164250D02*
G36*
X161250D01*
Y317600*
X164250*
Y319282*
G37*
X174250D02*
G36*
X171250D01*
Y317600*
X174250*
Y319282*
G37*
X184250D02*
G36*
X181250D01*
Y317600*
X184250*
Y319282*
G37*
X249250D02*
G36*
X191250D01*
Y317600*
X249250*
Y319282*
G37*
X344250D02*
G36*
X286221D01*
G75*
G02X286815Y317750I-2971J-2032*
G01*
X286005*
G75*
G03X285176Y319282I-2756J-501*
G01*
X281324*
G75*
G03X280495Y317750I1926J-2033*
G01*
X279685*
G75*
G02X280279Y319282I3565J-500*
G01*
X256250*
Y317600*
X344250*
Y319282*
G37*
X154250Y322367D02*
G36*
X136050D01*
Y320250*
X135250*
Y322367*
X129250*
Y320250*
X128450*
Y322367*
X126050*
Y320250*
X125250*
Y322367*
X119250*
Y320250*
X118450*
Y322367*
X116050*
Y320250*
X115250*
Y322367*
X109250*
Y320250*
X108450*
Y322367*
X59721*
G75*
G02X57250Y320835I-2971J2033*
G01*
Y321645*
G75*
G03X58676Y322367I-500J2755*
G01*
X54824*
G75*
G03X56250Y321645I1926J2033*
G01*
Y320835*
G75*
G02X53779Y322367I500J3565*
G01*
X250*
Y319282*
X154250*
Y322367*
G37*
X164250D02*
G36*
X161250D01*
Y319282*
X164250*
Y322367*
G37*
X174250D02*
G36*
X171250D01*
Y319282*
X174250*
Y322367*
G37*
X184250D02*
G36*
X181250D01*
Y319282*
X184250*
Y322367*
G37*
X344250D02*
G36*
X191250D01*
Y319282*
X249250*
Y321750*
X256250*
Y319282*
X280279*
G75*
G02X282750Y320815I2971J-2032*
G01*
Y320005*
G75*
G03X281324Y319282I500J-2755*
G01*
X285176*
G75*
G03X283750Y320005I-1926J-2032*
G01*
Y320815*
G75*
G02X286221Y319282I-500J-3565*
G01*
X344250*
Y322367*
G37*
Y326432D02*
G36*
X59721D01*
G75*
G02X60315Y324900I-2971J-2032*
G01*
X59505*
G75*
G03X58676Y326432I-2756J-501*
G01*
X54824*
G75*
G03X53995Y324900I1926J-2033*
G01*
X53185*
G75*
G02X53779Y326432I3565J-500*
G01*
X250*
Y322367*
X53779*
G75*
G02X53185Y323900I2971J2033*
G01*
X53995*
G75*
G03X54824Y322367I2756J500*
G01*
X58676*
G75*
G03X59505Y323900I-1926J2033*
G01*
X60315*
G75*
G02X59721Y322367I-3565J500*
G01*
X108450*
Y323550*
X111750*
Y322750*
X109250*
Y322367*
X115250*
Y322750*
X112750*
Y323550*
X116050*
Y322367*
X118450*
Y323550*
X121750*
Y322750*
X119250*
Y322367*
X125250*
Y322750*
X122750*
Y323550*
X126050*
Y322367*
X128450*
Y323550*
X131750*
Y322750*
X129250*
Y322367*
X135250*
Y322750*
X132750*
Y323550*
X136050*
Y322367*
X154250*
Y323250*
X161250*
Y322367*
X164250*
Y323250*
X171250*
Y322367*
X174250*
Y323250*
X181250*
Y322367*
X184250*
Y323250*
X191250*
Y322367*
X344250*
Y326432*
G37*
Y335250D02*
G36*
X35770D01*
Y335250*
G75*
G02X30250Y329730I-5520*
G01*
G75*
G02X24730Y335250J5519*
G01*
Y335250*
X15770*
Y335250*
G75*
G02X10250Y329730I-5520*
G01*
G75*
G02X4730Y335250J5519*
G01*
Y335250*
X250*
Y326432*
X53779*
G75*
G02X56250Y327965I2971J-2032*
G01*
Y327155*
G75*
G03X54824Y326432I500J-2755*
G01*
X58676*
G75*
G03X57250Y327155I-1926J-2032*
G01*
Y327965*
G75*
G02X59721Y326432I-500J-3565*
G01*
X344250*
Y335250*
G37*
X4730D02*
G36*
Y335250D01*
G75*
G02X5329Y337750I5519*
G01*
X250*
Y335250*
X4730*
G37*
X24730D02*
G36*
Y335250D01*
G75*
G02X25329Y337750I5519*
G01*
X15171*
G75*
G02X15770Y335250I-4921J-2500*
G01*
Y335250*
X24730*
G37*
X344250Y337750D02*
G36*
X111050D01*
G75*
G02X107450I-1800*
G01*
X35171*
G75*
G02X35770Y335250I-4921J-2500*
G01*
Y335250*
X344250*
Y337750*
G37*
X5329D02*
G36*
G75*
G02X9784Y340750I4921J-2500D01*
G01*
X250*
Y337750*
X5329*
G37*
X25329D02*
G36*
G75*
G02X29784Y340750I4921J-2500D01*
G01*
X22492*
G75*
G02X20250Y340222I-2242J4500*
G01*
G75*
G02X18008Y340750I0J5027*
G01*
X10716*
G75*
G02X15171Y337750I-466J-5500*
G01*
X25329*
G37*
X344250Y340750D02*
G36*
X115550D01*
G75*
G02X111950I-1800*
G01*
X30716*
G75*
G02X35171Y337750I-466J-5500*
G01*
X107450*
G75*
G02X111050I1800*
G01*
X344250*
Y340750*
G37*
X15222Y345250D02*
G36*
X250D01*
Y340750*
X9784*
G75*
G02X10250Y340770I466J-5499*
G01*
G75*
G02X10716Y340750I0J-5519*
G01*
X18008*
G75*
G02X15222Y345250I2242J4500*
G01*
Y345250*
G37*
X344250D02*
G36*
X25278D01*
Y345250*
G75*
G02X22492Y340750I-5027*
G01*
X29784*
G75*
G02X30250Y340770I466J-5499*
G01*
G75*
G02X30716Y340750I0J-5519*
G01*
X111950*
G75*
G02X115550I1800*
G01*
X344250*
Y345250*
G37*
Y355250D02*
G36*
X153750D01*
Y348750*
X146750*
Y355250*
X143750*
Y348750*
X136750*
Y355250*
X133750*
Y348750*
X126750*
Y355250*
X35770*
Y355250*
G75*
G02X30250Y349730I-5520*
G01*
G75*
G02X24730Y355250J5519*
G01*
Y355250*
X15770*
Y355250*
G75*
G02X10250Y349730I-5520*
G01*
G75*
G02X4730Y355250J5519*
G01*
Y355250*
X250*
Y345250*
X15222*
Y345250*
G75*
G02X20250Y350278I5028*
G01*
G75*
G02X25278Y345250J-5027*
G01*
Y345250*
X344250*
Y355250*
G37*
Y362250D02*
G36*
X337874D01*
G75*
G02X322626I-7624J7000*
G01*
X153750*
Y358750*
X146750*
Y362250*
X143750*
Y358750*
X136750*
Y362250*
X133750*
Y358750*
X126750*
Y362250*
X67874*
G75*
G02X52626I-7624J7000*
G01*
X250*
Y355250*
X4730*
Y355250*
G75*
G02X10250Y360770I5520*
G01*
G75*
G02X15770Y355250J-5519*
G01*
Y355250*
X24730*
Y355250*
G75*
G02X30250Y360770I5520*
G01*
G75*
G02X35770Y355250J-5519*
G01*
Y355250*
X126750*
Y355750*
X133750*
Y355250*
X136750*
Y355750*
X143750*
Y355250*
X146750*
Y355750*
X153750*
Y355250*
X344250*
Y362250*
G37*
X49900Y369250D02*
G36*
X250D01*
Y362250*
X52626*
G75*
G02X49900Y369250I7624J7000*
G01*
G37*
X319900D02*
G36*
X70600D01*
G75*
G02X67874Y362250I-10350J0*
G01*
X126750*
Y365750*
X133750*
Y362250*
X136750*
Y365750*
X143750*
Y362250*
X146750*
Y365750*
X153750*
Y362250*
X322626*
G75*
G02X319900Y369250I7624J7000*
G01*
G37*
X344250D02*
G36*
X340600D01*
G75*
G02X337874Y362250I-10350J0*
G01*
X344250*
Y369250*
G37*
G36*
Y383250*
X250*
Y369250*
X49900*
G75*
G02X70600I10350*
G01*
X319900*
G75*
G02X340600I10350*
G01*
X344250*
G37*
D02*
D12*
X180750Y169750D03*
D02*
D21*
X42750Y247250D02*
X65750D01*
G75*
G03X84250Y265750J18500*
G01*
X214750Y298750D02*
Y225750D01*
G75*
G02X201250Y212250I-13500*
G01*
X60250*
D02*
D22*
X4750Y188250D03*
X6250Y233250D03*
X6650Y229250D03*
X8250Y177431D03*
Y184990D03*
Y236750D03*
X9250Y226250D03*
X12250Y235750D03*
X14750Y225750D03*
X20750Y183750D03*
X24750Y190750D03*
X25250Y207250D03*
X27250Y80250D03*
X28250Y202750D03*
X35250Y181750D03*
X38750Y115510D03*
Y230750D03*
X39250Y225738D03*
X40250Y68250D03*
X42750Y247250D03*
X46750Y175750D03*
X51250Y162250D03*
X55250Y283250D03*
Y311750D03*
X55750Y199250D03*
X56868Y130750D03*
X63250Y266750D03*
X67250Y75250D03*
X71250Y90250D03*
X84250Y265750D03*
X84750Y120750D03*
X94750Y215750D03*
X105250Y217250D03*
X109250Y337750D03*
X110719Y234750D03*
X112250Y182250D03*
X112750Y162250D03*
X113750Y142750D03*
Y340750D03*
X122250Y241250D03*
X126250Y219750D03*
X129750Y137750D03*
X136250Y115250D03*
X139065Y248750D03*
X142215Y245250D03*
X144750Y202750D03*
X145364Y249250D03*
X148750Y171250D03*
Y243750D03*
X151663Y247850D03*
X154750Y141250D03*
X155250Y268250D03*
Y274750D03*
X155750Y242750D03*
X159250Y249250D03*
X161250Y115250D03*
X167750Y110250D03*
X170250Y236250D03*
X173250Y144750D03*
X175250Y298250D03*
X177750Y247250D03*
X179750Y160250D03*
X180750Y145750D03*
Y192250D03*
X183250Y241250D03*
Y274250D03*
X183750Y194750D03*
X185750Y235250D03*
X188750Y167750D03*
X188963Y198250D03*
X192250Y269250D03*
X197250Y298750D03*
X198907Y265750D03*
D02*
D107*
X11360Y168250D03*
X19750Y170750D03*
X56750Y324400D03*
X61750Y212250D03*
X63250Y279250D03*
X64250Y110250D03*
X65250Y69250D03*
X153750Y185549D03*
X160250Y158750D03*
X178726Y177250D03*
X194750Y158250D03*
X214750Y298750D03*
X273250Y227750D03*
X283250Y317250D03*
D02*
D108*
X38750Y115510D02*
X123490D01*
G75*
G02X136250Y102750J-12760*
G01*
Y66750*
G75*
G03X136750Y66250I500*
G01*
X60250Y212250D02*
G75*
G03X61750I750J750D01*
G01*
D02*
D117*
X28250Y202750D02*
Y175750D01*
G75*
G03X32750Y171250I4500*
G01*
X148750*
X55250Y311750D02*
Y283250D01*
X144750Y202750D02*
X155750D01*
G75*
G02X170250Y188250J-14500*
G01*
Y169750*
G75*
G03X179750Y160250I9500*
G01*
X183250Y274250D02*
G75*
G02X180250Y271250I-3000D01*
G01*
X23750*
G75*
G03X12250Y259750J-11500*
G01*
Y235750*
D02*
D118*
X60250Y14750D03*
Y369250D03*
X330250Y14750D03*
Y369250D03*
D02*
D119*
X7250Y23813D03*
Y31687D03*
Y63813D03*
Y71687D03*
Y103813D03*
Y111687D03*
X33750Y57250D03*
X34750Y98750D03*
X206250Y171750D03*
D02*
D121*
X91939Y121140D03*
Y278620D03*
X227136Y121140D03*
Y278620D03*
D02*
D123*
X20250Y290250D03*
Y345250D03*
D02*
D124*
X10250Y280250D03*
Y300250D03*
Y335250D03*
Y355250D03*
X30250Y280250D03*
Y300250D03*
Y335250D03*
Y355250D03*
D02*
D126*
X68117Y142950D03*
Y162550D03*
Y182150D03*
Y201750D03*
Y221350D03*
Y240950D03*
X87117Y142950D03*
Y162550D03*
Y182150D03*
Y201750D03*
Y221350D03*
Y240950D03*
D02*
D130*
X112250Y319750D03*
X122250D03*
X130250Y352250D03*
Y362250D03*
X132250Y319750D03*
X136750Y56250D03*
Y66250D03*
X140250Y352250D03*
Y362250D03*
X150250Y352250D03*
Y362250D03*
X157750Y319750D03*
X167750D03*
X175250Y56250D03*
Y66250D03*
X177750Y319750D03*
X187750D03*
X252750Y318250D03*
X302750Y141750D03*
Y151750D03*
Y161750D03*
Y171750D03*
Y181750D03*
Y191750D03*
Y201750D03*
Y211750D03*
D02*
D132*
X35250Y181750D02*
Y251250D01*
G75*
G02X50750Y266750I15500*
G01*
X63250*
D02*
D133*
X11360Y168250D02*
Y162140D01*
G75*
G03X21750Y151750I10390*
G01*
X225250*
G75*
G03X252750Y179250J27500*
G01*
Y318250*
X0Y0D02*
M02*
