G04 EasyPC Gerber Version 21.0.3 Build 4286 *
G04 #@! TF.Part,Single*
G04 #@! TF.FileFunction,Legend,Top *
G04 #@! TF.FilePolarity,Positive *
%FSLAX35Y35*%
%MOIN*%
%ADD29C,0.00100*%
%ADD74C,0.00300*%
%ADD17C,0.00500*%
%ADD13C,0.00600*%
%ADD73C,0.00787*%
%ADD117C,0.00800*%
%ADD18C,0.01000*%
X0Y0D02*
D02*
D13*
X49550Y95550D02*
X52950D01*
X50050D02*
G75*
G02X52450I1200D01*
G01*
X52550Y54550D02*
X55950D01*
X52950Y106950D02*
X49550D01*
X53050Y54550D02*
G75*
G02X55450I1200D01*
G01*
X55950Y65950D02*
X52550D01*
X61750Y269300D02*
G75*
G03X60750I-500D01*
G01*
G75*
G03X61750I500*
G01*
Y323300D02*
G75*
G03X60750I-500D01*
G01*
G75*
G03X61750I500*
G01*
X66250Y273611D02*
Y277000D01*
X69790*
X66250Y327611D02*
Y331000D01*
X69790*
X70960Y271500D02*
X73540D01*
X70960Y325500D02*
X73540D01*
X78250Y273611D02*
Y277000D01*
X74710*
X78250Y327611D02*
Y331000D01*
X74710*
D02*
D17*
X28250Y11187D02*
Y14937D01*
X30437*
X31063Y14625*
X31375Y14000*
X31063Y13375*
X30437Y13063*
X28250*
X30437D02*
X31375Y11187D01*
X33250Y12125D02*
X33563Y12750D01*
X34187Y13063*
X34813*
X35437Y12750*
X35750Y12125*
X35437Y11500*
X34813Y11187*
X34187*
X33563Y11500*
X33250Y12125*
Y13063*
X33563Y14000*
X34187Y14625*
X34813Y14937*
X33750Y17750D02*
X30726D01*
Y23775*
X33750*
Y17750*
X46687Y127187D02*
X47937D01*
X47313D02*
Y130937D01*
X46687D02*
X47937D01*
X53875Y127813D02*
X53563Y127500D01*
X52937Y127187*
X52000*
X51375Y127500*
X51063Y127813*
X50750Y128437*
Y129687*
X51063Y130313*
X51375Y130625*
X52000Y130937*
X52937*
X53563Y130625*
X53875Y130313*
X56063Y127500D02*
X56687Y127187D01*
X57313*
X57937Y127500*
X58250Y128125*
X57937Y128750*
X57313Y129063*
X56687*
X57313D02*
X57937Y129375D01*
X58250Y130000*
X57937Y130625*
X57313Y130937*
X56687*
X56063Y130625*
X49687Y83687D02*
X50937D01*
X50313D02*
Y87437D01*
X49687D02*
X50937D01*
X56875Y84313D02*
X56563Y84000D01*
X55937Y83687*
X55000*
X54375Y84000*
X54063Y84313*
X53750Y84937*
Y86187*
X54063Y86813*
X54375Y87125*
X55000Y87437*
X55937*
X56563Y87125*
X56875Y86813*
X60313Y83687D02*
Y87437D01*
X58750Y84937*
X61250*
X45687Y107687D02*
X46937D01*
X46313D02*
Y111437D01*
X45687D02*
X46937D01*
X52875Y108313D02*
X52563Y108000D01*
X51937Y107687*
X51000*
X50375Y108000*
X50063Y108313*
X49750Y108937*
Y110187*
X50063Y110813*
X50375Y111125*
X51000Y111437*
X51937*
X52563Y111125*
X52875Y110813*
X55375Y107687D02*
X56625D01*
X56000D02*
Y111437D01*
X55375Y110813*
X49187Y66187D02*
X50437D01*
X49813D02*
Y69937D01*
X49187D02*
X50437D01*
X56375Y66813D02*
X56063Y66500D01*
X55437Y66187*
X54500*
X53875Y66500*
X53563Y66813*
X53250Y67437*
Y68687*
X53563Y69313*
X53875Y69625*
X54500Y69937*
X55437*
X56063Y69625*
X56375Y69313*
X60750Y66187D02*
X58250D01*
X60437Y68375*
X60750Y69000*
X60437Y69625*
X59813Y69937*
X58875*
X58250Y69625*
X65750Y117937D02*
Y119187D01*
X66063Y119813*
X66375Y120125*
X67000Y120437*
X67625*
X68250Y120125*
X68563Y119813*
X68875Y119187*
Y117937*
X68563Y117313*
X68250Y117000*
X67625Y116687*
X67000*
X66375Y117000*
X66063Y117313*
X65750Y117937*
X67937Y117625D02*
X68875Y116687D01*
X71375D02*
X72625D01*
X72000D02*
Y120437D01*
X71375Y119813*
X68250Y98187D02*
Y101937D01*
X70437*
X71063Y101625*
X71375Y101000*
X71063Y100375*
X70437Y100063*
X68250*
X70437D02*
X71375Y98187D01*
X74187Y100063D02*
X74813D01*
X75437Y100375*
X75750Y101000*
X75437Y101625*
X74813Y101937*
X74187*
X73563Y101625*
X73250Y101000*
X73563Y100375*
X74187Y100063*
X73563Y99750*
X73250Y99125*
X73563Y98500*
X74187Y98187*
X74813*
X75437Y98500*
X75750Y99125*
X75437Y99750*
X74813Y100063*
X69250Y137937D02*
Y134187D01*
X72375*
X74250D02*
Y137937D01*
X77375*
X76750Y136063D02*
X74250D01*
Y134187D02*
X77375D01*
X79250D02*
Y137937D01*
X81125*
X81750Y137625*
X82063Y137313*
X82375Y136687*
Y135437*
X82063Y134813*
X81750Y134500*
X81125Y134187*
X79250*
X84250D02*
X86750Y137937D01*
X84250*
X69250Y157937D02*
Y154187D01*
X72375*
X74250D02*
Y157937D01*
X77375*
X76750Y156063D02*
X74250D01*
Y154187D02*
X77375D01*
X79250D02*
Y157937D01*
X81125*
X81750Y157625*
X82063Y157313*
X82375Y156687*
Y155437*
X82063Y154813*
X81750Y154500*
X81125Y154187*
X79250*
X84250Y155125D02*
X84563Y155750D01*
X85187Y156063*
X85813*
X86437Y155750*
X86750Y155125*
X86437Y154500*
X85813Y154187*
X85187*
X84563Y154500*
X84250Y155125*
Y156063*
X84563Y157000*
X85187Y157625*
X85813Y157937*
X69250Y176937D02*
Y173187D01*
X72375*
X74250D02*
Y176937D01*
X77375*
X76750Y175063D02*
X74250D01*
Y173187D02*
X77375D01*
X79250D02*
Y176937D01*
X81125*
X81750Y176625*
X82063Y176313*
X82375Y175687*
Y174437*
X82063Y173813*
X81750Y173500*
X81125Y173187*
X79250*
X84250Y173500D02*
X84875Y173187D01*
X85813*
X86437Y173500*
X86750Y174125*
Y174437*
X86437Y175063*
X85813Y175375*
X84250*
Y176937*
X86750*
X69250Y197937D02*
Y194187D01*
X72375*
X74250D02*
Y197937D01*
X77375*
X76750Y196063D02*
X74250D01*
Y194187D02*
X77375D01*
X79250D02*
Y197937D01*
X81125*
X81750Y197625*
X82063Y197313*
X82375Y196687*
Y195437*
X82063Y194813*
X81750Y194500*
X81125Y194187*
X79250*
X85813D02*
Y197937D01*
X84250Y195437*
X86750*
X69250Y236937D02*
Y233187D01*
X72375*
X74250D02*
Y236937D01*
X77375*
X76750Y235063D02*
X74250D01*
Y233187D02*
X77375D01*
X79250D02*
Y236937D01*
X81125*
X81750Y236625*
X82063Y236313*
X82375Y235687*
Y234437*
X82063Y233813*
X81750Y233500*
X81125Y233187*
X79250*
X86750D02*
X84250D01*
X86437Y235375*
X86750Y236000*
X86437Y236625*
X85813Y236937*
X84875*
X84250Y236625*
X69250Y337687D02*
Y341437D01*
X71437*
X72063Y341125*
X72375Y340500*
X72063Y339875*
X71437Y339563*
X69250*
X71437D02*
X72375Y337687D01*
X74875D02*
X76125D01*
X75500D02*
Y341437D01*
X74875Y340813*
X79250Y338000D02*
X79875Y337687D01*
X80813*
X81437Y338000*
X81750Y338625*
Y338937*
X81437Y339563*
X80813Y339875*
X79250*
Y341437*
X81750*
X69750Y282687D02*
Y286437D01*
X71937*
X72563Y286125*
X72875Y285500*
X72563Y284875*
X71937Y284563*
X69750*
X71937D02*
X72875Y282687D01*
X75375D02*
X76625D01*
X76000D02*
Y286437D01*
X75375Y285813*
X81313Y282687D02*
Y286437D01*
X79750Y283937*
X82250*
X70250Y73937D02*
Y75187D01*
X70563Y75813*
X70875Y76125*
X71500Y76437*
X72125*
X72750Y76125*
X73063Y75813*
X73375Y75187*
Y73937*
X73063Y73313*
X72750Y73000*
X72125Y72687*
X71500*
X70875Y73000*
X70563Y73313*
X70250Y73937*
X72437Y73625D02*
X73375Y72687D01*
X77750D02*
X75250D01*
X77437Y74875*
X77750Y75500*
X77437Y76125*
X76813Y76437*
X75875*
X75250Y76125*
X70250Y216937D02*
Y213187D01*
X73375*
X75250D02*
Y216937D01*
X78375*
X77750Y215063D02*
X75250D01*
Y213187D02*
X78375D01*
X80250D02*
Y216937D01*
X82125*
X82750Y216625*
X83063Y216313*
X83375Y215687*
Y214437*
X83063Y213813*
X82750Y213500*
X82125Y213187*
X80250*
X85563Y213500D02*
X86187Y213187D01*
X86813*
X87437Y213500*
X87750Y214125*
X87437Y214750*
X86813Y215063*
X86187*
X86813D02*
X87437Y215375D01*
X87750Y216000*
X87437Y216625*
X86813Y216937*
X86187*
X85563Y216625*
X72750Y57187D02*
Y60937D01*
X74937*
X75563Y60625*
X75875Y60000*
X75563Y59375*
X74937Y59063*
X72750*
X74937D02*
X75875Y57187D01*
X78687D02*
X79313Y57500D01*
X79937Y58125*
X80250Y59063*
Y60000*
X79937Y60625*
X79313Y60937*
X78687*
X78063Y60625*
X77750Y60000*
X78063Y59375*
X78687Y59063*
X79313*
X79937Y59375*
X80250Y60000*
X73250Y104750D02*
X70226D01*
Y110775*
X73250*
Y104750*
X74740Y147568D02*
Y145068D01*
Y167168D02*
Y164668D01*
Y186768D02*
Y184268D01*
Y206368D02*
Y203868D01*
Y225968D02*
Y223468D01*
Y245568D02*
Y243068D01*
X77750Y63750D02*
X74726D01*
Y69775*
X77750*
Y63750*
X78250Y291750D02*
Y288726D01*
X72225*
Y291750*
X78250*
Y346750D02*
Y343726D01*
X72225*
Y346750*
X78250*
X80363Y147568D02*
Y145068D01*
Y167168D02*
Y164668D01*
Y186768D02*
Y184268D01*
Y206368D02*
Y203868D01*
Y225968D02*
Y223468D01*
Y245568D02*
Y243068D01*
X81609Y146325D02*
X79109D01*
X81609Y165925D02*
X79109D01*
X81609Y185525D02*
X79109D01*
X81609Y205125D02*
X79109D01*
X81609Y224725D02*
X79109D01*
X81609Y244325D02*
X79109D01*
X82417Y144850D02*
Y141050D01*
X72817*
Y144850*
X82417*
Y164450D02*
Y160650D01*
X72817*
Y164450*
X82417*
Y184050D02*
Y180250D01*
X72817*
Y184050*
X82417*
Y203650D02*
Y199850D01*
X72817*
Y203650*
X82417*
Y223250D02*
Y219450D01*
X72817*
Y223250*
X82417*
Y242850D02*
Y239050D01*
X72817*
Y242850*
X82417*
X97250Y134687D02*
Y138437D01*
X99437*
X100063Y138125*
X100375Y137500*
X100063Y136875*
X99437Y136563*
X97250*
X99437D02*
X100375Y134687D01*
X102875D02*
X104125D01*
X103500D02*
Y138437D01*
X102875Y137813*
X108187Y136563D02*
X108813D01*
X109437Y136875*
X109750Y137500*
X109437Y138125*
X108813Y138437*
X108187*
X107563Y138125*
X107250Y137500*
X107563Y136875*
X108187Y136563*
X107563Y136250*
X107250Y135625*
X107563Y135000*
X108187Y134687*
X108813*
X109437Y135000*
X109750Y135625*
X109437Y136250*
X108813Y136563*
X97250Y155187D02*
Y158937D01*
X99437*
X100063Y158625*
X100375Y158000*
X100063Y157375*
X99437Y157063*
X97250*
X99437D02*
X100375Y155187D01*
X102875D02*
X104125D01*
X103500D02*
Y158937D01*
X102875Y158313*
X107250Y156125D02*
X107563Y156750D01*
X108187Y157063*
X108813*
X109437Y156750*
X109750Y156125*
X109437Y155500*
X108813Y155187*
X108187*
X107563Y155500*
X107250Y156125*
Y157063*
X107563Y158000*
X108187Y158625*
X108813Y158937*
X98750Y193687D02*
Y197437D01*
X100937*
X101563Y197125*
X101875Y196500*
X101563Y195875*
X100937Y195563*
X98750*
X100937D02*
X101875Y193687D01*
X106250D02*
X103750D01*
X105937Y195875*
X106250Y196500*
X105937Y197125*
X105313Y197437*
X104375*
X103750Y197125*
X98750Y214187D02*
Y217937D01*
X100937*
X101563Y217625*
X101875Y217000*
X101563Y216375*
X100937Y216063*
X98750*
X100937D02*
X101875Y214187D01*
X104063Y214500D02*
X104687Y214187D01*
X105313*
X105937Y214500*
X106250Y215125*
X105937Y215750*
X105313Y216063*
X104687*
X105313D02*
X105937Y216375D01*
X106250Y217000*
X105937Y217625*
X105313Y217937*
X104687*
X104063Y217625*
X98750Y234187D02*
Y237937D01*
X100937*
X101563Y237625*
X101875Y237000*
X101563Y236375*
X100937Y236063*
X98750*
X100937D02*
X101875Y234187D01*
X104375D02*
X105625D01*
X105000D02*
Y237937D01*
X104375Y237313*
X98750Y239750D02*
Y242774D01*
X104775*
Y239750*
X98750*
X99250Y219750D02*
Y222774D01*
X105275*
Y219750*
X99250*
X99750Y175187D02*
Y178937D01*
X101937*
X102563Y178625*
X102875Y178000*
X102563Y177375*
X101937Y177063*
X99750*
X101937D02*
X102875Y175187D01*
X106313D02*
Y178937D01*
X104750Y176437*
X107250*
X99750Y200250D02*
Y203274D01*
X105775*
Y200250*
X99750*
X100250Y141250D02*
Y144274D01*
X106275*
Y141250*
X100250*
Y160750D02*
Y163774D01*
X106275*
Y160750*
X100250*
Y180750D02*
Y183774D01*
X106275*
Y180750*
X100250*
X116750Y309313D02*
X117063Y309000D01*
X117687Y308687*
X118313Y309000*
X118625Y309313*
Y312437*
X119250*
X118625D02*
X117375D01*
X121750Y308687D02*
Y312437D01*
X123937*
X124563Y312125*
X124875Y311500*
X124563Y310875*
X123937Y310563*
X121750*
X128313Y308687D02*
Y312437D01*
X126750Y309937*
X129250*
Y45313D02*
X129563Y45000D01*
X130187Y44687*
X130813Y45000*
X131125Y45313*
Y48437*
X131750*
X131125D02*
X129875D01*
X134250Y44687D02*
Y48437D01*
X136437*
X137063Y48125*
X137375Y47500*
X137063Y46875*
X136437Y46563*
X134250*
X140187D02*
X140813D01*
X141437Y46875*
X141750Y47500*
X141437Y48125*
X140813Y48437*
X140187*
X139563Y48125*
X139250Y47500*
X139563Y46875*
X140187Y46563*
X139563Y46250*
X139250Y45625*
X139563Y45000*
X140187Y44687*
X140813*
X141437Y45000*
X141750Y45625*
X141437Y46250*
X140813Y46563*
X157750Y350813D02*
X158063Y350500D01*
X158687Y350187*
X159313Y350500*
X159625Y350813*
Y353937*
X160250*
X159625D02*
X158375D01*
X162750Y350187D02*
Y353937D01*
X164937*
X165563Y353625*
X165875Y353000*
X165563Y352375*
X164937Y352063*
X162750*
X168687Y350187D02*
X169313Y350500D01*
X169937Y351125*
X170250Y352063*
Y353000*
X169937Y353625*
X169313Y353937*
X168687*
X168063Y353625*
X167750Y353000*
X168063Y352375*
X168687Y352063*
X169313*
X169937Y352375*
X170250Y353000*
X157750Y361313D02*
X158063Y361000D01*
X158687Y360687*
X159313Y361000*
X159625Y361313*
Y364437*
X160250*
X159625D02*
X158375D01*
X162750Y360687D02*
Y364437D01*
X164937*
X165563Y364125*
X165875Y363500*
X165563Y362875*
X164937Y362563*
X162750*
X168375Y360687D02*
X169625D01*
X169000D02*
Y364437D01*
X168375Y363813*
X173063Y361000D02*
X173687Y360687D01*
X174313*
X174937Y361000*
X175250Y361625*
Y363500*
X174937Y364125*
X174313Y364437*
X173687*
X173063Y364125*
X172750Y363500*
Y361625*
X173063Y361000*
X174937Y364125*
X164250Y308813D02*
X164563Y308500D01*
X165187Y308187*
X165813Y308500*
X166125Y308813*
Y311937*
X166750*
X166125D02*
X164875D01*
X169250Y308187D02*
Y311937D01*
X171437*
X172063Y311625*
X172375Y311000*
X172063Y310375*
X171437Y310063*
X169250*
X174250Y308500D02*
X174875Y308187D01*
X175813*
X176437Y308500*
X176750Y309125*
Y309437*
X176437Y310063*
X175813Y310375*
X174250*
Y311937*
X176750*
X167750Y45313D02*
X168063Y45000D01*
X168687Y44687*
X169313Y45000*
X169625Y45313*
Y48437*
X170250*
X169625D02*
X168375D01*
X172750Y44687D02*
Y48437D01*
X174937*
X175563Y48125*
X175875Y47500*
X175563Y46875*
X174937Y46563*
X172750*
X177750Y44687D02*
X180250Y48437D01*
X177750*
X184750Y131187D02*
Y134937D01*
X186937*
X187563Y134625*
X187875Y134000*
X187563Y133375*
X186937Y133063*
X184750*
X186937D02*
X187875Y131187D01*
X189750Y131500D02*
X190375Y131187D01*
X191313*
X191937Y131500*
X192250Y132125*
Y132437*
X191937Y133063*
X191313Y133375*
X189750*
Y134937*
X192250*
X191250Y139750D02*
Y136726D01*
X185225*
Y139750*
X191250*
X201250Y153187D02*
Y156937D01*
X203437*
X204063Y156625*
X204375Y156000*
X204063Y155375*
X203437Y155063*
X201250*
X203437D02*
X204375Y153187D01*
X206875D02*
X208125D01*
X207500D02*
Y156937D01*
X206875Y156313*
X211875Y153187D02*
X213125D01*
X212500D02*
Y156937D01*
X211875Y156313*
X206750Y159250D02*
X205750D01*
Y161250*
X206750*
Y159250*
X245250Y307313D02*
X245563Y307000D01*
X246187Y306687*
X246813Y307000*
X247125Y307313*
Y310437*
X247750*
X247125D02*
X245875D01*
X250250Y306687D02*
Y310437D01*
X252437*
X253063Y310125*
X253375Y309500*
X253063Y308875*
X252437Y308563*
X250250*
X255250Y307625D02*
X255563Y308250D01*
X256187Y308563*
X256813*
X257437Y308250*
X257750Y307625*
X257437Y307000*
X256813Y306687*
X256187*
X255563Y307000*
X255250Y307625*
Y308563*
X255563Y309500*
X256187Y310125*
X256813Y310437*
X250875Y232313D02*
X250563Y232000D01*
X249937Y231687*
X249000*
X248375Y232000*
X248063Y232313*
X247750Y232937*
Y234187*
X248063Y234813*
X248375Y235125*
X249000Y235437*
X249937*
X250563Y235125*
X250875Y234813*
X253375Y231687D02*
X254625D01*
X254000D02*
Y235437D01*
X253375Y234813*
X259313Y231687D02*
Y235437D01*
X257750Y232937*
X260250*
X250875Y237313D02*
X250563Y237000D01*
X249937Y236687*
X249000*
X248375Y237000*
X248063Y237313*
X247750Y237937*
Y239187*
X248063Y239813*
X248375Y240125*
X249000Y240437*
X249937*
X250563Y240125*
X250875Y239813*
X253375Y236687D02*
X254625D01*
X254000D02*
Y240437D01*
X253375Y239813*
X257750Y237000D02*
X258375Y236687D01*
X259313*
X259937Y237000*
X260250Y237625*
Y237937*
X259937Y238563*
X259313Y238875*
X257750*
Y240437*
X260250*
X255750Y242250D02*
X271750D01*
Y249250*
X255750*
Y242250*
X259375Y252313D02*
X259063Y252000D01*
X258437Y251687*
X257500*
X256875Y252000*
X256563Y252313*
X256250Y252937*
Y254187*
X256563Y254813*
X256875Y255125*
X257500Y255437*
X258437*
X259063Y255125*
X259375Y254813*
X261875Y251687D02*
X263125D01*
X262500D02*
Y255437D01*
X261875Y254813*
X266563Y252000D02*
X267187Y251687D01*
X267813*
X268437Y252000*
X268750Y252625*
X268437Y253250*
X267813Y253563*
X267187*
X267813D02*
X268437Y253875D01*
X268750Y254500*
X268437Y255125*
X267813Y255437*
X267187*
X266563Y255125*
X262375Y264813D02*
X262063Y264500D01*
X261437Y264187*
X260500*
X259875Y264500*
X259563Y264813*
X259250Y265437*
Y266687*
X259563Y267313*
X259875Y267625*
X260500Y267937*
X261437*
X262063Y267625*
X262375Y267313*
X264250Y265125D02*
X264563Y265750D01*
X265187Y266063*
X265813*
X266437Y265750*
X266750Y265125*
X266437Y264500*
X265813Y264187*
X265187*
X264563Y264500*
X264250Y265125*
Y266063*
X264563Y267000*
X265187Y267625*
X265813Y267937*
X264750Y272140D02*
Y270261D01*
X260678*
Y272140*
X264750*
X266250Y234640D02*
Y232761D01*
X262178*
Y234640*
X266250*
Y239140D02*
Y237261D01*
X262178*
Y239140*
X266250*
X272375Y322313D02*
X272063Y322000D01*
X271437Y321687*
X270500*
X269875Y322000*
X269563Y322313*
X269250Y322937*
Y324187*
X269563Y324813*
X269875Y325125*
X270500Y325437*
X271437*
X272063Y325125*
X272375Y324813*
X274563Y322000D02*
X275187Y321687D01*
X275813*
X276437Y322000*
X276750Y322625*
X276437Y323250*
X275813Y323563*
X275187*
X275813D02*
X276437Y323875D01*
X276750Y324500*
X276437Y325125*
X275813Y325437*
X275187*
X274563Y325125*
X271250Y317360D02*
Y319239D01*
X275322*
Y317360*
X271250*
X272263Y298937D02*
Y296125D01*
X272576Y295500*
X273200Y295187*
X274450*
X275076Y295500*
X275388Y296125*
Y298937*
X279763Y295187D02*
X277263D01*
X279450Y297375*
X279763Y298000*
X279450Y298625*
X278826Y298937*
X277888*
X277263Y298625*
X272963Y259437D02*
Y256625D01*
X273276Y256000*
X273900Y255687*
X275150*
X275776Y256000*
X276088Y256625*
Y259437*
X278276Y256000D02*
X278900Y255687D01*
X279526*
X280150Y256000*
X280463Y256625*
X280150Y257250*
X279526Y257563*
X278900*
X279526D02*
X280150Y257875D01*
X280463Y258500*
X280150Y259125*
X279526Y259437*
X278900*
X278276Y259125*
X273297Y301844D02*
Y313262D01*
X279596*
Y301844*
X273297*
X273797Y261844D02*
Y273262D01*
X280096*
Y261844*
X273797*
X281875Y248813D02*
X281563Y248500D01*
X280937Y248187*
X280000*
X279375Y248500*
X279063Y248813*
X278750Y249437*
Y250687*
X279063Y251313*
X279375Y251625*
X280000Y251937*
X280937*
X281563Y251625*
X281875Y251313*
X284687Y250063D02*
X285313D01*
X285937Y250375*
X286250Y251000*
X285937Y251625*
X285313Y251937*
X284687*
X284063Y251625*
X283750Y251000*
X284063Y250375*
X284687Y250063*
X284063Y249750*
X283750Y249125*
X284063Y248500*
X284687Y248187*
X285313*
X285937Y248500*
X286250Y249125*
X285937Y249750*
X285313Y250063*
X281875Y288313D02*
X281563Y288000D01*
X280937Y287687*
X280000*
X279375Y288000*
X279063Y288313*
X278750Y288937*
Y290187*
X279063Y290813*
X279375Y291125*
X280000Y291437*
X280937*
X281563Y291125*
X281875Y290813*
X283750Y288000D02*
X284375Y287687D01*
X285313*
X285937Y288000*
X286250Y288625*
Y288937*
X285937Y289563*
X285313Y289875*
X283750*
Y291437*
X286250*
X281262Y298250D02*
X283140D01*
Y294178*
X281262*
Y298250*
X281860Y258250D02*
X283739D01*
Y254178*
X281860*
Y258250*
X288762Y311250D02*
X290640D01*
Y307178*
X288762*
Y311250*
X288860Y271250D02*
X290739D01*
Y267178*
X288860*
Y271250*
X290589Y318375D02*
X290902Y318063D01*
X291214Y317437*
Y316500*
X290902Y315875*
X290589Y315563*
X289964Y315250*
X288714*
X288089Y315563*
X287776Y315875*
X287464Y316500*
Y317437*
X287776Y318063*
X288089Y318375*
X291214Y321187D02*
X290902Y321813D01*
X290276Y322437*
X289339Y322750*
X288402*
X287776Y322437*
X287464Y321813*
Y321187*
X287776Y320563*
X288402Y320250*
X289026Y320563*
X289339Y321187*
Y321813*
X289026Y322437*
X288402Y322750*
X292250Y247687D02*
Y251437D01*
X295375*
X294750Y249563D02*
X292250D01*
X297250Y247687D02*
Y251437D01*
X300375*
X299750Y249563D02*
X297250D01*
Y247687D02*
X300375D01*
X302250D02*
Y251437D01*
X304437*
X305063Y251125*
X305375Y250500*
X305063Y249875*
X304437Y249563*
X302250*
X304437D02*
X305375Y247687D01*
X307250D02*
Y251437D01*
X309437*
X310063Y251125*
X310375Y250500*
X310063Y249875*
X309437Y249563*
X307250*
X309437D02*
X310375Y247687D01*
X291187Y276875D02*
X291500Y276563D01*
X291813Y275937*
Y275000*
X291500Y274375*
X291187Y274063*
X290563Y273750*
X289313*
X288687Y274063*
X288375Y274375*
X288063Y275000*
Y275937*
X288375Y276563*
X288687Y276875*
X291813Y278750D02*
X288063Y281250D01*
Y278750*
X293360Y271250D02*
X295239D01*
Y267178*
X293360*
Y271250*
X293762Y311250D02*
X295640D01*
Y307178*
X293762*
Y311250*
X294250Y254750D02*
Y257774D01*
X300275*
Y254750*
X294250*
X295589Y318375D02*
X295902Y318063D01*
X296214Y317437*
Y316500*
X295902Y315875*
X295589Y315563*
X294964Y315250*
X293714*
X293089Y315563*
X292776Y315875*
X292464Y316500*
Y317437*
X292776Y318063*
X293089Y318375*
X296214Y320875D02*
Y322125D01*
Y321500D02*
X292464D01*
X293089Y320875*
X295902Y325563D02*
X296214Y326187D01*
Y326813*
X295902Y327437*
X295276Y327750*
X293402*
X292776Y327437*
X292464Y326813*
Y326187*
X292776Y325563*
X293402Y325250*
X295276*
X295902Y325563*
X292776Y327437*
X297250Y129813D02*
X297563Y129500D01*
X298187Y129187*
X298813Y129500*
X299125Y129813*
Y132937*
X299750*
X299125D02*
X297875D01*
X302250Y129187D02*
Y132937D01*
X304437*
X305063Y132625*
X305375Y132000*
X305063Y131375*
X304437Y131063*
X302250*
X307875Y129187D02*
X309125D01*
X308500D02*
Y132937D01*
X307875Y132313*
X295687Y276875D02*
X296000Y276563D01*
X296313Y275937*
Y275000*
X296000Y274375*
X295687Y274063*
X295063Y273750*
X293813*
X293187Y274063*
X292875Y274375*
X292563Y275000*
Y275937*
X292875Y276563*
X293187Y276875*
X296313Y279375D02*
Y280625D01*
Y280000D02*
X292563D01*
X293187Y279375*
X296313Y284375D02*
Y285625D01*
Y285000D02*
X292563D01*
X293187Y284375*
X297860Y271250D02*
X299739D01*
Y267178*
X297860*
Y271250*
X298262Y311250D02*
X300140D01*
Y307178*
X298262*
Y311250*
X300089Y318375D02*
X300402Y318063D01*
X300714Y317437*
Y316500*
X300402Y315875*
X300089Y315563*
X299464Y315250*
X298214*
X297589Y315563*
X297276Y315875*
X296964Y316500*
Y317437*
X297276Y318063*
X297589Y318375*
X300714Y321813D02*
X296964D01*
X299464Y320250*
Y322750*
X300187Y276875D02*
X300500Y276563D01*
X300813Y275937*
Y275000*
X300500Y274375*
X300187Y274063*
X299563Y273750*
X298313*
X297687Y274063*
X297375Y274375*
X297063Y275000*
Y275937*
X297375Y276563*
X297687Y276875*
X300813Y279375D02*
Y280625D01*
Y280000D02*
X297063D01*
X297687Y279375*
X300813Y286250D02*
Y283750D01*
X298625Y285937*
X298000Y286250*
X297375Y285937*
X297063Y285313*
Y284375*
X297375Y283750*
D02*
D18*
X107250Y314750D02*
X137250D01*
Y324750*
X107250*
Y314750*
X125250Y347250D02*
X155250D01*
Y357250*
X125250*
Y347250*
Y357250D02*
X155250D01*
Y367250*
X125250*
Y357250*
X131750Y71250D02*
Y51250D01*
X141750*
Y71250*
X131750*
X152750Y314750D02*
X192750D01*
Y324750*
X152750*
Y314750*
X170250Y71250D02*
Y51250D01*
X180250*
Y71250*
X170250*
X247750Y323250D02*
Y313250D01*
X257750*
Y323250*
X247750*
X297750Y216750D02*
Y136750D01*
X307750*
Y216750*
X297750*
D02*
D29*
X256486Y123650D02*
X254884Y123455D01*
X253322Y123181*
X251798Y122869*
X250314Y122439*
X248830Y121970*
X247384Y121424*
X245978Y120798*
X244611Y120095*
X243283Y119353*
X241994Y118494*
X240705Y117595*
X239455Y116619*
X238283Y115564*
X237111Y114431*
X235939Y113220*
X234845Y111970*
X233595Y110525*
X232463Y108924*
X231369Y107244*
X230392Y105408*
X229494Y103455*
X228674Y101384*
X227931Y99197*
X227306Y96892*
X227189Y96306*
X227072Y95642*
X226994Y94861*
X226955Y94002*
X226876Y93064*
X226837Y92048*
Y90916*
X226798Y89705*
X226837Y88533*
Y87400*
X226876Y86424*
X226955Y85486*
X226994Y84666*
X227072Y83963*
X227189Y83337*
X227306Y82791*
X227541Y81853*
X227814Y81033*
X228048Y80330*
X228322Y79705*
X228595Y79158*
X228908Y78728*
X229181Y78416*
X229494Y78181*
X229650Y78142*
X229806Y78064*
X230041Y77908*
X230353Y77674*
X230666Y77439*
X231056Y77205*
X231447Y76970*
X231916Y76697*
X232853Y76228*
X233634Y75720*
X235119Y74822*
X236603Y73924*
X238009Y73025*
X239376Y72205*
X240705Y71384*
X241994Y70603*
X243244Y69822*
X244416Y69119*
X245548Y68416*
X246642Y67752*
X247697Y67087*
X248674Y66463*
X249650Y65876*
X250548Y65330*
X251408Y64822*
X252228Y64314*
X253009Y63845*
X253713Y63376*
X254376Y62986*
X255002Y62595*
X255587Y62244*
X256134Y61892*
X256603Y61619*
X257072Y61345*
X257463Y61072*
X257814Y60876*
X258087Y60681*
X258361Y60525*
X258556Y60408*
X258713Y60291*
X258830Y60213*
X258908Y60174*
X258986Y60213*
Y60252*
X258947Y60369*
X258791Y60525*
X258595Y60759*
X258322Y60994*
X258048Y61306*
X257697Y61619*
X256876Y62556*
X256174Y63572*
X255509Y64705*
X254963Y65955*
X254494Y67322*
X254103Y68806*
X253791Y70369*
X253556Y72087*
Y74509*
X252111*
X251486*
X250861Y74431*
X250236Y74275*
X249611Y74080*
X248986Y73845*
X248322Y73572*
X247658Y73220*
X246994Y72830*
X246486Y72400*
X245978Y72087*
X245392Y71892*
X244806Y71853*
X244337Y71892*
X243869Y71970*
X243439Y72126*
X243048Y72322*
X242658Y72595*
X242306Y72947*
X241955Y73337*
X241642Y73806*
X241330Y74353*
X241056Y74900*
X240861Y75486*
X240783Y76033*
X240744Y76619*
Y77205*
X240861Y77791*
X241056Y78416*
X241291Y79002*
X241564Y79548*
X241916Y80056*
X242345Y80525*
X242814Y80994*
X243322Y81384*
X243908Y81736*
X244572Y82048*
X245236Y82361*
X245939Y82556*
X246681Y82595*
X247424Y82556*
X248205Y82361*
X248986Y82048*
X249806Y81619*
X250626Y81072*
X251603Y80369*
X251681Y80447*
Y80564*
Y80759*
Y80955*
X251642Y81228*
X251564Y81541*
X251486Y81892*
X251369Y82322*
X251056Y83572*
X250822Y84861*
X250705Y86150*
Y87478*
X250783Y88767*
X250978Y90095*
X251252Y91424*
X251603Y92752*
X251916Y93650*
X252228Y94470*
X252541Y95213*
X252931Y95876*
X253322Y96463*
X253752Y96931*
X254181Y97361*
X254650Y97674*
X255158Y97947*
X255666Y98103*
X256252Y98181*
X256798*
X257424Y98103*
X258048Y97947*
X258713Y97713*
X259416Y97361*
X260080Y96970*
X260626Y96658*
X261056Y96463*
X261330Y96424*
X261994Y96463*
X262541Y96658*
X263087Y96970*
X263517Y97439*
X263908Y98025*
X264259Y98728*
X264533Y99587*
X264728Y100525*
X264884Y101150*
X265002Y101736*
Y102361*
Y102986*
X264884Y103572*
X264728Y104197*
X264533Y104783*
X264259Y105408*
X263986Y105876*
X263713Y106267*
X263361Y106580*
X262970Y106853*
X262580Y107087*
X262111Y107205*
X261642Y107322*
X261095Y107361*
X260548Y107322*
X260080Y107205*
X259611Y107087*
X259142Y106853*
X258752Y106580*
X258361Y106267*
X258009Y105876*
X257697Y105408*
X257384Y104978*
X257072Y104587*
X256798Y104236*
X256486Y103924*
X256213Y103650*
X255900Y103455*
X255626Y103298*
X255314Y103142*
X255041Y103064*
X254767Y103025*
X254455*
X254181Y103064*
X253908Y103181*
X253634Y103298*
X253361Y103494*
X253087Y103689*
X252736Y104119*
X252541Y104626*
X252384Y105213*
X252345Y105876*
X252306Y106814*
X252345Y107713*
X252463Y108611*
X252619Y109509*
X252853Y110408*
X253166Y111306*
X253556Y112244*
X253986Y113103*
X254494Y114002*
X255080Y114900*
X255705Y115798*
X256408Y116697*
X257189Y117595*
X258009Y118455*
X258908Y119353*
X259884Y120252*
X261603Y121697*
X263048*
X264728Y121384*
X266408Y120994*
X268087Y120447*
X269728Y119822*
X271369Y119041*
X272970Y118181*
X274572Y117205*
X276174Y116111*
X277697Y114900*
X279142Y113650*
X280509Y112322*
X281759Y110916*
X282931Y109470*
X284025Y107947*
X285002Y106345*
X285900Y104666*
X286642Y103064*
X287267Y101384*
X287814Y99666*
X288283Y97869*
X288634Y95994*
X288869Y94080*
X289025Y92126*
X289064Y90095*
X289025Y88572*
X288947Y87126*
X288830Y85681*
X288634Y84314*
X288400Y82947*
X288087Y81658*
X287775Y80369*
X287345Y79158*
X286642Y76697*
X286720Y76658*
X286837Y76697*
X287033Y76736*
X287267Y76814*
X287541Y76970*
X287892Y77166*
X288283Y77400*
X288713Y77674*
X289142Y77986*
X289494Y78259*
X289845Y78494*
X290119Y78728*
X290353Y78924*
X290548Y79080*
X290666Y79236*
X290744Y79392*
X291017Y79861*
X291056Y80369*
X291252Y80955*
X291447Y81541*
X291486Y82048*
X291837Y83767*
X292072Y85447*
X292228Y87087*
X292345Y88728*
X292384Y90369*
X292306Y92009*
X292189Y93611*
X291994Y95174*
X291603Y97322*
X291134Y99353*
X290548Y101345*
X289884Y103220*
X289103Y105056*
X288244Y106814*
X287267Y108494*
X286213Y110095*
X285041Y111619*
X283791Y113064*
X282424Y114431*
X280978Y115759*
X279455Y116970*
X277814Y118142*
X276056Y119236*
X274220Y120252*
X273126Y120798*
X272033Y121306*
X270939Y121775*
X269845Y122166*
X268752Y122556*
X267619Y122869*
X266525Y123142*
X265431Y123376*
X264298Y123572*
X263205Y123728*
X262072Y123845*
X260978Y123884*
X259845*
X258713Y123845*
X257619Y123767*
X256486Y123650*
X292463Y100798D02*
X292580Y100447D01*
X292658Y100174*
X292697Y99978*
Y99822*
X293126Y98298*
X293439Y96697*
X293634Y95017*
X293674Y93259*
X293713Y92752*
X293791Y92283*
X293947Y91775*
X294181Y91306*
X295158Y90798*
X295666Y90525*
X296330Y90213*
X297072Y89822*
X297931Y89353*
X298830Y88884*
X299650Y88455*
X300470Y88025*
X301213Y87634*
X308009Y84236*
X312384Y86931*
X316798Y89587*
X316837Y89705*
X316798Y89822*
X316603Y89978*
X316291Y90095*
X316095Y90291*
X315939Y90447*
X315783Y90525*
X315548Y90564*
X315158Y90720*
X314650Y90916*
X314064Y91189*
X313361Y91463*
X312619Y91853*
X311720Y92244*
X310783Y92713*
X309728Y93259*
X309142Y93533*
X308400Y93845*
X307580Y94197*
X306642Y94626*
X305587Y95134*
X304376Y95642*
X303087Y96267*
X301720Y96892*
X300314Y97517*
X299064Y98103*
X297970Y98572*
X297033Y99002*
X296213Y99392*
X295548Y99666*
X295041Y99900*
X294650Y100056*
X294142Y100291*
X293556Y100525*
X293283Y100642*
X293087Y100798*
X293009Y100916*
X292970Y101033*
X292736Y100994*
X292580Y100955*
X292502Y100876*
X292463Y100798*
X219533Y98103D02*
X219181Y97947D01*
X218791Y97752*
X218361Y97556*
X217853Y97283*
X217306Y97048*
X216720Y96736*
X216056Y96424*
X215314Y96111*
X214572Y95720*
X213713Y95369*
X212853Y94939*
X211916Y94509*
X210900Y94041*
X209884Y93572*
X208752Y93064*
X207619Y92517*
X206564Y92009*
X205431Y91541*
X202033Y89587*
X202150Y89509*
X202384Y89314*
X202736Y89080*
X203244Y88767*
X203830Y88376*
X204572Y87947*
X205431Y87400*
X206408Y86814*
X207345Y86189*
X208205Y85681*
X208947Y85252*
X209533Y84900*
X210041Y84587*
X210392Y84392*
X210626Y84275*
X210783Y84236*
X218048Y87908*
X224884Y91306*
X225353Y94236*
Y94744*
X225431Y95330*
X225509Y96033*
X225587Y96775*
X225705Y97478*
X225783Y98064*
X225822Y98533*
X225861Y98845*
X226095Y100798*
X226017Y100759*
X225939*
X225783Y100681*
X225587Y100603*
X225353Y100525*
X225041Y100408*
X224728Y100252*
X224337Y100095*
X223908Y99939*
X223400Y99744*
X222892Y99509*
X222306Y99275*
X221681Y99002*
X221017Y98728*
X220275Y98416*
X219533Y98103*
X201291Y84236D02*
Y79158D01*
X204924Y76970*
X205705Y76424*
X206603Y75837*
X207619Y75213*
X208752Y74509*
X210002Y73728*
X211369Y72869*
X212814Y71970*
X214416Y70994*
X215197Y70525*
X215978Y70056*
X216681Y69626*
X217345Y69197*
X217931Y68845*
X218517Y68494*
X219025Y68142*
X219533Y67869*
X219963Y67595*
X220353Y67361*
X220666Y67166*
X220978Y66970*
X221213Y66814*
X221447Y66658*
X221603Y66580*
X221720Y66502*
X223361Y65486*
X224963Y64509*
X226525Y63533*
X228009Y62595*
X229455Y61697*
X230861Y60837*
X232228Y60017*
X233517Y59197*
X234806Y58416*
X236017Y57674*
X237150Y56931*
X238283Y56267*
X239337Y55603*
X240353Y54978*
X241330Y54353*
X242267Y53806*
X243126Y53259*
X243947Y52752*
X244728Y52283*
X245470Y51814*
X246134Y51384*
X246759Y50994*
X247345Y50642*
X247892Y50330*
X248361Y50017*
X248791Y49744*
X249181Y49509*
X249533Y49275*
X249806Y49119*
X250041Y48963*
X250236Y48845*
X250392Y48767*
X258908Y43650*
X258986Y43728*
X259025Y43963*
X259064Y44314*
X259103Y44861*
Y45525*
X259142Y46384*
Y47361*
Y48494*
X258908Y53376*
X254767Y56033*
X252892Y57283*
X250822Y58611*
X248634Y59978*
X246252Y61384*
X245314Y61970*
X244259Y62634*
X243087Y63337*
X241837Y64119*
X240470Y64978*
X239025Y65916*
X237463Y66892*
X235822Y67947*
X234572Y68650*
X233283Y69392*
X231955Y70174*
X230587Y70994*
X229181Y71853*
X227697Y72791*
X226174Y73767*
X224611Y74783*
X201525Y89119*
X201486Y89041*
X201408Y88806*
X201369Y88416*
X201330Y87908*
Y87205*
X201291Y86384*
Y85408*
Y84236*
X314103Y87166D02*
X313791Y86970D01*
X313478Y86736*
X313087Y86502*
X312658Y86228*
X312150Y85916*
X311642Y85564*
X311056Y85174*
X310431Y84783*
X309767Y84353*
X309025Y83924*
X308283Y83455*
X307463Y82908*
X306603Y82400*
X305705Y81814*
X304767Y81228*
X303791Y80603*
X301798Y79353*
X299963Y78220*
X298244Y77166*
X296681Y76150*
X295236Y75252*
X293947Y74431*
X292775Y73728*
X291720Y73064*
X289924Y72009*
X288048Y70876*
X286095Y69705*
X284064Y68455*
X281955Y67126*
X279806Y65759*
X277541Y64353*
X275197Y62869*
X273908Y62126*
X272697Y61384*
X271564Y60720*
X270470Y60056*
X269455Y59470*
X268478Y58884*
X267580Y58337*
X266759Y57791*
X265978Y57322*
X265275Y56853*
X264611Y56463*
X264025Y56072*
X263517Y55720*
X263048Y55369*
X262658Y55095*
X262306Y54822*
X259884Y53611*
Y48494*
Y47361*
Y46384*
X259924Y45525*
X259963Y44861*
Y44314*
X260002Y43963*
X260080Y43728*
X260119Y43650*
X261369Y44392*
X262736Y45213*
X264181Y46111*
X265705Y47048*
X266642Y47674*
X267658Y48298*
X268674Y49002*
X269767Y49705*
X270900Y50408*
X272072Y51189*
X273322Y51970*
X274611Y52752*
X275861Y53533*
X277033Y54275*
X278166Y54978*
X279181Y55603*
X280119Y56150*
X281017Y56658*
X281798Y57126*
X282502Y57517*
X284181Y58494*
X285900Y59548*
X287697Y60642*
X289572Y61775*
X291525Y62986*
X293517Y64236*
X295548Y65525*
X297697Y66853*
X299806Y68181*
X301798Y69470*
X303674Y70642*
X305470Y71775*
X307150Y72830*
X308713Y73845*
X310197Y74744*
X311564Y75603*
X312775Y76384*
X313869Y77048*
X314767Y77634*
X315548Y78064*
X316134Y78455*
X316603Y78689*
X316876Y78845*
X317033Y78884*
X317150Y79041*
X317228Y79314*
X317306Y79783*
X317384Y80369*
X317424Y81111*
X317463Y82009*
X317502Y83064*
Y84236*
X317267Y89119*
X314103Y87166*
X258752Y43744D02*
X258989D01*
X260074D02*
X260277D01*
X258596Y43837D02*
X259004D01*
X260043D02*
X260435D01*
X258440Y43931D02*
X259020D01*
X260012D02*
X260593D01*
X258284Y44025D02*
X259032D01*
X259994D02*
X260750D01*
X258128Y44119D02*
X259043D01*
X259984D02*
X260908D01*
X257972Y44212D02*
X259053D01*
X259974D02*
X261066D01*
X257817Y44306D02*
X259063D01*
X259963D02*
X261224D01*
X257661Y44400D02*
X259070D01*
X259963D02*
X261381D01*
X257504Y44493D02*
X259077D01*
X259963D02*
X261537D01*
X257348Y44587D02*
X259083D01*
X259963D02*
X261694D01*
X257193Y44681D02*
X259090D01*
X259963D02*
X261850D01*
X257037Y44774D02*
X259097D01*
X259963D02*
X262006D01*
X256881Y44868D02*
X259103D01*
X259962D02*
X262162D01*
X256725Y44962D02*
X259103D01*
X259957D02*
X262318D01*
X256569Y45056D02*
X259103D01*
X259951D02*
X262474D01*
X256413Y45149D02*
X259103D01*
X259946D02*
X262630D01*
X256257Y45243D02*
X259103D01*
X259940D02*
X262785D01*
X256101Y45337D02*
X259103D01*
X259935D02*
X262935D01*
X255945Y45430D02*
X259103D01*
X259929D02*
X263086D01*
X255789Y45524D02*
X259103D01*
X259924D02*
X263237D01*
X255633Y45618D02*
X259107D01*
X259919D02*
X263387D01*
X255478Y45711D02*
X259111D01*
X259915D02*
X263538D01*
X255322Y45805D02*
X259116D01*
X259911D02*
X263689D01*
X255166Y45899D02*
X259120D01*
X259906D02*
X263840D01*
X255010Y45993D02*
X259124D01*
X259902D02*
X263991D01*
X254854Y46086D02*
X259129D01*
X259898D02*
X264141D01*
X254698Y46180D02*
X259133D01*
X259894D02*
X264293D01*
X254542Y46274D02*
X259137D01*
X259889D02*
X264445D01*
X254386Y46367D02*
X259141D01*
X259885D02*
X264598D01*
X254230Y46461D02*
X259142D01*
X259884D02*
X264750D01*
X254074Y46555D02*
X259142D01*
X259884D02*
X264902D01*
X253918Y46648D02*
X259142D01*
X259884D02*
X265055D01*
X253762Y46742D02*
X259142D01*
X259884D02*
X265207D01*
X253606Y46836D02*
X259142D01*
X259884D02*
X265359D01*
X253450Y46930D02*
X259142D01*
X259884D02*
X265511D01*
X253294Y47023D02*
X259142D01*
X259884D02*
X265664D01*
X253139Y47117D02*
X259142D01*
X259884D02*
X265807D01*
X252983Y47211D02*
X259142D01*
X259884D02*
X265948D01*
X252827Y47304D02*
X259142D01*
X259884D02*
X266089D01*
X252671Y47398D02*
X259142D01*
X259884D02*
X266229D01*
X252515Y47492D02*
X259142D01*
X259884D02*
X266369D01*
X252359Y47585D02*
X259142D01*
X259884D02*
X266510D01*
X252203Y47679D02*
X259142D01*
X259884D02*
X266651D01*
X252047Y47773D02*
X259142D01*
X259884D02*
X266804D01*
X251891Y47867D02*
X259142D01*
X259884D02*
X266956D01*
X251735Y47960D02*
X259142D01*
X259884D02*
X267108D01*
X251579Y48054D02*
X259142D01*
X259884D02*
X267260D01*
X251423Y48148D02*
X259142D01*
X259884D02*
X267413D01*
X251267Y48241D02*
X259142D01*
X259884D02*
X267565D01*
X251111Y48335D02*
X259142D01*
X259884D02*
X267711D01*
X250956Y48429D02*
X259142D01*
X259884D02*
X267846D01*
X250800Y48522D02*
X259141D01*
X259884D02*
X267981D01*
X250644Y48616D02*
X259136D01*
X259884D02*
X268117D01*
X250488Y48710D02*
X259132D01*
X259884D02*
X268252D01*
X250320Y48804D02*
X259127D01*
X259884D02*
X268387D01*
X250149Y48897D02*
X259123D01*
X259884D02*
X268523D01*
X249998Y48991D02*
X259118D01*
X259884D02*
X268658D01*
X249857Y49085D02*
X259114D01*
X259884D02*
X268803D01*
X249702Y49178D02*
X259109D01*
X259884D02*
X268948D01*
X249537Y49272D02*
X259105D01*
X259884D02*
X269094D01*
X249396Y49366D02*
X259100D01*
X259884D02*
X269240D01*
X249256Y49459D02*
X259096D01*
X259884D02*
X269386D01*
X249108Y49553D02*
X259091D01*
X259884D02*
X269531D01*
X248952Y49647D02*
X259087D01*
X259884D02*
X269677D01*
X248796Y49741D02*
X259082D01*
X259884D02*
X269825D01*
X248648Y49834D02*
X259078D01*
X259884D02*
X269976D01*
X248501Y49928D02*
X259073D01*
X259884D02*
X270127D01*
X248354Y50022D02*
X259069D01*
X259884D02*
X270278D01*
X248214Y50115D02*
X259064D01*
X259884D02*
X270429D01*
X248073Y50209D02*
X259060D01*
X259884D02*
X270580D01*
X247932Y50303D02*
X259056D01*
X259884D02*
X270731D01*
X247775Y50396D02*
X259051D01*
X259884D02*
X270881D01*
X247611Y50490D02*
X259046D01*
X259884D02*
X271024D01*
X247447Y50584D02*
X259042D01*
X259884D02*
X271164D01*
X247286Y50678D02*
X259037D01*
X259884D02*
X271305D01*
X247130Y50771D02*
X259033D01*
X259884D02*
X271445D01*
X246974Y50865D02*
X259028D01*
X259884D02*
X271586D01*
X246818Y50959D02*
X259024D01*
X259884D02*
X271726D01*
X246665Y51052D02*
X259019D01*
X259884D02*
X271867D01*
X246515Y51146D02*
X259015D01*
X259884D02*
X272007D01*
X246365Y51240D02*
X259010D01*
X259884D02*
X272153D01*
X246216Y51333D02*
X259006D01*
X259884D02*
X272303D01*
X246068Y51427D02*
X259002D01*
X259884D02*
X272453D01*
X245923Y51521D02*
X258997D01*
X259884D02*
X272603D01*
X245779Y51615D02*
X258993D01*
X259884D02*
X272753D01*
X245634Y51708D02*
X258988D01*
X259884D02*
X272903D01*
X245489Y51802D02*
X258983D01*
X259884D02*
X273052D01*
X245341Y51896D02*
X258979D01*
X259884D02*
X273202D01*
X245193Y51989D02*
X258974D01*
X259884D02*
X273353D01*
X245044Y52083D02*
X258970D01*
X259884D02*
X273508D01*
X244896Y52177D02*
X258965D01*
X259884D02*
X273663D01*
X244747Y52270D02*
X258961D01*
X259884D02*
X273817D01*
X244592Y52364D02*
X258956D01*
X259884D02*
X273972D01*
X244436Y52458D02*
X258952D01*
X259884D02*
X274126D01*
X244280Y52552D02*
X258948D01*
X259884D02*
X274281D01*
X244124Y52645D02*
X258943D01*
X259884D02*
X274435D01*
X243968Y52739D02*
X258939D01*
X259884D02*
X274590D01*
X243816Y52833D02*
X258934D01*
X259884D02*
X274741D01*
X243665Y52926D02*
X258930D01*
X259884D02*
X274891D01*
X243513Y53020D02*
X258925D01*
X259884D02*
X275041D01*
X243362Y53114D02*
X258920D01*
X259884D02*
X275191D01*
X243210Y53207D02*
X258916D01*
X259884D02*
X275341D01*
X243061Y53301D02*
X258911D01*
X259884D02*
X275491D01*
X242914Y53395D02*
X258879D01*
X259884D02*
X275641D01*
X242767Y53489D02*
X258733D01*
X259884D02*
X275791D01*
X242619Y53582D02*
X258587D01*
X259884D02*
X275939D01*
X242472Y53676D02*
X258441D01*
X260014D02*
X276087D01*
X242325Y53770D02*
X258295D01*
X260202D02*
X276235D01*
X242169Y53863D02*
X258149D01*
X260389D02*
X276383D01*
X242009Y53957D02*
X258003D01*
X260576D02*
X276531D01*
X241848Y54051D02*
X257857D01*
X260764D02*
X276679D01*
X241687Y54144D02*
X257711D01*
X260951D02*
X276827D01*
X241527Y54238D02*
X257565D01*
X261139D02*
X276975D01*
X241366Y54332D02*
X257419D01*
X261326D02*
X277125D01*
X241216Y54426D02*
X257272D01*
X261513D02*
X277276D01*
X241070Y54519D02*
X257126D01*
X261701D02*
X277427D01*
X240924Y54613D02*
X256980D01*
X261888D02*
X277578D01*
X240777Y54707D02*
X256834D01*
X262076D02*
X277729D01*
X240631Y54800D02*
X256688D01*
X262263D02*
X277880D01*
X240484Y54894D02*
X256542D01*
X262399D02*
X278031D01*
X240337Y54988D02*
X256396D01*
X262520D02*
X278182D01*
X240185Y55081D02*
X256250D01*
X262640D02*
X278334D01*
X240033Y55175D02*
X256104D01*
X262772D02*
X278486D01*
X239880Y55269D02*
X255958D01*
X262906D02*
X278638D01*
X239728Y55363D02*
X255812D01*
X263039D02*
X278791D01*
X239576Y55456D02*
X255666D01*
X263165D02*
X278943D01*
X239424Y55550D02*
X255520D01*
X263290D02*
X279095D01*
X239273Y55644D02*
X255374D01*
X263415D02*
X279251D01*
X239124Y55737D02*
X255228D01*
X263542D02*
X279411D01*
X238976Y55831D02*
X255081D01*
X263677D02*
X279572D01*
X238827Y55925D02*
X254935D01*
X263813D02*
X279733D01*
X238678Y56019D02*
X254789D01*
X263948D02*
X279893D01*
X238529Y56112D02*
X254648D01*
X264085D02*
X280054D01*
X238380Y56206D02*
X254507D01*
X264226D02*
X280218D01*
X238228Y56300D02*
X254367D01*
X264367D02*
X280383D01*
X238068Y56393D02*
X254226D01*
X264507D02*
X280549D01*
X237908Y56487D02*
X254086D01*
X264652D02*
X280715D01*
X237748Y56581D02*
X253945D01*
X264812D02*
X280881D01*
X237588Y56674D02*
X253805D01*
X264971D02*
X281045D01*
X237428Y56768D02*
X253664D01*
X265131D02*
X281201D01*
X237268Y56862D02*
X253524D01*
X265288D02*
X281357D01*
X237113Y56956D02*
X253383D01*
X265429D02*
X281513D01*
X236970Y57049D02*
X253243D01*
X265569D02*
X281670D01*
X236827Y57143D02*
X253102D01*
X265709D02*
X281828D01*
X236684Y57237D02*
X252961D01*
X265850D02*
X281997D01*
X236541Y57330D02*
X252818D01*
X265992D02*
X282165D01*
X236398Y57424D02*
X252672D01*
X266148D02*
X282334D01*
X236255Y57518D02*
X252526D01*
X266304D02*
X282502D01*
X236112Y57611D02*
X252380D01*
X266461D02*
X282663D01*
X235966Y57705D02*
X252234D01*
X266617D02*
X282825D01*
X235813Y57799D02*
X252088D01*
X266772D02*
X282986D01*
X235660Y57893D02*
X251942D01*
X266912D02*
X283147D01*
X235507Y57986D02*
X251796D01*
X267053D02*
X283308D01*
X235354Y58080D02*
X251650D01*
X267193D02*
X283469D01*
X235202Y58174D02*
X251504D01*
X267334D02*
X283631D01*
X235048Y58267D02*
X251357D01*
X267474D02*
X283792D01*
X234896Y58361D02*
X251212D01*
X267619D02*
X283953D01*
X234742Y58455D02*
X251066D01*
X267772D02*
X284114D01*
X234587Y58548D02*
X250920D01*
X267926D02*
X284270D01*
X234433Y58642D02*
X250772D01*
X268080D02*
X284423D01*
X234278Y58736D02*
X250622D01*
X268234D02*
X284576D01*
X234124Y58830D02*
X250472D01*
X268388D02*
X284728D01*
X233969Y58923D02*
X250322D01*
X268543D02*
X284881D01*
X233814Y59017D02*
X250172D01*
X268699D02*
X285034D01*
X233659Y59111D02*
X250022D01*
X268855D02*
X285187D01*
X233506Y59204D02*
X249872D01*
X269011D02*
X285339D01*
X233358Y59298D02*
X249722D01*
X269167D02*
X285492D01*
X233211Y59392D02*
X249572D01*
X269324D02*
X285644D01*
X233064Y59485D02*
X249422D01*
X269481D02*
X285797D01*
X232917Y59579D02*
X249272D01*
X269643D02*
X285950D01*
X232769Y59673D02*
X249122D01*
X269806D02*
X286104D01*
X232622Y59767D02*
X248972D01*
X269968D02*
X286258D01*
X232475Y59860D02*
X248823D01*
X270131D02*
X286412D01*
X232328Y59954D02*
X248673D01*
X270293D02*
X286566D01*
X232178Y60048D02*
X248516D01*
X270456D02*
X286720D01*
X232021Y60141D02*
X248357D01*
X270611D02*
X286874D01*
X231865Y60235D02*
X248199D01*
X258796D02*
X258986D01*
X270765D02*
X287028D01*
X231709Y60329D02*
X248040D01*
X258662D02*
X258960D01*
X270919D02*
X287182D01*
X231553Y60422D02*
X247881D01*
X258532D02*
X258893D01*
X271073D02*
X287336D01*
X231396Y60516D02*
X247722D01*
X258376D02*
X258799D01*
X271228D02*
X287490D01*
X231240Y60610D02*
X247564D01*
X258212D02*
X258720D01*
X271382D02*
X287644D01*
X231084Y60704D02*
X247405D01*
X258056D02*
X258642D01*
X271536D02*
X287798D01*
X230928Y60797D02*
X247246D01*
X257925D02*
X258551D01*
X271695D02*
X287954D01*
X230773Y60891D02*
X247087D01*
X257788D02*
X258442D01*
X271855D02*
X288109D01*
X230620Y60985D02*
X246929D01*
X257620D02*
X258333D01*
X272015D02*
X288264D01*
X230467Y61078D02*
X246770D01*
X257454D02*
X258248D01*
X272175D02*
X288419D01*
X230313Y61172D02*
X246611D01*
X257320D02*
X258166D01*
X272335D02*
X288574D01*
X230160Y61266D02*
X246452D01*
X257186D02*
X258084D01*
X272494D02*
X288729D01*
X230007Y61359D02*
X246294D01*
X257048D02*
X257989D01*
X272654D02*
X288884D01*
X229854Y61453D02*
X246141D01*
X256887D02*
X257883D01*
X272809D02*
X289039D01*
X229700Y61547D02*
X245992D01*
X256727D02*
X257778D01*
X272962D02*
X289194D01*
X229547Y61641D02*
X245842D01*
X256566D02*
X257678D01*
X273115D02*
X289350D01*
X229394Y61734D02*
X245692D01*
X256405D02*
X257596D01*
X273268D02*
X289505D01*
X229244Y61828D02*
X245542D01*
X256244D02*
X257514D01*
X273421D02*
X289658D01*
X229093Y61922D02*
X245392D01*
X256088D02*
X257432D01*
X273574D02*
X289809D01*
X228943Y62015D02*
X245243D01*
X255943D02*
X257350D01*
X273727D02*
X289960D01*
X228792Y62109D02*
X245094D01*
X255797D02*
X257268D01*
X273880D02*
X290111D01*
X228641Y62203D02*
X244945D01*
X255651D02*
X257186D01*
X274041D02*
X290262D01*
X228490Y62296D02*
X244796D01*
X255500D02*
X257104D01*
X274203D02*
X290413D01*
X228339Y62390D02*
X244647D01*
X255343D02*
X257022D01*
X274366D02*
X290565D01*
X228189Y62484D02*
X244498D01*
X255187D02*
X256940D01*
X274528D02*
X290716D01*
X228038Y62578D02*
X244350D01*
X255031D02*
X256862D01*
X274691D02*
X290867D01*
X227889Y62671D02*
X244198D01*
X254880D02*
X256797D01*
X274854D02*
X291018D01*
X227741Y62765D02*
X244042D01*
X254730D02*
X256732D01*
X275017D02*
X291169D01*
X227593Y62859D02*
X243885D01*
X254580D02*
X256667D01*
X275179D02*
X291320D01*
X227444Y62952D02*
X243729D01*
X254430D02*
X256602D01*
X275329D02*
X291471D01*
X227296Y63046D02*
X243573D01*
X254274D02*
X256537D01*
X275477D02*
X291621D01*
X227147Y63140D02*
X243417D01*
X254115D02*
X256473D01*
X275624D02*
X291770D01*
X226999Y63233D02*
X243261D01*
X253956D02*
X256408D01*
X275772D02*
X291920D01*
X226851Y63327D02*
X243104D01*
X253796D02*
X256343D01*
X275920D02*
X292069D01*
X226702Y63421D02*
X242954D01*
X253646D02*
X256278D01*
X276069D02*
X292219D01*
X226554Y63515D02*
X242804D01*
X253506D02*
X256213D01*
X276217D02*
X292368D01*
X226404Y63608D02*
X242654D01*
X253365D02*
X256152D01*
X276364D02*
X292517D01*
X226254Y63702D02*
X242504D01*
X253224D02*
X256097D01*
X276512D02*
X292667D01*
X226104Y63796D02*
X242354D01*
X253084D02*
X256043D01*
X276660D02*
X292816D01*
X225955Y63889D02*
X242205D01*
X252936D02*
X255987D01*
X276808D02*
X292965D01*
X225805Y63983D02*
X242055D01*
X252780D02*
X255933D01*
X276956D02*
X293115D01*
X225655Y64077D02*
X241905D01*
X252624D02*
X255878D01*
X277104D02*
X293264D01*
X225505Y64170D02*
X241756D01*
X252467D02*
X255823D01*
X277252D02*
X293413D01*
X225355Y64264D02*
X241606D01*
X252311D02*
X255768D01*
X277400D02*
X293562D01*
X225205Y64358D02*
X241457D01*
X252157D02*
X255713D01*
X277548D02*
X293709D01*
X225055Y64452D02*
X241308D01*
X252006D02*
X255658D01*
X277699D02*
X293857D01*
X224904Y64545D02*
X241159D01*
X251855D02*
X255603D01*
X277850D02*
X294005D01*
X224750Y64639D02*
X241010D01*
X251704D02*
X255548D01*
X278001D02*
X294153D01*
X224596Y64733D02*
X240861D01*
X251552D02*
X255497D01*
X278152D02*
X294300D01*
X224443Y64826D02*
X240712D01*
X251400D02*
X255456D01*
X278303D02*
X294448D01*
X224289Y64920D02*
X240563D01*
X251242D02*
X255415D01*
X278454D02*
X294596D01*
X224135Y65014D02*
X240415D01*
X251083D02*
X255374D01*
X278605D02*
X294743D01*
X223981Y65107D02*
X240271D01*
X250924D02*
X255333D01*
X278756D02*
X294891D01*
X223828Y65201D02*
X240126D01*
X250766D02*
X255292D01*
X278907D02*
X295039D01*
X223674Y65295D02*
X239982D01*
X250607D02*
X255251D01*
X279058D02*
X295186D01*
X223520Y65389D02*
X239838D01*
X250452D02*
X255210D01*
X279209D02*
X295334D01*
X223367Y65482D02*
X239693D01*
X250298D02*
X255169D01*
X279360D02*
X295481D01*
X223215Y65576D02*
X239549D01*
X250144D02*
X255128D01*
X279511D02*
X295631D01*
X223064Y65670D02*
X239404D01*
X249990D02*
X255087D01*
X279662D02*
X295783D01*
X222913Y65763D02*
X239260D01*
X249836D02*
X255046D01*
X279813D02*
X295934D01*
X222761Y65857D02*
X239116D01*
X249682D02*
X255005D01*
X279960D02*
X296086D01*
X222610Y65951D02*
X238969D01*
X249526D02*
X254964D01*
X280107D02*
X296237D01*
X222459Y66044D02*
X238819D01*
X249370D02*
X254932D01*
X280254D02*
X296389D01*
X222307Y66138D02*
X238669D01*
X249214D02*
X254900D01*
X280402D02*
X296541D01*
X222156Y66232D02*
X238519D01*
X249058D02*
X254868D01*
X280549D02*
X296692D01*
X222005Y66326D02*
X238369D01*
X248902D02*
X254835D01*
X280696D02*
X296844D01*
X221854Y66419D02*
X238219D01*
X248746D02*
X254803D01*
X280843D02*
X296995D01*
X221703Y66513D02*
X238069D01*
X248595D02*
X254771D01*
X280991D02*
X297147D01*
X221549Y66607D02*
X237919D01*
X248448D02*
X254739D01*
X281138D02*
X297298D01*
X221383Y66700D02*
X237769D01*
X248302D02*
X254707D01*
X281285D02*
X297450D01*
X221243Y66794D02*
X237620D01*
X248156D02*
X254675D01*
X281432D02*
X297601D01*
X221102Y66888D02*
X237470D01*
X248009D02*
X254643D01*
X281580D02*
X297752D01*
X220960Y66981D02*
X237324D01*
X247863D02*
X254611D01*
X281727D02*
X297901D01*
X220811Y67075D02*
X237178D01*
X247716D02*
X254578D01*
X281874D02*
X298050D01*
X220661Y67169D02*
X237032D01*
X247567D02*
X254546D01*
X282022D02*
X298198D01*
X220511Y67263D02*
X236886D01*
X247419D02*
X254514D01*
X282171D02*
X298347D01*
X220361Y67356D02*
X236741D01*
X247270D02*
X254485D01*
X282320D02*
X298496D01*
X220205Y67450D02*
X236595D01*
X247121D02*
X254460D01*
X282469D02*
X298645D01*
X220048Y67544D02*
X236449D01*
X246972D02*
X254435D01*
X282617D02*
X298794D01*
X219896Y67637D02*
X236304D01*
X246824D02*
X254411D01*
X282766D02*
X298943D01*
X219749Y67731D02*
X236157D01*
X246675D02*
X254386D01*
X282915D02*
X299091D01*
X219602Y67825D02*
X236012D01*
X246522D02*
X254361D01*
X283064D02*
X299240D01*
X219441Y67919D02*
X235866D01*
X246367D02*
X254337D01*
X283213D02*
X299389D01*
X219267Y68012D02*
X235706D01*
X246213D02*
X254312D01*
X283361D02*
X299538D01*
X219093Y68106D02*
X235539D01*
X246059D02*
X254287D01*
X283510D02*
X299687D01*
X218942Y68200D02*
X235373D01*
X245904D02*
X254263D01*
X283659D02*
X299835D01*
X218807Y68293D02*
X235206D01*
X245750D02*
X254238D01*
X283808D02*
X299980D01*
X218671Y68387D02*
X235040D01*
X245596D02*
X254213D01*
X283957D02*
X300124D01*
X218536Y68481D02*
X234873D01*
X245444D02*
X254189D01*
X284106D02*
X300269D01*
X218383Y68574D02*
X234706D01*
X245293D02*
X254164D01*
X284259D02*
X300414D01*
X218226Y68668D02*
X234541D01*
X245142D02*
X254139D01*
X284411D02*
X300559D01*
X218070Y68762D02*
X234378D01*
X244991D02*
X254115D01*
X284563D02*
X300704D01*
X217914Y68856D02*
X234215D01*
X244840D02*
X254093D01*
X284715D02*
X300848D01*
X217758Y68949D02*
X234052D01*
X244689D02*
X254074D01*
X284868D02*
X300993D01*
X217602Y69043D02*
X233889D01*
X244538D02*
X254056D01*
X285020D02*
X301138D01*
X217446Y69137D02*
X233727D01*
X244386D02*
X254037D01*
X285172D02*
X301283D01*
X217294Y69230D02*
X233564D01*
X244230D02*
X254019D01*
X285324D02*
X301428D01*
X217149Y69324D02*
X233401D01*
X244074D02*
X254000D01*
X285477D02*
X301572D01*
X217004Y69418D02*
X233239D01*
X243918D02*
X253981D01*
X285629D02*
X301717D01*
X216859Y69511D02*
X233080D01*
X243761D02*
X253962D01*
X285781D02*
X301864D01*
X216714Y69605D02*
X232921D01*
X243605D02*
X253943D01*
X285933D02*
X302014D01*
X216563Y69699D02*
X232761D01*
X243449D02*
X253924D01*
X286086D02*
X302164D01*
X216409Y69793D02*
X232602D01*
X243293D02*
X253906D01*
X286242D02*
X302314D01*
X216256Y69886D02*
X232443D01*
X243141D02*
X253887D01*
X286398D02*
X302464D01*
X216103Y69980D02*
X232284D01*
X242991D02*
X253869D01*
X286554D02*
X302614D01*
X215949Y70074D02*
X232125D01*
X242841D02*
X253850D01*
X286710D02*
X302764D01*
X215793Y70167D02*
X231965D01*
X242691D02*
X253831D01*
X286867D02*
X302914D01*
X215637Y70261D02*
X231809D01*
X242541D02*
X253812D01*
X287022D02*
X303064D01*
X215480Y70355D02*
X231653D01*
X242391D02*
X253793D01*
X287179D02*
X303214D01*
X215324Y70448D02*
X231496D01*
X242241D02*
X253780D01*
X287335D02*
X303364D01*
X215168Y70542D02*
X231340D01*
X242091D02*
X253767D01*
X287491D02*
X303513D01*
X215012Y70636D02*
X231184D01*
X241940D02*
X253754D01*
X287647D02*
X303663D01*
X214856Y70730D02*
X231028D01*
X241785D02*
X253741D01*
X287804D02*
X303812D01*
X214700Y70823D02*
X230872D01*
X241631D02*
X253729D01*
X287960D02*
X303961D01*
X214544Y70917D02*
X230715D01*
X241476D02*
X253716D01*
X288115D02*
X304109D01*
X214388Y71011D02*
X230560D01*
X241321D02*
X253703D01*
X288270D02*
X304258D01*
X214234Y71104D02*
X230406D01*
X241167D02*
X253690D01*
X288426D02*
X304407D01*
X214081Y71198D02*
X230253D01*
X241012D02*
X253678D01*
X288581D02*
X304556D01*
X213927Y71292D02*
X230100D01*
X240857D02*
X253665D01*
X288736D02*
X304704D01*
X213774Y71385D02*
X229946D01*
X240705D02*
X253652D01*
X288891D02*
X304853D01*
X213620Y71479D02*
X229793D01*
X240551D02*
X253639D01*
X289046D02*
X305002D01*
X213466Y71573D02*
X229640D01*
X240399D02*
X253626D01*
X289201D02*
X305150D01*
X213313Y71667D02*
X229487D01*
X240248D02*
X253614D01*
X289356D02*
X305299D01*
X213159Y71760D02*
X229333D01*
X240096D02*
X253601D01*
X289511D02*
X305447D01*
X213005Y71854D02*
X229180D01*
X239944D02*
X244797D01*
X244806D02*
X253588D01*
X289666D02*
X305596D01*
X212852Y71948D02*
X229031D01*
X239793D02*
X244006D01*
X245559D02*
X253575D01*
X289821D02*
X305746D01*
X212700Y72041D02*
X228883D01*
X239641D02*
X243674D01*
X245840D02*
X253563D01*
X289978D02*
X305895D01*
X212550Y72135D02*
X228735D01*
X239489D02*
X243422D01*
X246056D02*
X253556D01*
X290137D02*
X306044D01*
X212399Y72229D02*
X228586D01*
X239336D02*
X243235D01*
X246207D02*
X253556D01*
X290297D02*
X306193D01*
X212248Y72322D02*
X228438D01*
X239180D02*
X243048D01*
X246360D02*
X253556D01*
X290457D02*
X306343D01*
X212097Y72416D02*
X228290D01*
X239024D02*
X242914D01*
X246505D02*
X253556D01*
X290617D02*
X306492D01*
X211946Y72510D02*
X228141D01*
X238868D02*
X242780D01*
X246616D02*
X253556D01*
X290776D02*
X306641D01*
X211796Y72604D02*
X227993D01*
X238712D02*
X242650D01*
X246726D02*
X253556D01*
X290936D02*
X306790D01*
X211645Y72697D02*
X227844D01*
X238556D02*
X242556D01*
X246837D02*
X253556D01*
X291095D02*
X306939D01*
X211494Y72791D02*
X227696D01*
X238399D02*
X242462D01*
X246948D02*
X253556D01*
X291255D02*
X307089D01*
X211344Y72885D02*
X227550D01*
X238243D02*
X242369D01*
X247087D02*
X253556D01*
X291415D02*
X307235D01*
X211195Y72978D02*
X227404D01*
X238087D02*
X242278D01*
X247246D02*
X253556D01*
X291574D02*
X307379D01*
X211046Y73072D02*
X227258D01*
X237935D02*
X242194D01*
X247406D02*
X253556D01*
X291733D02*
X307523D01*
X210896Y73166D02*
X227112D01*
X237789D02*
X242109D01*
X247565D02*
X253556D01*
X291882D02*
X307667D01*
X210747Y73259D02*
X226966D01*
X237642D02*
X242025D01*
X247731D02*
X253556D01*
X292031D02*
X307811D01*
X210598Y73353D02*
X226820D01*
X237496D02*
X241944D01*
X247909D02*
X253556D01*
X292180D02*
X307956D01*
X210449Y73447D02*
X226673D01*
X237349D02*
X241882D01*
X248085D02*
X253556D01*
X292328D02*
X308100D01*
X210300Y73541D02*
X226527D01*
X237202D02*
X241819D01*
X248263D02*
X253556D01*
X292478D02*
X308244D01*
X210151Y73634D02*
X226381D01*
X237056D02*
X241757D01*
X248473D02*
X253556D01*
X292626D02*
X308388D01*
X210002Y73728D02*
X226235D01*
X236909D02*
X241694D01*
X248701D02*
X253556D01*
X292775D02*
X308532D01*
X209852Y73822D02*
X226090D01*
X236763D02*
X241633D01*
X248928D02*
X253556D01*
X292931D02*
X308676D01*
X209702Y73915D02*
X225946D01*
X236616D02*
X241580D01*
X249173D02*
X253556D01*
X293087D02*
X308828D01*
X209552Y74009D02*
X225802D01*
X236462D02*
X241526D01*
X249423D02*
X253556D01*
X293244D02*
X308983D01*
X209402Y74103D02*
X225657D01*
X236307D02*
X241473D01*
X249685D02*
X253556D01*
X293400D02*
X309138D01*
X209252Y74196D02*
X225513D01*
X236152D02*
X241419D01*
X249985D02*
X253556D01*
X293556D02*
X309293D01*
X209102Y74290D02*
X225369D01*
X235998D02*
X241365D01*
X250297D02*
X253556D01*
X293712D02*
X309448D01*
X208952Y74384D02*
X225225D01*
X235843D02*
X241314D01*
X250672D02*
X253556D01*
X293868D02*
X309602D01*
X208803Y74478D02*
X225081D01*
X235688D02*
X241267D01*
X251231D02*
X253556D01*
X294020D02*
X309757D01*
X208652Y74571D02*
X224936D01*
X235533D02*
X241220D01*
X294167D02*
X309912D01*
X208501Y74665D02*
X224792D01*
X235378D02*
X241174D01*
X294314D02*
X310067D01*
X208350Y74759D02*
X224648D01*
X235224D02*
X241127D01*
X294461D02*
X310220D01*
X208199Y74852D02*
X224499D01*
X235069D02*
X241080D01*
X294609D02*
X310370D01*
X208048Y74946D02*
X224348D01*
X234914D02*
X241041D01*
X294756D02*
X310519D01*
X207897Y75040D02*
X224197D01*
X234759D02*
X241010D01*
X294903D02*
X310668D01*
X207746Y75133D02*
X224046D01*
X234604D02*
X240978D01*
X295050D02*
X310817D01*
X207595Y75227D02*
X223895D01*
X234450D02*
X240947D01*
X295198D02*
X310966D01*
X207443Y75321D02*
X223744D01*
X234294D02*
X240916D01*
X295347D02*
X311115D01*
X207291Y75415D02*
X223593D01*
X234140D02*
X240885D01*
X295498D02*
X311264D01*
X207138Y75508D02*
X223443D01*
X233985D02*
X240858D01*
X295649D02*
X311413D01*
X206986Y75602D02*
X223292D01*
X233830D02*
X240844D01*
X295800D02*
X311562D01*
X206833Y75696D02*
X223141D01*
X233675D02*
X240831D01*
X295950D02*
X311707D01*
X206681Y75789D02*
X222990D01*
X233528D02*
X240818D01*
X296101D02*
X311853D01*
X206533Y75883D02*
X222839D01*
X233384D02*
X240804D01*
X296252D02*
X311998D01*
X206389Y75977D02*
X222688D01*
X233240D02*
X240791D01*
X296402D02*
X312143D01*
X206246Y76070D02*
X222537D01*
X233096D02*
X240780D01*
X296553D02*
X312289D01*
X206102Y76164D02*
X222386D01*
X232951D02*
X240774D01*
X296703D02*
X312434D01*
X205959Y76258D02*
X222235D01*
X232793D02*
X240768D01*
X296847D02*
X312579D01*
X205815Y76352D02*
X222085D01*
X232606D02*
X240761D01*
X296991D02*
X312724D01*
X205674Y76445D02*
X221934D01*
X232419D02*
X240755D01*
X297135D02*
X312876D01*
X205540Y76539D02*
X221783D01*
X232231D02*
X240749D01*
X297280D02*
X313030D01*
X205406Y76633D02*
X221632D01*
X232044D02*
X240744D01*
X297424D02*
X313184D01*
X205272Y76726D02*
X221481D01*
X231865D02*
X240744D01*
X286650D02*
X286985D01*
X297568D02*
X313339D01*
X205139Y76820D02*
X221330D01*
X231705D02*
X240744D01*
X286677D02*
X287278D01*
X297712D02*
X313493D01*
X205005Y76914D02*
X221179D01*
X231544D02*
X240744D01*
X286704D02*
X287441D01*
X297856D02*
X313647D01*
X204862Y77007D02*
X221028D01*
X231385D02*
X240744D01*
X286731D02*
X287607D01*
X298000D02*
X313802D01*
X204707Y77101D02*
X220878D01*
X231229D02*
X240744D01*
X286757D02*
X287776D01*
X298144D02*
X313950D01*
X204551Y77195D02*
X220727D01*
X231073D02*
X240744D01*
X286784D02*
X287941D01*
X298291D02*
X314094D01*
X204395Y77289D02*
X220576D01*
X230917D02*
X240761D01*
X286811D02*
X288097D01*
X298444D02*
X314237D01*
X204240Y77382D02*
X220425D01*
X230760D02*
X240779D01*
X286838D02*
X288253D01*
X298596D02*
X314381D01*
X204084Y77476D02*
X220274D01*
X230617D02*
X240798D01*
X286865D02*
X288402D01*
X298749D02*
X314524D01*
X203928Y77570D02*
X220123D01*
X230492D02*
X240817D01*
X286891D02*
X288549D01*
X298902D02*
X314668D01*
X203773Y77663D02*
X219972D01*
X230367D02*
X240835D01*
X286918D02*
X288696D01*
X299055D02*
X314820D01*
X203617Y77757D02*
X219821D01*
X230242D02*
X240854D01*
X286945D02*
X288828D01*
X299207D02*
X314991D01*
X203461Y77851D02*
X219670D01*
X230117D02*
X240880D01*
X286972D02*
X288956D01*
X299360D02*
X315161D01*
X203306Y77944D02*
X219520D01*
X229986D02*
X240909D01*
X286998D02*
X289085D01*
X299513D02*
X315331D01*
X203150Y78038D02*
X219369D01*
X229845D02*
X240938D01*
X287025D02*
X289209D01*
X299665D02*
X315501D01*
X202994Y78132D02*
X219218D01*
X229670D02*
X240968D01*
X287052D02*
X289330D01*
X299818D02*
X315650D01*
X202839Y78226D02*
X219067D01*
X229434D02*
X240997D01*
X287079D02*
X289450D01*
X299971D02*
X315791D01*
X202683Y78319D02*
X218916D01*
X229309D02*
X241026D01*
X287106D02*
X289583D01*
X300123D02*
X315931D01*
X202528Y78413D02*
X218765D01*
X229185D02*
X241056D01*
X287132D02*
X289724D01*
X300275D02*
X316072D01*
X202372Y78507D02*
X218614D01*
X229102D02*
X241093D01*
X287159D02*
X289861D01*
X300426D02*
X316238D01*
X202217Y78600D02*
X218463D01*
X229020D02*
X241130D01*
X287186D02*
X289970D01*
X300578D02*
X316426D01*
X202061Y78694D02*
X218313D01*
X228937D02*
X241168D01*
X287213D02*
X290080D01*
X300730D02*
X316612D01*
X201905Y78788D02*
X218161D01*
X228864D02*
X241205D01*
X287239D02*
X290191D01*
X300882D02*
X316776D01*
X201750Y78881D02*
X218011D01*
X228796D02*
X241243D01*
X287266D02*
X290303D01*
X301034D02*
X317022D01*
X201594Y78975D02*
X217860D01*
X228728D02*
X241280D01*
X287293D02*
X290418D01*
X301186D02*
X317101D01*
X201438Y79069D02*
X217709D01*
X228660D02*
X241324D01*
X287320D02*
X290535D01*
X301338D02*
X317158D01*
X201291Y79163D02*
X217558D01*
X228593D02*
X241371D01*
X287347D02*
X290611D01*
X301490D02*
X317185D01*
X201291Y79256D02*
X217407D01*
X228546D02*
X241418D01*
X287380D02*
X290676D01*
X301641D02*
X317211D01*
X201291Y79350D02*
X217256D01*
X228499D02*
X241465D01*
X287413D02*
X290723D01*
X301793D02*
X317234D01*
X201291Y79444D02*
X217105D01*
X228452D02*
X241512D01*
X287447D02*
X290774D01*
X301943D02*
X317250D01*
X201291Y79537D02*
X216954D01*
X228406D02*
X241559D01*
X287480D02*
X290828D01*
X302092D02*
X317265D01*
X201291Y79631D02*
X216804D01*
X228359D02*
X241621D01*
X287513D02*
X290883D01*
X302241D02*
X317281D01*
X201291Y79725D02*
X216653D01*
X228313D02*
X241686D01*
X287546D02*
X290938D01*
X302391D02*
X317296D01*
X201291Y79819D02*
X216502D01*
X228272D02*
X241751D01*
X287580D02*
X290993D01*
X302540D02*
X317311D01*
X201291Y79912D02*
X216351D01*
X228231D02*
X241816D01*
X287613D02*
X291021D01*
X302689D02*
X317324D01*
X201291Y80006D02*
X216200D01*
X228190D02*
X241881D01*
X287646D02*
X291028D01*
X302839D02*
X317336D01*
X201291Y80100D02*
X216049D01*
X228149D02*
X241956D01*
X287680D02*
X291036D01*
X302988D02*
X317348D01*
X201291Y80193D02*
X215898D01*
X228108D02*
X242041D01*
X287713D02*
X291043D01*
X303137D02*
X317361D01*
X201291Y80287D02*
X215747D01*
X228067D02*
X242127D01*
X287746D02*
X291050D01*
X303287D02*
X317373D01*
X201291Y80381D02*
X215596D01*
X228031D02*
X242213D01*
X251587D02*
X251615D01*
X287778D02*
X291060D01*
X303436D02*
X317385D01*
X201291Y80474D02*
X215446D01*
X228000D02*
X242299D01*
X251457D02*
X251681D01*
X287801D02*
X291091D01*
X303585D02*
X317390D01*
X201291Y80568D02*
X215294D01*
X227969D02*
X242389D01*
X251326D02*
X251681D01*
X287824D02*
X291123D01*
X303735D02*
X317395D01*
X201291Y80662D02*
X215144D01*
X227938D02*
X242482D01*
X251196D02*
X251681D01*
X287846D02*
X291154D01*
X303882D02*
X317400D01*
X201291Y80756D02*
X214993D01*
X227907D02*
X242576D01*
X251066D02*
X251681D01*
X287869D02*
X291185D01*
X304029D02*
X317405D01*
X201291Y80849D02*
X214842D01*
X227875D02*
X242670D01*
X250936D02*
X251681D01*
X287891D02*
X291217D01*
X304175D02*
X317410D01*
X201291Y80943D02*
X214691D01*
X227844D02*
X242763D01*
X250806D02*
X251681D01*
X287914D02*
X291248D01*
X304322D02*
X317415D01*
X201291Y81037D02*
X214540D01*
X227813D02*
X242870D01*
X250676D02*
X251669D01*
X287937D02*
X291279D01*
X304468D02*
X317420D01*
X201291Y81130D02*
X214389D01*
X227781D02*
X242992D01*
X250539D02*
X251656D01*
X287959D02*
X291310D01*
X304615D02*
X317424D01*
X201291Y81224D02*
X214239D01*
X227750D02*
X243114D01*
X250398D02*
X251643D01*
X287982D02*
X291341D01*
X304761D02*
X317428D01*
X201291Y81318D02*
X214087D01*
X227719D02*
X243235D01*
X250258D02*
X251620D01*
X288005D02*
X291372D01*
X304911D02*
X317433D01*
X201291Y81411D02*
X213937D01*
X227688D02*
X243367D01*
X250117D02*
X251596D01*
X288028D02*
X291404D01*
X305061D02*
X317437D01*
X201291Y81505D02*
X213786D01*
X227657D02*
X243524D01*
X249977D02*
X251573D01*
X288050D02*
X291435D01*
X305211D02*
X317441D01*
X201291Y81599D02*
X213635D01*
X227625D02*
X243680D01*
X249836D02*
X251551D01*
X288073D02*
X291451D01*
X305360D02*
X317445D01*
X201291Y81693D02*
X213484D01*
X227594D02*
X243836D01*
X249666D02*
X251530D01*
X288096D02*
X291459D01*
X305510D02*
X317449D01*
X201291Y81786D02*
X213333D01*
X227563D02*
X244015D01*
X249487D02*
X251509D01*
X288119D02*
X291466D01*
X305660D02*
X317453D01*
X201291Y81880D02*
X213182D01*
X227534D02*
X244214D01*
X249308D02*
X251489D01*
X288141D02*
X291473D01*
X305806D02*
X317457D01*
X201291Y81974D02*
X213031D01*
X227511D02*
X244413D01*
X249129D02*
X251464D01*
X288164D02*
X291480D01*
X305949D02*
X317461D01*
X201291Y82067D02*
X212880D01*
X227487D02*
X244612D01*
X248939D02*
X251438D01*
X288187D02*
X291490D01*
X306093D02*
X317465D01*
X201291Y82161D02*
X212730D01*
X227464D02*
X244811D01*
X248704D02*
X251413D01*
X288209D02*
X291509D01*
X306237D02*
X317468D01*
X201291Y82255D02*
X212579D01*
X227440D02*
X245010D01*
X248470D02*
X251387D01*
X288232D02*
X291528D01*
X306380D02*
X317472D01*
X201291Y82348D02*
X212428D01*
X227417D02*
X245209D01*
X248236D02*
X251362D01*
X288255D02*
X291547D01*
X306524D02*
X317475D01*
X201291Y82442D02*
X212277D01*
X227393D02*
X245528D01*
X247880D02*
X251339D01*
X288278D02*
X291567D01*
X306674D02*
X317479D01*
X201291Y82536D02*
X212126D01*
X227370D02*
X245865D01*
X247506D02*
X251315D01*
X288300D02*
X291585D01*
X306833D02*
X317482D01*
X201291Y82630D02*
X211975D01*
X227346D02*
X251292D01*
X288323D02*
X291605D01*
X306992D02*
X317485D01*
X201291Y82723D02*
X211824D01*
X227323D02*
X251269D01*
X288346D02*
X291624D01*
X307150D02*
X317489D01*
X201291Y82817D02*
X211673D01*
X227301D02*
X251245D01*
X288369D02*
X291643D01*
X307309D02*
X317493D01*
X201291Y82911D02*
X211522D01*
X227281D02*
X251222D01*
X288391D02*
X291662D01*
X307467D02*
X317496D01*
X201291Y83004D02*
X211372D01*
X227261D02*
X251198D01*
X288410D02*
X291681D01*
X307607D02*
X317499D01*
X201291Y83098D02*
X211221D01*
X227240D02*
X251175D01*
X288426D02*
X291700D01*
X307748D02*
X317502D01*
X201291Y83192D02*
X211070D01*
X227220D02*
X251152D01*
X288442D02*
X291720D01*
X307888D02*
X317502D01*
X201291Y83285D02*
X210919D01*
X227200D02*
X251128D01*
X288458D02*
X291739D01*
X308029D02*
X317502D01*
X201291Y83379D02*
X210768D01*
X227181D02*
X251105D01*
X288474D02*
X291758D01*
X308169D02*
X317502D01*
X201291Y83473D02*
X210617D01*
X227164D02*
X251081D01*
X288490D02*
X291777D01*
X308311D02*
X317502D01*
X201291Y83567D02*
X210466D01*
X227146D02*
X251058D01*
X288506D02*
X291796D01*
X308460D02*
X317502D01*
X201291Y83660D02*
X210315D01*
X227129D02*
X251040D01*
X288522D02*
X291815D01*
X308608D02*
X317502D01*
X201291Y83754D02*
X210165D01*
X227111D02*
X251023D01*
X288538D02*
X291835D01*
X308756D02*
X317502D01*
X201291Y83848D02*
X210014D01*
X227094D02*
X251006D01*
X288554D02*
X291849D01*
X308905D02*
X317502D01*
X201291Y83941D02*
X209863D01*
X227076D02*
X250989D01*
X288570D02*
X291862D01*
X309056D02*
X317502D01*
X201291Y84035D02*
X209712D01*
X227064D02*
X250972D01*
X288587D02*
X291875D01*
X309218D02*
X317502D01*
X201291Y84129D02*
X209561D01*
X227054D02*
X250955D01*
X288602D02*
X291888D01*
X309380D02*
X317502D01*
X201291Y84222D02*
X209410D01*
X227043D02*
X250938D01*
X288619D02*
X291901D01*
X309541D02*
X317502D01*
X201291Y84316D02*
X209259D01*
X210544D02*
X210942D01*
X227033D02*
X250921D01*
X288635D02*
X291914D01*
X307849D02*
X308140D01*
X309704D02*
X317498D01*
X201291Y84410D02*
X209108D01*
X210360D02*
X211127D01*
X227022D02*
X250904D01*
X288648D02*
X291927D01*
X307661D02*
X308292D01*
X309855D02*
X317493D01*
X201291Y84504D02*
X208957D01*
X210191D02*
X211312D01*
X227012D02*
X250887D01*
X288661D02*
X291940D01*
X307474D02*
X308444D01*
X310000D02*
X317489D01*
X201291Y84597D02*
X208806D01*
X210024D02*
X211498D01*
X227001D02*
X250870D01*
X288675D02*
X291954D01*
X307287D02*
X308596D01*
X310144D02*
X317484D01*
X201291Y84691D02*
X208656D01*
X209872D02*
X211683D01*
X226993D02*
X250853D01*
X288688D02*
X291967D01*
X307099D02*
X308748D01*
X310289D02*
X317480D01*
X201291Y84785D02*
X208505D01*
X209720D02*
X211869D01*
X226988D02*
X250836D01*
X288702D02*
X291980D01*
X306912D02*
X308900D01*
X310434D02*
X317475D01*
X201291Y84878D02*
X208354D01*
X209568D02*
X212054D01*
X226983D02*
X250820D01*
X288715D02*
X291993D01*
X306724D02*
X309052D01*
X310584D02*
X317471D01*
X201291Y84972D02*
X208203D01*
X209413D02*
X212239D01*
X226979D02*
X250812D01*
X288728D02*
X292006D01*
X306537D02*
X309204D01*
X310734D02*
X317466D01*
X201291Y85066D02*
X208052D01*
X209256D02*
X212425D01*
X226975D02*
X250804D01*
X288742D02*
X292019D01*
X306350D02*
X309357D01*
X310884D02*
X317462D01*
X201291Y85159D02*
X207901D01*
X209100D02*
X212610D01*
X226970D02*
X250795D01*
X288755D02*
X292032D01*
X306162D02*
X309509D01*
X311033D02*
X317457D01*
X201291Y85253D02*
X207750D01*
X208947D02*
X212796D01*
X226966D02*
X250786D01*
X288769D02*
X292045D01*
X305975D02*
X309661D01*
X311176D02*
X317453D01*
X201291Y85347D02*
X207599D01*
X208782D02*
X212981D01*
X226961D02*
X250778D01*
X288782D02*
X292058D01*
X305787D02*
X309813D01*
X311316D02*
X317448D01*
X201291Y85441D02*
X207448D01*
X208620D02*
X213167D01*
X226957D02*
X250769D01*
X288795D02*
X292071D01*
X305600D02*
X309965D01*
X311457D02*
X317444D01*
X201291Y85534D02*
X207298D01*
X208458D02*
X213352D01*
X226951D02*
X250761D01*
X288809D02*
X292080D01*
X305413D02*
X310117D01*
X311597D02*
X317439D01*
X201291Y85628D02*
X207147D01*
X208296D02*
X213537D01*
X226943D02*
X250752D01*
X288822D02*
X292089D01*
X305225D02*
X310269D01*
X311734D02*
X317435D01*
X201291Y85722D02*
X206996D01*
X208136D02*
X213722D01*
X226935D02*
X250744D01*
X288833D02*
X292098D01*
X305038D02*
X310421D01*
X311870D02*
X317430D01*
X201291Y85815D02*
X206845D01*
X207978D02*
X213908D01*
X226927D02*
X250735D01*
X288841D02*
X292107D01*
X304850D02*
X310573D01*
X312005D02*
X317426D01*
X201291Y85909D02*
X206694D01*
X207819D02*
X214093D01*
X226919D02*
X250727D01*
X288848D02*
X292116D01*
X304663D02*
X310725D01*
X312140D02*
X317421D01*
X201291Y86003D02*
X206543D01*
X207660D02*
X214279D01*
X226911D02*
X250718D01*
X288856D02*
X292125D01*
X304476D02*
X310878D01*
X312292D02*
X317417D01*
X201291Y86096D02*
X206392D01*
X207502D02*
X214464D01*
X226904D02*
X250709D01*
X288863D02*
X292134D01*
X304288D02*
X311030D01*
X312444D02*
X317412D01*
X201291Y86190D02*
X206241D01*
X207345D02*
X214650D01*
X226896D02*
X250705D01*
X288871D02*
X292143D01*
X304101D02*
X311181D01*
X312596D02*
X317408D01*
X201291Y86284D02*
X206091D01*
X207203D02*
X214835D01*
X226888D02*
X250705D01*
X288878D02*
X292152D01*
X303913D02*
X311334D01*
X312746D02*
X317403D01*
X201291Y86378D02*
X205940D01*
X207063D02*
X215020D01*
X226880D02*
X250705D01*
X288886D02*
X292161D01*
X303726D02*
X311486D01*
X312893D02*
X317399D01*
X201294Y86471D02*
X205789D01*
X206922D02*
X215206D01*
X226874D02*
X250705D01*
X288894D02*
X292169D01*
X303539D02*
X311638D01*
X313040D02*
X317394D01*
X201299Y86565D02*
X205638D01*
X206781D02*
X215391D01*
X226871D02*
X250705D01*
X288901D02*
X292178D01*
X303351D02*
X311790D01*
X313193D02*
X317390D01*
X201304Y86659D02*
X205487D01*
X206641D02*
X215577D01*
X226867D02*
X250705D01*
X288909D02*
X292187D01*
X303164D02*
X311942D01*
X313349D02*
X317385D01*
X201308Y86752D02*
X205336D01*
X206500D02*
X215762D01*
X226863D02*
X250705D01*
X288917D02*
X292196D01*
X302976D02*
X312094D01*
X313500D02*
X317381D01*
X201313Y86846D02*
X205185D01*
X206355D02*
X215948D01*
X226859D02*
X250705D01*
X288924D02*
X292205D01*
X302789D02*
X312246D01*
X313625D02*
X317376D01*
X201317Y86940D02*
X205034D01*
X206198D02*
X216133D01*
X226856D02*
X250705D01*
X288932D02*
X292214D01*
X302602D02*
X312399D01*
X313750D02*
X317372D01*
X201321Y87033D02*
X204883D01*
X206042D02*
X216318D01*
X226852D02*
X250705D01*
X288939D02*
X292223D01*
X302414D02*
X312554D01*
X313891D02*
X317367D01*
X201326Y87127D02*
X204733D01*
X205886D02*
X216504D01*
X226848D02*
X250705D01*
X288947D02*
X292231D01*
X302227D02*
X312710D01*
X314041D02*
X317363D01*
X201330Y87221D02*
X204581D01*
X205730D02*
X216689D01*
X226844D02*
X250705D01*
X288952D02*
X292237D01*
X302039D02*
X312866D01*
X314193D02*
X317358D01*
X201330Y87315D02*
X204431D01*
X205574D02*
X216874D01*
X226841D02*
X250705D01*
X288957D02*
X292244D01*
X301852D02*
X313022D01*
X314344D02*
X317354D01*
X201330Y87408D02*
X204280D01*
X205418D02*
X217060D01*
X226837D02*
X250705D01*
X288962D02*
X292251D01*
X301665D02*
X313177D01*
X314496D02*
X317349D01*
X201330Y87502D02*
X204129D01*
X205271D02*
X217245D01*
X226837D02*
X250706D01*
X288967D02*
X292257D01*
X301477D02*
X313333D01*
X314648D02*
X317345D01*
X201330Y87596D02*
X203978D01*
X205124D02*
X217431D01*
X226837D02*
X250712D01*
X288972D02*
X292264D01*
X301290D02*
X313489D01*
X314800D02*
X317341D01*
X201330Y87689D02*
X203827D01*
X204976D02*
X217616D01*
X226837D02*
X250717D01*
X288977D02*
X292271D01*
X301108D02*
X313644D01*
X314952D02*
X317336D01*
X201330Y87783D02*
X203676D01*
X204830D02*
X217802D01*
X226837D02*
X250723D01*
X288982D02*
X292278D01*
X300930D02*
X313800D01*
X315103D02*
X317331D01*
X201330Y87877D02*
X203526D01*
X204682D02*
X217987D01*
X226837D02*
X250729D01*
X288987D02*
X292284D01*
X300752D02*
X313956D01*
X315255D02*
X317327D01*
X201334Y87970D02*
X203374D01*
X204531D02*
X218174D01*
X226837D02*
X250735D01*
X288993D02*
X292291D01*
X300574D02*
X314111D01*
X315407D02*
X317322D01*
X201342Y88064D02*
X203224D01*
X204369D02*
X218363D01*
X226837D02*
X250740D01*
X288998D02*
X292298D01*
X300395D02*
X314267D01*
X315559D02*
X317318D01*
X201349Y88158D02*
X203073D01*
X204207D02*
X218551D01*
X226837D02*
X250746D01*
X289003D02*
X292304D01*
X300217D02*
X314423D01*
X315710D02*
X317313D01*
X201356Y88252D02*
X202922D01*
X204045D02*
X218740D01*
X226837D02*
X250752D01*
X289008D02*
X292311D01*
X300038D02*
X314579D01*
X315862D02*
X317309D01*
X201363Y88345D02*
X202771D01*
X203883D02*
X218928D01*
X226837D02*
X250757D01*
X289013D02*
X292318D01*
X299859D02*
X314734D01*
X316014D02*
X317304D01*
X201371Y88439D02*
X202620D01*
X203736D02*
X219117D01*
X226837D02*
X250763D01*
X289018D02*
X292325D01*
X299680D02*
X314890D01*
X316166D02*
X317300D01*
X201381Y88533D02*
X202469D01*
X203595D02*
X219305D01*
X226837D02*
X250769D01*
X289023D02*
X292331D01*
X299501D02*
X315046D01*
X316318D02*
X317295D01*
X201390Y88626D02*
X202319D01*
X203455D02*
X219494D01*
X226834D02*
X250774D01*
X289027D02*
X292338D01*
X299322D02*
X315202D01*
X316469D02*
X317291D01*
X201399Y88720D02*
X202167D01*
X203315D02*
X219682D01*
X226831D02*
X250780D01*
X289029D02*
X292345D01*
X299143D02*
X315357D01*
X316621D02*
X317287D01*
X201410Y88814D02*
X202017D01*
X203168D02*
X219870D01*
X226828D02*
X250789D01*
X289031D02*
X292347D01*
X298964D02*
X315513D01*
X316773D02*
X317282D01*
X201442Y88907D02*
X201866D01*
X203016D02*
X220059D01*
X226825D02*
X250803D01*
X289034D02*
X292350D01*
X298785D02*
X315669D01*
X316925D02*
X317278D01*
X201473Y89001D02*
X201715D01*
X202863D02*
X220248D01*
X226822D02*
X250817D01*
X289036D02*
X292352D01*
X298606D02*
X315824D01*
X317077D02*
X317273D01*
X201513Y89095D02*
X201564D01*
X202713D02*
X220436D01*
X226819D02*
X250831D01*
X289039D02*
X292354D01*
X298426D02*
X315980D01*
X317228D02*
X317269D01*
X202572Y89189D02*
X220624D01*
X226816D02*
X250844D01*
X289041D02*
X292356D01*
X298246D02*
X316136D01*
X202432Y89282D02*
X220813D01*
X226813D02*
X250858D01*
X289043D02*
X292358D01*
X298067D02*
X316291D01*
X202310Y89376D02*
X221002D01*
X226809D02*
X250872D01*
X289046D02*
X292361D01*
X297889D02*
X316447D01*
X202198Y89470D02*
X221190D01*
X226806D02*
X250886D01*
X289048D02*
X292363D01*
X297718D02*
X316603D01*
X202069Y89563D02*
X221378D01*
X226803D02*
X250900D01*
X289050D02*
X292365D01*
X297546D02*
X316759D01*
X202154Y89657D02*
X221567D01*
X226800D02*
X250913D01*
X289053D02*
X292367D01*
X297374D02*
X316822D01*
X202317Y89751D02*
X221756D01*
X226800D02*
X250927D01*
X289056D02*
X292370D01*
X297203D02*
X316822D01*
X202480Y89844D02*
X221944D01*
X226803D02*
X250941D01*
X289058D02*
X292372D01*
X297030D02*
X316770D01*
X202643Y89938D02*
X222132D01*
X226806D02*
X250955D01*
X289060D02*
X292374D01*
X296851D02*
X316653D01*
X202806Y90032D02*
X222321D01*
X226809D02*
X250969D01*
X289063D02*
X292376D01*
X296673D02*
X316459D01*
X202969Y90126D02*
X222509D01*
X226812D02*
X250984D01*
X289064D02*
X292378D01*
X296495D02*
X316260D01*
X203132Y90219D02*
X222698D01*
X226815D02*
X251004D01*
X289062D02*
X292381D01*
X296315D02*
X316167D01*
X203295Y90313D02*
X222886D01*
X226818D02*
X251023D01*
X289060D02*
X292383D01*
X296116D02*
X316073D01*
X203458Y90407D02*
X223075D01*
X226821D02*
X251042D01*
X289058D02*
X292382D01*
X295917D02*
X315979D01*
X203621Y90500D02*
X223263D01*
X226824D02*
X251061D01*
X289056D02*
X292378D01*
X295718D02*
X315831D01*
X203784Y90594D02*
X223452D01*
X226827D02*
X251081D01*
X289055D02*
X292374D01*
X295537D02*
X315474D01*
X203947Y90688D02*
X223640D01*
X226830D02*
X251100D01*
X289053D02*
X292369D01*
X295363D02*
X315239D01*
X204110Y90781D02*
X223829D01*
X226833D02*
X251119D01*
X289051D02*
X292365D01*
X295189D02*
X314999D01*
X204273Y90875D02*
X224017D01*
X226836D02*
X251139D01*
X289049D02*
X292360D01*
X295010D02*
X314756D01*
X204437Y90969D02*
X224206D01*
X226837D02*
X251158D01*
X289047D02*
X292356D01*
X294830D02*
X314536D01*
X204600Y91063D02*
X224394D01*
X226837D02*
X251177D01*
X289046D02*
X292351D01*
X294650D02*
X314335D01*
X204763Y91156D02*
X224583D01*
X226837D02*
X251196D01*
X289044D02*
X292347D01*
X294470D02*
X314134D01*
X204926Y91250D02*
X224771D01*
X226837D02*
X251216D01*
X289042D02*
X292343D01*
X294289D02*
X313907D01*
X205089Y91344D02*
X224890D01*
X226837D02*
X251235D01*
X289040D02*
X292338D01*
X294163D02*
X313667D01*
X205252Y91437D02*
X224905D01*
X226837D02*
X251255D01*
X289039D02*
X292333D01*
X294116D02*
X313426D01*
X205415Y91531D02*
X224920D01*
X226837D02*
X251280D01*
X289037D02*
X292329D01*
X294069D02*
X313231D01*
X205635Y91625D02*
X224935D01*
X226837D02*
X251305D01*
X289035D02*
X292324D01*
X294022D02*
X313053D01*
X205861Y91719D02*
X224950D01*
X226837D02*
X251330D01*
X289033D02*
X292320D01*
X293975D02*
X312875D01*
X206087Y91812D02*
X224965D01*
X226837D02*
X251354D01*
X289031D02*
X292316D01*
X293935D02*
X312697D01*
X206314Y91906D02*
X224980D01*
X226837D02*
X251379D01*
X289030D02*
X292311D01*
X293907D02*
X312498D01*
X206541Y92000D02*
X224995D01*
X226837D02*
X251404D01*
X289028D02*
X292307D01*
X293878D02*
X312282D01*
X206738Y92093D02*
X225010D01*
X226839D02*
X251429D01*
X289026D02*
X292300D01*
X293849D02*
X312067D01*
X206933Y92187D02*
X225025D01*
X226843D02*
X251454D01*
X289020D02*
X292293D01*
X293820D02*
X311851D01*
X207128Y92281D02*
X225040D01*
X226846D02*
X251478D01*
X289013D02*
X292287D01*
X293791D02*
X311646D01*
X207322Y92374D02*
X225055D01*
X226850D02*
X251503D01*
X289006D02*
X292280D01*
X293775D02*
X311459D01*
X207517Y92468D02*
X225070D01*
X226854D02*
X251528D01*
X288998D02*
X292273D01*
X293760D02*
X311272D01*
X207711Y92562D02*
X225085D01*
X226857D02*
X251553D01*
X288990D02*
X292266D01*
X293744D02*
X311084D01*
X207905Y92656D02*
X225100D01*
X226861D02*
X251578D01*
X288983D02*
X292259D01*
X293729D02*
X310897D01*
X208099Y92749D02*
X225115D01*
X226864D02*
X251602D01*
X288975D02*
X292252D01*
X293713D02*
X310712D01*
X208293Y92843D02*
X225130D01*
X226868D02*
X251635D01*
X288968D02*
X292245D01*
X293706D02*
X310531D01*
X208487Y92937D02*
X225145D01*
X226872D02*
X251668D01*
X288960D02*
X292238D01*
X293698D02*
X310351D01*
X208681Y93030D02*
X225160D01*
X226875D02*
X251700D01*
X288953D02*
X292231D01*
X293691D02*
X310170D01*
X208885Y93124D02*
X225175D01*
X226881D02*
X251733D01*
X288945D02*
X292225D01*
X293684D02*
X309989D01*
X209094Y93218D02*
X225190D01*
X226889D02*
X251765D01*
X288938D02*
X292218D01*
X293677D02*
X309808D01*
X209303Y93311D02*
X225205D01*
X226897D02*
X251798D01*
X288930D02*
X292211D01*
X293672D02*
X309617D01*
X209512Y93405D02*
X225220D01*
X226905D02*
X251831D01*
X288923D02*
X292204D01*
X293670D02*
X309416D01*
X209721Y93499D02*
X225235D01*
X226913D02*
X251863D01*
X288915D02*
X292197D01*
X293668D02*
X309215D01*
X209929Y93593D02*
X225250D01*
X226920D02*
X251896D01*
X288908D02*
X292190D01*
X293666D02*
X309000D01*
X210132Y93686D02*
X225265D01*
X226928D02*
X251930D01*
X288900D02*
X292180D01*
X293664D02*
X308778D01*
X210335Y93780D02*
X225280D01*
X226936D02*
X251965D01*
X288893D02*
X292168D01*
X293662D02*
X308555D01*
X210538Y93874D02*
X225295D01*
X226944D02*
X252001D01*
X288885D02*
X292156D01*
X293660D02*
X308334D01*
X210741Y93967D02*
X225310D01*
X226952D02*
X252037D01*
X288878D02*
X292144D01*
X293658D02*
X308115D01*
X210944Y94061D02*
X225325D01*
X226957D02*
X252072D01*
X288870D02*
X292133D01*
X293656D02*
X307896D01*
X211147Y94155D02*
X225340D01*
X226962D02*
X252108D01*
X288860D02*
X292121D01*
X293654D02*
X307678D01*
X211350Y94248D02*
X225353D01*
X226966D02*
X252143D01*
X288848D02*
X292109D01*
X293652D02*
X307467D01*
X211553Y94342D02*
X225353D01*
X226970D02*
X252179D01*
X288837D02*
X292098D01*
X293649D02*
X307263D01*
X211756Y94436D02*
X225353D01*
X226974D02*
X252215D01*
X288825D02*
X292086D01*
X293647D02*
X307058D01*
X211959Y94530D02*
X225353D01*
X226979D02*
X252253D01*
X288814D02*
X292074D01*
X293645D02*
X306854D01*
X212164Y94623D02*
X225353D01*
X226983D02*
X252292D01*
X288802D02*
X292063D01*
X293643D02*
X306649D01*
X212369Y94717D02*
X225353D01*
X226987D02*
X252332D01*
X288791D02*
X292051D01*
X293641D02*
X306454D01*
X212573Y94811D02*
X225362D01*
X226991D02*
X252371D01*
X288779D02*
X292039D01*
X293639D02*
X306259D01*
X212778Y94904D02*
X225374D01*
X226998D02*
X252411D01*
X288768D02*
X292027D01*
X293637D02*
X306065D01*
X212971Y94998D02*
X225387D01*
X227007D02*
X252450D01*
X288756D02*
X292016D01*
X293635D02*
X305870D01*
X213159Y95092D02*
X225400D01*
X227017D02*
X252490D01*
X288745D02*
X292004D01*
X293626D02*
X305676D01*
X213346Y95185D02*
X225412D01*
X227026D02*
X252529D01*
X288733D02*
X291992D01*
X293615D02*
X305465D01*
X213533Y95279D02*
X225424D01*
X227036D02*
X252580D01*
X288722D02*
X291974D01*
X293604D02*
X305242D01*
X213722Y95373D02*
X225436D01*
X227045D02*
X252635D01*
X288710D02*
X291957D01*
X293593D02*
X305019D01*
X213951Y95467D02*
X225446D01*
X227054D02*
X252690D01*
X288699D02*
X291941D01*
X293582D02*
X304795D01*
X214180Y95560D02*
X225457D01*
X227064D02*
X252745D01*
X288687D02*
X291923D01*
X293571D02*
X304572D01*
X214409Y95654D02*
X225467D01*
X227074D02*
X252800D01*
X288676D02*
X291906D01*
X293560D02*
X304352D01*
X214624Y95748D02*
X225478D01*
X227091D02*
X252856D01*
X288665D02*
X291889D01*
X293549D02*
X304159D01*
X214802Y95841D02*
X225488D01*
X227107D02*
X252911D01*
X288653D02*
X291872D01*
X293539D02*
X303966D01*
X214980Y95935D02*
X225498D01*
X227124D02*
X252970D01*
X288641D02*
X291855D01*
X293528D02*
X303772D01*
X215158Y96029D02*
X225509D01*
X227140D02*
X253033D01*
X288628D02*
X291838D01*
X293517D02*
X303579D01*
X215341Y96122D02*
X225519D01*
X227157D02*
X253095D01*
X288610D02*
X291821D01*
X293506D02*
X303386D01*
X215564Y96216D02*
X225529D01*
X227173D02*
X253158D01*
X288593D02*
X291804D01*
X293495D02*
X303193D01*
X215786Y96310D02*
X225539D01*
X227190D02*
X253220D01*
X288575D02*
X291787D01*
X293484D02*
X302994D01*
X216009Y96404D02*
X225548D01*
X227208D02*
X253283D01*
X288557D02*
X291770D01*
X293473D02*
X302789D01*
X216213Y96497D02*
X225558D01*
X227227D02*
X253354D01*
X260980D02*
X262091D01*
X288540D02*
X291753D01*
X293462D02*
X302584D01*
X216412Y96591D02*
X225568D01*
X227246D02*
X253440D01*
X260774D02*
X262353D01*
X288522D02*
X291736D01*
X293451D02*
X302380D01*
X216611Y96685D02*
X225578D01*
X227265D02*
X253526D01*
X260580D02*
X262587D01*
X288505D02*
X291719D01*
X293441D02*
X302174D01*
X216800Y96778D02*
X225588D01*
X227283D02*
X253611D01*
X260416D02*
X262751D01*
X288487D02*
X291702D01*
X293423D02*
X301969D01*
X216976Y96872D02*
X225604D01*
X227302D02*
X253697D01*
X260252D02*
X262915D01*
X288470D02*
X291685D01*
X293405D02*
X301765D01*
X217151Y96966D02*
X225619D01*
X227326D02*
X253786D01*
X260088D02*
X263079D01*
X288452D02*
X291668D01*
X293387D02*
X301555D01*
X217332Y97059D02*
X225635D01*
X227352D02*
X253880D01*
X259928D02*
X263169D01*
X288434D02*
X291651D01*
X293368D02*
X301344D01*
X217551Y97153D02*
X225650D01*
X227377D02*
X253973D01*
X259769D02*
X263255D01*
X288417D02*
X291634D01*
X293350D02*
X301133D01*
X217770Y97247D02*
X225666D01*
X227402D02*
X254067D01*
X259610D02*
X263341D01*
X288399D02*
X291617D01*
X293331D02*
X300922D01*
X217961Y97341D02*
X225682D01*
X227428D02*
X254161D01*
X259450D02*
X263427D01*
X288382D02*
X291599D01*
X293313D02*
X300712D01*
X218135Y97434D02*
X225697D01*
X227453D02*
X254291D01*
X259269D02*
X263513D01*
X288364D02*
X291577D01*
X293295D02*
X300501D01*
X218308Y97528D02*
X225711D01*
X227479D02*
X254431D01*
X259082D02*
X263577D01*
X288346D02*
X291556D01*
X293277D02*
X300291D01*
X218505Y97622D02*
X225724D01*
X227504D02*
X254572D01*
X258894D02*
X263639D01*
X288329D02*
X291534D01*
X293259D02*
X300092D01*
X218711Y97715D02*
X225736D01*
X227530D02*
X254728D01*
X258705D02*
X263702D01*
X288311D02*
X291512D01*
X293240D02*
X299892D01*
X218906Y97809D02*
X225749D01*
X227555D02*
X254902D01*
X258439D02*
X263764D01*
X288294D02*
X291491D01*
X293222D02*
X299692D01*
X219093Y97903D02*
X225761D01*
X227580D02*
X255076D01*
X258174D02*
X263826D01*
X288274D02*
X291469D01*
X293204D02*
X299492D01*
X219293Y97996D02*
X225774D01*
X227606D02*
X255319D01*
X257850D02*
X263889D01*
X288250D02*
X291448D01*
X293185D02*
X299292D01*
X219504Y98090D02*
X225785D01*
X227631D02*
X255624D01*
X257476D02*
X263941D01*
X288225D02*
X291426D01*
X293167D02*
X299092D01*
X219724Y98184D02*
X225793D01*
X227656D02*
X263987D01*
X288200D02*
X291404D01*
X293149D02*
X298876D01*
X219947Y98278D02*
X225801D01*
X227682D02*
X264034D01*
X288176D02*
X291383D01*
X293130D02*
X298657D01*
X220170Y98371D02*
X225809D01*
X227707D02*
X264081D01*
X288152D02*
X291361D01*
X293106D02*
X298439D01*
X220392Y98465D02*
X225817D01*
X227733D02*
X264128D01*
X288127D02*
X291339D01*
X293080D02*
X298220D01*
X220615Y98559D02*
X225825D01*
X227758D02*
X264175D01*
X288103D02*
X291318D01*
X293053D02*
X298002D01*
X220838Y98652D02*
X225837D01*
X227783D02*
X264222D01*
X288078D02*
X291296D01*
X293027D02*
X297795D01*
X221061Y98746D02*
X225849D01*
X227809D02*
X264265D01*
X288054D02*
X291274D01*
X293000D02*
X297591D01*
X221289Y98840D02*
X225860D01*
X227834D02*
X264295D01*
X288030D02*
X291253D01*
X292974D02*
X297386D01*
X221516Y98933D02*
X225872D01*
X227860D02*
X264325D01*
X288005D02*
X291231D01*
X292947D02*
X297181D01*
X221740Y99027D02*
X225883D01*
X227885D02*
X264355D01*
X287981D02*
X291209D01*
X292921D02*
X296979D01*
X221954Y99121D02*
X225894D01*
X227911D02*
X264384D01*
X287956D02*
X291188D01*
X292894D02*
X296782D01*
X222169Y99215D02*
X225905D01*
X227937D02*
X264414D01*
X287932D02*
X291166D01*
X292868D02*
X296585D01*
X222390Y99308D02*
X225917D01*
X227969D02*
X264444D01*
X287907D02*
X291144D01*
X292842D02*
X296389D01*
X222624Y99402D02*
X225928D01*
X228001D02*
X264474D01*
X287883D02*
X291120D01*
X292815D02*
X296189D01*
X222858Y99496D02*
X225939D01*
X228033D02*
X264504D01*
X287859D02*
X291093D01*
X292789D02*
X295961D01*
X223065Y99589D02*
X225950D01*
X228064D02*
X264533D01*
X287834D02*
X291065D01*
X292763D02*
X295734D01*
X223269Y99683D02*
X225961D01*
X228096D02*
X264553D01*
X287809D02*
X291037D01*
X292736D02*
X295511D01*
X223486Y99777D02*
X225973D01*
X228128D02*
X264572D01*
X287779D02*
X291010D01*
X292709D02*
X295308D01*
X223730Y99870D02*
X225984D01*
X228160D02*
X264592D01*
X287749D02*
X290982D01*
X292697D02*
X295105D01*
X223977Y99964D02*
X225995D01*
X228192D02*
X264611D01*
X287719D02*
X290955D01*
X292697D02*
X294880D01*
X224235Y100058D02*
X226006D01*
X228223D02*
X264631D01*
X287689D02*
X290927D01*
X292681D02*
X294646D01*
X224478Y100152D02*
X226018D01*
X228255D02*
X264650D01*
X287659D02*
X290900D01*
X292662D02*
X294443D01*
X224712Y100245D02*
X226029D01*
X228287D02*
X264670D01*
X287630D02*
X290872D01*
X292637D02*
X294240D01*
X224903Y100339D02*
X226040D01*
X228319D02*
X264689D01*
X287600D02*
X290844D01*
X292611D02*
X294021D01*
X225107Y100433D02*
X226052D01*
X228351D02*
X264709D01*
X287570D02*
X290817D01*
X292583D02*
X293787D01*
X225353Y100526D02*
X226063D01*
X228382D02*
X264728D01*
X287540D02*
X290789D01*
X292553D02*
X293553D01*
X225630Y100620D02*
X226074D01*
X228414D02*
X264752D01*
X287511D02*
X290762D01*
X292522D02*
X293334D01*
X225848Y100714D02*
X226085D01*
X228446D02*
X264775D01*
X287481D02*
X290734D01*
X292491D02*
X293193D01*
X228478Y100807D02*
X264799D01*
X287451D02*
X290707D01*
X292467D02*
X293081D01*
X228509Y100901D02*
X264822D01*
X287421D02*
X290679D01*
X292526D02*
X293019D01*
X228541Y100995D02*
X264846D01*
X287391D02*
X290652D01*
X292736D02*
X292983D01*
X228573Y101089D02*
X264869D01*
X287361D02*
X290624D01*
X228605Y101182D02*
X264891D01*
X287331D02*
X290596D01*
X228637Y101276D02*
X264909D01*
X287302D02*
X290569D01*
X228669Y101370D02*
X264928D01*
X287272D02*
X290540D01*
X228705Y101463D02*
X264947D01*
X287238D02*
X290507D01*
X228742Y101557D02*
X264966D01*
X287203D02*
X290473D01*
X228779Y101651D02*
X264985D01*
X287168D02*
X290440D01*
X228816Y101744D02*
X265002D01*
X287133D02*
X290407D01*
X228854Y101838D02*
X265002D01*
X287098D02*
X290374D01*
X228891Y101932D02*
X265002D01*
X287063D02*
X290341D01*
X228928Y102026D02*
X265002D01*
X287029D02*
X290307D01*
X228965Y102119D02*
X265002D01*
X286994D02*
X290274D01*
X229002Y102213D02*
X265002D01*
X286959D02*
X290241D01*
X229039Y102307D02*
X265002D01*
X286924D02*
X290208D01*
X229076Y102400D02*
X265002D01*
X286889D02*
X290175D01*
X229113Y102494D02*
X265002D01*
X286854D02*
X290141D01*
X229150Y102588D02*
X265002D01*
X286819D02*
X290108D01*
X229187Y102681D02*
X265002D01*
X286785D02*
X290075D01*
X229224Y102775D02*
X265002D01*
X286750D02*
X290042D01*
X229262Y102869D02*
X265002D01*
X286715D02*
X290009D01*
X229299Y102963D02*
X265002D01*
X286680D02*
X289976D01*
X229336Y103056D02*
X254236D01*
X254986D02*
X264987D01*
X286645D02*
X289943D01*
X229373Y103150D02*
X253981D01*
X255330D02*
X264969D01*
X286602D02*
X289909D01*
X229410Y103244D02*
X253762D01*
X255517D02*
X264950D01*
X286559D02*
X289874D01*
X229447Y103337D02*
X253580D01*
X255694D02*
X264931D01*
X286515D02*
X289835D01*
X229484Y103431D02*
X253448D01*
X255859D02*
X264913D01*
X286472D02*
X289794D01*
X229526Y103525D02*
X253317D01*
X256012D02*
X264894D01*
X286429D02*
X289755D01*
X229569Y103619D02*
X253186D01*
X256162D02*
X264872D01*
X286385D02*
X289715D01*
X229612Y103712D02*
X253069D01*
X256275D02*
X264849D01*
X286342D02*
X289675D01*
X229655Y103806D02*
X252992D01*
X256368D02*
X264826D01*
X286298D02*
X289635D01*
X229698Y103900D02*
X252915D01*
X256462D02*
X264802D01*
X286255D02*
X289595D01*
X229741Y103993D02*
X252839D01*
X256556D02*
X264779D01*
X286211D02*
X289556D01*
X229785Y104087D02*
X252762D01*
X256650D02*
X264756D01*
X286168D02*
X289516D01*
X229828Y104181D02*
X252712D01*
X256743D02*
X264732D01*
X286125D02*
X289476D01*
X229871Y104274D02*
X252676D01*
X256828D02*
X264702D01*
X286081D02*
X289436D01*
X229914Y104368D02*
X252640D01*
X256902D02*
X264671D01*
X286038D02*
X289396D01*
X229957Y104462D02*
X252604D01*
X256974D02*
X264640D01*
X285994D02*
X289356D01*
X230000Y104556D02*
X252568D01*
X257047D02*
X264608D01*
X285951D02*
X289316D01*
X230043Y104649D02*
X252535D01*
X257122D02*
X264577D01*
X285907D02*
X289276D01*
X230086Y104743D02*
X252509D01*
X257196D02*
X264546D01*
X285859D02*
X289237D01*
X230130Y104837D02*
X252485D01*
X257271D02*
X264509D01*
X285809D02*
X289196D01*
X230172Y104930D02*
X252459D01*
X257346D02*
X264468D01*
X285759D02*
X289157D01*
X230216Y105024D02*
X252435D01*
X257418D02*
X264427D01*
X285708D02*
X289117D01*
X230259Y105118D02*
X252409D01*
X257486D02*
X264386D01*
X285658D02*
X289073D01*
X230302Y105211D02*
X252384D01*
X257554D02*
X264345D01*
X285608D02*
X289027D01*
X230345Y105305D02*
X252379D01*
X257622D02*
X264304D01*
X285558D02*
X288981D01*
X230388Y105399D02*
X252373D01*
X257690D02*
X264263D01*
X285508D02*
X288936D01*
X230437Y105493D02*
X252368D01*
X257753D02*
X264210D01*
X285458D02*
X288890D01*
X230487Y105586D02*
X252362D01*
X257816D02*
X264155D01*
X285407D02*
X288844D01*
X230537Y105680D02*
X252357D01*
X257878D02*
X264100D01*
X285357D02*
X288798D01*
X230587Y105774D02*
X252351D01*
X257941D02*
X264046D01*
X285307D02*
X288752D01*
X230637Y105867D02*
X252346D01*
X258004D02*
X263991D01*
X285257D02*
X288707D01*
X230687Y105961D02*
X252342D01*
X258085D02*
X263927D01*
X285207D02*
X288661D01*
X230736Y106055D02*
X252338D01*
X258170D02*
X263861D01*
X285157D02*
X288615D01*
X230786Y106148D02*
X252334D01*
X258254D02*
X263796D01*
X285107D02*
X288569D01*
X230836Y106242D02*
X252330D01*
X258338D02*
X263730D01*
X285057D02*
X288523D01*
X230886Y106336D02*
X252326D01*
X258447D02*
X263635D01*
X285007D02*
X288478D01*
X230936Y106430D02*
X252322D01*
X258564D02*
X263530D01*
X284950D02*
X288432D01*
X230985Y106523D02*
X252319D01*
X258681D02*
X263424D01*
X284893D02*
X288386D01*
X231035Y106617D02*
X252315D01*
X258805D02*
X263307D01*
X284836D02*
X288340D01*
X231085Y106711D02*
X252311D01*
X258939D02*
X263174D01*
X284779D02*
X288294D01*
X231135Y106804D02*
X252307D01*
X259072D02*
X263040D01*
X284722D02*
X288248D01*
X231185Y106898D02*
X252310D01*
X259232D02*
X262896D01*
X284665D02*
X288195D01*
X231235Y106992D02*
X252314D01*
X259420D02*
X262739D01*
X284607D02*
X288141D01*
X231285Y107085D02*
X252318D01*
X259607D02*
X262583D01*
X284550D02*
X288086D01*
X231335Y107179D02*
X252322D01*
X259977D02*
X262213D01*
X284493D02*
X288031D01*
X231388Y107273D02*
X252326D01*
X260352D02*
X261839D01*
X284436D02*
X287977D01*
X231449Y107367D02*
X252330D01*
X284379D02*
X287922D01*
X231510Y107460D02*
X252334D01*
X284322D02*
X287868D01*
X231571Y107554D02*
X252339D01*
X284265D02*
X287814D01*
X231632Y107648D02*
X252343D01*
X284207D02*
X287759D01*
X231693Y107741D02*
X252349D01*
X284150D02*
X287705D01*
X231754Y107835D02*
X252361D01*
X284093D02*
X287650D01*
X231815Y107929D02*
X252374D01*
X284036D02*
X287596D01*
X231876Y108022D02*
X252386D01*
X283971D02*
X287541D01*
X231937Y108116D02*
X252398D01*
X283904D02*
X287487D01*
X231998Y108210D02*
X252410D01*
X283836D02*
X287432D01*
X232059Y108304D02*
X252422D01*
X283769D02*
X287378D01*
X232120Y108397D02*
X252435D01*
X283702D02*
X287323D01*
X232181Y108491D02*
X252447D01*
X283635D02*
X287269D01*
X232242Y108585D02*
X252459D01*
X283567D02*
X287207D01*
X232303Y108678D02*
X252474D01*
X283500D02*
X287146D01*
X232364Y108772D02*
X252491D01*
X283433D02*
X287084D01*
X232425Y108866D02*
X252507D01*
X283365D02*
X287022D01*
X232488Y108959D02*
X252523D01*
X283298D02*
X286961D01*
X232554Y109053D02*
X252539D01*
X283231D02*
X286899D01*
X232620Y109147D02*
X252556D01*
X283163D02*
X286837D01*
X232687Y109241D02*
X252572D01*
X283096D02*
X286776D01*
X232753Y109334D02*
X252589D01*
X283029D02*
X286714D01*
X232819Y109428D02*
X252605D01*
X282962D02*
X286652D01*
X232886Y109522D02*
X252622D01*
X282890D02*
X286591D01*
X232952Y109615D02*
X252646D01*
X282814D02*
X286529D01*
X233018Y109709D02*
X252671D01*
X282738D02*
X286467D01*
X233085Y109803D02*
X252695D01*
X282662D02*
X286405D01*
X233151Y109896D02*
X252720D01*
X282586D02*
X286344D01*
X233217Y109990D02*
X252744D01*
X282510D02*
X286282D01*
X233283Y110084D02*
X252769D01*
X282434D02*
X286220D01*
X233350Y110178D02*
X252793D01*
X282358D02*
X286149D01*
X233416Y110271D02*
X252818D01*
X282282D02*
X286077D01*
X233482Y110365D02*
X252842D01*
X282206D02*
X286005D01*
X233548Y110459D02*
X252871D01*
X282130D02*
X285933D01*
X233619Y110552D02*
X252904D01*
X282054D02*
X285861D01*
X233700Y110646D02*
X252936D01*
X281978D02*
X285789D01*
X233781Y110740D02*
X252969D01*
X281902D02*
X285717D01*
X233862Y110833D02*
X253001D01*
X281826D02*
X285645D01*
X233943Y110927D02*
X253034D01*
X281749D02*
X285573D01*
X234024Y111021D02*
X253067D01*
X281666D02*
X285500D01*
X234105Y111115D02*
X253099D01*
X281583D02*
X285428D01*
X234186Y111208D02*
X253131D01*
X281500D02*
X285356D01*
X234267Y111302D02*
X253164D01*
X281416D02*
X285284D01*
X234348Y111396D02*
X253203D01*
X281333D02*
X285212D01*
X234429Y111489D02*
X253242D01*
X281250D02*
X285140D01*
X234510Y111583D02*
X253281D01*
X281166D02*
X285068D01*
X234591Y111677D02*
X253320D01*
X281083D02*
X284991D01*
X234672Y111770D02*
X253359D01*
X281000D02*
X284909D01*
X234754Y111864D02*
X253398D01*
X280917D02*
X284828D01*
X234834Y111958D02*
X253437D01*
X280833D02*
X284747D01*
X234916Y112052D02*
X253476D01*
X280750D02*
X284666D01*
X234998Y112145D02*
X253515D01*
X280667D02*
X284585D01*
X235080Y112239D02*
X253554D01*
X280583D02*
X284504D01*
X235162Y112333D02*
X253601D01*
X280498D02*
X284423D01*
X235244Y112426D02*
X253648D01*
X280402D02*
X284342D01*
X235326Y112520D02*
X253694D01*
X280306D02*
X284261D01*
X235408Y112614D02*
X253741D01*
X280209D02*
X284180D01*
X235490Y112707D02*
X253788D01*
X280113D02*
X284099D01*
X235572Y112801D02*
X253835D01*
X280016D02*
X284018D01*
X235654Y112895D02*
X253882D01*
X279920D02*
X283937D01*
X235736Y112989D02*
X253929D01*
X279823D02*
X283856D01*
X235818Y113082D02*
X253976D01*
X279727D02*
X283772D01*
X235900Y113176D02*
X254027D01*
X279630D02*
X283679D01*
X235987Y113270D02*
X254080D01*
X279534D02*
X283585D01*
X236077Y113363D02*
X254133D01*
X279437D02*
X283491D01*
X236168Y113457D02*
X254186D01*
X279341D02*
X283398D01*
X236259Y113551D02*
X254239D01*
X279244D02*
X283304D01*
X236350Y113644D02*
X254292D01*
X279148D02*
X283210D01*
X236440Y113738D02*
X254345D01*
X279040D02*
X283117D01*
X236531Y113832D02*
X254398D01*
X278932D02*
X283023D01*
X236622Y113926D02*
X254451D01*
X278824D02*
X282929D01*
X236712Y114019D02*
X254505D01*
X278715D02*
X282835D01*
X236803Y114113D02*
X254567D01*
X278607D02*
X282742D01*
X236894Y114207D02*
X254628D01*
X278498D02*
X282648D01*
X236985Y114300D02*
X254689D01*
X278390D02*
X282554D01*
X237075Y114394D02*
X254750D01*
X278282D02*
X282461D01*
X237170Y114488D02*
X254811D01*
X278174D02*
X282362D01*
X237267Y114581D02*
X254872D01*
X278065D02*
X282260D01*
X237363Y114675D02*
X254933D01*
X277957D02*
X282158D01*
X237460Y114769D02*
X254994D01*
X277848D02*
X282056D01*
X237557Y114863D02*
X255055D01*
X277740D02*
X281954D01*
X237654Y114956D02*
X255119D01*
X277626D02*
X281852D01*
X237751Y115050D02*
X255184D01*
X277508D02*
X281750D01*
X237848Y115144D02*
X255249D01*
X277390D02*
X281648D01*
X237945Y115237D02*
X255314D01*
X277272D02*
X281546D01*
X238042Y115331D02*
X255380D01*
X277155D02*
X281444D01*
X238139Y115425D02*
X255445D01*
X277037D02*
X281342D01*
X238235Y115519D02*
X255510D01*
X276919D02*
X281240D01*
X238336Y115612D02*
X255575D01*
X276801D02*
X281138D01*
X238440Y115706D02*
X255640D01*
X276683D02*
X281036D01*
X238544Y115800D02*
X255706D01*
X276565D02*
X280928D01*
X238648Y115893D02*
X255779D01*
X276448D02*
X280809D01*
X238752Y115987D02*
X255852D01*
X276330D02*
X280692D01*
X238857Y116081D02*
X255926D01*
X276212D02*
X280574D01*
X238961Y116174D02*
X255999D01*
X276081D02*
X280456D01*
X239065Y116268D02*
X256072D01*
X275944D02*
X280338D01*
X239169Y116362D02*
X256146D01*
X275806D02*
X280220D01*
X239273Y116456D02*
X256219D01*
X275669D02*
X280102D01*
X239377Y116549D02*
X256293D01*
X275532D02*
X279985D01*
X239485Y116643D02*
X256366D01*
X275395D02*
X279867D01*
X239606Y116737D02*
X256443D01*
X275257D02*
X279749D01*
X239725Y116830D02*
X256524D01*
X275120D02*
X279631D01*
X239845Y116924D02*
X256606D01*
X274983D02*
X279513D01*
X239965Y117018D02*
X256687D01*
X274846D02*
X279389D01*
X240085Y117111D02*
X256768D01*
X274709D02*
X279257D01*
X240205Y117205D02*
X256850D01*
X274572D02*
X279126D01*
X240325Y117299D02*
X256931D01*
X274418D02*
X278995D01*
X240445Y117393D02*
X257013D01*
X274264D02*
X278864D01*
X240565Y117486D02*
X257094D01*
X274110D02*
X278733D01*
X240685Y117580D02*
X257176D01*
X273957D02*
X278601D01*
X240817Y117674D02*
X257264D01*
X273803D02*
X278470D01*
X240952Y117767D02*
X257353D01*
X273649D02*
X278339D01*
X241086Y117861D02*
X257443D01*
X273496D02*
X278208D01*
X241220Y117955D02*
X257532D01*
X273342D02*
X278076D01*
X241355Y118048D02*
X257622D01*
X273188D02*
X277945D01*
X241489Y118142D02*
X257711D01*
X273034D02*
X277814D01*
X241624Y118236D02*
X257800D01*
X272869D02*
X277663D01*
X241758Y118330D02*
X257890D01*
X272694D02*
X277513D01*
X241893Y118423D02*
X257980D01*
X272519D02*
X277362D01*
X242028Y118517D02*
X258072D01*
X272344D02*
X277212D01*
X242169Y118611D02*
X258165D01*
X272170D02*
X277061D01*
X242309Y118704D02*
X258259D01*
X271995D02*
X276911D01*
X242450Y118798D02*
X258353D01*
X271821D02*
X276760D01*
X242591Y118892D02*
X258446D01*
X271646D02*
X276609D01*
X242731Y118985D02*
X258540D01*
X271472D02*
X276459D01*
X242872Y119079D02*
X258634D01*
X271288D02*
X276308D01*
X243012Y119173D02*
X258728D01*
X271091D02*
X276157D01*
X243153Y119267D02*
X258821D01*
X270894D02*
X276001D01*
X243295Y119360D02*
X258916D01*
X270698D02*
X275831D01*
X243463Y119454D02*
X259017D01*
X270501D02*
X275662D01*
X243631Y119548D02*
X259119D01*
X270304D02*
X275493D01*
X243798Y119641D02*
X259221D01*
X270107D02*
X275323D01*
X243966Y119735D02*
X259323D01*
X269911D02*
X275154D01*
X244134Y119829D02*
X259425D01*
X269710D02*
X274985D01*
X244302Y119922D02*
X259526D01*
X269464D02*
X274815D01*
X244469Y120016D02*
X259628D01*
X269219D02*
X274646D01*
X244639Y120110D02*
X259730D01*
X268972D02*
X274477D01*
X244822Y120204D02*
X259832D01*
X268726D02*
X274307D01*
X245004Y120297D02*
X259939D01*
X268480D02*
X274129D01*
X245186Y120391D02*
X260050D01*
X268234D02*
X273942D01*
X245368Y120485D02*
X260161D01*
X267971D02*
X273754D01*
X245550Y120578D02*
X260273D01*
X267683D02*
X273567D01*
X245732Y120672D02*
X260384D01*
X267396D02*
X273379D01*
X245915Y120766D02*
X260496D01*
X267108D02*
X273192D01*
X246115Y120859D02*
X260607D01*
X266820D02*
X272995D01*
X246326Y120953D02*
X260719D01*
X266532D02*
X272793D01*
X246537Y121047D02*
X260830D01*
X266179D02*
X272591D01*
X246748Y121141D02*
X260941D01*
X265776D02*
X272390D01*
X246958Y121234D02*
X261053D01*
X265373D02*
X272188D01*
X247169Y121328D02*
X261165D01*
X264970D02*
X271982D01*
X247380Y121422D02*
X261276D01*
X264527D02*
X271763D01*
X247627Y121515D02*
X261387D01*
X264024D02*
X271544D01*
X247874Y121609D02*
X261499D01*
X263520D02*
X271326D01*
X248122Y121703D02*
X271107D01*
X248370Y121796D02*
X270878D01*
X248617Y121890D02*
X270616D01*
X248872Y121984D02*
X270354D01*
X249169Y122078D02*
X270092D01*
X249466Y122171D02*
X269830D01*
X249763Y122265D02*
X269567D01*
X250060Y122359D02*
X269305D01*
X250360Y122452D02*
X269043D01*
X250684Y122546D02*
X268780D01*
X251007Y122640D02*
X268449D01*
X251331Y122733D02*
X268109D01*
X251654Y122827D02*
X267770D01*
X252052Y122921D02*
X267411D01*
X252509Y123015D02*
X267036D01*
X252967Y123108D02*
X266661D01*
X253441Y123202D02*
X266246D01*
X253976Y123296D02*
X265808D01*
X254511Y123389D02*
X265356D01*
X255117Y123483D02*
X264813D01*
X255885Y123577D02*
X264265D01*
X256683Y123670D02*
X263608D01*
X257589Y123764D02*
X262855D01*
X259079Y123858D02*
X261719D01*
D02*
D73*
X44565Y125057D02*
X48699D01*
X47065Y82057D02*
X51199D01*
X50077Y124959D02*
X53423D01*
Y113541*
X50077*
Y124959*
X52577Y81959D02*
X55923D01*
Y70541*
X52577*
Y81959*
X65844Y127596D02*
X67675D01*
X69053Y126612D02*
X69447D01*
Y121888*
X69053*
Y126612*
X70344Y83596D02*
X72175D01*
X73553Y82612D02*
X73947D01*
Y77888*
X73553*
Y82612*
D02*
D74*
X68539Y265437D02*
Y262625D01*
X68851Y262000*
X69476Y261687*
X70726*
X71351Y262000*
X71664Y262625*
Y265437*
X73539Y262000D02*
X74164Y261687D01*
X75101*
X75726Y262000*
X76039Y262625*
Y262937*
X75726Y263563*
X75101Y263875*
X73539*
Y265437*
X76039*
X69039Y320437D02*
Y317625D01*
X69351Y317000*
X69976Y316687*
X71226*
X71851Y317000*
X72164Y317625*
Y320437*
X75601Y316687D02*
Y320437D01*
X74039Y317937*
X76539*
D02*
D117*
X4750Y320875D02*
X5187Y320000D01*
X6063Y319563*
X7813*
X8687Y320000*
X9125Y320875*
X8687Y321750*
X7813Y322187*
X6063*
X5187Y322625*
X4750Y323500*
X5187Y324375*
X6063Y324813*
X7813*
X8687Y324375*
X9125Y323500*
X13937Y319563D02*
Y324813D01*
X11750D02*
X16125D01*
X18750Y319563D02*
Y324813D01*
X21813*
X22687Y324375*
X23125Y323500*
X22687Y322625*
X21813Y322187*
X18750*
X21813D02*
X23125Y319563D01*
X25750Y321313D02*
Y323063D01*
X26187Y323937*
X26625Y324375*
X27500Y324813*
X28375*
X29250Y324375*
X29687Y323937*
X30125Y323063*
Y321313*
X29687Y320437*
X29250Y320000*
X28375Y319563*
X27500*
X26625Y320000*
X26187Y320437*
X25750Y321313*
X35813Y322187D02*
X36687Y321750D01*
X37125Y320875*
X36687Y320000*
X35813Y319563*
X32750*
Y324813*
X35813*
X36687Y324375*
X37125Y323500*
X36687Y322625*
X35813Y322187*
X32750*
X39750Y319563D02*
Y324813D01*
X44125*
X43250Y322187D02*
X39750D01*
Y319563D02*
X44125D01*
X46750D02*
X51125D01*
X53750Y321313D02*
Y323063D01*
X54187Y323937*
X54625Y324375*
X55500Y324813*
X56375*
X57250Y324375*
X57687Y323937*
X58125Y323063*
Y321313*
X57687Y320437*
X57250Y320000*
X56375Y319563*
X55500*
X54625Y320000*
X54187Y320437*
X53750Y321313*
X60750Y324813D02*
Y320875D01*
X61187Y320000*
X62063Y319563*
X63813*
X64687Y320000*
X65125Y320875*
Y324813*
X69937Y319563D02*
Y324813D01*
X67750D02*
X72125D01*
X74750Y319563D02*
X79125D01*
X81750Y320000D02*
X82625Y319563D01*
X83937*
X84813Y320000*
X85250Y320875*
Y321313*
X84813Y322187*
X83937Y322625*
X81750*
Y324813*
X85250*
X88750D02*
X90937Y319563D01*
X93125Y324813*
X7437Y264563D02*
Y269813D01*
X5250D02*
X9625D01*
X12250Y264563D02*
Y269813D01*
X15313*
X16187Y269375*
X16625Y268500*
X16187Y267625*
X15313Y267187*
X12250*
X15313D02*
X16625Y264563D01*
X22313Y266750D02*
X23625D01*
Y266313*
X23187Y265437*
X22750Y265000*
X21875Y264563*
X21000*
X20125Y265000*
X19687Y265437*
X19250Y266313*
Y268063*
X19687Y268937*
X20125Y269375*
X21000Y269813*
X21875*
X22750Y269375*
X23187Y268937*
X23625Y268063*
X26250Y264563D02*
X30625D01*
X34563D02*
X36313D01*
X35437D02*
Y269813D01*
X34563D02*
X36313D01*
X40250Y264563D02*
Y269813D01*
X44625Y264563*
Y269813*
X47250Y264563D02*
X51625D01*
X54250Y265000D02*
X55125Y264563D01*
X56437*
X57313Y265000*
X57750Y265875*
Y266313*
X57313Y267187*
X56437Y267625*
X54250*
Y269813*
X57750*
X61250D02*
X63437Y264563D01*
X65625Y269813*
X11125Y179437D02*
X10687Y179000D01*
X9813Y178563*
X8500*
X7625Y179000*
X7187Y179437*
X6750Y180313*
Y182063*
X7187Y182937*
X7625Y183375*
X8500Y183813*
X9813*
X10687Y183375*
X11125Y182937*
X13750Y178563D02*
X15937Y183813D01*
X18125Y178563*
X14625Y180750D02*
X17250D01*
X20750Y178563D02*
Y183813D01*
X22937Y181187*
X25125Y183813*
Y178563*
X12813Y231250D02*
X14125D01*
Y230813*
X13687Y229937*
X13250Y229500*
X12375Y229063*
X11500*
X10625Y229500*
X10187Y229937*
X9750Y230813*
Y232563*
X10187Y233437*
X10625Y233875*
X11500Y234313*
X12375*
X13250Y233875*
X13687Y233437*
X14125Y232563*
X16750Y229063D02*
Y234313D01*
X19813*
X20687Y233875*
X21125Y233000*
X20687Y232125*
X19813Y231687*
X16750*
X25063Y229063D02*
X26813D01*
X25937D02*
Y234313D01*
X25063D02*
X26813D01*
X30750Y230813D02*
Y232563D01*
X31187Y233437*
X31625Y233875*
X32500Y234313*
X33375*
X34250Y233875*
X34687Y233437*
X35125Y232563*
Y230813*
X34687Y229937*
X34250Y229500*
X33375Y229063*
X32500*
X31625Y229500*
X31187Y229937*
X30750Y230813*
X15437Y24563D02*
Y29813D01*
X13250D02*
X17625D01*
X20250Y24563D02*
Y29813D01*
X23313*
X24187Y29375*
X24625Y28500*
X24187Y27625*
X23313Y27187*
X20250*
X23313D02*
X24625Y24563D01*
X30313Y26750D02*
X31625D01*
Y26313*
X31187Y25437*
X30750Y25000*
X29875Y24563*
X29000*
X28125Y25000*
X27687Y25437*
X27250Y26313*
Y28063*
X27687Y28937*
X28125Y29375*
X29000Y29813*
X29875*
X30750Y29375*
X31187Y28937*
X31625Y28063*
X34250Y24563D02*
X38625D01*
X42563D02*
X44313D01*
X43437D02*
Y29813D01*
X42563D02*
X44313D01*
X48250Y24563D02*
Y29813D01*
X52625Y24563*
Y29813*
X55250Y24563D02*
X59625D01*
X62687Y25000D02*
X63563Y24563D01*
X64437*
X65313Y25000*
X65750Y25875*
X65313Y26750*
X64437Y27187*
X63563*
X64437D02*
X65313Y27625D01*
X65750Y28500*
X65313Y29375*
X64437Y29813*
X63563*
X62687Y29375*
X69250Y29813D02*
X71437Y24563D01*
X73625Y29813*
X76687Y25000D02*
X77563Y24563D01*
X78437*
X79313Y25000*
X79750Y25875*
X79313Y26750*
X78437Y27187*
X77563*
X78437D02*
X79313Y27625D01*
X79750Y28500*
X79313Y29375*
X78437Y29813*
X77563*
X76687Y29375*
X15250Y110413D02*
Y105163D01*
X19625*
X22250D02*
Y110413D01*
X26625*
X25750Y107787D02*
X22250D01*
Y105163D02*
X26625D01*
X29250D02*
Y110413D01*
X31875*
X32750Y109975*
X33187Y109537*
X33625Y108663*
Y106913*
X33187Y106037*
X32750Y105600*
X31875Y105163*
X29250*
X37125D02*
X38875D01*
X38000D02*
Y110413D01*
X37125Y109537*
X16250Y70813D02*
Y65563D01*
X20625*
X23250D02*
Y70813D01*
X27625*
X26750Y68187D02*
X23250D01*
Y65563D02*
X27625D01*
X30250D02*
Y70813D01*
X32875*
X33750Y70375*
X34187Y69937*
X34625Y69063*
Y67313*
X34187Y66437*
X33750Y66000*
X32875Y65563*
X30250*
X40750D02*
X37250D01*
X40313Y68625*
X40750Y69500*
X40313Y70375*
X39437Y70813*
X38125*
X37250Y70375*
X104250Y54375D02*
X104687Y53500D01*
X105563Y53063*
X107313*
X108187Y53500*
X108625Y54375*
X108187Y55250*
X107313Y55687*
X105563*
X104687Y56125*
X104250Y57000*
X104687Y57875*
X105563Y58313*
X107313*
X108187Y57875*
X108625Y57000*
X111250Y53063D02*
Y58313D01*
X115625*
X114750Y55687D02*
X111250D01*
Y53063D02*
X115625D01*
X120437D02*
Y58313D01*
X118250D02*
X122625D01*
X128750Y53063D02*
X125250D01*
X128313Y56125*
X128750Y57000*
X128313Y57875*
X127437Y58313*
X126125*
X125250Y57875*
X105250Y64875D02*
X105687Y64000D01*
X106563Y63563*
X108313*
X109187Y64000*
X109625Y64875*
X109187Y65750*
X108313Y66187*
X106563*
X105687Y66625*
X105250Y67500*
X105687Y68375*
X106563Y68813*
X108313*
X109187Y68375*
X109625Y67500*
X112250Y63563D02*
Y68813D01*
X116625*
X115750Y66187D02*
X112250D01*
Y63563D02*
X116625D01*
X121437D02*
Y68813D01*
X119250D02*
X123625D01*
X127125Y63563D02*
X128875D01*
X128000D02*
Y68813D01*
X127125Y67937*
X111187Y328500D02*
X112063Y328063D01*
X112937*
X113813Y328500*
X114250Y329375*
X113813Y330250*
X112937Y330687*
X112063*
X112937D02*
X113813Y331125D01*
X114250Y332000*
X113813Y332875*
X112937Y333313*
X112063*
X111187Y332875*
X118187Y328063D02*
X118625Y328500D01*
X118187Y328937*
X117750Y328500*
X118187Y328063*
X125187Y328500D02*
X126063Y328063D01*
X126937*
X127813Y328500*
X128250Y329375*
X127813Y330250*
X126937Y330687*
X126063*
X126937D02*
X127813Y331125D01*
X128250Y332000*
X127813Y332875*
X126937Y333313*
X126063*
X125187Y332875*
X131750Y333313D02*
X133937Y328063D01*
X136125Y333313*
X129125Y369063D02*
X130875D01*
X130000D02*
Y374313D01*
X129125Y373437*
X141750Y369063D02*
X138250D01*
X141313Y372125*
X141750Y373000*
X141313Y373875*
X140437Y374313*
X139125*
X138250Y373875*
X149187Y369500D02*
X150063Y369063D01*
X150937*
X151813Y369500*
X152250Y370375*
X151813Y371250*
X150937Y371687*
X150063*
X150937D02*
X151813Y372125D01*
X152250Y373000*
X151813Y373875*
X150937Y374313*
X150063*
X149187Y373875*
X150250Y64875D02*
X150687Y64000D01*
X151563Y63563*
X153313*
X154187Y64000*
X154625Y64875*
X154187Y65750*
X153313Y66187*
X151563*
X150687Y66625*
X150250Y67500*
X150687Y68375*
X151563Y68813*
X153313*
X154187Y68375*
X154625Y67500*
X157250Y63563D02*
Y68813D01*
X159875*
X160750Y68375*
X161187Y67937*
X161625Y67063*
Y65313*
X161187Y64437*
X160750Y64000*
X159875Y63563*
X157250*
X164250D02*
X166437Y68813D01*
X168625Y63563*
X165125Y65750D02*
X167750D01*
X150750Y54875D02*
X151187Y54000D01*
X152063Y53563*
X153813*
X154687Y54000*
X155125Y54875*
X154687Y55750*
X153813Y56187*
X152063*
X151187Y56625*
X150750Y57500*
X151187Y58375*
X152063Y58813*
X153813*
X154687Y58375*
X155125Y57500*
X162125Y54437D02*
X161687Y54000D01*
X160813Y53563*
X159500*
X158625Y54000*
X158187Y54437*
X157750Y55313*
Y57063*
X158187Y57937*
X158625Y58375*
X159500Y58813*
X160813*
X161687Y58375*
X162125Y57937*
X164750Y58813D02*
Y53563D01*
X169125*
X166813Y330250D02*
X168125D01*
Y329813*
X167687Y328937*
X167250Y328500*
X166375Y328063*
X165500*
X164625Y328500*
X164187Y328937*
X163750Y329813*
Y331563*
X164187Y332437*
X164625Y332875*
X165500Y333313*
X166375*
X167250Y332875*
X167687Y332437*
X168125Y331563*
X170750Y328063D02*
Y333313D01*
X175125Y328063*
Y333313*
X177750Y328063D02*
Y333313D01*
X180375*
X181250Y332875*
X181687Y332437*
X182125Y331563*
Y329813*
X181687Y328937*
X181250Y328500*
X180375Y328063*
X177750*
X188250Y356563D02*
X184750D01*
X187813Y359625*
X188250Y360500*
X187813Y361375*
X186937Y361813*
X185625*
X184750Y361375*
X191750Y358313D02*
X195250D01*
X199187Y357000D02*
X200063Y356563D01*
X200937*
X201813Y357000*
X202250Y357875*
X201813Y358750*
X200937Y359187*
X200063*
X200937D02*
X201813Y359625D01*
X202250Y360500*
X201813Y361375*
X200937Y361813*
X200063*
X199187Y361375*
X207937Y356563D02*
X208375Y357000D01*
X207937Y357437*
X207500Y357000*
X207937Y356563*
Y358750D02*
X208375Y359187D01*
X207937Y359625*
X207500Y359187*
X207937Y358750*
X223250D02*
X222813Y359625D01*
X221937Y360063*
X221063*
X220187Y359625*
X219750Y358750*
Y357875*
X220187Y357000*
X221063Y356563*
X221937*
X222813Y357000*
X223250Y357875*
Y356563D02*
Y361813D01*
X226750Y360063D02*
Y357875D01*
X227187Y357000*
X228063Y356563*
X228937*
X229813Y357000*
X230250Y357875*
Y360063D02*
Y356563D01*
X233750Y359625D02*
X234625Y360063D01*
X235937*
X236813Y359625*
X237250Y358750*
Y357437*
X236813Y357000*
X235937Y356563*
X235063*
X234187Y357000*
X233750Y357437*
Y357875*
X234187Y358313*
X235063Y358750*
X235937*
X236813Y358313*
X237250Y357875*
Y357437D02*
Y356563D01*
X242937D02*
X242500D01*
Y361813*
X254750D02*
Y356563D01*
X259125*
X261750D02*
Y361813D01*
X266125*
X265250Y359187D02*
X261750D01*
Y356563D02*
X266125D01*
X268750D02*
Y361813D01*
X271375*
X272250Y361375*
X272687Y360937*
X273125Y360063*
Y358313*
X272687Y357437*
X272250Y357000*
X271375Y356563*
X268750*
X185625Y365563D02*
X187375D01*
X186500D02*
Y370813D01*
X185625Y369937*
X191750Y367313D02*
X195250D01*
X202250Y365563D02*
X198750D01*
X201813Y368625*
X202250Y369500*
X201813Y370375*
X200937Y370813*
X199625*
X198750Y370375*
X207937Y365563D02*
X208375Y366000D01*
X207937Y366437*
X207500Y366000*
X207937Y365563*
Y367750D02*
X208375Y368187D01*
X207937Y368625*
X207500Y368187*
X207937Y367750*
X219750Y366000D02*
X220625Y365563D01*
X222375*
X223250Y366000*
Y366875*
X222375Y367313*
X220625*
X219750Y367750*
Y368625*
X220625Y369063*
X222375*
X223250Y368625*
X228500Y365563D02*
Y369063D01*
Y370375D02*
X233750Y365563*
Y369063D01*
Y367750D02*
X234187Y368625D01*
X235063Y369063*
X235937*
X236813Y368625*
X237250Y367750*
Y365563*
X244250Y367750D02*
X243813Y368625D01*
X242937Y369063*
X242063*
X241187Y368625*
X240750Y367750*
Y367313*
X241187Y366437*
X242063Y366000*
X242937*
X243813Y366437*
X244250Y367313*
Y369063D02*
Y365563D01*
X243813Y364687*
X242937Y364250*
X241625*
X240750Y364687*
X249937Y365563D02*
X249500D01*
Y370813*
X258250Y366000D02*
X257813Y365563D01*
X256937*
X256063*
X255187Y366000*
X254750Y366875*
Y368187*
X255187Y368625*
X256063Y369063*
X256937*
X257813Y368625*
X258250Y368187*
Y367750*
X257813Y367313*
X256937Y366875*
X256063*
X255187Y367313*
X254750Y367750*
X268750Y370813D02*
Y365563D01*
X273125*
X275750D02*
Y370813D01*
X280125*
X279250Y368187D02*
X275750D01*
Y365563D02*
X280125D01*
X282750D02*
Y370813D01*
X285375*
X286250Y370375*
X286687Y369937*
X287125Y369063*
Y367313*
X286687Y366437*
X286250Y366000*
X285375Y365563*
X282750*
X204650Y22787D02*
Y26537D01*
X206837*
X207463Y26225*
X207775Y25600*
X207463Y24975*
X206837Y24663*
X204650*
X206837D02*
X207775Y22787D01*
X209650D02*
Y26537D01*
X212775*
X212150Y24663D02*
X209650D01*
Y22787D02*
X212775D01*
X214650Y26537D02*
X216213Y22787D01*
X217775Y26537*
X219963Y22787D02*
X220275Y23100D01*
X219963Y23413*
X219650Y23100*
X219963Y22787*
X225275D02*
X226525D01*
X225900D02*
Y26537D01*
X225275Y25913*
X205050Y31763D02*
Y37013D01*
X209425Y31763*
Y37013*
X212050Y31763D02*
Y37013D01*
X214237Y34387*
X216425Y37013*
Y31763*
X219050Y33513D02*
X222550D01*
X226050Y37013D02*
X226487Y31763D01*
X228237Y34387*
X229987Y31763*
X230425Y37013*
X233050Y31763D02*
Y37013D01*
X235237Y34387*
X237425Y37013*
Y31763*
X240487Y32200D02*
X241363Y31763D01*
X242237*
X243113Y32200*
X243550Y33075*
X243113Y33950*
X242237Y34387*
X241363*
X242237D02*
X243113Y34825D01*
X243550Y35700*
X243113Y36575*
X242237Y37013*
X241363*
X240487Y36575*
X247487Y32200D02*
X248363Y31763D01*
X249237*
X250113Y32200*
X250550Y33075*
Y35700*
X250113Y36575*
X249237Y37013*
X248363*
X247487Y36575*
X247050Y35700*
Y33075*
X247487Y32200*
X250113Y36575*
X254487Y32200D02*
X255363Y31763D01*
X256237*
X257113Y32200*
X257550Y33075*
Y35700*
X257113Y36575*
X256237Y37013*
X255363*
X254487Y36575*
X254050Y35700*
Y33075*
X254487Y32200*
X257113Y36575*
X261050Y31763D02*
Y37013D01*
X263675*
X264550Y36575*
X264987Y36137*
X265425Y35263*
Y33513*
X264987Y32637*
X264550Y32200*
X263675Y31763*
X261050*
X268487Y32200D02*
X269363Y31763D01*
X270237*
X271113Y32200*
X271550Y33075*
X271113Y33950*
X270237Y34387*
X269363*
X270237D02*
X271113Y34825D01*
X271550Y35700*
X271113Y36575*
X270237Y37013*
X269363*
X268487Y36575*
X276363Y31763D02*
X278113D01*
X277237D02*
Y37013D01*
X276363D02*
X278113D01*
X285550Y31763D02*
X282050D01*
X285113Y34825*
X285550Y35700*
X285113Y36575*
X284237Y37013*
X282925*
X282050Y36575*
X293425Y32637D02*
X292987Y32200D01*
X292113Y31763*
X290800*
X289925Y32200*
X289487Y32637*
X289050Y33513*
Y35263*
X289487Y36137*
X289925Y36575*
X290800Y37013*
X292113*
X292987Y36575*
X293425Y36137*
X232750Y22487D02*
X234313Y26237D01*
X235875Y22487*
X233375Y24050D02*
X235250D01*
X237750Y26237D02*
Y23425D01*
X238063Y22800*
X238687Y22487*
X239937*
X240563Y22800*
X240875Y23425*
Y26237*
X244937Y24050D02*
X245875D01*
Y23737*
X245563Y23113*
X245250Y22800*
X244625Y22487*
X244000*
X243375Y22800*
X243063Y23113*
X242750Y23737*
Y24987*
X243063Y25613*
X243375Y25925*
X244000Y26237*
X244625*
X245250Y25925*
X245563Y25613*
X245875Y24987*
X248375Y22487D02*
X249625D01*
X249000D02*
Y26237D01*
X248375Y25613*
X253687Y22487D02*
X254313Y22800D01*
X254937Y23425*
X255250Y24363*
Y25300*
X254937Y25925*
X254313Y26237*
X253687*
X253063Y25925*
X252750Y25300*
X253063Y24675*
X253687Y24363*
X254313*
X254937Y24675*
X255250Y25300*
X246750Y325500D02*
X247625Y325063D01*
X248937*
X249813Y325500*
X250250Y326375*
Y326813*
X249813Y327687*
X248937Y328125*
X246750*
Y330313*
X250250*
X253750D02*
X255937Y325063D01*
X258125Y330313*
X264563Y138563D02*
X266313D01*
X265437D02*
Y143813D01*
X264563D02*
X266313D01*
X270250Y138563D02*
X274625Y143813D01*
X277250Y140313D02*
Y142063D01*
X277687Y142937*
X278125Y143375*
X279000Y143813*
X279875*
X280750Y143375*
X281187Y142937*
X281625Y142063*
Y140313*
X281187Y139437*
X280750Y139000*
X279875Y138563*
X279000*
X278125Y139000*
X277687Y139437*
X277250Y140313*
X292563Y141187D02*
X293437D01*
X294313Y141625*
X294750Y142500*
X294313Y143375*
X293437Y143813*
X292563*
X291687Y143375*
X291250Y142500*
X291687Y141625*
X292563Y141187*
X291687Y140750*
X291250Y139875*
X291687Y139000*
X292563Y138563*
X293437*
X294313Y139000*
X294750Y139875*
X294313Y140750*
X293437Y141187*
X264563Y148563D02*
X266313D01*
X265437D02*
Y153813D01*
X264563D02*
X266313D01*
X270250Y148563D02*
X274625Y153813D01*
X277250Y150313D02*
Y152063D01*
X277687Y152937*
X278125Y153375*
X279000Y153813*
X279875*
X280750Y153375*
X281187Y152937*
X281625Y152063*
Y150313*
X281187Y149437*
X280750Y149000*
X279875Y148563*
X279000*
X278125Y149000*
X277687Y149437*
X277250Y150313*
X291250Y148563D02*
X294750Y153813D01*
X291250*
X264563Y159063D02*
X266313D01*
X265437D02*
Y164313D01*
X264563D02*
X266313D01*
X270250Y159063D02*
X274625Y164313D01*
X277250Y160813D02*
Y162563D01*
X277687Y163437*
X278125Y163875*
X279000Y164313*
X279875*
X280750Y163875*
X281187Y163437*
X281625Y162563*
Y160813*
X281187Y159937*
X280750Y159500*
X279875Y159063*
X279000*
X278125Y159500*
X277687Y159937*
X277250Y160813*
X291250Y160375D02*
X291687Y161250D01*
X292563Y161687*
X293437*
X294313Y161250*
X294750Y160375*
X294313Y159500*
X293437Y159063*
X292563*
X291687Y159500*
X291250Y160375*
Y161687*
X291687Y163000*
X292563Y163875*
X293437Y164313*
X264563Y169563D02*
X266313D01*
X265437D02*
Y174813D01*
X264563D02*
X266313D01*
X270250Y169563D02*
X274625Y174813D01*
X277250Y171313D02*
Y173063D01*
X277687Y173937*
X278125Y174375*
X279000Y174813*
X279875*
X280750Y174375*
X281187Y173937*
X281625Y173063*
Y171313*
X281187Y170437*
X280750Y170000*
X279875Y169563*
X279000*
X278125Y170000*
X277687Y170437*
X277250Y171313*
X291250Y170000D02*
X292125Y169563D01*
X293437*
X294313Y170000*
X294750Y170875*
Y171313*
X294313Y172187*
X293437Y172625*
X291250*
Y174813*
X294750*
X264563Y179063D02*
X266313D01*
X265437D02*
Y184313D01*
X264563D02*
X266313D01*
X270250Y179063D02*
X274625Y184313D01*
X277250Y180813D02*
Y182563D01*
X277687Y183437*
X278125Y183875*
X279000Y184313*
X279875*
X280750Y183875*
X281187Y183437*
X281625Y182563*
Y180813*
X281187Y179937*
X280750Y179500*
X279875Y179063*
X279000*
X278125Y179500*
X277687Y179937*
X277250Y180813*
X293437Y179063D02*
Y184313D01*
X291250Y180813*
X294750*
X264563Y189563D02*
X266313D01*
X265437D02*
Y194813D01*
X264563D02*
X266313D01*
X270250Y189563D02*
X274625Y194813D01*
X277250Y191313D02*
Y193063D01*
X277687Y193937*
X278125Y194375*
X279000Y194813*
X279875*
X280750Y194375*
X281187Y193937*
X281625Y193063*
Y191313*
X281187Y190437*
X280750Y190000*
X279875Y189563*
X279000*
X278125Y190000*
X277687Y190437*
X277250Y191313*
X291687Y190000D02*
X292563Y189563D01*
X293437*
X294313Y190000*
X294750Y190875*
X294313Y191750*
X293437Y192187*
X292563*
X293437D02*
X294313Y192625D01*
X294750Y193500*
X294313Y194375*
X293437Y194813*
X292563*
X291687Y194375*
X264563Y199063D02*
X266313D01*
X265437D02*
Y204313D01*
X264563D02*
X266313D01*
X270250Y199063D02*
X274625Y204313D01*
X277250Y200813D02*
Y202563D01*
X277687Y203437*
X278125Y203875*
X279000Y204313*
X279875*
X280750Y203875*
X281187Y203437*
X281625Y202563*
Y200813*
X281187Y199937*
X280750Y199500*
X279875Y199063*
X279000*
X278125Y199500*
X277687Y199937*
X277250Y200813*
X294750Y199063D02*
X291250D01*
X294313Y202125*
X294750Y203000*
X294313Y203875*
X293437Y204313*
X292125*
X291250Y203875*
X264563Y209563D02*
X266313D01*
X265437D02*
Y214813D01*
X264563D02*
X266313D01*
X270250Y209563D02*
X274625Y214813D01*
X277250Y211313D02*
Y213063D01*
X277687Y213937*
X278125Y214375*
X279000Y214813*
X279875*
X280750Y214375*
X281187Y213937*
X281625Y213063*
Y211313*
X281187Y210437*
X280750Y210000*
X279875Y209563*
X279000*
X278125Y210000*
X277687Y210437*
X277250Y211313*
X292125Y209563D02*
X293875D01*
X293000D02*
Y214813D01*
X292125Y213937*
X0Y0D02*
M02*
