G04 EasyPC Gerber Version 21.0.3 Build 4286 *
G04 #@! TF.Part,Single*
G04 #@! TF.FileFunction,Paste,Bot *
G04 #@! TF.FilePolarity,Positive *
%FSLAX35Y35*%
%MOIN*%
G04 #@! TA.AperFunction,SMDPad*
%ADD12R,0.01181X0.07874*%
%ADD14R,0.01378X0.07874*%
%ADD71R,0.03346X0.00906*%
%ADD20R,0.03937X0.00906*%
%ADD23R,0.03937X0.01260*%
%ADD24R,0.02520X0.01378*%
%ADD15R,0.02000X0.02400*%
%ADD17R,0.02400X0.03500*%
%ADD22R,0.05433X0.07087*%
%ADD16R,0.02400X0.02000*%
%ADD21R,0.07874X0.06693*%
G04 #@! TA.AperFunction,ComponentPad*
%ADD25R,0.06000X0.06000*%
G04 #@! TA.AperFunction,ViaPad*
%ADD26C,0.02600*%
%ADD28C,0.03200*%
%ADD27C,0.05600*%
G04 #@! TA.AperFunction,WasherPad*
%ADD11C,0.06000*%
G04 #@! TA.AperFunction,ComponentPad*
%ADD18C,0.09055*%
%ADD19C,0.10039*%
G04 #@! TA.AperFunction,WasherPad*
%ADD10C,0.19700*%
G04 #@! TA.AperFunction,ComponentPad*
%ADD13C,0.04724X0.03937*%
%ADD70C,0.07600X0.06000*%
X0Y0D02*
D02*
D10*
X60250Y14750D03*
Y369250D03*
X330250Y14750D03*
Y369250D03*
D02*
D11*
X7250Y23813D03*
Y31687D03*
Y63813D03*
Y71687D03*
Y103813D03*
Y111687D03*
X33750Y57250D03*
X34750Y98750D03*
X206250Y171750D03*
D02*
D12*
X160813Y185549D03*
Y221376D03*
X163372Y185549D03*
Y221376D03*
X165931Y185549D03*
Y221376D03*
X168490Y185549D03*
Y221376D03*
X171049Y185549D03*
Y221376D03*
X173608Y185549D03*
Y221376D03*
X176167Y185549D03*
Y221376D03*
X178726Y185549D03*
Y221376D03*
X181285Y185549D03*
Y221376D03*
X183844Y185549D03*
Y221376D03*
X186404Y185549D03*
Y221376D03*
X188963Y185549D03*
Y221376D03*
X191522Y185549D03*
Y221376D03*
X194081Y185549D03*
Y221376D03*
D02*
D13*
X91939Y121140D03*
Y278620D03*
X227136Y121140D03*
Y278620D03*
D02*
D14*
X98120Y99880D03*
Y126061D03*
Y257360D03*
Y283541D03*
X101270Y99880D03*
Y126061D03*
Y257360D03*
Y283541D03*
X104419Y99880D03*
Y126061D03*
Y257360D03*
Y283541D03*
X107569Y99880D03*
Y126061D03*
Y257360D03*
Y283541D03*
X110719Y99880D03*
Y126061D03*
Y257360D03*
Y283541D03*
X113868Y99880D03*
Y126061D03*
Y257360D03*
Y283541D03*
X117018Y99880D03*
Y126061D03*
Y257360D03*
Y283541D03*
X120167Y99880D03*
Y126061D03*
Y257360D03*
Y283541D03*
X123317Y99880D03*
Y126061D03*
Y257360D03*
Y283541D03*
X126467Y99880D03*
Y126061D03*
Y257360D03*
Y283541D03*
X129616Y99880D03*
Y126061D03*
Y257360D03*
Y283541D03*
X132766Y99880D03*
Y126061D03*
Y257360D03*
Y283541D03*
X135915Y99880D03*
Y126061D03*
Y257360D03*
Y283541D03*
X139065Y99880D03*
Y126061D03*
Y257360D03*
Y283541D03*
X142215Y99880D03*
Y126061D03*
Y257360D03*
Y283541D03*
X145364Y99880D03*
Y126061D03*
Y257360D03*
Y283541D03*
X148514Y99880D03*
Y126061D03*
Y257360D03*
Y283541D03*
X151663Y99880D03*
Y126061D03*
Y257360D03*
Y283541D03*
X154813Y99880D03*
Y126061D03*
Y257360D03*
Y283541D03*
X157963Y99880D03*
Y126061D03*
Y257360D03*
Y283541D03*
X161112Y99880D03*
Y126061D03*
Y257360D03*
Y283541D03*
X164262Y99880D03*
Y126061D03*
Y257360D03*
Y283541D03*
X167411Y99880D03*
Y126061D03*
Y257360D03*
Y283541D03*
X170561Y99880D03*
Y126061D03*
Y257360D03*
Y283541D03*
X173711Y99880D03*
Y126061D03*
Y257360D03*
Y283541D03*
X176860Y99880D03*
Y126061D03*
Y257360D03*
Y283541D03*
X180010Y99880D03*
Y126061D03*
Y257360D03*
Y283541D03*
X183159Y99880D03*
Y126061D03*
Y257360D03*
Y283541D03*
X186309Y99880D03*
Y126061D03*
Y257360D03*
Y283541D03*
X189459Y99880D03*
Y126061D03*
Y257360D03*
Y283541D03*
X192608Y99880D03*
Y126061D03*
Y257360D03*
Y283541D03*
X195758Y99880D03*
Y126061D03*
Y257360D03*
Y283541D03*
X198907Y99880D03*
Y126061D03*
Y257360D03*
Y283541D03*
X202057Y99880D03*
Y126061D03*
Y257360D03*
Y283541D03*
X205207Y99880D03*
Y126061D03*
Y257360D03*
Y283541D03*
X208356Y99880D03*
Y126061D03*
Y257360D03*
Y283541D03*
X211506Y99880D03*
Y126061D03*
Y257360D03*
Y283541D03*
X214656Y99880D03*
Y126061D03*
Y257360D03*
Y283541D03*
X217805Y99880D03*
Y126061D03*
Y257360D03*
Y283541D03*
X220955Y99880D03*
Y126061D03*
Y257360D03*
Y283541D03*
D02*
D15*
X164750Y172250D03*
Y176250D03*
X168750Y172250D03*
Y176250D03*
X186500Y176750D03*
X190500D03*
D02*
D16*
X173682Y239657D03*
Y243657D03*
X177656Y231750D03*
Y235750D03*
X177726Y239657D03*
Y243657D03*
X181250Y231750D03*
Y235750D03*
X186250Y169750D03*
Y173750D03*
D02*
D17*
X180250Y155250D03*
X186250D03*
D02*
D18*
X20250Y290250D03*
Y345250D03*
D02*
D19*
X10250Y280250D03*
Y300250D03*
Y335250D03*
Y355250D03*
X30250Y280250D03*
Y300250D03*
Y335250D03*
Y355250D03*
D02*
D70*
X68117Y142950D03*
Y162550D03*
Y182150D03*
Y201750D03*
Y221350D03*
Y240950D03*
X87117Y142950D03*
Y162550D03*
Y182150D03*
Y201750D03*
Y221350D03*
Y240950D03*
D02*
D71*
X25762Y224163D03*
Y225738D03*
Y227313D03*
Y228888D03*
Y230463D03*
Y232037D03*
Y233612D03*
Y235187D03*
Y236762D03*
Y238337D03*
D02*
D20*
X20919Y224951D03*
Y226526D03*
Y228100D03*
Y229675D03*
Y231250D03*
Y232825D03*
Y234400D03*
Y235974D03*
Y237549D03*
D02*
D21*
X6943Y220030D03*
Y242470D03*
D02*
D22*
X20211Y220030D03*
Y242470D03*
D02*
D23*
X15888Y174911D03*
Y177431D03*
Y179951D03*
Y182470D03*
Y184990D03*
Y187510D03*
D02*
D24*
X11360Y174911D03*
Y177431D03*
Y179951D03*
Y182470D03*
Y184990D03*
Y187510D03*
D02*
D25*
X112250Y319750D03*
X122250D03*
X130250Y352250D03*
Y362250D03*
X132250Y319750D03*
X136750Y56250D03*
Y66250D03*
X140250Y352250D03*
Y362250D03*
X150250Y352250D03*
Y362250D03*
X157750Y319750D03*
X167750D03*
X175250Y56250D03*
Y66250D03*
X177750Y319750D03*
X187750D03*
X252750Y318250D03*
X302750Y141750D03*
Y151750D03*
Y161750D03*
Y171750D03*
Y181750D03*
Y191750D03*
Y201750D03*
Y211750D03*
D02*
D26*
X4750Y188250D03*
X6250Y233250D03*
X6650Y229250D03*
X8250Y177431D03*
Y184990D03*
Y236750D03*
X9250Y226250D03*
X12250Y235750D03*
X14750Y225750D03*
X20750Y183750D03*
X24750Y190750D03*
X25250Y207250D03*
X27250Y80250D03*
X28250Y202750D03*
X35250Y181750D03*
X38750Y115510D03*
Y230750D03*
X39250Y225738D03*
X40250Y68250D03*
X42750Y247250D03*
X46750Y175750D03*
X51250Y162250D03*
X55250Y283250D03*
Y311750D03*
X55750Y199250D03*
X56868Y130750D03*
X63250Y266750D03*
X67250Y75250D03*
X71250Y90250D03*
X84250Y265750D03*
X84750Y120750D03*
X94750Y215750D03*
X105250Y217250D03*
X109250Y337750D03*
X110719Y234750D03*
X112250Y182250D03*
X112750Y162250D03*
X113750Y142750D03*
Y340750D03*
X122250Y241250D03*
X126250Y219750D03*
X129750Y137750D03*
X136250Y115250D03*
X139065Y248750D03*
X142215Y245250D03*
X144750Y202750D03*
X145364Y249250D03*
X148750Y171250D03*
Y243750D03*
X151663Y247850D03*
X154750Y141250D03*
X155250Y268250D03*
Y274750D03*
X155750Y242750D03*
X159250Y249250D03*
X161250Y115250D03*
X167750Y110250D03*
X170250Y236250D03*
X173250Y144750D03*
X175250Y298250D03*
X177750Y247250D03*
X179750Y160250D03*
X180750Y145750D03*
Y192250D03*
X183250Y241250D03*
Y274250D03*
X183750Y194750D03*
X185750Y235250D03*
X188750Y167750D03*
X188963Y198250D03*
X192250Y269250D03*
X197250Y298750D03*
X198907Y265750D03*
D02*
D27*
X11360Y168250D03*
X19750Y170750D03*
X56750Y324400D03*
X61750Y212250D03*
X63250Y279250D03*
X64250Y110250D03*
X65250Y69250D03*
X153750Y185549D03*
X160250Y158750D03*
X178726Y177250D03*
X194750Y158250D03*
X214750Y298750D03*
X273250Y227750D03*
X283250Y317250D03*
D02*
D28*
X180750Y169750D03*
X0Y0D02*
M02*
